<svg width="24" height="24" viewBox="0 0 24 24" fill="none" xmlns="http://www.w3.org/2000/svg">
<rect y="3.42999" width="24" height="17.1429" rx="2" fill="white"/>
<mask id="mask0_340_9323" style="mask-type:luminance" maskUnits="userSpaceOnUse" x="0" y="3" width="24" height="18">
<rect y="3.42999" width="24" height="17.1429" rx="2" fill="white"/>
</mask>
<g mask="url(#mask0_340_9323)">
<path fill-rule="evenodd" clip-rule="evenodd" d="M24 3.42999H0V4.57285H24V3.42999ZM24 5.71571H0V6.85856H24V5.71571ZM0 8.00142H24V9.14428H0V8.00142ZM24 10.2871H0V11.43H24V10.2871ZM0 12.5729H24V13.7157H0V12.5729ZM24 14.8586H0V16.0014H24V14.8586ZM0 17.1443H24V18.2871H0V17.1443ZM24 19.43H0V20.5728H24V19.43Z" fill="#D02F44"/>
<rect y="3.42999" width="10.2857" height="8" fill="#46467F"/>
<g filter="url(#filter0_d_340_9323)">
<path fill-rule="evenodd" clip-rule="evenodd" d="M2.28544 5.14427C2.28544 5.45987 2.0296 5.7157 1.71401 5.7157C1.39842 5.7157 1.14258 5.45987 1.14258 5.14427C1.14258 4.82868 1.39842 4.57285 1.71401 4.57285C2.0296 4.57285 2.28544 4.82868 2.28544 5.14427ZM4.57115 5.14427C4.57115 5.45987 4.31531 5.7157 3.99972 5.7157C3.68413 5.7157 3.42829 5.45987 3.42829 5.14427C3.42829 4.82868 3.68413 4.57285 3.99972 4.57285C4.31531 4.57285 4.57115 4.82868 4.57115 5.14427ZM6.28544 5.7157C6.60103 5.7157 6.85686 5.45987 6.85686 5.14427C6.85686 4.82868 6.60103 4.57285 6.28544 4.57285C5.96984 4.57285 5.71401 4.82868 5.71401 5.14427C5.71401 5.45987 5.96984 5.7157 6.28544 5.7157ZM9.14258 5.14427C9.14258 5.45987 8.88674 5.7157 8.57115 5.7157C8.25556 5.7157 7.99972 5.45987 7.99972 5.14427C7.99972 4.82868 8.25556 4.57285 8.57115 4.57285C8.88674 4.57285 9.14258 4.82868 9.14258 5.14427ZM2.85686 6.85856C3.17246 6.85856 3.42829 6.60272 3.42829 6.28713C3.42829 5.97154 3.17246 5.7157 2.85686 5.7157C2.54127 5.7157 2.28544 5.97154 2.28544 6.28713C2.28544 6.60272 2.54127 6.85856 2.85686 6.85856ZM5.71401 6.28713C5.71401 6.60272 5.45817 6.85856 5.14258 6.85856C4.82699 6.85856 4.57115 6.60272 4.57115 6.28713C4.57115 5.97154 4.82699 5.7157 5.14258 5.7157C5.45817 5.7157 5.71401 5.97154 5.71401 6.28713ZM7.42829 6.85856C7.74388 6.85856 7.99972 6.60272 7.99972 6.28713C7.99972 5.97154 7.74388 5.7157 7.42829 5.7157C7.1127 5.7157 6.85686 5.97154 6.85686 6.28713C6.85686 6.60272 7.1127 6.85856 7.42829 6.85856ZM9.14258 7.42999C9.14258 7.74558 8.88674 8.00142 8.57115 8.00142C8.25556 8.00142 7.99972 7.74558 7.99972 7.42999C7.99972 7.1144 8.25556 6.85856 8.57115 6.85856C8.88674 6.85856 9.14258 7.1144 9.14258 7.42999ZM6.28544 8.00142C6.60103 8.00142 6.85686 7.74558 6.85686 7.42999C6.85686 7.1144 6.60103 6.85856 6.28544 6.85856C5.96984 6.85856 5.71401 7.1144 5.71401 7.42999C5.71401 7.74558 5.96984 8.00142 6.28544 8.00142ZM4.57115 7.42999C4.57115 7.74558 4.31531 8.00142 3.99972 8.00142C3.68413 8.00142 3.42829 7.74558 3.42829 7.42999C3.42829 7.1144 3.68413 6.85856 3.99972 6.85856C4.31531 6.85856 4.57115 7.1144 4.57115 7.42999ZM1.71401 8.00142C2.0296 8.00142 2.28544 7.74558 2.28544 7.42999C2.28544 7.1144 2.0296 6.85856 1.71401 6.85856C1.39842 6.85856 1.14258 7.1144 1.14258 7.42999C1.14258 7.74558 1.39842 8.00142 1.71401 8.00142ZM3.42829 8.57285C3.42829 8.88844 3.17246 9.14427 2.85686 9.14427C2.54127 9.14427 2.28544 8.88844 2.28544 8.57285C2.28544 8.25725 2.54127 8.00142 2.85686 8.00142C3.17246 8.00142 3.42829 8.25725 3.42829 8.57285ZM5.14258 9.14427C5.45817 9.14427 5.71401 8.88844 5.71401 8.57285C5.71401 8.25725 5.45817 8.00142 5.14258 8.00142C4.82699 8.00142 4.57115 8.25725 4.57115 8.57285C4.57115 8.88844 4.82699 9.14427 5.14258 9.14427ZM7.99972 8.57285C7.99972 8.88844 7.74388 9.14427 7.42829 9.14427C7.1127 9.14427 6.85686 8.88844 6.85686 8.57285C6.85686 8.25725 7.1127 8.00142 7.42829 8.00142C7.74388 8.00142 7.99972 8.25725 7.99972 8.57285ZM8.57115 10.2871C8.88674 10.2871 9.14258 10.0313 9.14258 9.7157C9.14258 9.40011 8.88674 9.14427 8.57115 9.14427C8.25556 9.14427 7.99972 9.40011 7.99972 9.7157C7.99972 10.0313 8.25556 10.2871 8.57115 10.2871ZM6.85686 9.7157C6.85686 10.0313 6.60103 10.2871 6.28544 10.2871C5.96984 10.2871 5.71401 10.0313 5.71401 9.7157C5.71401 9.40011 5.96984 9.14427 6.28544 9.14427C6.60103 9.14427 6.85686 9.40011 6.85686 9.7157ZM3.99972 10.2871C4.31531 10.2871 4.57115 10.0313 4.57115 9.7157C4.57115 9.40011 4.31531 9.14427 3.99972 9.14427C3.68413 9.14427 3.42829 9.40011 3.42829 9.7157C3.42829 10.0313 3.68413 10.2871 3.99972 10.2871ZM2.28544 9.7157C2.28544 10.0313 2.0296 10.2871 1.71401 10.2871C1.39842 10.2871 1.14258 10.0313 1.14258 9.7157C1.14258 9.40011 1.39842 9.14427 1.71401 9.14427C2.0296 9.14427 2.28544 9.40011 2.28544 9.7157Z" fill="url(#paint0_linear_340_9323)"/>
</g>
</g>
<defs>
<filter id="filter0_d_340_9323" x="1.14258" y="4.57285" width="8" height="6.71429" filterUnits="userSpaceOnUse" color-interpolation-filters="sRGB">
<feFlood flood-opacity="0" result="BackgroundImageFix"/>
<feColorMatrix in="SourceAlpha" type="matrix" values="0 0 0 0 0 0 0 0 0 0 0 0 0 0 0 0 0 0 127 0" result="hardAlpha"/>
<feOffset dy="1"/>
<feColorMatrix type="matrix" values="0 0 0 0 0 0 0 0 0 0 0 0 0 0 0 0 0 0 0.06 0"/>
<feBlend mode="normal" in2="BackgroundImageFix" result="effect1_dropShadow_340_9323"/>
<feBlend mode="normal" in="SourceGraphic" in2="effect1_dropShadow_340_9323" result="shape"/>
</filter>
<linearGradient id="paint0_linear_340_9323" x1="1.14258" y1="4.57285" x2="1.14258" y2="10.2871" gradientUnits="userSpaceOnUse">
<stop stop-color="white"/>
<stop offset="1" stop-color="#F0F0F0"/>
</linearGradient>
</defs>
</svg>
