<svg width="24" height="25" viewBox="0 0 24 25" fill="currentColor" xmlns="http://www.w3.org/2000/svg">
    <path
        d="M4.52024 20.9846H4V21.5063H17.5542V20.9846H17.2611V18.4933C17.2611 18.4459 17.2422 18.4004 17.2087 18.3668C17.1752 18.3333 17.1297 18.3145 17.0823 18.3145H15.0702C15.0228 18.3145 14.9773 18.3333 14.9438 18.3668C14.9102 18.4004 14.8914 18.4459 14.8914 18.4933V20.9846H11.1032V17.4542C11.1028 17.3911 11.0774 17.3308 11.0327 17.2863C10.9879 17.2418 10.9274 17.2168 10.8643 17.2168H6.92216C6.85906 17.2168 6.79852 17.2418 6.75376 17.2863C6.70901 17.3308 6.68367 17.3911 6.68328 17.4542V20.9846H4V3.87956C4.00822 3.78249 4.05084 3.69154 4.12017 3.6231C4.19773 3.5449 4.30313 3.50064 4.41326 3.5H13.3688C13.4233 3.50015 13.4773 3.51111 13.5276 3.53224C13.5779 3.55337 13.6236 3.58425 13.6619 3.6231L13.6809 3.64215C13.749 3.71833 13.7866 3.81696 13.7864 3.91913V8.56468H18.9478C18.9938 8.56468 19.0394 8.57374 19.0819 8.59134C19.1244 8.60894 19.163 8.63474 19.1955 8.66726C19.228 8.69947 19.2539 8.73781 19.2715 8.78008C19.2891 8.82234 19.2981 8.86768 19.2981 8.91346V21.2659C19.2981 21.3293 19.2729 21.3901 19.2281 21.4349C19.1833 21.4797 19.1226 21.5048 19.0592 21.5048H17.5542V20.9831H18.8013V9.06734H13.7879V20.9875H13.2662V4.02024H4.52024V20.9846ZM16.9094 20.9846H15.249V18.6662H16.9094V20.9846ZM16.5225 10.0932H17.8136C17.8238 10.0932 17.8326 10.1078 17.8326 10.1254V10.9622C17.8326 10.9769 17.8238 10.993 17.8136 10.993H16.5225C16.5122 10.993 16.5034 10.9798 16.5034 10.9622V10.1254C16.5034 10.1078 16.5122 10.0932 16.5225 10.0932ZM16.5225 15.8964H17.8136C17.8238 15.8964 17.8326 15.9111 17.8326 15.9272V16.764C17.8326 16.7801 17.8238 16.7962 17.8136 16.7962H16.5225C16.5122 16.7962 16.5034 16.7816 16.5034 16.764V15.9272C16.5034 15.9111 16.5122 15.8964 16.5225 15.8964ZM14.3462 15.8964H15.6359C15.6476 15.8964 15.6564 15.9111 15.6564 15.9272V16.764C15.6564 16.7801 15.6476 16.7962 15.6359 16.7962H14.3462C14.3345 16.7962 14.3257 16.7816 14.3257 16.764V15.9272C14.3257 15.9111 14.3345 15.8964 14.3462 15.8964ZM16.5225 13.962H17.8136C17.8238 13.962 17.8326 13.9767 17.8326 13.9943V14.831C17.8326 14.8472 17.8238 14.8633 17.8136 14.8633H16.5225C16.5122 14.8633 16.5034 14.8486 16.5034 14.831V13.9943C16.5034 13.9752 16.5122 13.962 16.5225 13.962ZM16.5225 12.0276H17.8136C17.8238 12.0276 17.8326 12.0422 17.8326 12.0598V12.8966C17.8326 12.9127 17.8238 12.9289 17.8136 12.9289H16.5225C16.5122 12.9289 16.5034 12.9142 16.5034 12.8966V12.0598C16.5034 12.0422 16.5122 12.0276 16.5225 12.0276ZM14.3462 10.0932H15.6359C15.6476 10.0932 15.6564 10.1078 15.6564 10.1254V10.9622C15.6564 10.9769 15.6476 10.993 15.6359 10.993H14.3462C14.3345 10.993 14.3257 10.9798 14.3257 10.9622V10.1254C14.3257 10.1078 14.3345 10.0932 14.3462 10.0932ZM14.3462 13.962H15.6359C15.6476 13.962 15.6564 13.9767 15.6564 13.9943V14.831C15.6564 14.8472 15.6476 14.8633 15.6359 14.8633H14.3462C14.3345 14.8633 14.3257 14.8486 14.3257 14.831V13.9943C14.3257 13.9752 14.3345 13.962 14.3462 13.962ZM14.3462 12.0276H15.6359C15.6476 12.0276 15.6564 12.0422 15.6564 12.0598V12.8966C15.6564 12.9127 15.6476 12.9289 15.6359 12.9289H14.3462C14.3345 12.9289 14.3257 12.9142 14.3257 12.8966V12.0598C14.3257 12.0422 14.3345 12.0276 14.3462 12.0276ZM10.6254 20.9846H7.16103V17.6931H10.6254V20.9846ZM5.77762 5.33331H7.18154C7.19192 5.33367 7.20178 5.33796 7.20912 5.3453C7.21646 5.35264 7.22075 5.3625 7.22111 5.37288V6.77827C7.22075 6.78864 7.21646 6.7985 7.20912 6.80584C7.20178 6.81318 7.19192 6.81747 7.18154 6.81783H5.77762C5.76724 6.81747 5.75739 6.81318 5.75005 6.80584C5.7427 6.7985 5.73842 6.78864 5.73805 6.77827V5.37288C5.73842 5.3625 5.7427 5.35264 5.75005 5.3453C5.75739 5.33796 5.76724 5.33367 5.77762 5.33331ZM10.6049 5.33331H12.0088C12.0192 5.33367 12.029 5.33796 12.0364 5.3453C12.0437 5.35264 12.048 5.3625 12.0484 5.37288V6.77827C12.048 6.78864 12.0437 6.7985 12.0364 6.80584C12.029 6.81318 12.0192 6.81747 12.0088 6.81783H10.6049C10.5945 6.81747 10.5847 6.81318 10.5773 6.80584C10.57 6.7985 10.5657 6.78864 10.5653 6.77827V5.37288C10.5657 5.3625 10.57 5.35264 10.5773 5.3453C10.5847 5.33796 10.5945 5.33367 10.6049 5.33331ZM8.19126 5.33331H9.59518C9.60556 5.33367 9.61541 5.33796 9.62276 5.3453C9.6301 5.35264 9.63438 5.3625 9.63475 5.37288V6.77827C9.63438 6.78864 9.6301 6.7985 9.62276 6.80584C9.61541 6.81318 9.60556 6.81747 9.59518 6.81783H8.19126C8.18088 6.81747 8.17102 6.81318 8.16368 6.80584C8.15634 6.7985 8.15205 6.78864 8.15169 6.77827V5.37288C8.15205 5.3625 8.15634 5.35264 8.16368 5.3453C8.17102 5.33796 8.18088 5.33367 8.19126 5.33331ZM5.77762 8.37563H7.18154C7.19192 8.376 7.20178 8.38028 7.20912 8.38763C7.21646 8.39497 7.22075 8.40482 7.22111 8.4152V9.82059C7.22075 9.83097 7.21646 9.84082 7.20912 9.84817C7.20178 9.85551 7.19192 9.85979 7.18154 9.86016H5.77762C5.76724 9.85979 5.75739 9.85551 5.75005 9.84817C5.7427 9.84082 5.73842 9.83097 5.73805 9.82059V8.4152C5.73842 8.40482 5.7427 8.39497 5.75005 8.38763C5.75739 8.38028 5.76724 8.376 5.77762 8.37563ZM10.6049 8.37563H12.0088C12.0192 8.376 12.029 8.38028 12.0364 8.38763C12.0437 8.39497 12.048 8.40482 12.0484 8.4152V9.82059C12.048 9.83097 12.0437 9.84082 12.0364 9.84817C12.029 9.85551 12.0192 9.85979 12.0088 9.86016H10.6049C10.5945 9.85979 10.5847 9.85551 10.5773 9.84817C10.57 9.84082 10.5657 9.83097 10.5653 9.82059V8.4152C10.5657 8.40482 10.57 8.39497 10.5773 8.38763C10.5847 8.38028 10.5945 8.376 10.6049 8.37563ZM8.19126 8.37563H9.59518C9.60556 8.376 9.61541 8.38028 9.62276 8.38763C9.6301 8.39497 9.63438 8.40482 9.63475 8.4152V9.82059C9.63438 9.83097 9.6301 9.84082 9.62276 9.84817C9.61541 9.85551 9.60556 9.85979 9.59518 9.86016H8.19126C8.18088 9.85979 8.17102 9.85551 8.16368 9.84817C8.15634 9.84082 8.15205 9.83097 8.15169 9.82059V8.4152C8.15205 8.40482 8.15634 8.39497 8.16368 8.38763C8.17102 8.38028 8.18088 8.376 8.19126 8.37563ZM5.77762 14.4603H7.18154C7.19204 14.4603 7.2021 14.4645 7.20952 14.4719C7.21694 14.4793 7.22111 14.4894 7.22111 14.4999V15.9038C7.22111 15.9143 7.21694 15.9243 7.20952 15.9318C7.2021 15.9392 7.19204 15.9433 7.18154 15.9433H5.77762C5.76713 15.9433 5.75706 15.9392 5.74964 15.9318C5.74222 15.9243 5.73805 15.9143 5.73805 15.9038V14.4999C5.73805 14.4894 5.74222 14.4793 5.74964 14.4719C5.75706 14.4645 5.76713 14.4603 5.77762 14.4603ZM10.6049 14.4603H12.0088C12.0193 14.4603 12.0294 14.4645 12.0368 14.4719C12.0442 14.4793 12.0484 14.4894 12.0484 14.4999V15.9038C12.0484 15.9143 12.0442 15.9243 12.0368 15.9318C12.0294 15.9392 12.0193 15.9433 12.0088 15.9433H10.6049C10.5944 15.9433 10.5843 15.9392 10.5769 15.9318C10.5695 15.9243 10.5653 15.9143 10.5653 15.9038V14.4999C10.5653 14.4894 10.5695 14.4793 10.5769 14.4719C10.5843 14.4645 10.5944 14.4603 10.6049 14.4603ZM8.19126 14.4603H9.59518C9.60568 14.4603 9.61574 14.4645 9.62316 14.4719C9.63058 14.4793 9.63475 14.4894 9.63475 14.4999V15.9038C9.63475 15.9143 9.63058 15.9243 9.62316 15.9318C9.61574 15.9392 9.60568 15.9433 9.59518 15.9433H8.19126C8.18076 15.9433 8.1707 15.9392 8.16328 15.9318C8.15586 15.9243 8.15169 15.9143 8.15169 15.9038V14.4999C8.15169 14.4894 8.15586 14.4793 8.16328 14.4719C8.1707 14.4645 8.18076 14.4603 8.19126 14.4603ZM5.77762 11.4121H7.18154C7.19204 11.4121 7.2021 11.4163 7.20952 11.4237C7.21694 11.4311 7.22111 11.4412 7.22111 11.4517V12.8629C7.22075 12.8733 7.21646 12.8831 7.20912 12.8905C7.20178 12.8978 7.19192 12.9021 7.18154 12.9025H5.77762C5.76724 12.9021 5.75739 12.8978 5.75005 12.8905C5.7427 12.8831 5.73842 12.8733 5.73805 12.8629V11.4575C5.73805 11.447 5.74222 11.437 5.74964 11.4295C5.75706 11.4221 5.76713 11.418 5.77762 11.418V11.4121ZM10.6049 11.4121H12.0088C12.0193 11.4121 12.0294 11.4163 12.0368 11.4237C12.0442 11.4311 12.0484 11.4412 12.0484 11.4517V12.8629C12.048 12.8733 12.0437 12.8831 12.0364 12.8905C12.029 12.8978 12.0192 12.9021 12.0088 12.9025H10.6049C10.5945 12.9021 10.5847 12.8978 10.5773 12.8905C10.57 12.8831 10.5657 12.8733 10.5653 12.8629V11.4575C10.5653 11.447 10.5695 11.437 10.5769 11.4295C10.5843 11.4221 10.5944 11.418 10.6049 11.418V11.4121ZM8.19126 11.4121H9.59518C9.60568 11.4121 9.61574 11.4163 9.62316 11.4237C9.63058 11.4311 9.63475 11.4412 9.63475 11.4517V12.8629C9.63438 12.8733 9.6301 12.8831 9.62276 12.8905C9.61541 12.8978 9.60556 12.9021 9.59518 12.9025H8.19126C8.18088 12.9021 8.17102 12.8978 8.16368 12.8905C8.15634 12.8831 8.15205 12.8733 8.15169 12.8629V11.4575C8.15084 11.4519 8.15123 11.4461 8.15284 11.4406C8.15444 11.4351 8.15722 11.43 8.16098 11.4257C8.16474 11.4214 8.1694 11.4179 8.17463 11.4156C8.17985 11.4132 8.18553 11.412 8.19126 11.4121Z"
        fill="currentColor" />
</svg>