<svg width="30" height="20" viewBox="0 0 30 20" fill="none" xmlns="http://www.w3.org/2000/svg">
    <path fill-rule="evenodd" clip-rule="evenodd"
        d="M13.4528 2.37917C13.8165 2.74279 13.8165 3.33235 13.4528 3.69598L7.14837 10.0004L13.4528 16.3041C13.8164 16.6677 13.8165 17.2573 13.4529 17.6209C13.0893 17.9846 12.4997 17.9846 12.1361 17.621L5.17315 10.6589C4.99851 10.4843 4.9004 10.2475 4.90039 10.0005C4.90038 9.75354 4.99848 9.51669 5.17311 9.34207L12.136 2.37917C12.4996 2.01554 13.0892 2.01554 13.4528 2.37917Z"
        fill="#090909" />
    <path fill-rule="evenodd" clip-rule="evenodd"
        d="M23.9637 10.9846H6.53906V9.12231H23.9637C24.478 9.12231 24.8948 9.53919 24.8948 10.0534C24.8948 10.5677 24.478 10.9846 23.9637 10.9846Z"
        fill="black" />
</svg>