<svg width="45" height="44" viewBox="0 0 45 44" fill="none" xmlns="http://www.w3.org/2000/svg">
<rect x="0.625" width="44" height="44" rx="22" fill="#0A13FF"/>
<path d="M22.624 16.967C21.9298 16.967 21.3652 17.5316 21.3652 18.2258C21.3652 18.92 21.9298 19.4846 22.624 19.4846C23.3182 19.4846 23.8828 18.92 23.8828 18.2258C23.8828 17.5317 23.3182 16.967 22.624 16.967ZM22.624 18.8555C22.2769 18.8555 21.9943 18.5729 21.9943 18.2258C21.9943 17.8787 22.2769 17.5961 22.624 17.5961C22.9711 17.5961 23.2537 17.8787 23.2537 18.2258C23.2537 18.5729 22.9711 18.8555 22.624 18.8555Z" fill="white" stroke="white" stroke-width="0.4"/>
<path d="M29.2304 20.7418C29.4042 20.7418 29.5449 20.602 29.5449 20.4282V19.1701C29.5449 19.0592 29.4866 18.9564 29.391 18.8998L23.2381 15.2458C23.2353 15.244 23.2325 15.2424 23.2298 15.2409C22.8474 15.029 22.4161 15.0225 22.0116 15.2452L15.859 18.8998C15.8121 18.9276 15.7732 18.9672 15.7462 19.0146C15.7192 19.062 15.705 19.1156 15.7051 19.1701V20.4282C15.7051 20.602 15.8458 20.7418 16.0196 20.7418H16.9633V26.4038C16.2693 26.4038 15.7051 26.968 15.7051 27.6619V28.6054C15.7051 28.6467 15.7132 28.6876 15.729 28.7258C15.7448 28.764 15.7679 28.7986 15.7972 28.8279C15.8264 28.8571 15.8611 28.8802 15.8992 28.896C15.9374 28.9118 15.9783 28.9199 16.0196 28.9199H29.2304C29.2717 28.9199 29.3126 28.9118 29.3508 28.896C29.3889 28.8802 29.4236 28.8571 29.4528 28.8279C29.4821 28.7986 29.5052 28.764 29.521 28.7258C29.5368 28.6876 29.5449 28.6467 29.5449 28.6054V27.6619C29.5449 26.968 28.9807 26.4038 28.2867 26.4038V20.7418H29.2304ZM28.9158 27.6617V28.2908H16.3342V27.6617C16.3342 27.315 16.6164 27.0327 16.9632 27.0327H28.2867C28.6335 27.0326 28.9158 27.3149 28.9158 27.6617ZM17.5923 26.4036V20.7418H18.8505V26.4036H17.5923ZM19.4796 26.4036V20.7418H21.3668V26.4036H19.4796ZM21.9959 26.4036V20.7418H23.2541V26.4036H21.9959ZM23.8831 26.4036V20.7418H25.7704V26.4036H23.8831ZM26.3995 26.4036V20.7418H27.6577V26.4036H26.3995ZM16.3342 20.1127V19.3482L22.3237 15.7899C22.5196 15.6821 22.7279 15.6824 22.9214 15.7878L28.9158 19.3482V20.1127H16.3342Z" fill="white" stroke="white" stroke-width="0.4"/>
</svg>
