<svg width="45" height="44" viewBox="0 0 45 44" fill="none" xmlns="http://www.w3.org/2000/svg">
<rect x="0.875" width="44" height="44" rx="22" fill="#0582CA"/>
<g clip-path="url(#clip0_484_11282)">
<path d="M27.2381 21.575C27.582 21.7032 27.8807 21.8007 28.1677 21.9243C30.295 22.8449 31.0883 25.3964 29.8789 27.3811C29.1037 28.6537 27.9168 29.2863 26.5107 29.5833C25.8365 29.725 25.8356 29.7159 25.8419 30.4199C25.8464 30.9308 25.841 31.4425 25.8545 31.9533C25.8626 32.2521 25.7597 32.3983 25.4384 32.3893C24.9276 32.3739 24.4159 32.3757 23.905 32.3875C23.609 32.3947 23.5043 32.2629 23.5097 31.9804C23.5196 31.4091 23.5052 30.8369 23.5196 30.2665C23.5269 29.9578 23.4077 29.8477 23.0964 29.8405C22.2507 29.8215 22.2507 29.8098 22.2453 30.6456C22.2426 31.0968 22.2371 31.5481 22.2453 31.9994C22.2498 32.2647 22.1415 32.3829 21.8707 32.3775C21.3445 32.3676 20.8183 32.3667 20.2913 32.3748C20.0377 32.3793 19.9501 32.2774 19.9564 32.0246C19.97 31.4533 19.9411 30.8811 19.9627 30.3107C19.9763 29.9569 19.8508 29.8342 19.497 29.8387C18.2939 29.8531 17.0909 29.8297 15.8878 29.8504C15.4636 29.8576 15.2795 29.725 15.3074 29.2854C15.3336 28.8658 15.3192 28.4434 15.312 28.0228C15.3065 27.7078 15.4257 27.5742 15.7632 27.5652C17.1134 27.5282 17.1703 27.4614 17.1712 26.1004C17.1739 23.2881 17.1739 20.4758 17.1712 17.6634C17.1712 16.6454 16.9717 16.4459 15.969 16.4306C15.3183 16.4207 15.3147 16.417 15.3129 15.7762C15.312 15.3999 15.3264 15.0235 15.3084 14.6481C15.2903 14.2735 15.4546 14.1472 15.8174 14.1517C17.0205 14.1652 18.2236 14.1435 19.4266 14.1652C19.8409 14.1724 19.9898 14.0389 19.9636 13.621C19.9321 13.1119 19.9727 12.5984 19.9519 12.0876C19.9375 11.7284 20.0882 11.6029 20.4303 11.6146C20.8662 11.6291 21.303 11.6345 21.738 11.6146C22.1397 11.5957 22.2669 11.7762 22.2516 12.1553C22.2317 12.6661 22.2615 13.1778 22.2426 13.6887C22.2299 14.0398 22.3626 14.1923 22.7146 14.1598C22.8491 14.1472 22.9853 14.1508 23.1207 14.1589C23.4113 14.1751 23.5242 14.0379 23.5205 13.7536C23.5124 13.2121 23.5332 12.6706 23.5187 12.13C23.5088 11.7735 23.628 11.5993 24.0097 11.6155C24.4754 11.6354 24.942 11.6282 25.4078 11.6191C25.7119 11.6128 25.8455 11.7401 25.841 12.0479C25.8329 12.6192 25.859 13.1914 25.8383 13.7618C25.8247 14.121 25.9141 14.2961 26.313 14.3538C27.0946 14.4676 27.8184 14.7609 28.4574 15.2428C30.3022 16.6318 30.3356 19.3566 28.5089 20.77C28.1334 21.0606 27.7038 21.2835 27.2381 21.576V21.575ZM21.1496 24.9424H21.1622C21.1622 25.5291 21.1622 26.1157 21.1622 26.7015C21.1622 27.0345 21.3319 27.2042 21.6586 27.2123C22.0494 27.2222 22.4429 27.2547 22.831 27.2213C23.5449 27.1591 24.2796 27.1419 24.9601 26.947C25.8581 26.6897 26.3798 25.6987 26.2814 24.7186C26.1921 23.8305 25.5729 23.1193 24.6226 23.0191C23.5801 22.909 22.5241 22.9307 21.4745 22.8946C21.2073 22.8855 21.1487 23.048 21.1496 23.2727C21.1523 23.8296 21.1505 24.3856 21.1505 24.9424H21.1496ZM21.155 18.612H21.1568C21.1568 19.1075 21.1604 19.603 21.155 20.0976C21.1523 20.3341 21.2389 20.4703 21.4944 20.4595C22.4673 20.418 23.4465 20.4324 24.4114 20.3223C25.4321 20.2059 25.9854 19.4685 25.9547 18.4469C25.9276 17.5669 25.3274 16.9595 24.3049 16.8791C23.3942 16.8069 22.4763 16.8196 21.562 16.7835C21.2416 16.7708 21.1415 16.9161 21.1505 17.2158C21.1649 17.6806 21.1541 18.1463 21.1541 18.6111L21.155 18.612Z" fill="white"/>
</g>
<defs>
<clipPath id="clip0_484_11282">
<rect width="15.1419" height="20.7773" fill="white" transform="translate(15.3047 11.6113)"/>
</clipPath>
</defs>
</svg>
