<svg width="15" height="11" viewBox="0 0 15 11" fill="none" xmlns="http://www.w3.org/2000/svg">
<path d="M1.17592 6.14212C1.08512 5.99836 1.03973 5.92648 1.01432 5.81561C0.995228 5.73233 0.995228 5.601 1.01432 5.51772C1.03973 5.40685 1.08512 5.33497 1.17591 5.19121C1.92619 4.00323 4.15943 1 7.56277 1C10.9661 1 13.1994 4.00323 13.9496 5.19121C14.0404 5.33497 14.0858 5.40685 14.1112 5.51772C14.1303 5.601 14.1303 5.73233 14.1112 5.81561C14.0858 5.92648 14.0404 5.99836 13.9496 6.14212C13.1994 7.33011 10.9661 10.3333 7.56277 10.3333C4.15943 10.3333 1.92619 7.33011 1.17592 6.14212Z" stroke="#0582CA" stroke-linecap="round" stroke-linejoin="round"/>
<path d="M7.56277 7.66667C8.66734 7.66667 9.56277 6.77124 9.56277 5.66667C9.56277 4.5621 8.66734 3.66667 7.56277 3.66667C6.4582 3.66667 5.56277 4.5621 5.56277 5.66667C5.56277 6.77124 6.4582 7.66667 7.56277 7.66667Z" stroke="#0582CA" stroke-linecap="round" stroke-linejoin="round"/>
</svg>
