<svg width="44" height="45" viewBox="0 0 44 45" fill="none" xmlns="http://www.w3.org/2000/svg">
<rect x="0.5" y="1.22705" width="43.002" height="43" rx="21.5" fill="#F9FBFF"/>
<rect x="0.5" y="1.22705" width="43.002" height="43" rx="21.5" stroke="#E3ECFF"/>
<path d="M21.3333 23.0604H22.6667V27.3937M15 20.0604H29.6667M25.6667 17.3937V14.7271M19 17.3937V14.7271M16.3333 30.7271H28.3333C28.687 30.7271 29.0261 30.5866 29.2761 30.3365C29.5262 30.0865 29.6667 29.7473 29.6667 29.3937V17.3937C29.6667 17.0401 29.5262 16.701 29.2761 16.4509C29.0261 16.2009 28.687 16.0604 28.3333 16.0604H16.3333C15.9797 16.0604 15.6406 16.2009 15.3905 16.4509C15.1405 16.701 15 17.0401 15 17.3937V29.3937C15 29.7473 15.1405 30.0865 15.3905 30.3365C15.6406 30.5866 15.9797 30.7271 16.3333 30.7271Z" stroke="#0582CA" stroke-width="0.8"/>
</svg>
