<svg width="12" height="14" viewBox="0 0 12 14" fill="none" xmlns="http://www.w3.org/2000/svg">
<path d="M2.24143 13.5174C1.85857 13.5174 1.532 13.3825 1.26171 13.1128C0.992 12.8431 0.857143 12.5165 0.857143 12.1331V1.51739H0V0.660244H3.42857V0.000244141H8.57143V0.660244H12V1.51739H11.1429V12.1331C11.1429 12.5274 11.0109 12.8565 10.7469 13.1205C10.4823 13.3851 10.1529 13.5174 9.75857 13.5174H2.24143ZM10.2857 1.51739H1.71429V12.1331C1.71429 12.2868 1.76371 12.4131 1.86257 12.512C1.96143 12.6108 2.08771 12.6602 2.24143 12.6602H9.75857C9.89 12.6602 10.0109 12.6054 10.1211 12.4957C10.2309 12.3854 10.2857 12.2645 10.2857 12.1331V1.51739ZM4.12114 10.946H4.97829V3.23167H4.12114V10.946ZM7.02171 10.946H7.87886V3.23167H7.02171V10.946Z" fill="#0582CA"/>
</svg>
