<svg width="350" height="20" viewBox="0 0 362 20" fill="none" xmlns="http://www.w3.org/2000/svg">
<line x1="0.523437" y1="9.5" x2="157.023" y2="9.49999" stroke="#E2E8F0" stroke-linecap="round"/>
<path d="M174.638 11.3838V11.2266C174.638 10.6934 174.716 10.1989 174.871 9.74316C175.025 9.28288 175.249 8.88411 175.54 8.54688C175.832 8.20508 176.185 7.94076 176.6 7.75391C177.015 7.5625 177.48 7.4668 177.995 7.4668C178.514 7.4668 178.981 7.5625 179.396 7.75391C179.815 7.94076 180.171 8.20508 180.462 8.54688C180.759 8.88411 180.984 9.28288 181.139 9.74316C181.294 10.1989 181.371 10.6934 181.371 11.2266V11.3838C181.371 11.917 181.294 12.4115 181.139 12.8672C180.984 13.3229 180.759 13.7217 180.462 14.0635C180.171 14.4007 179.817 14.665 179.403 14.8564C178.993 15.0433 178.528 15.1367 178.008 15.1367C177.489 15.1367 177.022 15.0433 176.607 14.8564C176.192 14.665 175.837 14.4007 175.54 14.0635C175.249 13.7217 175.025 13.3229 174.871 12.8672C174.716 12.4115 174.638 11.917 174.638 11.3838ZM175.903 11.2266V11.3838C175.903 11.7529 175.946 12.1016 176.033 12.4297C176.119 12.7533 176.249 13.0404 176.422 13.291C176.6 13.5417 176.821 13.7399 177.085 13.8857C177.35 14.027 177.657 14.0977 178.008 14.0977C178.355 14.0977 178.658 14.027 178.917 13.8857C179.182 13.7399 179.4 13.5417 179.574 13.291C179.747 13.0404 179.877 12.7533 179.963 12.4297C180.054 12.1016 180.1 11.7529 180.1 11.3838V11.2266C180.1 10.862 180.054 10.5179 179.963 10.1943C179.877 9.86621 179.745 9.57682 179.567 9.32617C179.394 9.07096 179.175 8.87044 178.911 8.72461C178.651 8.57878 178.345 8.50586 177.995 8.50586C177.648 8.50586 177.343 8.57878 177.079 8.72461C176.819 8.87044 176.6 9.07096 176.422 9.32617C176.249 9.57682 176.119 9.86621 176.033 10.1943C175.946 10.5179 175.903 10.862 175.903 11.2266ZM184.522 8.76562V15H183.257V7.60352H184.488L184.522 8.76562ZM186.833 7.5625L186.826 8.73828C186.721 8.71549 186.621 8.70182 186.525 8.69727C186.434 8.68815 186.329 8.68359 186.211 8.68359C185.919 8.68359 185.661 8.72917 185.438 8.82031C185.215 8.91146 185.026 9.03906 184.871 9.20312C184.716 9.36719 184.593 9.56315 184.502 9.79102C184.415 10.0143 184.358 10.2604 184.331 10.5293L183.975 10.7344C183.975 10.2878 184.018 9.86849 184.105 9.47656C184.196 9.08464 184.335 8.73828 184.522 8.4375C184.709 8.13216 184.946 7.89518 185.233 7.72656C185.525 7.55339 185.871 7.4668 186.272 7.4668C186.363 7.4668 186.468 7.47819 186.587 7.50098C186.705 7.51921 186.787 7.53971 186.833 7.5625Z" fill="#0E0800"/>
<line x1="204.023" y1="9.5" x2="360.523" y2="9.49999" stroke="#E2E8F0" stroke-linecap="round"/>
</svg>
