<svg width="135" height="86" viewBox="0 0 135 86" fill="none" xmlns="http://www.w3.org/2000/svg">
<g opacity="0.25" clip-path="url(#clip0_484_12018)">
<circle cx="1.05187" cy="1.05187" r="1.05187" transform="matrix(5.75354e-08 -1 -1 -5.7612e-08 105.186 4.64551)" fill="#DEDEDE"/>
<circle cx="1.05187" cy="1.05187" r="1.05187" transform="matrix(0 -1 -1 -8.43498e-08 127.275 4.64551)" fill="#DEDEDE"/>
<circle cx="1.05187" cy="1.05187" r="1.05187" transform="matrix(0 -1 -1 0 119.914 4.64551)" fill="#DEDEDE"/>
<circle cx="1.05187" cy="1.05187" r="1.05187" transform="matrix(0 -1 -1 -5.16535e-08 112.549 4.64551)" fill="#DEDEDE"/>
<circle cx="1.05187" cy="1.05187" r="1.05187" transform="matrix(0 -1 -1 0 134.639 4.64551)" fill="#DEDEDE"/>
<circle cx="1.05187" cy="1.05187" r="1.05187" transform="matrix(5.75354e-08 -1 -1 -5.7612e-08 97.8242 4.64551)" fill="#DEDEDE"/>
<circle cx="1.05187" cy="1.05187" r="1.05187" transform="matrix(5.75354e-08 -1 -1 -5.7612e-08 90.4609 4.64551)" fill="#DEDEDE"/>
<circle cx="1.05187" cy="1.05187" r="1.05187" transform="matrix(5.75354e-08 -1 -1 -5.7612e-08 83.0977 4.64551)" fill="#DEDEDE"/>
<circle cx="1.05187" cy="1.05187" r="1.05187" transform="matrix(5.75354e-08 -1 -1 -5.7612e-08 75.7344 4.64551)" fill="#DEDEDE"/>
<circle cx="1.05187" cy="1.05187" r="1.05187" transform="matrix(5.75354e-08 -1 -1 -5.7612e-08 68.3711 4.64551)" fill="#DEDEDE"/>
<circle cx="1.05187" cy="1.05187" r="1.05187" transform="matrix(5.75354e-08 -1 -1 -5.7612e-08 61.0078 4.64551)" fill="#DEDEDE"/>
<circle cx="1.05187" cy="1.05187" r="1.05187" transform="matrix(5.75354e-08 -1 -1 -5.7612e-08 53.6445 4.64551)" fill="#DEDEDE"/>
<circle cx="1.05187" cy="1.05187" r="1.05187" transform="matrix(5.75354e-08 -1 -1 -5.7612e-08 46.2812 4.64551)" fill="#DEDEDE"/>
<circle cx="1.05187" cy="1.05187" r="1.05187" transform="matrix(5.75354e-08 -1 -1 -5.7612e-08 38.918 4.64551)" fill="#DEDEDE"/>
<circle cx="1.05187" cy="1.05187" r="1.05187" transform="matrix(5.75354e-08 -1 -1 -5.7612e-08 31.5547 4.64551)" fill="#DEDEDE"/>
<circle cx="1.05187" cy="1.05187" r="1.05187" transform="matrix(5.75354e-08 -1 -1 -5.7612e-08 24.1914 4.64551)" fill="#DEDEDE"/>
<circle cx="1.05187" cy="1.05187" r="1.05187" transform="matrix(5.75354e-08 -1 -1 -5.7612e-08 16.8301 4.64551)" fill="#DEDEDE"/>
<circle cx="1.05187" cy="1.05187" r="1.05187" transform="matrix(5.75354e-08 -1 -1 -5.7612e-08 9.46484 4.64551)" fill="#DEDEDE"/>
<circle cx="1.05187" cy="1.05187" r="1.05187" transform="matrix(5.75354e-08 -1 -1 -5.7612e-08 2.10547 4.64551)" fill="#DEDEDE"/>
<circle cx="1.05187" cy="1.05187" r="1.05187" transform="matrix(5.75354e-08 -1 -1 -5.7612e-08 105.186 12.0078)" fill="#DEDEDE"/>
<circle cx="1.05187" cy="1.05187" r="1.05187" transform="matrix(5.75354e-08 -1 -1 -5.7612e-08 105.186 19.3711)" fill="#DEDEDE"/>
<circle cx="1.05187" cy="1.05187" r="1.05187" transform="matrix(5.75354e-08 -1 -1 -5.7612e-08 105.186 26.7354)" fill="#DEDEDE"/>
<circle cx="1.05187" cy="1.05187" r="1.05187" transform="matrix(5.75354e-08 -1 -1 -5.7612e-08 105.186 34.0977)" fill="#DEDEDE"/>
<circle cx="1.05187" cy="1.05187" r="1.05187" transform="matrix(5.75354e-08 -1 -1 -5.7612e-08 105.186 41.4609)" fill="#DEDEDE"/>
<circle cx="1.05187" cy="1.05187" r="1.05187" transform="matrix(5.75354e-08 -1 -1 -5.7612e-08 105.186 48.8242)" fill="#DEDEDE"/>
<circle cx="1.05187" cy="1.05187" r="1.05187" transform="matrix(5.75354e-08 -1 -1 -5.7612e-08 105.186 56.1865)" fill="#DEDEDE"/>
<circle cx="1.05187" cy="1.05187" r="1.05187" transform="matrix(5.75354e-08 -1 -1 -5.7612e-08 105.186 63.5498)" fill="#DEDEDE"/>
<circle cx="1.05187" cy="1.05187" r="1.05187" transform="matrix(5.75354e-08 -1 -1 -5.7612e-08 105.186 70.9131)" fill="#DEDEDE"/>
<circle cx="1.05187" cy="1.05187" r="1.05187" transform="matrix(5.75354e-08 -1 -1 -5.7612e-08 105.186 78.2764)" fill="#DEDEDE"/>
<circle cx="1.05187" cy="1.05187" r="1.05187" transform="matrix(5.75354e-08 -1 -1 -5.7612e-08 105.186 85.6396)" fill="#DEDEDE"/>
<circle cx="1.05187" cy="1.05187" r="1.05187" transform="matrix(0 -1 -1 -8.43498e-08 127.275 12.0078)" fill="#DEDEDE"/>
<circle cx="1.05187" cy="1.05187" r="1.05187" transform="matrix(0 -1 -1 -8.43498e-08 127.275 19.3711)" fill="#DEDEDE"/>
<circle cx="1.05187" cy="1.05187" r="1.05187" transform="matrix(0 -1 -1 -8.43498e-08 127.275 26.7354)" fill="#DEDEDE"/>
<circle cx="1.05187" cy="1.05187" r="1.05187" transform="matrix(0 -1 -1 -8.43498e-08 127.275 34.0977)" fill="#DEDEDE"/>
<circle cx="1.05187" cy="1.05187" r="1.05187" transform="matrix(0 -1 -1 -8.43498e-08 127.275 41.4609)" fill="#DEDEDE"/>
<circle cx="1.05187" cy="1.05187" r="1.05187" transform="matrix(0 -1 -1 -8.43498e-08 127.275 48.8242)" fill="#DEDEDE"/>
<circle cx="1.05187" cy="1.05187" r="1.05187" transform="matrix(0 -1 -1 -8.43498e-08 127.275 56.1865)" fill="#DEDEDE"/>
<circle cx="1.05187" cy="1.05187" r="1.05187" transform="matrix(0 -1 -1 -8.43498e-08 127.275 63.5498)" fill="#DEDEDE"/>
<circle cx="1.05187" cy="1.05187" r="1.05187" transform="matrix(0 -1 -1 -8.43498e-08 127.275 70.9131)" fill="#DEDEDE"/>
<circle cx="1.05187" cy="1.05187" r="1.05187" transform="matrix(0 -1 -1 -8.43498e-08 127.275 78.2764)" fill="#DEDEDE"/>
<circle cx="1.05187" cy="1.05187" r="1.05187" transform="matrix(0 -1 -1 -8.43498e-08 127.275 85.6396)" fill="#DEDEDE"/>
<circle cx="1.05187" cy="1.05187" r="1.05187" transform="matrix(0 -1 -1 0 119.914 12.0078)" fill="#DEDEDE"/>
<circle cx="1.05187" cy="1.05187" r="1.05187" transform="matrix(0 -1 -1 0 119.914 19.3711)" fill="#DEDEDE"/>
<circle cx="1.05187" cy="1.05187" r="1.05187" transform="matrix(0 -1 -1 0 119.914 26.7354)" fill="#DEDEDE"/>
<circle cx="1.05187" cy="1.05187" r="1.05187" transform="matrix(0 -1 -1 0 119.914 34.0977)" fill="#DEDEDE"/>
<circle cx="1.05187" cy="1.05187" r="1.05187" transform="matrix(0 -1 -1 0 119.914 41.4609)" fill="#DEDEDE"/>
<circle cx="1.05187" cy="1.05187" r="1.05187" transform="matrix(0 -1 -1 0 119.914 48.8242)" fill="#DEDEDE"/>
<circle cx="1.05187" cy="1.05187" r="1.05187" transform="matrix(0 -1 -1 0 119.914 56.1865)" fill="#DEDEDE"/>
<circle cx="1.05187" cy="1.05187" r="1.05187" transform="matrix(0 -1 -1 0 119.914 63.5498)" fill="#DEDEDE"/>
<circle cx="1.05187" cy="1.05187" r="1.05187" transform="matrix(0 -1 -1 0 119.914 70.9131)" fill="#DEDEDE"/>
<circle cx="1.05187" cy="1.05187" r="1.05187" transform="matrix(0 -1 -1 0 119.914 78.2764)" fill="#DEDEDE"/>
<circle cx="1.05187" cy="1.05187" r="1.05187" transform="matrix(0 -1 -1 0 119.914 85.6396)" fill="#DEDEDE"/>
<circle cx="1.05187" cy="1.05187" r="1.05187" transform="matrix(0 -1 -1 -5.16535e-08 112.549 12.0078)" fill="#DEDEDE"/>
<circle cx="1.05187" cy="1.05187" r="1.05187" transform="matrix(0 -1 -1 -5.16535e-08 112.549 19.3711)" fill="#DEDEDE"/>
<circle cx="1.05187" cy="1.05187" r="1.05187" transform="matrix(0 -1 -1 -5.16535e-08 112.549 26.7354)" fill="#DEDEDE"/>
<circle cx="1.05187" cy="1.05187" r="1.05187" transform="matrix(0 -1 -1 -5.16535e-08 112.549 34.0977)" fill="#DEDEDE"/>
<circle cx="1.05187" cy="1.05187" r="1.05187" transform="matrix(0 -1 -1 -5.16535e-08 112.549 41.4609)" fill="#DEDEDE"/>
<circle cx="1.05187" cy="1.05187" r="1.05187" transform="matrix(0 -1 -1 -5.16535e-08 112.549 48.8242)" fill="#DEDEDE"/>
<circle cx="1.05187" cy="1.05187" r="1.05187" transform="matrix(0 -1 -1 -5.16535e-08 112.549 56.1865)" fill="#DEDEDE"/>
<circle cx="1.05187" cy="1.05187" r="1.05187" transform="matrix(0 -1 -1 -5.16535e-08 112.549 63.5498)" fill="#DEDEDE"/>
<circle cx="1.05187" cy="1.05187" r="1.05187" transform="matrix(0 -1 -1 -5.16535e-08 112.549 70.9131)" fill="#DEDEDE"/>
<circle cx="1.05187" cy="1.05187" r="1.05187" transform="matrix(0 -1 -1 -5.16535e-08 112.549 78.2764)" fill="#DEDEDE"/>
<circle cx="1.05187" cy="1.05187" r="1.05187" transform="matrix(0 -1 -1 -5.16535e-08 112.549 85.6396)" fill="#DEDEDE"/>
<circle cx="1.05187" cy="1.05187" r="1.05187" transform="matrix(0 -1 -1 0 134.639 12.0078)" fill="#DEDEDE"/>
<circle cx="1.05187" cy="1.05187" r="1.05187" transform="matrix(0 -1 -1 0 134.639 19.3711)" fill="#DEDEDE"/>
<circle cx="1.05187" cy="1.05187" r="1.05187" transform="matrix(0 -1 -1 0 134.639 26.7354)" fill="#DEDEDE"/>
<circle cx="1.05187" cy="1.05187" r="1.05187" transform="matrix(0 -1 -1 0 134.639 34.0977)" fill="#DEDEDE"/>
<circle cx="1.05187" cy="1.05187" r="1.05187" transform="matrix(0 -1 -1 0 134.639 41.4609)" fill="#DEDEDE"/>
<circle cx="1.05187" cy="1.05187" r="1.05187" transform="matrix(0 -1 -1 0 134.639 48.8242)" fill="#DEDEDE"/>
<circle cx="1.05187" cy="1.05187" r="1.05187" transform="matrix(0 -1 -1 0 134.639 56.1865)" fill="#DEDEDE"/>
<circle cx="1.05187" cy="1.05187" r="1.05187" transform="matrix(0 -1 -1 0 134.639 63.5498)" fill="#DEDEDE"/>
<circle cx="1.05187" cy="1.05187" r="1.05187" transform="matrix(0 -1 -1 0 134.639 70.9131)" fill="#DEDEDE"/>
<circle cx="1.05187" cy="1.05187" r="1.05187" transform="matrix(0 -1 -1 0 134.639 78.2764)" fill="#DEDEDE"/>
<circle cx="1.05187" cy="1.05187" r="1.05187" transform="matrix(0 -1 -1 0 134.639 85.6396)" fill="#DEDEDE"/>
<circle cx="1.05187" cy="1.05187" r="1.05187" transform="matrix(5.75354e-08 -1 -1 -5.7612e-08 97.8242 12.0078)" fill="#DEDEDE"/>
<circle cx="1.05187" cy="1.05187" r="1.05187" transform="matrix(5.75354e-08 -1 -1 -5.7612e-08 97.8242 19.3711)" fill="#DEDEDE"/>
<circle cx="1.05187" cy="1.05187" r="1.05187" transform="matrix(5.75354e-08 -1 -1 -5.7612e-08 97.8242 26.7354)" fill="#DEDEDE"/>
<circle cx="1.05187" cy="1.05187" r="1.05187" transform="matrix(5.75354e-08 -1 -1 -5.7612e-08 97.8242 34.0977)" fill="#DEDEDE"/>
<circle cx="1.05187" cy="1.05187" r="1.05187" transform="matrix(5.75354e-08 -1 -1 -5.7612e-08 97.8242 41.4609)" fill="#DEDEDE"/>
<circle cx="1.05187" cy="1.05187" r="1.05187" transform="matrix(5.75354e-08 -1 -1 -5.7612e-08 97.8242 48.8242)" fill="#DEDEDE"/>
<circle cx="1.05187" cy="1.05187" r="1.05187" transform="matrix(5.75354e-08 -1 -1 -5.7612e-08 97.8242 56.1865)" fill="#DEDEDE"/>
<circle cx="1.05187" cy="1.05187" r="1.05187" transform="matrix(5.75354e-08 -1 -1 -5.7612e-08 97.8242 63.5498)" fill="#DEDEDE"/>
<circle cx="1.05187" cy="1.05187" r="1.05187" transform="matrix(5.75354e-08 -1 -1 -5.7612e-08 97.8242 70.9131)" fill="#DEDEDE"/>
<circle cx="1.05187" cy="1.05187" r="1.05187" transform="matrix(5.75354e-08 -1 -1 -5.7612e-08 90.4609 12.0078)" fill="#DEDEDE"/>
<circle cx="1.05187" cy="1.05187" r="1.05187" transform="matrix(5.75354e-08 -1 -1 -5.7612e-08 90.4609 19.3711)" fill="#DEDEDE"/>
<circle cx="1.05187" cy="1.05187" r="1.05187" transform="matrix(5.75354e-08 -1 -1 -5.7612e-08 90.4609 26.7354)" fill="#DEDEDE"/>
<circle cx="1.05187" cy="1.05187" r="1.05187" transform="matrix(5.75354e-08 -1 -1 -5.7612e-08 90.4609 34.0977)" fill="#DEDEDE"/>
<circle cx="1.05187" cy="1.05187" r="1.05187" transform="matrix(5.75354e-08 -1 -1 -5.7612e-08 90.4609 41.4609)" fill="#DEDEDE"/>
<circle cx="1.05187" cy="1.05187" r="1.05187" transform="matrix(5.75354e-08 -1 -1 -5.7612e-08 90.4609 48.8242)" fill="#DEDEDE"/>
<circle cx="1.05187" cy="1.05187" r="1.05187" transform="matrix(5.75354e-08 -1 -1 -5.7612e-08 90.4609 56.1865)" fill="#DEDEDE"/>
<circle cx="1.05187" cy="1.05187" r="1.05187" transform="matrix(5.75354e-08 -1 -1 -5.7612e-08 90.4609 63.5498)" fill="#DEDEDE"/>
<circle cx="1.05187" cy="1.05187" r="1.05187" transform="matrix(5.75354e-08 -1 -1 -5.7612e-08 90.4609 70.9131)" fill="#DEDEDE"/>
<circle cx="1.05187" cy="1.05187" r="1.05187" transform="matrix(5.75354e-08 -1 -1 -5.7612e-08 83.0977 12.0078)" fill="#DEDEDE"/>
<circle cx="1.05187" cy="1.05187" r="1.05187" transform="matrix(5.75354e-08 -1 -1 -5.7612e-08 83.0977 19.3711)" fill="#DEDEDE"/>
<circle cx="1.05187" cy="1.05187" r="1.05187" transform="matrix(5.75354e-08 -1 -1 -5.7612e-08 83.0977 26.7354)" fill="#DEDEDE"/>
<circle cx="1.05187" cy="1.05187" r="1.05187" transform="matrix(5.75354e-08 -1 -1 -5.7612e-08 83.0977 34.0977)" fill="#DEDEDE"/>
<circle cx="1.05187" cy="1.05187" r="1.05187" transform="matrix(5.75354e-08 -1 -1 -5.7612e-08 83.0977 41.4609)" fill="#DEDEDE"/>
<circle cx="1.05187" cy="1.05187" r="1.05187" transform="matrix(5.75354e-08 -1 -1 -5.7612e-08 83.0977 48.8242)" fill="#DEDEDE"/>
<circle cx="1.05187" cy="1.05187" r="1.05187" transform="matrix(5.75354e-08 -1 -1 -5.7612e-08 83.0977 56.1865)" fill="#DEDEDE"/>
<circle cx="1.05187" cy="1.05187" r="1.05187" transform="matrix(5.75354e-08 -1 -1 -5.7612e-08 83.0977 63.5498)" fill="#DEDEDE"/>
<circle cx="1.05187" cy="1.05187" r="1.05187" transform="matrix(5.75354e-08 -1 -1 -5.7612e-08 83.0977 70.9131)" fill="#DEDEDE"/>
<circle cx="1.05187" cy="1.05187" r="1.05187" transform="matrix(5.75354e-08 -1 -1 -5.7612e-08 75.7344 12.0078)" fill="#DEDEDE"/>
<circle cx="1.05187" cy="1.05187" r="1.05187" transform="matrix(5.75354e-08 -1 -1 -5.7612e-08 75.7344 19.3711)" fill="#DEDEDE"/>
<circle cx="1.05187" cy="1.05187" r="1.05187" transform="matrix(5.75354e-08 -1 -1 -5.7612e-08 75.7344 26.7354)" fill="#DEDEDE"/>
<circle cx="1.05187" cy="1.05187" r="1.05187" transform="matrix(5.75354e-08 -1 -1 -5.7612e-08 75.7344 34.0977)" fill="#DEDEDE"/>
<circle cx="1.05187" cy="1.05187" r="1.05187" transform="matrix(5.75354e-08 -1 -1 -5.7612e-08 75.7344 41.4609)" fill="#DEDEDE"/>
<circle cx="1.05187" cy="1.05187" r="1.05187" transform="matrix(5.75354e-08 -1 -1 -5.7612e-08 75.7344 48.8242)" fill="#DEDEDE"/>
<circle cx="1.05187" cy="1.05187" r="1.05187" transform="matrix(5.75354e-08 -1 -1 -5.7612e-08 75.7344 56.1865)" fill="#DEDEDE"/>
<circle cx="1.05187" cy="1.05187" r="1.05187" transform="matrix(5.75354e-08 -1 -1 -5.7612e-08 75.7344 63.5498)" fill="#DEDEDE"/>
<circle cx="1.05187" cy="1.05187" r="1.05187" transform="matrix(5.75354e-08 -1 -1 -5.7612e-08 75.7344 70.9131)" fill="#DEDEDE"/>
<circle cx="1.05187" cy="1.05187" r="1.05187" transform="matrix(5.75354e-08 -1 -1 -5.7612e-08 68.3711 12.0078)" fill="#DEDEDE"/>
<circle cx="1.05187" cy="1.05187" r="1.05187" transform="matrix(5.75354e-08 -1 -1 -5.7612e-08 68.3711 19.3711)" fill="#DEDEDE"/>
<circle cx="1.05187" cy="1.05187" r="1.05187" transform="matrix(5.75354e-08 -1 -1 -5.7612e-08 68.3711 26.7354)" fill="#DEDEDE"/>
<circle cx="1.05187" cy="1.05187" r="1.05187" transform="matrix(5.75354e-08 -1 -1 -5.7612e-08 68.3711 34.0977)" fill="#DEDEDE"/>
<circle cx="1.05187" cy="1.05187" r="1.05187" transform="matrix(5.75354e-08 -1 -1 -5.7612e-08 68.3711 41.4609)" fill="#DEDEDE"/>
<circle cx="1.05187" cy="1.05187" r="1.05187" transform="matrix(5.75354e-08 -1 -1 -5.7612e-08 61.0078 12.0078)" fill="#DEDEDE"/>
<circle cx="1.05187" cy="1.05187" r="1.05187" transform="matrix(5.75354e-08 -1 -1 -5.7612e-08 61.0078 19.3711)" fill="#DEDEDE"/>
<circle cx="1.05187" cy="1.05187" r="1.05187" transform="matrix(5.75354e-08 -1 -1 -5.7612e-08 61.0078 26.7354)" fill="#DEDEDE"/>
<circle cx="1.05187" cy="1.05187" r="1.05187" transform="matrix(5.75354e-08 -1 -1 -5.7612e-08 61.0078 34.0977)" fill="#DEDEDE"/>
<circle cx="1.05187" cy="1.05187" r="1.05187" transform="matrix(5.75354e-08 -1 -1 -5.7612e-08 61.0078 41.4609)" fill="#DEDEDE"/>
<circle cx="1.05187" cy="1.05187" r="1.05187" transform="matrix(5.75354e-08 -1 -1 -5.7612e-08 53.6445 12.0078)" fill="#DEDEDE"/>
<circle cx="1.05187" cy="1.05187" r="1.05187" transform="matrix(5.75354e-08 -1 -1 -5.7612e-08 53.6445 19.3711)" fill="#DEDEDE"/>
<circle cx="1.05187" cy="1.05187" r="1.05187" transform="matrix(5.75354e-08 -1 -1 -5.7612e-08 53.6445 26.7354)" fill="#DEDEDE"/>
<circle cx="1.05187" cy="1.05187" r="1.05187" transform="matrix(5.75354e-08 -1 -1 -5.7612e-08 53.6445 34.0977)" fill="#DEDEDE"/>
<circle cx="1.05187" cy="1.05187" r="1.05187" transform="matrix(5.75354e-08 -1 -1 -5.7612e-08 53.6445 41.4609)" fill="#DEDEDE"/>
<circle cx="1.05187" cy="1.05187" r="1.05187" transform="matrix(5.75354e-08 -1 -1 -5.7612e-08 46.2812 12.0078)" fill="#DEDEDE"/>
<circle cx="1.05187" cy="1.05187" r="1.05187" transform="matrix(5.75354e-08 -1 -1 -5.7612e-08 46.2812 19.3711)" fill="#DEDEDE"/>
<circle cx="1.05187" cy="1.05187" r="1.05187" transform="matrix(5.75354e-08 -1 -1 -5.7612e-08 46.2812 26.7354)" fill="#DEDEDE"/>
<circle cx="1.05187" cy="1.05187" r="1.05187" transform="matrix(5.75354e-08 -1 -1 -5.7612e-08 46.2812 34.0977)" fill="#DEDEDE"/>
<circle cx="1.05187" cy="1.05187" r="1.05187" transform="matrix(5.75354e-08 -1 -1 -5.7612e-08 46.2812 41.4609)" fill="#DEDEDE"/>
<circle cx="1.05187" cy="1.05187" r="1.05187" transform="matrix(5.75354e-08 -1 -1 -5.7612e-08 38.918 12.0078)" fill="#DEDEDE"/>
<circle cx="1.05187" cy="1.05187" r="1.05187" transform="matrix(5.75354e-08 -1 -1 -5.7612e-08 38.918 19.3711)" fill="#DEDEDE"/>
<circle cx="1.05187" cy="1.05187" r="1.05187" transform="matrix(5.75354e-08 -1 -1 -5.7612e-08 38.918 26.7354)" fill="#DEDEDE"/>
<circle cx="1.05187" cy="1.05187" r="1.05187" transform="matrix(5.75354e-08 -1 -1 -5.7612e-08 38.918 34.0977)" fill="#DEDEDE"/>
<circle cx="1.05187" cy="1.05187" r="1.05187" transform="matrix(5.75354e-08 -1 -1 -5.7612e-08 38.918 41.4609)" fill="#DEDEDE"/>
<circle cx="1.05187" cy="1.05187" r="1.05187" transform="matrix(5.75354e-08 -1 -1 -5.7612e-08 31.5547 12.0078)" fill="#DEDEDE"/>
<circle cx="1.05187" cy="1.05187" r="1.05187" transform="matrix(5.75354e-08 -1 -1 -5.7612e-08 31.5547 19.3711)" fill="#DEDEDE"/>
<circle cx="1.05187" cy="1.05187" r="1.05187" transform="matrix(5.75354e-08 -1 -1 -5.7612e-08 31.5547 26.7354)" fill="#DEDEDE"/>
<circle cx="1.05187" cy="1.05187" r="1.05187" transform="matrix(5.75354e-08 -1 -1 -5.7612e-08 31.5547 34.0977)" fill="#DEDEDE"/>
<circle cx="1.05187" cy="1.05187" r="1.05187" transform="matrix(5.75354e-08 -1 -1 -5.7612e-08 31.5547 41.4609)" fill="#DEDEDE"/>
<circle cx="1.05187" cy="1.05187" r="1.05187" transform="matrix(5.75354e-08 -1 -1 -5.7612e-08 24.1914 12.0078)" fill="#DEDEDE"/>
<circle cx="1.05187" cy="1.05187" r="1.05187" transform="matrix(5.75354e-08 -1 -1 -5.7612e-08 24.1914 19.3711)" fill="#DEDEDE"/>
<circle cx="1.05187" cy="1.05187" r="1.05187" transform="matrix(5.75354e-08 -1 -1 -5.7612e-08 16.8301 12.0078)" fill="#DEDEDE"/>
<circle cx="1.05187" cy="1.05187" r="1.05187" transform="matrix(5.75354e-08 -1 -1 -5.7612e-08 16.8301 19.3711)" fill="#DEDEDE"/>
<circle cx="1.05187" cy="1.05187" r="1.05187" transform="matrix(5.75354e-08 -1 -1 -5.7612e-08 9.46484 12.0078)" fill="#DEDEDE"/>
<circle cx="1.05187" cy="1.05187" r="1.05187" transform="matrix(5.75354e-08 -1 -1 -5.7612e-08 9.46484 19.3711)" fill="#DEDEDE"/>
<circle cx="1.05187" cy="1.05187" r="1.05187" transform="matrix(5.75354e-08 -1 -1 -5.7612e-08 2.10547 12.0078)" fill="#DEDEDE"/>
<circle cx="1.05187" cy="1.05187" r="1.05187" transform="matrix(5.75354e-08 -1 -1 -5.7612e-08 2.10547 19.3711)" fill="#DEDEDE"/>
</g>
<defs>
<clipPath id="clip0_484_12018">
<rect width="135" height="86" fill="white" transform="matrix(-1 0 0 1 135 0)"/>
</clipPath>
</defs>
</svg>
