<svg width="150" height="150" viewBox="0 0 150 150" fill="none" xmlns="http://www.w3.org/2000/svg">
<path d="M99.95 42.2239H70.375V31H109.143C109.214 31 109.286 31 109.357 31C115.415 31.143 120.332 36.1473 120.332 42.2239H107.504" fill="#F4BCAF"/>
<path d="M110.212 31C107.932 31.143 105.794 32.0723 104.297 33.6451C104.155 33.7881 104.012 33.9311 103.87 34.1456C102.516 35.7183 101.518 37.7915 101.518 40.0077V106.779C101.518 112.999 96.5294 118.003 90.3293 118.003H35.8828V39.5073C36.0253 37.2196 36.8805 35.1464 38.3771 33.6451C40.0162 32.0009 42.2254 31 44.7197 31H99.5225H109.927C109.998 31 110.07 31 110.212 31Z" fill="url(#paint0_linear_484_11855)"/>
<path d="M90.6856 46.2987H74.5084C73.9383 46.2987 73.4395 45.7983 73.4395 45.2264C73.4395 44.6545 73.9383 44.1541 74.5084 44.1541H90.6856C91.2557 44.1541 91.7546 44.6545 91.7546 45.2264C91.7546 45.7983 91.327 46.2987 90.6856 46.2987Z" fill="#F4BCAF"/>
<path d="M66.8822 46.2987H45.7877C45.2176 46.2987 44.7188 45.7983 44.7188 45.2264C44.7188 44.6545 45.2176 44.1541 45.7877 44.1541H66.9535C67.5236 44.1541 68.0224 44.6545 68.0224 45.2264C68.0224 45.7983 67.5236 46.2987 66.8822 46.2987Z" fill="#F4BCAF"/>
<path d="M80.4222 56.8793H59.3991C58.8289 56.8793 58.3301 56.3789 58.3301 55.807C58.3301 55.235 58.8289 54.7346 59.3991 54.7346H80.4222C80.9924 54.7346 81.4912 55.235 81.4912 55.807C81.5625 56.3789 81.0636 56.8793 80.4222 56.8793Z" fill="#F4BCAF"/>
<path d="M52.6292 56.8793H45.7877C45.2176 56.8793 44.7188 56.3789 44.7188 55.807C44.7188 55.235 45.2176 54.7346 45.7877 54.7346H52.6292C53.1993 54.7346 53.6981 55.235 53.6981 55.807C53.6981 56.3789 53.1993 56.8793 52.6292 56.8793Z" fill="#F9CBC0"/>
<path d="M90.6848 67.4596H77.7858C77.2157 67.4596 76.7168 66.9592 76.7168 66.3873C76.7168 65.8154 77.2157 65.3149 77.7858 65.3149H90.6848C91.2549 65.3149 91.7537 65.8154 91.7537 66.3873C91.7537 66.9592 91.3261 67.4596 90.6848 67.4596Z" fill="#F9CBC0"/>
<path d="M71.5857 67.4599H45.7877C45.2176 67.4599 44.7188 66.9595 44.7188 66.3875C44.7188 65.8156 45.2176 65.3152 45.7877 65.3152H71.5857C72.1558 65.3152 72.6547 65.8156 72.6547 66.3875C72.6547 66.9595 72.2271 67.4599 71.5857 67.4599Z" fill="#F4BCAF"/>
<path d="M80.4226 78.0402H66.2409C65.6707 78.0402 65.1719 77.5398 65.1719 76.9679C65.1719 76.3959 65.6707 75.8955 66.2409 75.8955H80.4226C80.9927 75.8955 81.4916 76.3959 81.4916 76.9679C81.5628 77.5398 81.064 78.0402 80.4226 78.0402Z" fill="#F4BCAF"/>
<path d="M60.0407 78.0402H45.7877C45.2176 78.0402 44.7188 77.5398 44.7188 76.9679C44.7188 76.3959 45.2176 75.8955 45.7877 75.8955H60.112C60.6821 75.8955 61.181 76.3959 61.181 76.9679C61.181 77.5398 60.6821 78.0402 60.0407 78.0402Z" fill="#F9CBC0"/>
<path d="M90.6858 88.6208H80.7799C80.2098 88.6208 79.7109 88.1203 79.7109 87.5484C79.7109 86.9765 80.2098 86.4761 80.7799 86.4761H90.6858C91.2559 86.4761 91.7547 86.9765 91.7547 87.5484C91.7547 88.1203 91.3271 88.6208 90.6858 88.6208Z" fill="#F4BCAF"/>
<path d="M74.3651 88.6208H57.7604C57.1903 88.6208 56.6914 88.1203 56.6914 87.5484C56.6914 86.9765 57.1903 86.4761 57.7604 86.4761H74.3651C74.9353 86.4761 75.4341 86.9765 75.4341 87.5484C75.4341 88.1203 74.9353 88.6208 74.3651 88.6208Z" fill="#F9CBC0"/>
<path d="M51.5602 88.6208H45.7877C45.2176 88.6208 44.7188 88.1203 44.7188 87.5484C44.7188 86.9765 45.2176 86.4761 45.7877 86.4761H51.5602C52.1303 86.4761 52.6292 86.9765 52.6292 87.5484C52.6292 88.1203 52.1303 88.6208 51.5602 88.6208Z" fill="#F4BCAF"/>
<path d="M80.4231 99.2013H70.5885C70.0184 99.2013 69.5195 98.7009 69.5195 98.129C69.5195 97.5571 70.0184 97.0566 70.5885 97.0566H80.4231C80.9932 97.0566 81.4921 97.5571 81.4921 98.129C81.5633 98.7009 81.0645 99.2013 80.4231 99.2013Z" fill="#F4BCAF"/>
<path d="M64.1028 99.2013H45.7877C45.2176 99.2013 44.7188 98.7009 44.7188 98.129C44.7188 97.5571 45.2176 97.0566 45.7877 97.0566H64.1028C64.673 97.0566 65.1718 97.5571 65.1718 98.129C65.1718 98.7009 64.673 99.2013 64.1028 99.2013Z" fill="#F9CBC0"/>
<path d="M66.3844 109.138H80.7799C80.7799 111.569 81.7777 113.785 83.3455 115.358C84.9133 117.002 87.1225 117.932 89.5455 117.932H24.7656C22.3426 117.932 20.1334 116.931 18.5655 115.358C16.9977 113.785 16 111.569 16 109.138H58.6165C58.6165 109.138 66.5269 109.21 66.3844 109.138Z" fill="#F4BCAF"/>
<path d="M128.185 102.292L119.188 93.3011L121.25 91.2383L130.241 100.236L128.185 102.292Z" fill="#F4BCAF"/>
<path d="M131.314 105.455L124.415 98.5556C123.838 97.9794 123.838 97.0405 124.415 96.4643C124.991 95.8882 125.93 95.8882 126.506 96.4643L133.405 103.364C133.982 103.94 133.982 104.879 133.405 105.455C132.829 106.031 131.89 106.031 131.314 105.455Z" fill="#F4BCAF"/>
<path d="M130.823 105.896L121.946 97.0193C121.739 96.813 121.739 96.4787 121.946 96.2653L124.215 93.9963C124.421 93.79 124.755 93.79 124.969 93.9963L133.846 102.873C134.052 103.08 134.052 103.414 133.846 103.627L131.577 105.896C131.363 106.103 131.029 106.103 130.823 105.896Z" fill="#0582CA"/>
<path d="M109.001 64.3293C99.5835 64.3293 91.9512 71.9617 91.9512 81.3794C91.9512 90.79 99.5835 98.4294 108.994 98.4294C118.412 98.4294 126.044 90.7971 126.044 81.3794C126.044 71.9617 118.412 64.3293 109.001 64.3293ZM109.001 95.2712C101.44 95.2712 95.3156 89.0473 95.3156 81.3723C95.3156 73.6973 101.44 67.4804 109.001 67.4804C116.562 67.4804 122.687 73.7044 122.687 81.3794C122.687 89.0544 116.555 95.2712 109.001 95.2712Z" fill="#0582CA"/>
<path d="M125.11 27.1931C127.222 27.1931 128.934 25.4793 128.934 23.3651C128.934 21.251 127.222 19.5371 125.11 19.5371C122.997 19.5371 121.285 21.251 121.285 23.3651C121.285 25.4793 122.997 27.1931 125.11 27.1931Z" fill="#F4BCAF"/>
<path d="M23.5162 47.8943C24.9058 47.8943 26.0324 46.7667 26.0324 45.3758C26.0324 43.985 24.9058 42.8574 23.5162 42.8574C22.1265 42.8574 21 43.985 21 45.3758C21 46.7667 22.1265 47.8943 23.5162 47.8943Z" fill="#F4BCAF"/>
<path d="M18.6515 96.4305C18.2918 97.7728 19.0894 99.1528 20.4329 99.5128C21.7764 99.8728 23.1571 99.0764 23.5167 97.7342C23.8764 96.3919 23.0789 95.0119 21.7354 94.6519C20.3919 94.2919 19.0112 95.0882 18.6515 96.4305Z" fill="#F4BCAF"/>
<path d="M37.5991 20.19H35.409V18H33.5318V20.19H31.3418V22.1298H33.5318V24.3198H35.409V22.1298H37.5991V20.19Z" fill="#0582CA"/>
<path d="M93.9877 134.113L94.5546 131.998L96.67 132.564L97.1558 130.751L95.0404 130.184L95.6072 128.069L93.7336 127.567L93.1668 129.682L91.0513 129.115L90.5655 130.929L92.6809 131.496L92.1141 133.611L93.9877 134.113Z" fill="#0582CA"/>
<path d="M136.207 66.5449L133.528 65.192L134.881 62.5125L132.584 61.3529L131.231 64.0324L128.551 62.6796L127.353 65.0529L130.033 66.4057L128.68 69.0853L130.977 70.2449L132.329 67.5653L135.009 68.9182L136.207 66.5449Z" fill="#0582CA"/>
<defs>
<linearGradient id="paint0_linear_484_11855" x1="73.0233" y1="28.9875" x2="73.0233" y2="118.941" gradientUnits="userSpaceOnUse">
<stop stop-color="#FDFEFF"/>
<stop offset="0.9964" stop-color="#ECF0F5"/>
</linearGradient>
</defs>
</svg>
