<svg width="150" height="151" viewBox="0 0 150 151" fill="none" xmlns="http://www.w3.org/2000/svg">
<path d="M128.071 53.8403C130.368 53.8403 132.231 51.9776 132.231 49.6799C132.231 47.3822 130.368 45.5195 128.071 45.5195C125.773 45.5195 123.91 47.3822 123.91 49.6799C123.91 51.9776 125.773 53.8403 128.071 53.8403Z" fill="#EAEEF9"/>
<path d="M134.16 37.5033C135.729 37.5033 137.001 36.2312 137.001 34.662C137.001 33.0929 135.729 31.8208 134.16 31.8208C132.59 31.8208 131.318 33.0929 131.318 34.662C131.318 36.2312 132.59 37.5033 134.16 37.5033Z" fill="#EAEEF9"/>
<path d="M15.8412 56.7831C17.4104 56.7831 18.6825 55.511 18.6825 53.9418C18.6825 52.3727 17.4104 51.1006 15.8412 51.1006C14.2721 51.1006 13 52.3727 13 53.9418C13 55.511 14.2721 56.7831 15.8412 56.7831Z" fill="#EAEEF9"/>
<path d="M21.1164 118.58C24.0306 118.58 26.393 116.218 26.393 113.303C26.393 110.389 24.0306 108.027 21.1164 108.027C18.2023 108.027 15.8398 110.389 15.8398 113.303C15.8398 116.218 18.2023 118.58 21.1164 118.58Z" fill="#EAEEF9"/>
<path d="M102.604 45.012V87.3262C102.604 89.863 100.473 91.994 97.9361 91.994H27.9197C25.3829 91.994 23.252 89.9645 23.252 87.3262V45.012C23.252 42.4752 25.3829 40.3442 27.9197 40.3442H97.9361C100.473 40.3442 102.604 42.4752 102.604 45.012Z" fill="#D5DDEA"/>
<path opacity="0.3" d="M102.602 59.1167V87.3262C102.602 89.863 100.471 91.9939 97.9346 91.9939H39.2832V63.7845C39.2832 61.2476 41.3127 59.1167 43.951 59.1167H102.602Z" fill="#989FB0"/>
<g filter="url(#filter0_d_489_10294)">
<path d="M115.085 113.303H50.0406C46.0832 113.303 42.9375 110.157 42.9375 106.2V68.7564C42.9375 64.799 46.0832 61.6533 50.0406 61.6533H115.085C119.042 61.6533 122.188 64.799 122.188 68.7564V106.2C122.188 110.157 119.042 113.303 115.085 113.303Z" fill="url(#paint0_linear_489_10294)"/>
</g>
<path d="M63.0285 101.634H52.6783C51.765 101.634 51.0547 100.924 51.0547 100.01C51.0547 99.097 51.765 98.3867 52.6783 98.3867H63.0285C63.9418 98.3867 64.6521 99.097 64.6521 100.01C64.6521 100.924 63.9418 101.634 63.0285 101.634Z" fill="#D5DDEA"/>
<path d="M79.7726 101.634H69.4224C68.5091 101.634 67.7988 100.924 67.7988 100.01C67.7988 99.097 68.5091 98.3867 69.4224 98.3867H79.7726C80.6859 98.3867 81.3962 99.097 81.3962 100.01C81.3962 100.924 80.6859 101.634 79.7726 101.634Z" fill="#D5DDEA"/>
<path d="M96.5148 101.634H86.1646C85.2513 101.634 84.541 100.924 84.541 100.01C84.541 99.097 85.2513 98.3867 86.1646 98.3867H96.5148C97.4281 98.3867 98.1384 99.097 98.1384 100.01C98.1384 100.924 97.4281 101.634 96.5148 101.634Z" fill="#D5DDEA"/>
<path d="M113.257 101.634H102.907C101.994 101.634 101.283 100.924 101.283 100.01C101.283 99.097 101.994 98.3867 102.907 98.3867H113.257C114.17 98.3867 114.881 99.097 114.881 100.01C114.881 100.924 114.17 101.634 113.257 101.634Z" fill="#D5DDEA"/>
<path d="M109.502 82.1509C112.865 82.1509 115.591 79.425 115.591 76.0625C115.591 72.7 112.865 69.9741 109.502 69.9741C106.14 69.9741 103.414 72.7 103.414 76.0625C103.414 79.425 106.14 82.1509 109.502 82.1509Z" fill="#989FB0"/>
<path d="M101.485 82.1509C104.847 82.1509 107.573 79.425 107.573 76.0625C107.573 72.7 104.847 69.9741 101.485 69.9741C98.1223 69.9741 95.3965 72.7 95.3965 76.0625C95.3965 79.425 98.1223 82.1509 101.485 82.1509Z" fill="#D5DDEA"/>
<path d="M102.602 48.9692H23.3516V58.9136H102.602V48.9692Z" fill="#989FB0"/>
<path d="M63.9398 84.0792H52.5748C51.763 84.0792 51.0527 83.3689 51.0527 82.5571V75.2511C51.0527 74.4393 51.763 73.729 52.5748 73.729H63.8383C64.6501 73.729 65.3604 74.4393 65.3604 75.2511V82.5571C65.4619 83.3689 64.7516 84.0792 63.9398 84.0792Z" fill="#D5DDEA"/>
<defs>
<filter id="filter0_d_489_10294" x="20.6135" y="50.4913" width="123.898" height="96.298" filterUnits="userSpaceOnUse" color-interpolation-filters="sRGB">
<feFlood flood-opacity="0" result="BackgroundImageFix"/>
<feColorMatrix in="SourceAlpha" type="matrix" values="0 0 0 0 0 0 0 0 0 0 0 0 0 0 0 0 0 0 127 0" result="hardAlpha"/>
<feOffset dy="11.162"/>
<feGaussianBlur stdDeviation="11.162"/>
<feColorMatrix type="matrix" values="0 0 0 0 0.397708 0 0 0 0 0.47749 0 0 0 0 0.575 0 0 0 0.27 0"/>
<feBlend mode="normal" in2="BackgroundImageFix" result="effect1_dropShadow_489_10294"/>
<feBlend mode="normal" in="SourceGraphic" in2="effect1_dropShadow_489_10294" result="shape"/>
</filter>
<linearGradient id="paint0_linear_489_10294" x1="82.5369" y1="60.4586" x2="82.5369" y2="113.86" gradientUnits="userSpaceOnUse">
<stop stop-color="#FDFEFF"/>
<stop offset="0.9964" stop-color="#ECF0F5"/>
</linearGradient>
</defs>
</svg>
