<svg width="16" height="12" viewBox="0 0 16 12" fill="none" xmlns="http://www.w3.org/2000/svg">
<path d="M1.63685 6.47562C1.54606 6.33186 1.50067 6.25998 1.47525 6.14911C1.45617 6.06583 1.45617 5.9345 1.47525 5.85122C1.50067 5.74035 1.54606 5.66847 1.63685 5.52471C2.38712 4.33672 4.62037 1.3335 8.02371 1.3335C11.427 1.3335 13.6603 4.33672 14.4106 5.52471C14.5014 5.66847 14.5467 5.74035 14.5722 5.85122C14.5912 5.9345 14.5912 6.06583 14.5722 6.14911C14.5467 6.25998 14.5014 6.33186 14.4106 6.47562C13.6603 7.6636 11.427 10.6668 8.02371 10.6668C4.62037 10.6668 2.38712 7.6636 1.63685 6.47562Z" stroke="black" stroke-linecap="round" stroke-linejoin="round"/>
<path d="M8.02371 8.00016C9.12828 8.00016 10.0237 7.10473 10.0237 6.00016C10.0237 4.89559 9.12828 4.00016 8.02371 4.00016C6.91914 4.00016 6.02371 4.89559 6.02371 6.00016C6.02371 7.10473 6.91914 8.00016 8.02371 8.00016Z" stroke="black" stroke-linecap="round" stroke-linejoin="round"/>
</svg>
