<svg width="25" height="24" viewBox="0 0 25 24" fill="none" xmlns="http://www.w3.org/2000/svg">
<g clip-path="url(#clip0_2153_1319)">
<path d="M24.0234 12C24.0234 5.37258 18.6509 0 12.0234 0C5.39602 0 0.0234375 5.37258 0.0234375 12C0.0234375 17.9895 4.41164 22.954 10.1484 23.8542V15.4688H7.10156V12H10.1484V9.35625C10.1484 6.34875 11.94 4.6875 14.681 4.6875C15.9935 4.6875 17.3672 4.92188 17.3672 4.92188V7.875H15.8541C14.3634 7.875 13.8984 8.80008 13.8984 9.75V12H17.2266L16.6945 15.4688H13.8984V23.8542C19.6352 22.954 24.0234 17.9895 24.0234 12Z" fill="#1877F2"/>
<path d="M16.6945 15.4688L17.2266 12H13.8984V9.75C13.8984 8.80102 14.3634 7.875 15.8541 7.875H17.3672V4.92188C17.3672 4.92188 15.994 4.6875 14.681 4.6875C11.94 4.6875 10.1484 6.34875 10.1484 9.35625V12H7.10156V15.4688H10.1484V23.8542C11.3909 24.0486 12.656 24.0486 13.8984 23.8542V15.4688H16.6945Z" fill="white"/>
</g>
<defs>
<clipPath id="clip0_2153_1319">
<rect width="24" height="24" fill="white" transform="translate(0.0234375)"/>
</clipPath>
</defs>
</svg>
