<svg width="12" height="18" viewBox="0 0 12 18" fill="none" xmlns="http://www.w3.org/2000/svg">
<path d="M5.95361 17.7257C2.99676 17.7257 0.591797 15.3207 0.591797 12.3639V4.85732C0.591797 4.46199 0.912118 4.14246 1.30666 4.14246C1.70134 4.14246 2.02166 4.46199 2.02166 4.85732V12.3639C2.02166 14.5315 3.78532 16.2958 5.95361 16.2958C8.1219 16.2958 9.88557 14.5315 9.88557 12.3639V4.49983C9.88557 3.1201 8.7632 1.99773 7.38347 1.99773C6.00362 1.99773 4.88125 3.1201 4.88125 4.49983V11.649C4.88125 12.2402 5.36232 12.7214 5.95361 12.7214C6.54491 12.7214 7.02598 12.2402 7.02598 11.649V4.85732C7.02598 4.46199 7.3463 4.14246 7.74084 4.14246C8.13552 4.14246 8.45584 4.46199 8.45584 4.85732V11.649C8.45584 13.0287 7.33334 14.1511 5.95361 14.1511C4.57389 14.1511 3.45139 13.0287 3.45139 11.649V4.49983C3.45139 2.33232 5.21505 0.567871 7.38347 0.567871C9.55176 0.567871 11.3154 2.33232 11.3154 4.49983V12.3639C11.3154 15.3207 8.91047 17.7257 5.95361 17.7257Z" fill="#808080"/>
</svg>
