<svg width="44" height="45" viewBox="0 0 44 45" fill="none" xmlns="http://www.w3.org/2000/svg">
<rect x="0.5" y="1.22705" width="43" height="43" rx="21.5" fill="#F9FBFF"/>
<rect x="0.5" y="1.22705" width="43" height="43" rx="21.5" stroke="#E3ECFF"/>
<path d="M21.9884 12.728C21.6299 12.728 21.2717 12.7473 20.9152 12.7857C20.5885 12.8191 20.2658 12.8738 19.9475 12.9402C19.8857 12.9532 19.8241 12.9667 19.7626 12.9809C17.8868 13.408 16.174 14.3671 14.8296 15.7431C14.7039 15.872 14.5815 16.0039 14.4625 16.1389C10.8308 20.3082 11.2666 26.6322 15.436 30.2638C19.4276 33.7407 25.4359 33.5094 29.1484 29.7359C29.2742 29.6072 29.3966 29.4752 29.5155 29.3401C31.1182 27.5149 32.0014 25.1685 32 22.7395C32 17.2103 27.5177 12.728 21.9884 12.728ZM15.2744 16.2437C15.3271 16.189 15.3819 16.1366 15.4356 16.0835C15.4977 16.0224 15.5594 15.961 15.6228 15.902C15.6785 15.8499 15.7359 15.7999 15.793 15.7491C15.8574 15.6921 15.9215 15.635 15.9876 15.5799C16.0456 15.5309 16.1054 15.4838 16.1648 15.4364C16.2315 15.383 16.2983 15.3296 16.367 15.2783C16.4277 15.2327 16.4893 15.1882 16.5515 15.1448C16.6206 15.0954 16.69 15.0447 16.7605 14.9986C16.8235 14.9561 16.8872 14.9144 16.9513 14.8735C17.0224 14.8277 17.0943 14.7832 17.1669 14.74C17.305 14.6576 17.4448 14.5782 17.5864 14.502C17.6531 14.4664 17.7199 14.4316 17.7866 14.3976C17.8628 14.3593 17.9394 14.322 18.0166 14.2858C18.0833 14.2541 18.1527 14.2224 18.2215 14.1923C18.2999 14.159 18.3793 14.1256 18.4587 14.0922C18.5278 14.0639 18.5966 14.0362 18.6663 14.0095C18.7471 13.9788 18.8288 13.9501 18.9106 13.9214C18.9804 13.8967 19.0505 13.8728 19.1208 13.8496C19.2039 13.8229 19.2877 13.7982 19.3718 13.7739C19.4422 13.7535 19.512 13.7325 19.5827 13.7135C19.6097 13.7064 19.6368 13.7008 19.6638 13.6938C18.676 14.6529 17.9429 15.8433 17.531 17.1571C16.7389 16.9482 15.9721 16.6531 15.2444 16.2771C15.2554 16.2654 15.2647 16.2537 15.2744 16.2437ZM14.7945 16.781C15.5962 17.2153 16.4462 17.5536 17.3271 17.7888C16.8953 19.2904 16.6686 20.8435 16.6533 22.4058H12.6521C12.7248 20.3456 13.4782 18.3675 14.7945 16.781ZM14.7945 28.698C13.4783 27.1115 12.7248 25.1334 12.6521 23.0732H16.6533C16.6686 24.6356 16.8952 26.1887 17.3271 27.6902C16.4462 27.9255 15.5962 28.2638 14.7945 28.698ZM19.5807 31.7669C19.5133 31.7499 19.4435 31.7279 19.3741 31.7075C19.2897 31.6828 19.2049 31.6581 19.1215 31.6311C19.0511 31.6084 18.9817 31.584 18.9123 31.5597C18.83 31.5315 18.7483 31.502 18.667 31.4712C18.5978 31.4447 18.5289 31.4173 18.4604 31.3891C18.3807 31.3558 18.3009 31.3224 18.2218 31.289C18.1537 31.259 18.0859 31.228 18.0186 31.1962C17.9408 31.1595 17.8634 31.1222 17.785 31.0835C17.7182 31.0501 17.6515 31.0167 17.5847 30.9803C17.5093 30.94 17.4346 30.8986 17.3598 30.8559C17.2931 30.8188 17.2297 30.7808 17.1653 30.7421C17.092 30.6979 17.0195 30.6526 16.9477 30.6062C16.8843 30.5659 16.8209 30.5248 16.7585 30.4828C16.6873 30.4344 16.6169 30.385 16.5472 30.3346C16.4861 30.2909 16.4251 30.2472 16.365 30.2011C16.2961 30.1488 16.228 30.0956 16.1608 30.0413C16.1017 29.9942 16.043 29.9475 15.9852 29.8991C15.9185 29.8437 15.8541 29.786 15.7893 29.7286C15.7326 29.6782 15.6755 29.6284 15.6201 29.577C15.5564 29.5176 15.4947 29.4559 15.4326 29.3948C15.3789 29.3418 15.3241 29.2894 15.2714 29.235C15.2617 29.2246 15.2524 29.214 15.2427 29.204C15.9704 28.8278 16.7372 28.5326 17.5293 28.3236C17.9413 29.6374 18.6744 30.8277 19.6621 31.7869C19.6351 31.7799 19.6077 31.7742 19.5807 31.7669ZM21.6548 32.0572C20.2268 31.8543 18.975 30.364 18.1874 28.1631C19.3261 27.9081 20.488 27.7714 21.6548 27.755V32.0572ZM21.6548 27.0875C20.4171 27.1038 19.1846 27.2508 17.9779 27.526C17.5588 26.0782 17.3378 24.5803 17.3208 23.0732H21.6548V27.0875ZM21.6548 22.4058H17.3208C17.3377 20.8987 17.5588 19.4008 17.9779 17.953C19.1846 18.2282 20.4171 18.3752 21.6548 18.3915V22.4058ZM21.6548 17.7241C20.488 17.7078 19.3261 17.571 18.1874 17.3159C18.975 15.1151 20.2268 13.6247 21.6548 13.4218V17.7241ZM29.1824 16.781C30.4987 18.3676 31.2521 20.3456 31.3249 22.4058H27.3236C27.3084 20.8434 27.0817 19.2904 26.6498 17.7888C27.5307 17.5535 28.3807 17.2152 29.1824 16.781ZM24.3936 13.7118C24.4637 13.7291 24.5334 13.7512 24.6028 13.7715C24.6872 13.7962 24.772 13.8209 24.8554 13.8479C24.9259 13.8706 24.9953 13.895 25.0647 13.9194C25.1468 13.9477 25.2289 13.9768 25.31 14.0078C25.3794 14.0342 25.4478 14.0619 25.5165 14.0899C25.5963 14.1233 25.6761 14.1566 25.7551 14.19C25.8232 14.22 25.891 14.2509 25.9584 14.2828C26.0361 14.3195 26.1136 14.3569 26.192 14.3956C26.2587 14.4289 26.3255 14.4623 26.3922 14.4987C26.4676 14.5391 26.5424 14.5805 26.6171 14.6232C26.6839 14.6602 26.7473 14.6983 26.8117 14.737C26.8849 14.7811 26.9575 14.8264 27.0293 14.8728C27.0927 14.9132 27.1561 14.9542 27.2185 14.9963C27.2895 15.0446 27.3598 15.0938 27.4294 15.1441C27.491 15.1877 27.552 15.2322 27.6123 15.2776C27.681 15.3293 27.7484 15.383 27.8162 15.4371C27.8749 15.4838 27.934 15.5305 27.9917 15.5793C28.0585 15.6347 28.1229 15.6924 28.1876 15.7498C28.2443 15.8002 28.3014 15.8499 28.3568 15.9013C28.4205 15.9607 28.4823 16.0224 28.5444 16.0835C28.5981 16.1366 28.6528 16.189 28.7055 16.2434C28.7152 16.2537 28.7246 16.2644 28.7342 16.2744C28.0065 16.6506 27.2397 16.9458 26.4476 17.1547C26.0348 15.8408 25.3008 14.6506 24.3121 13.6918C24.3392 13.6988 24.3665 13.7044 24.3936 13.7118ZM22.3222 13.4218C23.7502 13.6247 25.0019 15.1151 25.7895 17.3159C24.6509 17.5709 23.4889 17.7077 22.3222 17.7241V13.4218ZM22.3222 18.3915C23.5598 18.3752 24.7923 18.2282 25.9991 17.953C26.4181 19.4008 26.6392 20.8987 26.6562 22.4058H22.3222V18.3915ZM22.3222 23.0732H26.6562C26.6392 24.5804 26.4182 26.0782 25.9991 27.526C24.7923 27.2508 23.5598 27.1038 22.3222 27.0875V23.0732ZM22.3222 32.0572V27.755C23.4889 27.7712 24.6509 27.908 25.7895 28.1631C25.0019 30.364 23.7502 31.8543 22.3222 32.0572ZM28.7025 29.2353C28.6498 29.2897 28.5954 29.3421 28.5417 29.3952C28.4796 29.4562 28.4175 29.518 28.3538 29.5774C28.2984 29.6291 28.2413 29.6775 28.1846 29.7292C28.1199 29.7866 28.0555 29.844 27.9894 29.8994C27.931 29.9481 27.8716 29.9952 27.8122 30.0426C27.7454 30.096 27.6787 30.1494 27.6099 30.2008C27.5492 30.2463 27.4877 30.2908 27.4254 30.3343C27.3563 30.3836 27.2869 30.4344 27.2165 30.4804C27.1535 30.523 27.0898 30.5646 27.0256 30.6052C26.9545 30.6511 26.8825 30.6956 26.8097 30.7387C26.7429 30.7778 26.6792 30.8158 26.6135 30.8535C26.4743 30.9328 26.3332 31.0087 26.1903 31.0811C26.1142 31.1194 26.0375 31.1567 25.9604 31.1929C25.8936 31.2246 25.8242 31.2563 25.7555 31.2864C25.6771 31.3197 25.5976 31.3531 25.5182 31.3865C25.4491 31.4145 25.3804 31.4425 25.311 31.4689C25.2295 31.4999 25.1478 31.529 25.0657 31.5573C24.9962 31.582 24.9265 31.6058 24.8564 31.6287C24.773 31.6558 24.6896 31.6805 24.6045 31.7048C24.5347 31.7255 24.4647 31.7462 24.3942 31.7652C24.3672 31.7722 24.3402 31.7779 24.3131 31.7849C25.301 30.8258 26.034 29.6354 26.4459 28.3216C27.238 28.5305 28.0048 28.8256 28.7326 29.2016C28.7216 29.2136 28.7122 29.2253 28.7025 29.2353ZM29.1824 28.698C28.3808 28.2637 27.5307 27.9254 26.6498 27.6902C27.0817 26.1887 27.3083 24.6356 27.3236 23.0732H31.3249C31.2522 25.1335 30.4988 27.1115 29.1824 28.698Z" fill="#0582CA"/>
</svg>
