<svg width="25" height="24" viewBox="0 0 25 24" fill="none" xmlns="http://www.w3.org/2000/svg">
<g clip-path="url(#clip0_2153_5429)">
<path d="M23.7897 12.2763C23.7897 11.4605 23.7236 10.6404 23.5825 9.83789H12.2637V14.4589H18.7454C18.4764 15.9492 17.6122 17.2676 16.3467 18.1054V21.1037H20.2137C22.4845 19.0137 23.7897 15.9272 23.7897 12.2763Z" fill="#4285F4"/>
<path d="M12.2626 24.0008C15.499 24.0008 18.2284 22.9382 20.217 21.1039L16.35 18.1055C15.2741 18.8375 13.8852 19.252 12.267 19.252C9.13635 19.252 6.48193 17.1399 5.52951 14.3003H1.53906V17.3912C3.57617 21.4434 7.72536 24.0008 12.2626 24.0008Z" fill="#34A853"/>
<path d="M5.52621 14.3002C5.02355 12.8099 5.02355 11.196 5.52621 9.70569V6.61475H1.54017C-0.161829 10.0055 -0.161829 14.0004 1.54017 17.3912L5.52621 14.3002Z" fill="#FBBC04"/>
<path d="M12.2626 4.74966C13.9734 4.7232 15.6269 5.36697 16.8659 6.54867L20.292 3.12262C18.1226 1.0855 15.2433 -0.034466 12.2626 0.000808666C7.72536 0.000808666 3.57617 2.55822 1.53906 6.61481L5.5251 9.70575C6.47311 6.86173 9.13193 4.74966 12.2626 4.74966Z" fill="#EA4335"/>
</g>
<defs>
<clipPath id="clip0_2153_5429">
<rect width="24" height="24" fill="white" transform="translate(0.0234375)"/>
</clipPath>
</defs>
</svg>
