<svg width="24" height="25" viewBox="0 0 24 25" fill="none" xmlns="http://www.w3.org/2000/svg">
    <path
        d="M2.28255 10.9538C2.18558 10.7923 2.09764 10.6452 2 10.4827C2.3327 10.2817 2.65504 10.0861 2.97771 9.89148C5.90985 8.12197 8.84299 6.35379 11.7715 4.57859C11.941 4.47594 12.0563 4.47226 12.2285 4.57692C14.079 5.7031 15.9354 6.81924 17.7905 7.93773C17.8226 7.95712 17.8568 7.97351 17.9213 8.00795V6.32102H19.5811C19.5811 6.39124 19.5811 6.45109 19.5811 6.51061C19.5811 7.29104 19.5845 8.07114 19.5781 8.85157C19.5771 8.98131 19.6213 9.04919 19.7306 9.11406C20.4395 9.53437 21.1437 9.96237 21.8489 10.3884C21.896 10.4168 21.9408 10.4496 22 10.489C21.9057 10.6445 21.8148 10.7946 21.7175 10.9555C21.3008 10.7047 20.8962 10.4613 20.4916 10.2175C18.0076 8.71883 15.5235 7.21982 13.0394 5.72115C12.7391 5.53992 12.4362 5.3627 12.1393 5.17579C12.043 5.11526 11.9724 5.10925 11.8694 5.17177C9.61139 6.5387 7.35101 7.90094 5.09097 9.26419C4.19451 9.80488 3.29805 10.3459 2.40125 10.8866C2.36848 10.9063 2.33471 10.9247 2.28255 10.9541V10.9538Z"
        fill="currentColor" />
    <path
        d="M17.8501 16.269H8.83398V14.4925C8.88213 14.4902 8.93497 14.4858 8.9878 14.4858C11.3562 14.4858 13.7249 14.4841 16.0933 14.4872C17.0335 14.4885 17.8187 15.2345 17.8564 16.1517C17.8578 16.1844 17.8531 16.2172 17.8501 16.2694V16.269Z"
        fill="currentColor" />
    <path
        d="M17.9682 16.5489V19.3888H17.477V17.0652H6.54091V19.5469C6.3851 19.5469 6.248 19.5516 6.11158 19.5429C6.08349 19.5412 6.04838 19.4934 6.03467 19.4593C6.02129 19.4255 6.03032 19.3824 6.03032 19.3433C6.03032 17.5878 6.03032 15.8323 6.03032 14.0769C6.03032 14.0217 6.03032 13.9665 6.03032 13.897H6.53389V16.5489H17.9682Z"
        fill="currentColor" />
    <path
        d="M6.84604 15.3293C6.84437 14.8605 7.21118 14.4894 7.67897 14.4863C8.14408 14.4833 8.51758 14.8535 8.52092 15.3213C8.5246 15.7871 8.15478 16.1606 7.68666 16.1639C7.21954 16.1673 6.84738 15.7978 6.8457 15.3296L6.84604 15.3293Z"
        fill="currentColor" />
    <path d="M19.8153 10.4805H19.2803V19.5481H19.8153V10.4805Z" fill="currentColor" />
    <path d="M4.7225 10.4805H4.1875V19.5481H4.7225V10.4805Z" fill="currentColor" />
    <path d="M16.4889 11.3555H17.9672L17.2282 9.51709H15.4052L14.6582 11.3555H16.1121V13.7118H16.4889V11.3555Z"
        fill="currentColor" />
</svg>