<svg width="20" height="20" viewBox="0 0 20 20" fill="none" xmlns="http://www.w3.org/2000/svg">
    <path
        d="M9.89885 16.8512C13.8952 14.1508 17.8915 11.1422 17.8915 7.14587C17.893 6.62065 17.7906 6.10031 17.5903 5.61477C17.39 5.12924 17.0957 4.68809 16.7243 4.3167C16.3529 3.94531 15.9118 3.651 15.4263 3.4507C14.9407 3.2504 14.4204 3.14807 13.8952 3.14957C12.8675 3.14957 11.8513 3.53779 11.0692 4.31992L9.89885 5.49026L8.72851 4.31992C8.35818 3.94742 7.91786 3.65181 7.43288 3.45009C6.94789 3.24838 6.42781 3.14453 5.90255 3.14453C5.37729 3.14453 4.85721 3.24838 4.37223 3.45009C3.88725 3.65181 3.44693 3.94742 3.0766 4.31992C2.70501 4.69066 2.41033 5.13117 2.20949 5.61613C2.00864 6.1011 1.90559 6.62096 1.90625 7.14587C1.90625 11.1422 5.90255 14.1508 9.89885 16.8512Z"
        stroke="currentColor" stroke-width="1.3" />
</svg>