<svg width="24" height="21" viewBox="0 0 24 21" fill="currentColor" xmlns="http://www.w3.org/2000/svg">
    <path
        d="M12.0833 20.007C17.625 16.2624 23.1667 12.0903 23.1667 6.54866C23.1688 5.82033 23.0268 5.09877 22.7491 4.42548C22.4713 3.75219 22.0632 3.14046 21.5482 2.62545C21.0332 2.11044 20.4215 1.70232 19.7482 1.42457C19.0749 1.14681 18.3533 1.0049 17.625 1.00699C16.2 1.00699 14.7908 1.54533 13.7063 2.62991L12.0833 4.25283L10.4604 2.62991C9.94689 2.11336 9.3363 1.70344 8.66377 1.42372C7.99124 1.144 7.27005 1 6.54167 1C5.81329 1 5.0921 1.144 4.41957 1.42372C3.74705 1.70344 3.13646 2.11336 2.62292 2.62991C2.10764 3.14402 1.69901 3.75487 1.4205 4.42737C1.14199 5.09987 0.999088 5.82077 1 6.54866C1 12.0903 6.54167 16.2624 12.0833 20.007Z"
        stroke-width="1.58333" />
</svg>