<svg width="17" height="16" viewBox="0 0 17 16" fill="none" xmlns="http://www.w3.org/2000/svg">
    <path
        d="M6.56844 6.5C6.68599 6.16583 6.91801 5.88405 7.22341 5.70457C7.52882 5.52508 7.88789 5.45947 8.23703 5.51936C8.58617 5.57924 8.90285 5.76076 9.13098 6.03176C9.35911 6.30277 9.48397 6.64576 9.48344 7C9.48344 8 7.98344 8.5 7.98344 8.5M8.02344 10.5H8.02844M13.0234 8C13.0234 10.7614 10.7849 13 8.02344 13C5.26201 13 3.02344 10.7614 3.02344 8C3.02344 5.23858 5.26201 3 8.02344 3C10.7849 3 13.0234 5.23858 13.0234 8Z"
        stroke="black" stroke-linecap="round" stroke-linejoin="round" />
</svg>