<svg width="16" height="14" viewBox="0 0 16 14" fill="none" xmlns="http://www.w3.org/2000/svg">
<path d="M7.1854 2.39488C7.45634 2.35482 7.73584 2.33333 8.02371 2.33333C11.427 2.33333 13.6603 5.33656 14.4106 6.52455C14.5014 6.66833 14.5468 6.74023 14.5722 6.85112C14.5913 6.93439 14.5913 7.06578 14.5722 7.14905C14.5467 7.25993 14.501 7.3323 14.4096 7.47705C14.2097 7.79343 13.9049 8.23807 13.5011 8.7203M4.50632 3.47669C3.06494 4.45447 2.0864 5.81292 1.63751 6.52352C1.54629 6.66791 1.50069 6.74011 1.47526 6.85099C1.45617 6.93426 1.45616 7.06563 1.47525 7.14891C1.50066 7.25979 1.54606 7.33168 1.63686 7.47545C2.38713 8.66344 4.62038 11.6667 8.02371 11.6667C9.39599 11.6667 10.578 11.1784 11.5493 10.5177M2.02371 1L14.0237 13M6.6095 5.58579C6.24757 5.94772 6.02371 6.44772 6.02371 7C6.02371 8.10457 6.91914 9 8.02371 9C8.576 9 9.076 8.77614 9.43793 8.41421" stroke="black" stroke-linecap="round" stroke-linejoin="round"/>
</svg>
