<svg width="24" height="25" viewBox="0 0 24 25" fill="none" xmlns="http://www.w3.org/2000/svg">
    <path
        d="M20.4003 10.2001H16.7002C16.5942 10.2001 16.4924 10.2422 16.4174 10.3173C16.3424 10.3923 16.3002 10.494 16.3002 10.6001V20.6003H14.2002V16.4502C14.2002 16.3441 14.1581 16.2424 14.083 16.1674C14.008 16.0923 13.9063 16.0502 13.8002 16.0502H10.2001C10.094 16.0502 9.99231 16.0923 9.91729 16.1674C9.84227 16.2424 9.80013 16.3441 9.80013 16.4502V20.6003H7.7001V6.10003C7.7001 5.65892 8.059 5.30001 8.50011 5.30001H15.5002C15.9413 5.30001 16.3002 5.65892 16.3002 6.10003V8.32506C16.3002 8.43115 16.3424 8.5329 16.4174 8.60791C16.4924 8.68293 16.5942 8.72507 16.7002 8.72507C16.8063 8.72507 16.9081 8.68293 16.9831 8.60791C17.0581 8.5329 17.1003 8.43115 17.1003 8.32506V6.10003C17.1003 5.21776 16.3825 4.5 15.5002 4.5H8.50011C7.61784 4.5 6.90008 5.21776 6.90008 6.10003V20.6003H3.60003C3.15892 20.6003 2.80001 20.2414 2.80001 19.8003V11.8001C2.80001 11.359 3.15892 11.0001 3.60003 11.0001H5.00005C5.10614 11.0001 5.20788 10.958 5.2829 10.8829C5.35791 10.8079 5.40006 10.7062 5.40006 10.6001C5.40006 10.494 5.35791 10.3923 5.2829 10.3173C5.20788 10.2422 5.10614 10.2001 5.00005 10.2001H3.60003C2.71776 10.2001 2 10.9179 2 11.8001V19.8003C2 20.6825 2.71776 21.4003 3.60003 21.4003H16.7002C16.8063 21.4003 16.9081 21.3581 16.9831 21.2831C17.0581 21.2081 17.1003 21.1064 17.1003 21.0003V11.0001H20.4003C20.8414 11.0001 21.2003 11.359 21.2003 11.8001V19.8003C21.2003 20.2414 20.8414 20.6003 20.4003 20.6003H18.7003C18.5942 20.6003 18.4924 20.6424 18.4174 20.7174C18.3424 20.7924 18.3003 20.8942 18.3003 21.0003C18.3003 21.1064 18.3424 21.2081 18.4174 21.2831C18.4924 21.3581 18.5942 21.4003 18.7003 21.4003H20.4003C21.2826 21.4003 22.0003 20.6825 22.0003 19.8003V11.8001C22.0003 10.9179 21.2826 10.2001 20.4003 10.2001ZM10.6001 16.8502H13.4002V20.6003H10.6001V16.8502ZM4.85005 13.8002C4.95614 13.8002 5.05788 13.8423 5.1329 13.9173C5.20791 13.9923 5.25005 14.0941 5.25005 14.2002V15.9002C5.25005 16.0063 5.20791 16.108 5.1329 16.183C5.05788 16.2581 4.95614 16.3002 4.85005 16.3002C4.74396 16.3002 4.64222 16.2581 4.5672 16.183C4.49218 16.108 4.45004 16.0063 4.45004 15.9002V14.2002C4.45004 14.0941 4.49218 13.9923 4.5672 13.9173C4.64222 13.8423 4.74396 13.8002 4.85005 13.8002ZM19.1503 16.3002C19.0442 16.3002 18.9425 16.2581 18.8674 16.183C18.7924 16.108 18.7503 16.0063 18.7503 15.9002V14.2002C18.7503 14.0941 18.7924 13.9923 18.8674 13.9173C18.9425 13.8423 19.0442 13.8002 19.1503 13.8002C19.2564 13.8002 19.3581 13.8423 19.4331 13.9173C19.5082 13.9923 19.5503 14.0941 19.5503 14.2002V15.9002C19.5503 16.0063 19.5082 16.108 19.4331 16.183C19.3581 16.2581 19.2564 16.3002 19.1503 16.3002ZM14.3002 9.35008H9.70013C9.59404 9.35008 9.4923 9.30794 9.41728 9.23292C9.34226 9.15791 9.30012 9.05616 9.30012 8.95007C9.30012 8.84399 9.34226 8.74224 9.41728 8.66723C9.4923 8.59221 9.59404 8.55007 9.70013 8.55007H14.3002C14.4063 8.55007 14.508 8.59221 14.5831 8.66723C14.6581 8.74224 14.7002 8.84399 14.7002 8.95007C14.7002 9.05616 14.6581 9.15791 14.5831 9.23292C14.508 9.30794 14.4063 9.35008 14.3002 9.35008ZM13.6002 12.4001C13.7063 12.4001 13.808 12.4423 13.883 12.5173C13.9581 12.5923 14.0002 12.694 14.0002 12.8001C14.0002 12.9062 13.9581 13.008 13.883 13.083C13.808 13.158 13.7063 13.2001 13.6002 13.2001H10.4001C10.2941 13.2001 10.1923 13.158 10.1173 13.083C10.0423 13.008 10.0001 12.9062 10.0001 12.8001C10.0001 12.694 10.0423 12.5923 10.1173 12.5173C10.1923 12.4423 10.2941 12.4001 10.4001 12.4001H13.6002Z"
        fill="currentColor" />
</svg>