<svg width="24" height="25" viewBox="0 0 24 25" fill="none" xmlns="http://www.w3.org/2000/svg">
    <path
        d="M19.8293 11.3506L12.3293 4.7881C12.1407 4.62315 11.8593 4.62315 11.6707 4.7881L4.17075 11.3506C4.06224 11.4455 4 11.5827 4 11.7269V20.5C4 20.7761 4.22386 21 4.5 21H9C9.27614 21 9.5 20.7761 9.5 20.5V16C9.5 15.7239 9.72386 15.5 10 15.5H13.5C13.7761 15.5 14 15.7239 14 16V20.5C14 20.7761 14.2239 21 14.5 21H19.5C19.7761 21 20 20.7761 20 20.5V11.7269C20 11.5827 19.9378 11.4455 19.8293 11.3506Z"
        stroke="currentColor" />
</svg>