<svg width="44" height="45" viewBox="0 0 44 45" fill="none" xmlns="http://www.w3.org/2000/svg">
<rect x="0.5" y="1.22705" width="43" height="43" rx="21.5" fill="#F9FBFF"/>
<rect x="0.5" y="1.22705" width="43" height="43" rx="21.5" stroke="#E3ECFF"/>
<path d="M27.2532 23.2169C26.9692 25.5819 25.4202 26.5269 24.7512 27.2129C24.0812 27.9009 24.2012 28.0379 24.2462 29.0469C24.2537 29.1718 24.2356 29.2968 24.1929 29.4144C24.1503 29.5319 24.084 29.6395 23.9982 29.7305C23.9124 29.8215 23.8088 29.8939 23.694 29.9433C23.5791 29.9928 23.4553 30.0181 23.3302 30.0179H20.6722C20.5472 30.018 20.4234 29.9925 20.3085 29.943C20.1937 29.8936 20.0901 29.8211 20.0043 29.7302C19.9184 29.6393 19.852 29.5318 19.8092 29.4143C19.7664 29.2968 19.748 29.1718 19.7552 29.0469C19.7552 28.0569 19.8472 27.8269 19.2512 27.2129C18.4912 26.4529 16.7032 25.3799 16.7032 22.4289C16.6987 21.6959 16.846 20.9699 17.1359 20.2967C17.4259 19.6234 17.8522 19.0176 18.3879 18.5173C18.9236 18.017 19.5572 17.633 20.2486 17.3897C20.9401 17.1464 21.6744 17.049 22.4054 17.1036C23.1364 17.1582 23.8481 17.3636 24.4958 17.707C25.1434 18.0503 25.7129 18.5241 26.1684 19.0984C26.6238 19.6728 26.9554 20.3352 27.1421 21.0441C27.3288 21.7529 27.3666 22.4927 27.2532 23.2169Z" stroke="#0582CA" stroke-width="0.8" stroke-linecap="round" stroke-linejoin="round"/>
<path d="M20.4609 29.963V31.475C20.4609 31.888 20.6909 32.227 20.9739 32.227H23.0269C23.3119 32.227 23.5409 31.887 23.5409 31.475V29.963M21.2209 19.423C20.6305 19.4233 20.0643 19.658 19.6469 20.0756C19.2294 20.4932 18.9949 21.0595 18.9949 21.65M29.3329 22.631H31.1669M27.4869 16.619L28.7879 15.318M28.4869 27.727L29.7879 29.027M22.0009 13.104V14.587M15.2409 15.317L16.5329 16.619M14.2409 29.027L15.5329 27.727M14.6689 22.631H12.8359" stroke="#0582CA" stroke-width="0.8" stroke-linecap="round" stroke-linejoin="round"/>
</svg>
