<svg width="20" height="22" viewBox="0 0 20 22" fill="none" xmlns="http://www.w3.org/2000/svg">
<path d="M18.8653 17.1447C18.5326 17.9133 18.1388 18.6208 17.6825 19.2713C17.0605 20.158 16.5513 20.7719 16.1588 21.1127C15.5505 21.6722 14.8986 21.9587 14.2006 21.975C13.6995 21.975 13.0952 21.8324 12.3918 21.5432C11.686 21.2553 11.0375 21.1127 10.4444 21.1127C9.82249 21.1127 9.15545 21.2553 8.44196 21.5432C7.72739 21.8324 7.15175 21.9832 6.71162 21.9981C6.04227 22.0266 5.3751 21.7319 4.70914 21.1127C4.2841 20.742 3.75245 20.1064 3.11555 19.2061C2.43222 18.2446 1.87042 17.1297 1.4303 15.8587C0.958945 14.4857 0.722656 13.1563 0.722656 11.8692C0.722656 10.3948 1.04124 9.12321 1.67935 8.0576C2.18086 7.20166 2.84803 6.52647 3.68305 6.03081C4.51808 5.53514 5.42032 5.28256 6.39196 5.2664C6.9236 5.2664 7.62079 5.43085 8.48718 5.75405C9.35113 6.07834 9.90587 6.24279 10.1491 6.24279C10.3309 6.24279 10.9472 6.0505 11.9919 5.66714C12.9798 5.31162 13.8136 5.16441 14.4967 5.2224C16.3476 5.37178 17.7382 6.10142 18.6629 7.41595C17.0076 8.41896 16.1887 9.82379 16.205 11.626C16.2199 13.0297 16.7292 14.1979 17.73 15.1254C18.1836 15.5558 18.6901 15.8885 19.2537 16.1248C19.1314 16.4793 19.0024 16.8188 18.8653 17.1447ZM14.6202 0.440125C14.6202 1.54038 14.2183 2.56768 13.4171 3.51854C12.4502 4.64892 11.2807 5.30211 10.0125 5.19904C9.99631 5.06705 9.98694 4.92812 9.98694 4.78214C9.98694 3.7259 10.4467 2.59552 11.2633 1.67127C11.671 1.20331 12.1894 0.814209 12.8182 0.503814C13.4456 0.19805 14.039 0.0289566 14.5971 0C14.6134 0.147086 14.6202 0.294182 14.6202 0.440111V0.440125Z" fill="black"/>
</svg>
