<svg width="14" height="15" viewBox="0 0 14 15" fill="none" xmlns="http://www.w3.org/2000/svg">
<path fill-rule="evenodd" clip-rule="evenodd" d="M10.0856 0.186107C9.9663 0.0669366 9.80455 0 9.63592 0C9.46728 0 9.30554 0.0669366 9.18622 0.186107L1.3861 7.98538C1.30635 8.06518 1.24925 8.16474 1.22065 8.27386L0.372161 11.5236C0.344152 11.631 0.344716 11.7438 0.373799 11.8509C0.402882 11.958 0.459471 12.0557 0.537949 12.1341C0.616428 12.2126 0.714066 12.2692 0.821174 12.2983C0.928281 12.3274 1.04113 12.3279 1.14852 12.2999L4.39652 11.4514C4.50605 11.4227 4.60592 11.3653 4.68586 11.2851L12.4851 3.48586C12.6043 3.36655 12.6712 3.2048 12.6712 3.03617C12.6712 2.86753 12.6043 2.70579 12.4851 2.58647L10.0856 0.186107ZM2.40768 8.76344L9.63592 1.53605L11.1352 3.03532L3.9078 10.2636L1.87737 10.7939L2.40768 8.76344Z" fill="#0582CA"/>
<path d="M0.636364 13.5752C0.46759 13.5752 0.305728 13.6422 0.186387 13.7616C0.0670452 13.8809 0 14.0428 0 14.2116C0 14.3803 0.0670452 14.5422 0.186387 14.6615C0.305728 14.7809 0.46759 14.8479 0.636364 14.8479H13.3636C13.5324 14.8479 13.6943 14.7809 13.8136 14.6615C13.933 14.5422 14 14.3803 14 14.2116C14 14.0428 13.933 13.8809 13.8136 13.7616C13.6943 13.6422 13.5324 13.5752 13.3636 13.5752H0.636364Z" fill="#0582CA"/>
</svg>
