<svg width="320" height="43" viewBox="0 0 320 43" fill="none" xmlns="http://www.w3.org/2000/svg">
<g filter="url(#filter0_d_489_10296)">
<path d="M81.9433 28.6459H80.8495C80.6049 28.6459 80.3902 28.4835 80.3235 28.2485C79.5849 25.646 79.5849 22.8227 80.3235 20.2201C80.3902 19.9851 80.6049 19.8228 80.8495 19.8228H81.9433C82.1879 19.8228 82.4026 19.9851 82.4694 20.2201C83.208 22.8226 83.208 25.646 82.4694 28.2485C82.4026 28.4835 82.1879 28.6459 81.9433 28.6459Z" fill="#FF0000"/>
<path d="M95.1425 28.6459H94.0488C93.8042 28.6459 93.5895 28.4835 93.5227 28.2485C92.7841 25.646 92.7841 22.8227 93.5227 20.2201C93.5895 19.9851 93.8042 19.8228 94.0488 19.8228H95.1425C95.3871 19.8228 95.6018 19.9851 95.6686 20.2201C96.4072 22.8226 96.4072 25.646 95.6686 28.2485C95.6018 28.4835 95.3871 28.6459 95.1425 28.6459Z" fill="#FF0000"/>
<path d="M86.3554 28.6459H85.2617C85.0171 28.6459 84.8024 28.4835 84.7356 28.2485C83.997 25.646 83.997 22.8227 84.7356 20.2201C84.8024 19.9851 85.0171 19.8228 85.2617 19.8228H86.3554C86.6 19.8228 86.8147 19.9851 86.8815 20.2201C87.6201 22.8226 87.6201 25.646 86.8815 28.2485C86.8147 28.4835 86.6 28.6459 86.3554 28.6459Z" fill="#FF0000"/>
<path d="M90.7304 28.7084H89.6367C89.3921 28.7084 89.1774 28.546 89.1106 28.311C88.372 25.7085 88.372 22.8852 89.1106 20.2826C89.1774 20.0476 89.3921 19.8853 89.6367 19.8853H90.7304C90.975 19.8853 91.1897 20.0476 91.2565 20.2826C91.9951 22.8851 91.9951 25.7085 91.2565 28.311C91.1897 28.546 90.975 28.7084 90.7304 28.7084Z" fill="#FF0000"/>
<path d="M88.0002 12.1665C88.0987 12.1665 88.1971 12.1884 88.2956 12.254L96.9399 17.6354C97.1695 17.7776 97.3327 17.8875 97.3327 18.1828V19.2766C97.3327 20.1844 96.5999 20.9172 95.6921 20.9172H80.3066C79.3988 20.9172 78.666 20.1844 78.666 19.2766V18.1828C78.666 17.8874 78.8301 17.7781 79.0598 17.6359L87.7049 12.254C87.8034 12.1884 87.9018 12.1665 88.0002 12.1665Z" fill="#BDC4FF"/>
<path d="M88.9292 15.9006C88.9292 16.4234 88.5186 16.834 87.9958 16.834C87.4731 16.834 87.0625 16.4234 87.0625 15.9006C87.0625 15.3779 87.4731 14.9673 87.9958 14.9673C88.5186 14.9673 88.9292 15.3779 88.9292 15.9006Z" fill="#EDEEFF"/>
<path d="M95.6921 27.5518H80.3066C79.3988 27.5518 78.666 28.2846 78.666 29.1924V30.2862C78.666 30.5924 78.9066 30.8331 79.2129 30.8331H96.7858C97.0921 30.8331 97.3327 30.5924 97.3327 30.2862V29.1924C97.3327 28.2846 96.5999 27.5518 95.6921 27.5518Z" fill="#BDC4FF"/>
</g>
<g filter="url(#filter1_d_489_10296)">
<path d="M133.536 22.3177H120V26.8271H133.536V22.3177Z" fill="#84B740"/>
<path d="M133.536 16.1646H120V20.6779H133.536V16.1646Z" fill="#259BD6"/>
<path d="M147.072 25.9108L147.012 25.9229C146.803 25.963 146.727 25.9791 146.574 25.9791C146.22 25.9791 145.802 25.7983 145.802 24.9462C145.802 24.5081 145.875 23.9254 146.534 23.9254H146.538C146.65 23.9334 146.779 23.9455 147.02 24.0178L147.072 24.0339L147.072 25.9108ZM147.181 21.6626L147.072 21.6827V23.2582L146.976 23.23L146.948 23.222C146.839 23.1899 146.59 23.1175 146.349 23.1175C145.031 23.1175 144.753 24.1143 144.753 24.9502C144.753 26.0957 145.397 26.7548 146.518 26.7548C146.992 26.7548 147.342 26.7066 147.695 26.59C148.021 26.4856 148.138 26.3368 148.138 26.0193V21.4979C147.824 21.5541 147.498 21.6104 147.181 21.6626Z" fill="#27292D"/>
<path d="M150.991 25.9389L150.935 25.955L150.734 26.0073C150.545 26.0555 150.376 26.0836 150.248 26.0836C149.938 26.0836 149.753 25.9309 149.753 25.6697C149.753 25.5009 149.83 25.2155 150.336 25.2155H150.991L150.991 25.9389ZM150.529 23.0974C150.123 23.0974 149.705 23.1697 149.187 23.3305L148.849 23.431L148.961 24.1946L149.291 24.0861C149.637 23.9735 150.067 23.9012 150.388 23.9012C150.533 23.9012 150.975 23.9012 150.975 24.3795V24.5885H150.36C149.239 24.5885 148.72 24.9462 148.72 25.7138C148.72 26.3689 149.199 26.7627 150.002 26.7627C150.252 26.7627 150.597 26.7145 150.895 26.6421L150.911 26.6381L150.927 26.6421L151.027 26.6582C151.341 26.7145 151.666 26.7708 151.984 26.831V24.3231C151.984 23.5114 151.494 23.0974 150.529 23.0974Z" fill="#27292D"/>
<path d="M143.182 25.9389L143.126 25.955L142.925 26.0073C142.736 26.0555 142.571 26.0836 142.438 26.0836C142.129 26.0836 141.944 25.9309 141.944 25.6697C141.944 25.5009 142.02 25.2155 142.523 25.2155H143.178V25.9389H143.182ZM142.724 23.0974C142.314 23.0974 141.9 23.1697 141.381 23.3305L141.044 23.431L141.156 24.1946L141.486 24.0861C141.832 23.9735 142.262 23.9012 142.583 23.9012C142.728 23.9012 143.17 23.9012 143.17 24.3795V24.5885H142.555C141.434 24.5885 140.911 24.9462 140.911 25.7138C140.911 26.3689 141.39 26.7627 142.197 26.7627C142.447 26.7627 142.792 26.7145 143.09 26.6421L143.106 26.6381L143.122 26.6421L143.218 26.6582C143.536 26.7145 143.857 26.7708 144.175 26.8351V24.3271C144.179 23.5074 143.688 23.0974 142.724 23.0974Z" fill="#27292D"/>
<path d="M138.95 23.1055C138.44 23.1055 138.018 23.2743 137.861 23.3466L137.821 23.3667L137.784 23.3386C137.567 23.1818 137.25 23.1014 136.808 23.1014C136.418 23.1014 136.052 23.1576 135.654 23.2742C135.313 23.3787 135.18 23.5435 135.18 23.853V26.7186H136.249V24.07L136.301 24.0539C136.518 23.9816 136.647 23.9695 136.772 23.9695C137.081 23.9695 137.238 24.1343 137.238 24.4558V26.7226H138.291V24.4116C138.291 24.2749 138.263 24.1946 138.259 24.1785L138.223 24.1102L138.295 24.078C138.456 24.0057 138.633 23.9695 138.817 23.9695C139.03 23.9695 139.284 24.0539 139.284 24.4558V26.7226H140.333V24.3514C140.333 23.5114 139.882 23.1055 138.95 23.1055Z" fill="#27292D"/>
<path d="M150.203 19.1065C150.047 19.1065 149.785 19.0904 149.58 19.0502L149.52 19.0381V17.4908C149.52 17.3621 149.496 17.2818 149.492 17.2697L149.46 17.2054L149.528 17.1772C149.544 17.1692 149.56 17.1651 149.58 17.1571L149.592 17.1491C149.617 17.141 149.641 17.133 149.665 17.125C149.677 17.1209 149.685 17.1169 149.693 17.1169C149.93 17.0527 150.147 17.0607 150.244 17.0527H150.248C150.903 17.0527 150.979 17.6354 150.979 18.0735C150.975 18.9256 150.553 19.1065 150.203 19.1065ZM150.199 16.1646C150.191 16.1646 150.179 16.1646 150.171 16.1646C149.556 16.1646 148.925 16.3334 148.7 16.6629C148.58 16.8237 148.511 17.0246 148.507 17.2617V18.8573C148.507 18.994 148.479 19.0462 148.475 19.0583L148.439 19.1266H146.498V18.0173H146.494C146.47 16.8478 145.778 16.2047 144.778 16.2047H143.801C143.761 16.4901 143.729 16.6911 143.688 16.9764H144.661C145.171 16.9764 145.441 17.4105 145.441 18.0776V19.1949L145.372 19.1587C145.36 19.1547 145.276 19.1266 145.143 19.1266H143.463C143.431 19.3396 143.391 19.6169 143.347 19.8942H148.511C148.688 19.858 148.893 19.8259 149.07 19.7978C149.331 19.9264 149.817 19.9947 150.151 19.9947C151.272 19.9947 152 19.2431 152 18.0857C151.996 16.9402 151.293 16.1887 150.199 16.1646Z" fill="#27292D"/>
<path d="M141.193 20.3645C142.314 20.3645 142.836 19.9947 142.836 19.0824C142.836 18.4273 142.358 17.9048 141.554 17.9048H140.521C140.212 17.9048 140.027 17.728 140.027 17.4306C140.027 17.2297 140.103 16.9805 140.61 16.9805H142.869C142.917 16.6871 142.941 16.5022 142.985 16.2088H140.638C139.545 16.2088 138.994 16.667 138.994 17.4306C138.994 18.1862 139.472 18.58 140.276 18.58H141.309C141.619 18.58 141.803 18.8252 141.803 19.0824C141.803 19.2513 141.727 19.6009 141.225 19.6009H141.052L137.744 19.5929H137.141C136.631 19.5929 136.273 19.3035 136.273 18.6323V18.1701C136.273 17.4708 136.55 17.0367 137.141 17.0367H138.122C138.166 16.7393 138.194 16.5504 138.234 16.2691H136.896C135.895 16.2691 135.204 16.9403 135.18 18.1098V18.6323C135.204 19.8019 135.895 20.3605 136.896 20.3605H137.873L139.665 20.3646L141.193 20.3645Z" fill="#27292D"/>
</g>
<g filter="url(#filter2_d_489_10296)">
<path d="M187.605 15.2136H180.395V27.7855H187.605V15.2136Z" fill="#FF5F00"/>
<path d="M180.853 21.4982C180.853 19.0549 182.021 16.7227 183.989 15.2123C180.418 12.4802 175.246 13.0799 172.43 16.5672C169.615 20.0322 170.233 25.0521 173.827 27.7842C176.825 30.072 181.014 30.072 184.012 27.7842C182.021 26.2738 180.853 23.9415 180.853 21.4982Z" fill="#EB001B"/>
<path d="M197.333 21.4981C197.333 25.9183 193.648 29.4944 189.093 29.4944C187.239 29.4944 185.454 28.8948 184.012 27.7842C187.583 25.0521 188.2 20.0321 185.385 16.5449C184.973 16.0562 184.515 15.5898 184.012 15.2122C187.582 12.4801 192.778 13.0798 195.57 16.5671C196.715 17.9664 197.333 19.699 197.333 21.4981Z" fill="#F79E1B"/>
<path d="M196.555 26.4508V26.1842H196.669V26.1398H196.395V26.1842H196.509V26.4508H196.555ZM197.081 26.4508V26.1398H196.99L196.898 26.3619L196.807 26.1398H196.715V26.4508H196.784V26.2064L196.875 26.4063H196.944L197.036 26.2064V26.4508H197.081Z" fill="#F79E1B"/>
</g>
<g filter="url(#filter3_d_489_10296)">
<path d="M237.253 16.1665C234.795 16.1665 232.588 17.3838 232.588 19.6175C232.588 22.19 236.486 22.3657 236.486 23.6457C236.486 24.1853 235.826 24.6748 234.715 24.6748C233.129 24.6748 231.94 23.9971 231.94 23.9971L231.438 26.2559C231.438 26.2559 232.799 26.8332 234.623 26.8332C237.319 26.8332 239.434 25.5657 239.434 23.2818C239.434 20.5712 235.522 20.3955 235.522 19.2034C235.522 18.7767 236.063 18.3124 237.174 18.3124C238.429 18.3124 239.46 18.8018 239.46 18.8018L239.962 16.6183C239.949 16.6183 238.826 16.1665 237.253 16.1665ZM214.732 16.3296L214.666 16.6559C214.666 16.6559 215.697 16.8316 216.635 17.1955C217.838 17.6096 217.917 17.8481 218.129 18.5885L220.336 26.6575H223.296L227.83 16.3296H224.882L221.961 23.3571L220.772 17.3963C220.666 16.7187 220.111 16.3296 219.424 16.3296H214.732ZM229.019 16.3296L226.706 26.6575H229.521L231.821 16.3296H229.019ZM244.694 16.3296C244.02 16.3296 243.663 16.6685 243.399 17.2708L239.275 26.6575H242.222L242.791 25.0889H246.385L246.729 26.6575H249.333L247.073 16.3296H244.694ZM245.077 19.1281L245.949 23.0057H243.61L245.077 19.1281Z" fill="#57C231"/>
</g>
<defs>
<filter id="filter0_d_489_10296" x="56" y="-2.5" width="64" height="48" filterUnits="userSpaceOnUse" color-interpolation-filters="sRGB">
<feFlood flood-opacity="0" result="BackgroundImageFix"/>
<feColorMatrix in="SourceAlpha" type="matrix" values="0 0 0 0 0 0 0 0 0 0 0 0 0 0 0 0 0 0 127 0" result="hardAlpha"/>
<feOffset/>
<feGaussianBlur stdDeviation="6"/>
<feComposite in2="hardAlpha" operator="out"/>
<feColorMatrix type="matrix" values="0 0 0 0 0 0 0 0 0 0 0 0 0 0 0 0 0 0 0.06 0"/>
<feBlend mode="normal" in2="BackgroundImageFix" result="effect1_dropShadow_489_10296"/>
<feBlend mode="normal" in="SourceGraphic" in2="effect1_dropShadow_489_10296" result="shape"/>
</filter>
<filter id="filter1_d_489_10296" x="104" y="-2.5" width="64" height="48" filterUnits="userSpaceOnUse" color-interpolation-filters="sRGB">
<feFlood flood-opacity="0" result="BackgroundImageFix"/>
<feColorMatrix in="SourceAlpha" type="matrix" values="0 0 0 0 0 0 0 0 0 0 0 0 0 0 0 0 0 0 127 0" result="hardAlpha"/>
<feOffset/>
<feGaussianBlur stdDeviation="6"/>
<feComposite in2="hardAlpha" operator="out"/>
<feColorMatrix type="matrix" values="0 0 0 0 0 0 0 0 0 0 0 0 0 0 0 0 0 0 0.06 0"/>
<feBlend mode="normal" in2="BackgroundImageFix" result="effect1_dropShadow_489_10296"/>
<feBlend mode="normal" in="SourceGraphic" in2="effect1_dropShadow_489_10296" result="shape"/>
</filter>
<filter id="filter2_d_489_10296" x="152" y="-2.5" width="64" height="48" filterUnits="userSpaceOnUse" color-interpolation-filters="sRGB">
<feFlood flood-opacity="0" result="BackgroundImageFix"/>
<feColorMatrix in="SourceAlpha" type="matrix" values="0 0 0 0 0 0 0 0 0 0 0 0 0 0 0 0 0 0 127 0" result="hardAlpha"/>
<feOffset/>
<feGaussianBlur stdDeviation="6"/>
<feComposite in2="hardAlpha" operator="out"/>
<feColorMatrix type="matrix" values="0 0 0 0 0 0 0 0 0 0 0 0 0 0 0 0 0 0 0.06 0"/>
<feBlend mode="normal" in2="BackgroundImageFix" result="effect1_dropShadow_489_10296"/>
<feBlend mode="normal" in="SourceGraphic" in2="effect1_dropShadow_489_10296" result="shape"/>
</filter>
<filter id="filter3_d_489_10296" x="200" y="-2.5" width="64" height="48" filterUnits="userSpaceOnUse" color-interpolation-filters="sRGB">
<feFlood flood-opacity="0" result="BackgroundImageFix"/>
<feColorMatrix in="SourceAlpha" type="matrix" values="0 0 0 0 0 0 0 0 0 0 0 0 0 0 0 0 0 0 127 0" result="hardAlpha"/>
<feOffset/>
<feGaussianBlur stdDeviation="6"/>
<feComposite in2="hardAlpha" operator="out"/>
<feColorMatrix type="matrix" values="0 0 0 0 0 0 0 0 0 0 0 0 0 0 0 0 0 0 0.06 0"/>
<feBlend mode="normal" in2="BackgroundImageFix" result="effect1_dropShadow_489_10296"/>
<feBlend mode="normal" in="SourceGraphic" in2="effect1_dropShadow_489_10296" result="shape"/>
</filter>
</defs>
</svg>
