<svg width="8" height="11" viewBox="0 0 8 11" fill="none" xmlns="http://www.w3.org/2000/svg">
<path d="M7.48615 6.23845C7.77851 5.69618 7.93099 5.09108 7.93007 4.47671C7.93007 2.40391 6.22879 0.723633 4.13008 0.723633C2.03136 0.723633 0.330084 2.40391 0.330084 4.47671C0.328545 5.36206 0.645415 6.21917 1.2242 6.89524L1.22867 6.90076C1.23024 6.90209 1.23158 6.90385 1.23269 6.90518H1.2242L3.35726 10.4461C3.44085 10.5337 3.5417 10.6036 3.65362 10.6513C3.76554 10.699 3.88616 10.7236 4.00806 10.7236C4.12997 10.7236 4.25058 10.699 4.3625 10.6513C4.47442 10.6036 4.57527 10.5337 4.65887 10.4461L7.03596 6.90518H7.02746L7.03104 6.90098L7.03149 6.90054C7.04758 6.88156 7.06367 6.86257 7.07955 6.84314C7.23459 6.65494 7.37083 6.45236 7.48637 6.23823L7.48615 6.23845ZM4.13097 5.91172C3.77527 5.91172 3.43414 5.77216 3.18262 5.52374C2.9311 5.27533 2.7898 4.93841 2.7898 4.5871C2.7898 4.23579 2.9311 3.89887 3.18262 3.65045C3.43414 3.40204 3.77527 3.26248 4.13097 3.26248C4.48667 3.26248 4.82781 3.40204 5.07933 3.65045C5.33085 3.89887 5.47215 4.23579 5.47215 4.5871C5.47215 4.93841 5.33085 5.27533 5.07933 5.52374C4.82781 5.77216 4.48667 5.91172 4.13097 5.91172Z" fill="#0582CA"/>
</svg>
