<svg width="44" height="44" viewBox="0 0 44 44" fill="none" xmlns="http://www.w3.org/2000/svg">
<rect x="0.5" y="0.5" width="43" height="43" rx="21.5" fill="#F9FBFF"/>
<rect x="0.5" y="0.5" width="43" height="43" rx="21.5" stroke="#E3ECFF"/>
<path d="M19.8918 24.8111C19.8918 24.9974 19.8178 25.1762 19.686 25.308C19.5542 25.4398 19.3755 25.5138 19.1891 25.5138C19.0027 25.5138 18.824 25.4398 18.6922 25.308C18.5604 25.1762 18.4863 24.9974 18.4863 24.8111C18.4863 24.6247 18.5604 24.4459 18.6922 24.3141C18.824 24.1824 19.0027 24.1083 19.1891 24.1083C19.3755 24.1083 19.5542 24.1824 19.686 24.3141C19.8178 24.4459 19.8918 24.6247 19.8918 24.8111ZM22.7028 24.8111C22.7028 24.9974 22.6288 25.1762 22.497 25.308C22.3652 25.4398 22.1865 25.5138 22.0001 25.5138C21.8137 25.5138 21.635 25.4398 21.5032 25.308C21.3714 25.1762 21.2973 24.9974 21.2973 24.8111C21.2973 24.6247 21.3714 24.4459 21.5032 24.3141C21.635 24.1824 21.8137 24.1083 22.0001 24.1083C22.1865 24.1083 22.3652 24.1824 22.497 24.3141C22.6288 24.4459 22.7028 24.6247 22.7028 24.8111ZM24.8111 25.5138C24.9975 25.5138 25.1762 25.4398 25.308 25.308C25.4398 25.1762 25.5138 24.9974 25.5138 24.8111C25.5138 24.6247 25.4398 24.4459 25.308 24.3141C25.1762 24.1824 24.9975 24.1083 24.8111 24.1083C24.6247 24.1083 24.446 24.1824 24.3142 24.3141C24.1824 24.4459 24.1083 24.6247 24.1083 24.8111C24.1083 24.9974 24.1824 25.1762 24.3142 25.308C24.446 25.4398 24.6247 25.5138 24.8111 25.5138Z" fill="#0582CA"/>
<path fill-rule="evenodd" clip-rule="evenodd" d="M17.2563 19.1891V20.1048C17.0968 20.116 16.9471 20.1301 16.8051 20.1498C16.1727 20.2341 15.64 20.4168 15.2169 20.8392C14.7939 21.2622 14.6126 21.7949 14.5275 22.4274C14.4453 23.0367 14.4453 23.8118 14.4453 24.7725V24.8498C14.4453 25.8104 14.4453 26.5856 14.5275 27.1949C14.6119 27.8273 14.7946 28.36 15.2169 28.7831C15.64 29.2061 16.1727 29.3874 16.8051 29.4732C17.4144 29.5547 18.1896 29.5547 19.1502 29.5547H24.8495C25.8102 29.5547 26.5853 29.5547 27.1946 29.4732C27.8271 29.3874 28.3598 29.2061 28.7828 28.7831C29.2059 28.36 29.3872 27.8273 29.4729 27.1949C29.5544 26.5856 29.5544 25.8104 29.5544 24.8498V24.7725C29.5544 23.8118 29.5544 23.0367 29.4729 22.4274C29.3872 21.7949 29.2059 21.2622 28.7828 20.8392C28.3598 20.4161 27.8271 20.2348 27.1946 20.1498C27.0447 20.13 26.8943 20.115 26.7434 20.1048V19.1891C26.7434 17.931 26.2437 16.7245 25.3541 15.8349C24.4645 14.9453 23.2579 14.4456 21.9999 14.4456C20.7418 14.4456 19.5353 14.9453 18.6457 15.8349C17.7561 16.7245 17.2563 17.931 17.2563 19.1891ZM21.9999 15.4997C21.0214 15.4997 20.083 15.8884 19.3911 16.5803C18.6991 17.2722 18.3104 18.2106 18.3104 19.1891V20.0697C18.5726 20.0676 18.853 20.0676 19.1502 20.0676H24.8495C25.1468 20.0676 25.4272 20.0676 25.6893 20.0697V19.1891C25.6893 17.1511 24.0379 15.4997 21.9999 15.4997ZM16.9457 21.1941C16.4299 21.2636 16.1572 21.3908 15.9626 21.5848C15.7679 21.7795 15.6414 22.0521 15.5718 22.5686C15.5008 23.0992 15.4994 23.8027 15.4994 24.8111C15.4994 25.8196 15.5008 26.523 15.5718 27.0543C15.6414 27.5701 15.7686 27.8428 15.9626 28.0374C16.1572 28.2321 16.4299 28.3586 16.9464 28.4282C17.4763 28.4992 18.1804 28.5006 19.1889 28.5006H24.8109C25.8193 28.5006 26.5228 28.4992 27.0541 28.4282C27.5699 28.3586 27.8425 28.2314 28.0372 28.0374C28.2319 27.8428 28.3584 27.5701 28.4279 27.0536C28.4989 26.523 28.5003 25.8196 28.5003 24.8111C28.5003 23.8027 28.4989 23.0985 28.4279 22.5679C28.3584 22.0521 28.2312 21.7795 28.0372 21.5848C27.8425 21.3901 27.5699 21.2636 27.0534 21.1941C26.5228 21.1231 25.8193 21.1217 24.8109 21.1217H19.1889C18.1804 21.1217 17.4763 21.1231 16.9457 21.1941Z" fill="#0582CA"/>
</svg>
