<svg width="70" height="14" viewBox="0 0 70 14" fill="none" xmlns="http://www.w3.org/2000/svg">
<path d="M69.4039 11.1618V13.4623H59.4444C59.4379 13.4376 59.4323 13.412 59.4257 13.3873C59.8029 13.2801 60.1802 13.1729 60.5976 13.0542C60.5976 12.8843 60.5976 12.7135 60.5976 12.5417C60.5976 8.84223 60.5911 5.14274 60.607 1.44325C60.6089 1.0361 60.5096 0.835848 60.095 0.799783C59.8572 0.778903 59.6251 0.687792 59.4014 0.529297H69.2204V2.87351C69.0425 2.69888 68.9199 2.62675 68.8684 2.5195C68.6503 2.06585 68.465 1.597 68.2432 1.14619C68.1851 1.02756 68.041 0.870963 67.9352 0.870014C66.1614 0.852931 64.3886 0.857676 62.5914 0.857676V6.61475C63.6566 6.61475 64.6975 6.6176 65.7383 6.61381C66.1586 6.61191 66.6763 6.74193 66.9683 6.54073C67.2276 6.3623 67.2285 5.80709 67.3614 5.42367C67.4026 5.30408 67.5009 5.20443 67.573 5.09529C67.6076 5.11047 67.6432 5.12661 67.6778 5.14179V8.45691C67.5805 8.4161 67.4887 8.40281 67.4354 8.34871C67.3858 8.29841 67.3736 8.20635 67.3511 8.13137C67.2388 7.75554 67.2369 7.22406 66.9879 7.04563C66.7128 6.84823 66.212 6.96496 65.8095 6.96306C64.7518 6.95737 63.694 6.96117 62.6017 6.96117V13.1349C62.7224 13.1434 62.8553 13.1624 62.9892 13.1624C64.6263 13.1643 66.2635 13.1558 67.9006 13.171C68.1964 13.1738 68.3508 13.0789 68.4585 12.8065C68.6335 12.369 68.8319 11.94 69.0407 11.5177C69.095 11.4076 69.2223 11.3345 69.402 11.1618H69.4039Z" fill="#0582CA"/>
<path d="M37.0268 3.55963C36.9538 3.42201 36.8574 3.29294 36.8106 3.14678C36.395 1.86363 35.5872 1.01706 34.258 0.714306C32.8942 0.403959 31.4798 0.902223 30.8677 1.93197C30.1095 3.20847 30.5017 4.62544 31.8439 5.21007C32.7257 5.59444 33.672 5.82222 34.565 6.18097C35.2399 6.4524 35.9223 6.75326 36.5223 7.16041C37.5744 7.87506 37.9441 8.96745 37.8327 10.2136C37.7073 11.6173 37.0277 12.6821 35.707 13.1823C33.9472 13.8485 32.1613 13.8267 30.439 13.0304C30.0121 12.833 29.7098 12.7865 29.3756 13.1225C29.3035 13.1956 29.1959 13.2316 29.0209 13.3351V10.541C29.0508 10.5173 29.0798 10.4936 29.1098 10.4689C29.1903 10.5961 29.2979 10.7137 29.3466 10.8523C30.1731 13.2193 33.3042 14.1949 35.3045 12.7039C36.8218 11.5736 36.5897 9.14113 34.8571 8.41604C33.8836 8.00888 32.853 7.74599 31.8514 7.40717C31.5276 7.29803 31.2065 7.1737 30.8995 7.02469C29.5273 6.36034 28.8805 5.29548 28.9666 3.86808C29.0621 2.27363 29.8699 1.12051 31.2973 0.663056C32.8577 0.163844 34.4059 0.226483 35.8698 1.01801C36.2021 1.19833 36.4193 1.18125 36.6861 0.954422C36.7947 0.862362 36.9538 0.831992 37.0904 0.774098C37.1288 0.918357 37.199 1.06262 37.2018 1.20782C37.2131 1.96424 37.2074 2.7216 37.2074 3.47896C37.1475 3.50458 37.0876 3.53116 37.0277 3.55678L37.0268 3.55963Z" fill="#0582CA"/>
<path d="M47.5434 0.856693C46.4698 0.856693 45.413 0.8491 44.3562 0.868082C44.2448 0.86998 44.0913 1.0076 44.0342 1.12148C43.8087 1.5704 43.6224 2.03924 43.4015 2.491C43.3416 2.61248 43.2096 2.6979 43.0205 2.89246V0.51123H54.1107V2.85354C53.9328 2.696 53.7803 2.62007 53.7194 2.49669C53.4976 2.04683 53.3169 1.57514 53.0951 1.12433C53.0389 1.01044 52.8882 0.870929 52.7778 0.868082C51.721 0.8491 50.6632 0.856693 49.5494 0.856693V1.39766C49.5494 5.06583 49.5597 8.734 49.5372 12.4022C49.5344 12.871 49.6692 13.0921 50.1129 13.1595C50.3179 13.1908 50.5144 13.2744 50.6979 13.4405H46.4146C46.4015 13.4091 46.3884 13.3778 46.3753 13.3465C46.6636 13.2592 46.9519 13.1709 47.2402 13.0836C47.4358 13.0238 47.593 12.9745 47.5921 12.6878C47.5799 8.79854 47.5828 4.90924 47.5799 1.01993C47.5799 0.989563 47.5668 0.959193 47.5434 0.856693Z" fill="#0582CA"/>
<path d="M0.626591 0.507297H4.97355C4.98759 0.550005 5.00163 0.593662 5.01567 0.636371C4.62815 0.763546 4.24063 0.891671 3.8035 1.03498C5.24874 4.49151 6.68743 7.93284 8.17105 11.4814C9.63594 7.94898 11.0597 4.51618 12.5049 1.03308C11.9526 0.899264 11.4238 0.772088 10.8949 0.643963C10.9005 0.605051 10.9052 0.567088 10.9108 0.528176H14.1102C14.1252 0.563292 14.1392 0.598408 14.1542 0.633523C13.9136 0.710398 13.6777 0.815745 13.4316 0.856556C13.0366 0.922042 12.8363 1.13843 12.6809 1.51237C11.0737 5.39028 9.44593 9.25965 7.82752 13.1328C7.73953 13.3435 7.67588 13.5096 7.38197 13.5049C7.10397 13.5001 7.0113 13.3663 6.91769 13.1452C5.31333 9.35171 3.69024 5.56586 2.10646 1.76387C1.87901 1.21815 1.5982 0.86225 1.01317 0.778732C0.869961 0.757852 0.734237 0.68762 0.595703 0.639218C0.606 0.594611 0.616294 0.550954 0.625654 0.506348L0.626591 0.507297Z" fill="#0582CA"/>
<path d="M19.2325 13.3414C19.4619 13.2664 19.6865 13.1516 19.9205 13.125C20.3661 13.0728 20.4363 12.8317 20.4344 12.4208C20.4185 8.80009 20.4157 5.17937 20.4382 1.55866C20.441 1.12113 20.3024 0.937963 19.9074 0.860139C19.6706 0.813634 19.4441 0.713032 19.2129 0.636157C19.2251 0.596296 19.2363 0.555486 19.2485 0.515625H23.4307C23.441 0.555486 23.4513 0.596296 23.4606 0.636157C23.1976 0.731065 22.9402 0.845902 22.6706 0.913287C22.4226 0.974976 22.3159 1.07368 22.3159 1.3584C22.3262 5.12148 22.3262 8.88455 22.3177 12.6476C22.3177 12.902 22.4076 13.0168 22.6341 13.0766C22.9093 13.1497 23.1798 13.2417 23.4522 13.3253C23.4447 13.3632 23.4382 13.4021 23.4307 13.4401H19.2569C19.2485 13.4069 19.24 13.3737 19.2325 13.3414Z" fill="#0582CA"/>
</svg>
