<svg width="24" height="15" viewBox="0 0 24 15" fill="none" xmlns="http://www.w3.org/2000/svg">
<path d="M15.0723 2.17777H8.92713V13.172H15.0723V2.17777Z" fill="#FF5F00"/>
<path d="M9.31762 7.67373C9.31762 5.53703 10.3126 3.49746 11.9903 2.17659C8.94696 -0.212627 4.53807 0.311836 2.13854 3.36149C-0.260997 6.39171 0.26573 10.7817 3.32855 13.1709C5.88415 15.1716 9.45418 15.1716 12.0098 13.1709C10.3125 11.85 9.31762 9.81043 9.31762 7.67373Z" fill="#EB001B"/>
<path d="M23.3633 7.67365C23.3633 11.5391 20.2224 14.6665 16.3403 14.6665C14.7601 14.6665 13.2388 14.1421 12.0098 13.1709C15.0531 10.7817 15.5795 6.39163 13.1799 3.34198C12.8288 2.91464 12.4386 2.50672 12.0094 2.1765C15.0527 -0.212712 19.4811 0.31175 21.8612 3.3614C22.8366 4.58515 23.3633 6.10026 23.3633 7.67365Z" fill="#F79E1B"/>
<path d="M22.7003 12.0048V11.7717H22.7978V11.7329H22.5637V11.7717H22.6613V12.0048H22.7003ZM23.149 12.0048V11.7329H23.0709L22.9929 11.9271L22.9149 11.7329H22.8368V12.0048H22.8954V11.7911L22.9734 11.966H23.0319L23.11 11.7911V12.0048H23.149Z" fill="#F79E1B"/>
</svg>
