<svg width="19" height="18" viewBox="0 0 19 18" fill="currentColor" xmlns="http://www.w3.org/2000/svg">
    <g clip-path="url(#clip0_2119_6746)">
        <path
            d="M14.7246 1.125C15.4496 1.1243 16.1468 1.40357 16.6708 1.90454C17.1949 2.40551 17.5052 3.08949 17.5371 3.81375V11.8125C17.5378 12.5375 17.2585 13.2347 16.7576 13.7587C16.2566 14.2828 15.5726 14.5931 14.8484 14.625H11.4396L9.09961 17.4825L6.75961 14.625H3.47461C2.77159 14.6249 2.0941 14.3615 1.57561 13.8868C1.05711 13.412 0.735226 12.7603 0.673361 12.06L0.662111 11.9363V3.9375C0.661409 3.21253 0.940678 2.5153 1.44165 1.99127C1.94262 1.46724 2.6266 1.1569 3.35086 1.125H3.47461H14.7246ZM14.7246 2.25H3.47461C3.04406 2.24923 2.6295 2.41305 2.31579 2.70794C2.00207 3.00283 1.81294 3.40648 1.78711 3.83625V11.8125C1.78634 12.2431 1.95016 12.6576 2.24505 12.9713C2.53994 13.285 2.94359 13.4742 3.37336 13.5H7.29961L9.09961 15.705L10.8996 13.5H14.7246C15.1552 13.5008 15.5697 13.337 15.8834 13.0421C16.1971 12.7472 16.3863 12.3435 16.4121 11.9138V3.9375C16.4129 3.50695 16.2491 3.09239 15.9542 2.77868C15.6593 2.46496 15.2556 2.27583 14.8259 2.25H14.7246Z"
            fill="currentColor" />
    </g>
    <defs>
        <clipPath id="clip0_2119_6746">
            <rect width="18" height="18" fill="currentColor" transform="translate(0.0996094)" />
        </clipPath>
    </defs>
</svg>