<svg width="328" height="19" viewBox="0 0 328 19" fill="none" xmlns="http://www.w3.org/2000/svg">
<line x1="0.5" y1="9" x2="139.5" y2="9" stroke="#BDBDBD"/>
<path d="M160.825 15.1705C159.972 15.1705 159.234 14.983 158.609 14.608C157.984 14.233 157.499 13.7083 157.154 13.0341C156.813 12.3598 156.643 11.572 156.643 10.6705C156.643 9.76894 156.813 8.97917 157.154 8.30114C157.499 7.62311 157.984 7.09659 158.609 6.72159C159.234 6.34659 159.972 6.15909 160.825 6.15909C161.677 6.15909 162.415 6.34659 163.04 6.72159C163.665 7.09659 164.148 7.62311 164.489 8.30114C164.834 8.97917 165.006 9.76894 165.006 10.6705C165.006 11.572 164.834 12.3598 164.489 13.0341C164.148 13.7083 163.665 14.233 163.04 14.608C162.415 14.983 161.677 15.1705 160.825 15.1705ZM160.836 13.5227C161.298 13.5227 161.684 13.3958 161.995 13.142C162.306 12.8845 162.537 12.5398 162.688 12.108C162.844 11.6761 162.921 11.1951 162.921 10.6648C162.921 10.1307 162.844 9.64773 162.688 9.21591C162.537 8.7803 162.306 8.43371 161.995 8.17614C161.684 7.91856 161.298 7.78977 160.836 7.78977C160.362 7.78977 159.969 7.91856 159.654 8.17614C159.344 8.43371 159.111 8.7803 158.955 9.21591C158.804 9.64773 158.728 10.1307 158.728 10.6648C158.728 11.1951 158.804 11.6761 158.955 12.108C159.111 12.5398 159.344 12.8845 159.654 13.142C159.969 13.3958 160.362 13.5227 160.836 13.5227ZM166.752 15V6.27273H168.746V7.72727H168.837C168.996 7.22348 169.269 6.83523 169.656 6.5625C170.046 6.28598 170.491 6.14773 170.991 6.14773C171.104 6.14773 171.231 6.15341 171.371 6.16477C171.515 6.17235 171.635 6.18561 171.729 6.20455V8.09659C171.642 8.06629 171.504 8.03977 171.315 8.01705C171.129 7.99053 170.949 7.97727 170.775 7.97727C170.4 7.97727 170.063 8.05871 169.763 8.22159C169.468 8.38068 169.235 8.60227 169.065 8.88636C168.894 9.17045 168.809 9.49811 168.809 9.86932V15H166.752Z" fill="#555555"/>
<line x1="188.5" y1="9" x2="327.5" y2="9" stroke="#BDBDBD"/>
</svg>
