<svg width="160" height="104" viewBox="0 0 160 104" fill="none" xmlns="http://www.w3.org/2000/svg">
<path d="M73.2299 8.72577L73.0371 8.49625C73.0899 8.45118 78.4341 4.00131 86.1613 1.74465C93.2984 -0.341205 103.986 -0.931319 114.365 8.0977L114.168 8.32426C103.896 -0.612835 93.3192 -0.0316193 86.255 2.02933C78.5877 4.26701 73.2838 8.68129 73.2299 8.72577Z" fill="#DADADA"/>
<path d="M138.02 38.8814C149.951 45.4948 154.555 54.5113 155.67 66.3907C156.148 71.4841 154.349 79.8803 150.151 84.0757C138.41 99.8992 103.106 121.202 55.8197 79.8273C42.57 86.2767 13.7654 92.7876 4.54437 67.2358C2.45495 56.0112 4.15768 44.4444 10.9893 35.2962C15.0721 29.8298 20.6619 25.1641 27.3263 23.6991C39.7104 20.9775 46.9103 29.6572 58.9777 25.7666C66.2957 23.4068 71.3837 16.9772 77.1917 11.936C84.9326 5.2212 95.0706 0.606457 105.261 1.68467C115.451 2.76289 125.188 10.6443 126.256 20.8364C126.671 24.8088 125.893 29.1519 127.987 32.5526C130.097 35.9753 134.502 36.9313 138.02 38.8814Z" fill="#FDEEEB"/>
<path d="M144.906 34.9525C146.702 33.1569 146.702 30.2455 144.906 28.4498C143.111 26.6541 140.199 26.6541 138.404 28.4498C136.608 30.2455 136.608 33.1569 138.404 34.9525C140.199 36.7482 143.111 36.7482 144.906 34.9525Z" fill="#FDEEEB"/>
<path d="M154.983 84.2491L154.717 84.1086C160.115 73.942 160.682 63.0134 156.284 54.1249C151.658 44.7804 142.223 38.4932 129.711 36.4215L129.76 36.125C142.37 38.212 151.882 44.5574 156.553 53.9909C160.995 62.9677 160.422 73.996 154.983 84.2491Z" fill="#DADADA"/>
<path d="M13.3314 84.681C6.83422 77.6827 2.54686 69.261 0.936057 60.3132C-0.566211 51.984 0.402292 43.7195 3.66956 37.042C8.71073 26.726 18.4758 21.4102 30.4494 22.4558L30.4233 22.7524C18.5778 21.7175 8.92542 26.9727 3.93882 37.1713C0.701798 43.7918 -0.260169 51.9905 1.23142 60.2575C2.83273 69.1459 7.09518 77.5202 13.5532 84.4752L13.3314 84.681Z" fill="#DADADA"/>
<path d="M106.954 38.4077H42.5742V84.248H106.954V38.4077Z" fill="#0582CA"/>
<path d="M113.223 34.182H101.312V23.3111C101.312 22.2579 101.731 21.2478 102.476 20.503C103.22 19.7582 104.231 19.3398 105.284 19.3398C105.805 19.3392 106.322 19.4416 106.804 19.6413C107.286 19.841 107.723 20.1339 108.092 20.5033C108.828 21.2384 109.246 22.2339 109.255 23.2746V23.3111L109.252 30.2113C109.252 30.2449 109.252 30.2808 109.255 30.3144V30.5234L109.267 30.5174C109.343 31.5144 109.793 32.4459 110.527 33.1253C111.26 33.8048 112.223 34.1822 113.223 34.182Z" fill="#FCE6E0"/>
<path d="M117.191 27.8118V30.2141C117.192 30.7349 117.09 31.2508 116.891 31.7319C116.691 32.2129 116.398 32.6496 116.028 33.0166C115.661 33.3865 115.224 33.6798 114.743 33.8795C114.261 34.0792 113.745 34.1813 113.223 34.18C112.224 34.1795 111.261 33.8018 110.528 33.1223C109.795 32.4427 109.346 31.5115 109.27 30.5148L117.191 27.8118Z" fill="#F9CBC0"/>
<path d="M105.285 19.3398C105.2 19.3398 105.118 19.3398 105.037 19.3488C104.982 19.3488 104.931 19.3548 104.879 19.3608C104.828 19.3668 104.767 19.3734 104.71 19.3824C104.676 19.3854 104.643 19.3914 104.61 19.3974C104.567 19.4033 104.525 19.4123 104.485 19.4219C104.425 19.4339 104.365 19.4459 104.305 19.4609C104.22 19.4824 104.136 19.5064 104.051 19.5369C104.009 19.5489 103.966 19.5639 103.927 19.5789C103.887 19.5939 103.845 19.6094 103.807 19.6244C103.75 19.6457 103.695 19.6701 103.64 19.6975C103.591 19.718 103.542 19.7412 103.495 19.767C103.483 19.773 103.467 19.779 103.452 19.788C103.41 19.8095 103.368 19.8335 103.325 19.858C103.158 19.9511 102.999 20.0574 102.85 20.1762C102.807 20.2091 102.762 20.2456 102.723 20.2786C102.674 20.3181 102.632 20.3577 102.586 20.3984C102.541 20.4392 102.498 20.4829 102.456 20.5254C102.337 20.6464 102.225 20.7749 102.122 20.91C102.077 20.9699 102.035 21.0298 101.992 21.0897C101.859 21.2927 101.743 21.5063 101.644 21.7284C101.62 21.7829 101.599 21.841 101.574 21.8985C101.51 22.0726 101.456 22.2505 101.414 22.4311C101.402 22.4952 101.39 22.5557 101.378 22.6162C101.355 22.7415 101.339 22.8679 101.329 22.9948V66.7179H48.2383V25.5313C48.2382 24.7181 48.3983 23.9129 48.7095 23.1616C49.0207 22.4103 49.4769 21.7276 50.052 21.1527C50.627 20.5777 51.3098 20.1217 52.0611 19.8106C52.8125 19.4996 53.6178 19.3396 54.431 19.3398H105.285Z" fill="#F9CBC0"/>
<path opacity="0.3" d="M101.329 40.3258V66.7182H48.2383V38.0283L64.8226 51.8281C65.7374 52.5913 66.9367 52.8819 68.1175 52.7153C68.4635 52.6665 68.813 52.6464 69.1623 52.6554L80.4669 52.9735C80.8562 52.9857 81.2436 53.0334 81.6243 53.1161C82.7967 53.3707 84.0206 53.1371 84.9893 52.4224L101.329 40.3258Z" fill="#AAD9CE"/>
<path d="M67.567 31.3899L65.8237 33.6837V33.7209L68.5951 33.3537V34.6015L65.8237 34.2714V34.308L67.5856 36.5102L66.4294 37.1692L65.3283 34.5997H65.2917L64.099 37.1872L63.053 36.5282L64.7963 34.2894V34.2529L62.0801 34.6015V33.3537L64.7759 33.7023V33.6658L63.0512 31.427L64.1703 30.7848L65.3085 33.3351H65.3457L66.4647 30.7662L67.567 31.3899Z" fill="white"/>
<path d="M75.1827 31.3899L73.4394 33.6837V33.7209L76.2101 33.3537V34.6015L73.4394 34.2714V34.308L75.2007 36.5102L74.0445 37.1692L72.9416 34.6015H72.9044L71.7116 37.189L70.6657 36.53L72.409 34.2912V34.2547L69.6934 34.6033V33.3537L72.3892 33.7023V33.6658L70.6639 31.427L71.7835 30.7848L72.9218 33.3351H72.9583L74.078 30.7662L75.1827 31.3899Z" fill="white"/>
<path d="M82.7975 31.3899L81.0542 33.6837V33.7209L83.8249 33.3537V34.6015L81.0542 34.2714V34.308L82.8161 36.5102L81.6599 37.1692L80.5587 34.5997H80.5222L79.3294 37.1872L78.2828 36.5282L80.0268 34.2894V34.2529L77.3105 34.6015V33.3537L80.0064 33.7023V33.6658L78.2811 31.427L79.4007 30.7848L80.539 33.3351H80.5761L81.6952 30.7662L82.7975 31.3899Z" fill="white"/>
<path d="M90.4147 31.3899L88.6714 33.6837V33.7209L91.4427 33.3537V34.6015L88.6714 34.2714V34.308L90.4333 36.5102L89.277 37.1692L88.1759 34.5997H88.1394L86.9466 37.1872L85.9006 36.5282L87.6439 34.2894V34.2529L84.9277 34.6015V33.3537L87.6236 33.7023V33.6658L85.8988 31.427L87.0179 30.7848L88.1562 33.3351H88.1927L89.3124 30.7662L90.4147 31.3899Z" fill="white"/>
<path d="M66.7819 57.4114L66.3398 57.9021L46.3599 80.0572L42.5762 84.2489V38.4069L66.7819 57.4114Z" fill="#0582CA"/>
<path d="M106.954 38.4077L82.748 57.4117L106.954 84.248V38.4077Z" fill="#0582CA"/>
<path d="M66.3392 57.9015L46.3594 80.056L42.5762 80.8893V72.7419C52.5628 65.5841 63.7674 57.2857 66.3272 57.106L66.3392 57.9015Z" fill="#6A2717"/>
<path d="M83.1914 57.9015L103.171 80.056L106.955 80.8893V72.7419C96.9678 65.5841 85.7632 57.2857 83.204 57.106L83.1914 57.9015Z" fill="#6A2717"/>
<path d="M106.954 84.2475H42.5742L42.5856 78.2172L64.7701 58.0918C65.9348 57.0354 67.4511 56.4504 69.0235 56.4509H80.3329C81.8811 56.4511 83.3756 57.0187 84.5336 58.0463L107.017 78.0075L106.954 84.2475Z" fill="#0582CA"/>
</svg>
