<svg width="10" height="10" viewBox="0 0 10 10" fill="none" xmlns="http://www.w3.org/2000/svg">
    <path
        d="M6.68716 5.17532C6.23716 4.47333 5.4708 4.05417 4.63707 4.05417C3.8034 4.05417 3.03696 4.47333 2.58706 5.17532L1.50276 6.86682C1.32288 7.1475 1.23987 7.47168 1.26267 7.80424C1.28548 8.13688 1.41206 8.44662 1.62866 8.70015C1.8454 8.95361 2.1318 9.12679 2.4569 9.20111C2.78198 9.27533 3.11524 9.24369 3.42057 9.10947L3.44049 9.10062C4.20885 8.76943 5.08705 8.7724 5.85349 9.10947C6.05117 9.19638 6.2606 9.24033 6.47193 9.24033C6.58683 9.24033 6.70242 9.22728 6.81693 9.20119C7.14203 9.12695 7.42843 8.95377 7.64525 8.70031C7.86193 8.44685 7.98859 8.13703 8.01146 7.8044C8.03435 7.47168 7.95134 7.1475 7.77144 6.86674L6.68716 5.17532ZM7.19978 8.3193C6.92398 8.64172 6.47781 8.74365 6.08947 8.57291C5.62789 8.36988 5.13244 8.26842 4.63684 8.26842C4.1417 8.26842 3.64631 8.3698 3.18504 8.5726L3.17192 8.5784C2.78657 8.74137 2.34696 8.63812 2.07421 8.3193C1.79872 7.9968 1.76737 7.54026 1.99624 7.18313L3.08061 5.49163C3.42225 4.95862 4.00405 4.64042 4.63707 4.64042C5.27008 4.64042 5.85197 4.95864 6.19371 5.49163L7.27788 7.18305C7.50687 7.54033 7.47542 7.99695 7.19976 8.3193H7.19978ZM1.79483 5.17309C2.11739 5.04921 2.36245 4.78927 2.48491 4.44114C2.60131 4.10987 2.59178 3.73587 2.4579 3.38798C2.32391 3.04033 2.08024 2.7565 1.77177 2.58873C1.44761 2.41255 1.09155 2.38388 0.769502 2.508C0.121633 2.7571 -0.17569 3.55773 0.106809 4.29313C0.332492 4.87845 0.858858 5.24794 1.39099 5.24794C1.52906 5.24811 1.66598 5.22273 1.79483 5.17309ZM0.653858 4.08255C0.487374 3.64921 0.633624 3.18824 0.980088 3.05503C1.04271 3.031 1.10924 3.01877 1.17632 3.01894C1.28054 3.01894 1.38817 3.0474 1.49179 3.10378C1.67809 3.20503 1.82694 3.38081 1.91087 3.59862C1.99471 3.81659 2.00219 4.04669 1.93184 4.24667C1.86739 4.42991 1.74401 4.56464 1.58456 4.62593L1.58425 4.62606C1.23825 4.75944 0.82085 4.51552 0.653858 4.08255ZM3.89869 3.84788C4.70863 3.84788 5.36758 3.09714 5.36758 2.17437C5.36758 1.25137 4.70863 0.500488 3.89869 0.500488C3.08883 0.500488 2.42997 1.25137 2.42997 2.17437C2.42997 3.09714 3.08881 3.84788 3.89869 3.84788ZM3.89869 1.08666C4.38537 1.08666 4.78143 1.57463 4.78143 2.17437C4.78143 2.77388 4.38537 3.26171 3.89869 3.26171C3.41202 3.26171 3.01614 2.77388 3.01614 2.17437C3.01614 1.57463 3.41203 1.08666 3.89869 1.08666ZM6.43546 4.25903H6.43554C6.55753 4.29957 6.68525 4.3202 6.8138 4.32013C7.40447 4.32013 7.98011 3.89023 8.19976 3.2295C8.32626 2.84919 8.31792 2.44705 8.17632 2.09724C8.02818 1.73111 7.75359 1.46529 7.4031 1.34873C7.05261 1.2323 6.67335 1.28082 6.33545 1.48545C6.01265 1.68097 5.76531 1.99806 5.63904 2.37837C5.37238 3.1807 5.72967 4.02435 6.43546 4.25903ZM6.19531 2.56322C6.27779 2.31488 6.43541 2.11027 6.63919 1.98683C6.82771 1.87261 7.03339 1.84355 7.21826 1.90496C7.40304 1.96646 7.55029 2.11277 7.633 2.3171C7.72234 2.53789 7.72616 2.79622 7.64353 3.04456C7.4788 3.54017 7.01982 3.83542 6.62043 3.70275C6.22132 3.56999 6.03058 3.05882 6.19531 2.56322ZM9.5288 4.06372L9.52856 4.06349C8.97003 3.65089 8.13468 3.82972 7.66632 4.46235C7.19841 5.09528 7.27158 5.94618 7.82927 6.35909C8.03267 6.50977 8.27302 6.58178 8.51898 6.58178C8.94768 6.58178 9.39368 6.36297 9.69176 5.96061C10.1597 5.32766 10.0866 4.47677 9.5288 4.0637V4.06372ZM9.22065 5.61186C8.94409 5.98516 8.47647 6.10899 8.17808 5.88797C7.87993 5.66727 7.86177 5.18401 8.13759 4.81093C8.32091 4.56327 8.5887 4.4255 8.83552 4.4255C8.96032 4.4255 9.07981 4.46075 9.1802 4.53497C9.47813 4.75593 9.49622 5.23901 9.22063 5.61186H9.22065Z"
        fill="black" />
</svg>