<svg width="13" height="20" viewBox="0 0 13 20" fill="none" xmlns="http://www.w3.org/2000/svg">
<path d="M10.0234 0H2.02344C1.493 0 0.984297 0.210714 0.609224 0.585786C0.234151 0.960859 0.0234375 1.46957 0.0234375 2V18C0.0234375 18.5304 0.234151 19.0391 0.609224 19.4142C0.984297 19.7893 1.493 20 2.02344 20H10.0234C10.5539 20 11.0626 19.7893 11.4377 19.4142C11.8127 19.0391 12.0234 18.5304 12.0234 18V2C12.0234 1.46957 11.8127 0.960859 11.4377 0.585786C11.0626 0.210714 10.5539 0 10.0234 0ZM7.02344 19H5.02344V18H7.02344V19ZM10.0234 17H2.02344V3H10.0234V17Z" fill="black"/>
</svg>
