<svg width="24" height="24" viewBox="0 0 24 24" fill="none" xmlns="http://www.w3.org/2000/svg">
    <g clip-path="url(#clip0_489_8320)">
        <path
            d="M12 5C8.13996 5 5 8.13996 5 12C5 15.86 8.13996 19 12 19C15.86 19 19 15.8595 19 12C19 8.14051 15.86 5 12 5ZM12 17.9156C8.73857 17.9156 6.08443 15.262 6.08443 12C6.08443 8.73803 8.73857 6.08443 12 6.08443C15.2614 6.08443 17.9156 8.73803 17.9156 12C17.9156 15.262 15.262 17.9156 12 17.9156Z"
            fill="currentColor" />
        <path
            d="M14.7105 11.4083H12.5416V9.23949C12.5416 8.94019 12.2992 8.69727 11.9994 8.69727C11.6995 8.69727 11.4572 8.94019 11.4572 9.23949V11.4083H9.28832C8.98847 11.4083 8.74609 11.6513 8.74609 11.9506C8.74609 12.2499 8.98847 12.4928 9.28832 12.4928H11.4572V14.6616C11.4572 14.961 11.6995 15.2039 11.9994 15.2039C12.2992 15.2039 12.5416 14.961 12.5416 14.6616V12.4928H14.7105C15.0103 12.4928 15.2527 12.2499 15.2527 11.9506C15.2527 11.6513 15.0103 11.4083 14.7105 11.4083Z"
            fill="currentColor" />
    </g>
    <defs>
        <clipPath id="clip0_489_8320">
            <rect width="14" height="14" fill="white" transform="translate(5 5)" />
        </clipPath>
    </defs>
</svg>