<svg width="25" height="24" viewBox="0 0 25 24" fill="none" xmlns="http://www.w3.org/2000/svg">
<path fill-rule="evenodd" clip-rule="evenodd" d="M24.8223 12C24.8223 15.1826 23.558 18.2348 21.3075 20.4853C19.0571 22.7357 16.0049 24 12.8223 24C9.63967 24 6.58742 22.7357 4.33698 20.4853C2.08655 18.2348 0.822266 15.1826 0.822266 12C0.822266 8.8174 2.08655 5.76516 4.33698 3.51472C6.58742 1.26428 9.63967 0 12.8223 0C16.0049 0 19.0571 1.26428 21.3075 3.51472C23.558 5.76516 24.8223 8.8174 24.8223 12ZM13.5723 6C13.5723 5.80109 13.4932 5.61032 13.3526 5.46967C13.2119 5.32902 13.0212 5.25 12.8223 5.25C12.6234 5.25 12.4326 5.32902 12.2919 5.46967C12.1513 5.61032 12.0723 5.80109 12.0723 6V11.25H6.82227C6.62335 11.25 6.43259 11.329 6.29194 11.4697C6.15128 11.6103 6.07227 11.8011 6.07227 12C6.07227 12.1989 6.15128 12.3897 6.29194 12.5303C6.43259 12.671 6.62335 12.75 6.82227 12.75H12.0723V18C12.0723 18.1989 12.1513 18.3897 12.2919 18.5303C12.4326 18.671 12.6234 18.75 12.8223 18.75C13.0212 18.75 13.2119 18.671 13.3526 18.5303C13.4932 18.3897 13.5723 18.1989 13.5723 18V12.75H18.8223C19.0212 12.75 19.2119 12.671 19.3526 12.5303C19.4932 12.3897 19.5723 12.1989 19.5723 12C19.5723 11.8011 19.4932 11.6103 19.3526 11.4697C19.2119 11.329 19.0212 11.25 18.8223 11.25H13.5723V6Z" fill="#0582CA"/>
</svg>
