<svg width="313" height="157" viewBox="0 0 313 157" fill="none" xmlns="http://www.w3.org/2000/svg">
<g clip-path="url(#clip0_372_5027)">
<path d="M199.494 30.8623C198.932 30.4357 198.109 30.3891 197.5 30.746C196.694 29.1131 194.44 28.3916 192.83 29.2527C192.412 27.4918 190.678 26.1382 188.866 26.1614C187.055 26.1847 185.356 27.5771 184.976 29.3497C184.918 29.6328 184.875 29.9392 184.674 30.1448C184.348 30.4783 183.801 30.3659 183.336 30.3309C181.869 30.2185 180.396 31.2463 179.996 32.662L200.18 32.5883C200.359 31.9057 200.052 31.2928 199.49 30.8662L199.494 30.8623Z" fill="#F0F0F0"/>
<path d="M139.894 11.2022C139.332 10.7755 138.51 10.729 137.901 11.0858C137.094 9.4529 134.84 8.73148 133.231 9.59253C132.812 7.83164 131.078 6.478 129.267 6.50127C127.456 6.52454 125.757 7.91697 125.377 9.6895C125.318 9.97264 125.276 10.279 125.074 10.4846C124.748 10.8182 124.201 10.7057 123.736 10.6708C122.27 10.5583 120.796 11.5861 120.396 13.0018L140.581 12.9281C140.759 12.2455 140.453 11.6327 139.89 11.206L139.894 11.2022Z" fill="#F0F0F0"/>
<path d="M218.479 8.86255C217.564 8.17215 216.226 8.0907 215.237 8.6725C213.922 6.01564 210.257 4.8443 207.646 6.24448C206.964 3.38206 204.144 1.179 201.2 1.21779C198.256 1.2527 195.491 3.52169 194.878 6.39962C194.781 6.8573 194.715 7.35764 194.389 7.69121C193.858 8.23421 192.97 8.05192 192.213 7.99374C189.832 7.80756 187.431 9.47925 186.783 11.7831L219.604 11.6629C219.891 10.5497 219.399 9.55682 218.479 8.86643V8.86255Z" fill="#E0E0E0"/>
<path d="M87.5711 24.5828C86.6557 23.8924 85.3176 23.8109 84.3286 24.3927C83.0137 21.7359 79.3484 20.5645 76.7381 21.9647C76.0555 19.1023 73.2357 16.8992 70.2918 16.938C67.348 16.9729 64.5825 19.2419 63.9697 22.1198C63.8727 22.5775 63.8068 23.0779 63.481 23.4114C62.9496 23.9544 62.0614 23.7721 61.3051 23.714C58.9236 23.5278 56.5227 25.1995 55.875 27.5034L88.6959 27.3831C88.9829 26.27 88.4903 25.277 87.5711 24.5866V24.5828Z" fill="#E0E0E0"/>
<path d="M262.326 23.4077C261.764 22.9811 260.941 22.9345 260.332 23.2914C259.526 21.6585 257.272 20.937 255.662 21.7981C255.244 20.0372 253.51 18.6836 251.699 18.7068C249.887 18.7301 248.188 20.1225 247.808 21.8951C247.75 22.1782 247.707 22.4846 247.506 22.6902C247.18 23.0237 246.633 22.9113 246.168 22.8764C244.701 22.7639 243.228 23.7917 242.828 25.2074L263.012 25.1337C263.191 24.4511 262.884 23.8383 262.322 23.4116L262.326 23.4077Z" fill="#F0F0F0"/>
<path d="M48.8025 4.70457C48.2401 4.27792 47.4178 4.23138 46.8089 4.58821C46.0021 2.95531 43.7487 2.23389 42.139 3.09495C41.7201 1.33017 39.9864 -0.0234644 38.1751 -0.000192702C36.3638 0.023079 34.6649 1.4155 34.2848 3.18803C34.2267 3.47117 34.184 3.77758 33.9823 3.98315C33.6565 4.31671 33.1096 4.20423 32.6442 4.16932C31.1781 4.05684 29.7042 5.08468 29.3047 6.50037L49.489 6.42668C49.6674 5.74404 49.361 5.13122 48.7986 4.70457H48.8025Z" fill="#F0F0F0"/>
<path d="M312.501 150.212C312.501 153.749 242.806 156.615 156.836 156.615C70.8668 156.615 1.16797 153.749 1.16797 150.212C1.16797 146.674 70.8629 143.808 156.832 143.808C242.802 143.808 312.497 146.674 312.497 150.212H312.501Z" fill="#F5F5F5"/>
<path d="M22.4165 116.735C17.9406 118.31 12.7704 117.076 9.00036 114.199C5.23034 111.317 2.76742 106.977 1.46032 102.415C0.448003 98.8896 0.0795343 95.077 1.13064 91.5591C2.18175 88.045 4.83084 84.8839 8.35651 83.8639C7.87944 79.3957 7.93762 74.8189 9.08569 70.4749C10.2338 66.1308 12.5338 62.0117 16.0013 59.1532C21.5671 54.5648 29.7471 53.7813 36.4416 56.4575C43.1361 59.1338 48.3257 64.9323 51.0989 71.5919C53.8721 78.2476 54.3802 85.6946 53.4687 92.8506C54.3143 90.8725 57.1806 90.442 59.0035 91.5784C60.8303 92.7188 61.7418 94.8908 62.1413 97.0046C63.3359 103.288 60.6946 110.145 55.5903 113.997C50.4861 117.852 43.171 118.519 37.4539 115.649" fill="#1B9E4B"/>
<path d="M21.3128 149.245C21.3128 148.935 28.3215 127.595 25.2845 122.689C22.2475 117.782 14.2266 109.296 14.2266 109.296H16.7205C16.7205 109.296 26.0331 116.929 26.0486 116.072C26.0641 115.214 27.7009 102.132 27.7009 102.132H29.648C29.648 102.132 26.7661 112.333 31.0481 111.553C35.3301 110.773 38.1344 102.52 38.1344 102.52L41.5592 104.622C41.5592 104.622 37.1221 111.088 35.7956 119.341C34.473 127.595 34.473 149.245 34.473 149.245H21.3128Z" fill="#A24E3F"/>
<path d="M18.4265 94.608C19.0044 97.4782 20.9011 100.007 23.4455 101.438C26.0713 102.916 29.2595 103.025 32.0327 101.888C33.5881 101.252 34.9688 100.248 36.0277 98.9443L35.5429 98.8164C36.0936 101.613 38.1493 104.025 40.8294 104.999C43.657 106.027 46.946 105.305 49.1646 103.304C49.4439 103.052 49.0288 102.641 48.7535 102.893C46.6823 104.762 43.6143 105.398 40.9846 104.44C38.4868 103.529 36.6134 101.252 36.1014 98.6612C36.0626 98.4595 35.7484 98.3664 35.6166 98.5332C33.8324 100.732 31.0902 102.043 28.2588 102.086C25.4274 102.129 22.8133 100.814 21.0175 98.6767C19.9974 97.4627 19.2992 96.0082 18.9851 94.4568C18.9114 94.0883 18.349 94.2435 18.4227 94.6119L18.4265 94.608Z" fill="#263238"/>
<path d="M29.0282 73.3761C29.4199 75.7071 31.0412 77.8481 33.4537 78.3058C35.6335 78.7169 37.9296 77.4913 38.4804 75.2727C38.5696 74.9081 38.0111 74.753 37.918 75.1176C37.4176 77.1345 35.2766 78.1778 33.3296 77.6852C31.2351 77.1577 29.9319 75.2689 29.5867 73.2209C29.5246 72.8525 28.9622 73.0076 29.0243 73.3761H29.0282Z" fill="#263238"/>
<path d="M212.134 100.534H55.7129V146.883H212.134V100.534Z" fill="#0582CA"/>
<path opacity="0.7" d="M212.134 100.534H55.7129V146.883H212.134V100.534Z" fill="white"/>
<path opacity="0.2" d="M212.134 100.534H55.7129V105.262H212.134V100.534Z" fill="black"/>
<path d="M45.5059 98.2142L58.8561 82.8433L206.15 83.4832L218.5 98.2142V100.534H45.5059V98.2142Z" fill="#0582CA"/>
<path d="M70.7279 57.2676L58.8555 82.8432L206.15 83.4832L192.854 57.2676H70.7279Z" fill="#0582CA"/>
<path opacity="0.2" d="M133.924 57.2676H147.995L162.408 83.4832L133.924 57.2676Z" fill="black"/>
<path d="M62.584 83.4837L112.184 36.3003L162.404 83.4837" fill="#0582CA"/>
<path opacity="0.7" d="M62.584 83.4837L112.184 36.3003L162.404 83.4837" fill="white"/>
<path d="M91.5662 110.975H61.1074V131.163H91.5662V110.975Z" fill="#0582CA"/>
<path d="M90.9943 111.515H61.6836V130.283H90.9943V111.515Z" fill="#0582CA"/>
<path opacity="0.9" d="M90.9943 111.515H61.6836V130.283H90.9943V111.515Z" fill="white"/>
<path opacity="0.9" d="M72.2761 111.515C72.2761 111.515 73.6259 112.104 72.7571 114.373C71.8844 116.642 62.7735 117.856 61.6836 120.715C61.6836 120.715 61.6836 127.495 61.6836 127.277C61.6836 127.06 63.8634 122.045 68.0911 119.955C72.3188 117.86 74.7623 118.558 77.0274 116.25C79.2964 113.939 79.7735 111.519 79.7735 111.519H72.2761V111.515Z" fill="white"/>
<path opacity="0.9" d="M70.0625 130.136C70.0625 130.136 71.7962 125.493 75.7641 123.88C79.7319 122.266 81.7371 122.092 83.8316 119.737C85.9261 117.383 89.4556 111.515 89.4556 111.515H90.9954V117.686C90.9954 117.686 89.0639 120.3 85.9261 122.002C82.7882 123.701 79.9956 123.527 78.4713 124.966C76.947 126.405 75.6826 130.132 75.6826 130.132H70.0703L70.0625 130.136Z" fill="white"/>
<path d="M92.2913 130.135H59.9824V131.644H92.2913V130.135Z" fill="#0582CA"/>
<path d="M70.0624 111.293H69.2285V130.132H70.0624V111.293Z" fill="#0582CA"/>
<path d="M61.5312 118.023V118.856H91.1367V118.023H61.5312Z" fill="#0582CA"/>
<path d="M83.0175 111.293H82.1836V130.132H83.0175V111.293Z" fill="#0582CA"/>
<path d="M167.638 110.735H137.18V130.923H167.638V110.735Z" fill="#0582CA"/>
<path d="M167.067 111.274H137.756V130.043H167.067V111.274Z" fill="#0582CA"/>
<path opacity="0.9" d="M167.067 111.274H137.756V130.043H167.067V111.274Z" fill="white"/>
<path opacity="0.9" d="M148.348 111.274C148.348 111.274 149.698 111.864 148.829 114.133C147.957 116.402 138.846 117.616 137.756 120.474C137.756 120.474 137.756 127.254 137.756 127.037C137.756 126.82 139.936 121.805 144.163 119.714C148.391 117.62 150.835 118.318 153.1 116.01C155.369 113.699 155.846 111.278 155.846 111.278H148.348V111.274Z" fill="white"/>
<path opacity="0.9" d="M146.135 129.891C146.135 129.891 147.869 125.249 151.836 123.635C155.804 122.022 157.809 121.847 159.904 119.493C161.998 117.138 165.528 111.27 165.528 111.27H167.068V117.441C167.068 117.441 165.136 120.055 161.998 121.758C158.861 123.457 156.068 123.282 154.544 124.721C153.019 126.16 151.755 129.887 151.755 129.887H146.143L146.135 129.891Z" fill="white"/>
<path d="M168.364 129.892H136.055V131.4H168.364V129.892Z" fill="#0582CA"/>
<path d="M146.135 111.053H145.301V129.892H146.135V111.053Z" fill="#0582CA"/>
<path d="M137.604 117.782V118.616H167.209V117.782H137.604Z" fill="#0582CA"/>
<path d="M159.09 111.053H158.256V129.892H159.09V111.053Z" fill="#0582CA"/>
<path d="M209.36 110.735H179.584V130.923H209.36V110.735Z" fill="#0582CA"/>
<path d="M208.794 111.274H180.143V130.043H208.794V111.274Z" fill="#0582CA"/>
<path opacity="0.9" d="M208.794 111.274H180.143V130.043H208.794V111.274Z" fill="white"/>
<path opacity="0.9" d="M190.498 111.274C190.498 111.274 191.821 111.863 190.968 114.132C190.115 116.401 181.209 117.615 180.143 120.474C180.143 120.474 180.143 127.254 180.143 127.037C180.143 126.819 182.272 121.804 186.407 119.714C190.541 117.619 192.927 118.317 195.145 116.01C197.36 113.698 197.829 111.278 197.829 111.278H190.498V111.274Z" fill="white"/>
<path opacity="0.9" d="M188.338 129.891C188.338 129.891 190.033 125.248 193.911 123.635C197.79 122.021 199.749 121.847 201.797 119.492C203.841 117.138 207.297 111.27 207.297 111.27H208.801V117.44C208.801 117.44 206.913 120.055 203.845 121.757C200.777 123.456 198.05 123.282 196.557 124.721C195.063 126.16 193.83 129.887 193.83 129.887H188.342L188.338 129.891Z" fill="white"/>
<path d="M210.066 129.892H178.482V131.4H210.066V129.892Z" fill="#0582CA"/>
<path d="M188.338 111.053H187.523V129.892H188.338V111.053Z" fill="#0582CA"/>
<path d="M179.998 117.782V118.616H208.94V117.782H179.998Z" fill="#0582CA"/>
<path d="M201.004 111.053H200.189V129.892H201.004V111.053Z" fill="#0582CA"/>
<path d="M123.99 110.192H104.799V147.012H123.99V110.192Z" fill="#A24E3F"/>
<path d="M121.454 112.903H107.34V145.049H121.454V112.903Z" fill="#B97964"/>
<path d="M118.281 115.816H110.508V142.141H118.281V115.816Z" fill="#A24E3F"/>
<path opacity="0.2" d="M105.928 147.012V111.293H123.994V110.192H104.799V147.012H105.928Z" fill="black"/>
<path d="M102.752 100.534H98.1406V101.585H102.752V100.534Z" fill="#0582CA"/>
<path d="M102.752 145.048H98.1406V147.011H102.752V145.048Z" fill="#0582CA"/>
<path d="M101.961 101.581H98.9277V145.049H101.961V101.581Z" fill="#0582CA"/>
<g opacity="0.4">
<path d="M102.752 100.534H98.1406V101.585H102.752V100.534Z" fill="white"/>
<path d="M102.752 145.048H98.1406V147.011H102.752V145.048Z" fill="white"/>
<path d="M101.961 101.581H98.9277V145.049H101.961V101.581Z" fill="white"/>
</g>
<path d="M131.303 100.534H126.691V101.585H131.303V100.534Z" fill="#0582CA"/>
<path d="M131.303 145.048H126.691V147.011H131.303V145.048Z" fill="#0582CA"/>
<path d="M130.512 101.581H127.479V145.049H130.512V101.581Z" fill="#0582CA"/>
<g opacity="0.4">
<path d="M131.303 100.534H126.691V101.585H131.303V100.534Z" fill="white"/>
<path d="M131.303 145.048H126.691V147.011H131.303V145.048Z" fill="white"/>
<path d="M130.512 101.581H127.479V145.049H130.512V101.581Z" fill="white"/>
</g>
<path d="M178.217 100.534H173.605V101.585H178.217V100.534Z" fill="#0582CA"/>
<path d="M178.217 145.048H173.605V147.011H178.217V145.048Z" fill="#0582CA"/>
<path d="M177.43 101.581H174.396V145.049H177.43V101.581Z" fill="#0582CA"/>
<g opacity="0.4">
<path d="M178.217 100.534H173.605V101.585H178.217V100.534Z" fill="white"/>
<path d="M178.217 145.048H173.605V147.011H178.217V145.048Z" fill="white"/>
<path d="M177.43 101.581H174.396V145.049H177.43V101.581Z" fill="white"/>
</g>
<path d="M179.282 48.3081H168.182V57.6517H179.282V48.3081Z" fill="#0582CA"/>
<path d="M180.569 47.54H166.648V50.9571H180.569V47.54Z" fill="#0582CA"/>
<path d="M106.892 130.457C106.892 130.857 106.566 131.183 106.167 131.183C105.767 131.183 105.441 130.857 105.441 130.457C105.441 130.058 105.767 129.732 106.167 129.732C106.566 129.732 106.892 130.058 106.892 130.457Z" fill="white"/>
<path d="M104.32 61.5498H93.5332V78.2162H104.32V61.5498Z" fill="#0582CA"/>
<path d="M103.586 62.2598H94.2656V77.3243H103.586V62.2598Z" fill="#0582CA"/>
<path opacity="0.9" d="M103.586 62.2598H94.2656V77.3243H103.586V62.2598Z" fill="white"/>
<path opacity="0.9" d="M101.282 62.2597C101.282 62.2597 102.027 62.6592 101.453 64.2495C100.879 65.8397 94.2656 71.6305 94.2656 71.6305V77.014C94.2656 77.014 98.0667 70.0752 100.708 67.4998C103.349 64.9282 103.586 64.4512 103.586 64.4512V62.2559H101.282V62.2597Z" fill="white"/>
<path d="M103.586 68.9849H94.0566V69.7877H103.586V68.9849Z" fill="#0582CA"/>
<path opacity="0.2" d="M94.925 77.3204V62.8765H103.59V62.2598H94.2695V77.3204H94.925Z" fill="black"/>
<path d="M126.849 61.5498H116.062V78.2162H126.849V61.5498Z" fill="#0582CA"/>
<path d="M126.115 62.2598H116.795V77.3243H126.115V62.2598Z" fill="#0582CA"/>
<path opacity="0.9" d="M126.115 62.2598H116.795V77.3243H126.115V62.2598Z" fill="white"/>
<path opacity="0.9" d="M123.811 62.2597C123.811 62.2597 124.556 62.6592 123.982 64.2495C123.408 65.8397 116.795 71.6305 116.795 71.6305V77.014C116.795 77.014 120.596 70.0752 123.237 67.4998C125.879 64.9282 126.115 64.4512 126.115 64.4512V62.2559H123.811V62.2597Z" fill="white"/>
<path d="M126.114 68.9849H116.584V69.7877H126.114V68.9849Z" fill="#0582CA"/>
<path opacity="0.2" d="M117.452 77.3204V62.8765H126.117V62.2598H116.797V77.3204H117.452Z" fill="black"/>
<path opacity="0.2" d="M62.7502 130.228V112.344H90.9943V111.514H61.6836V130.283L62.7502 130.228Z" fill="black"/>
<path opacity="0.2" d="M138.821 129.891V112.104H167.061V111.274H137.75V129.891H138.821Z" fill="black"/>
<path opacity="0.2" d="M181.211 129.891V112.104H209.451V111.274H180.141V129.891H181.211Z" fill="black"/>
<path d="M62.584 83.4837L112.184 36.3003L162.404 83.4837" stroke="#0582CA" stroke-width="1.55145" stroke-miterlimit="10"/>
<path opacity="0.7" d="M62.584 83.4837L112.184 36.3003L162.404 83.4837" stroke="#0582CA" stroke-width="1.55145" stroke-miterlimit="10"/>
<path opacity="0.2" d="M179.282 56.2944H168.182V57.268H179.282V56.2944Z" fill="black"/>
<path opacity="0.2" d="M218.5 98.2144H45.5059V100.53H218.5V98.2144Z" fill="black"/>
<path d="M162.533 83.2935H62.7129L63.0038 83.5844V82.638C63.0038 82.5759 63.0232 82.4867 63.0038 82.4285C62.9456 82.2346 62.9922 82.5914 62.9185 82.5527L62.9262 82.5449C62.9456 82.5488 63.0542 82.4247 63.0698 82.4092L63.861 81.6567L67.2082 78.4762L72.425 73.5194C74.5931 71.4598 76.7613 69.4003 78.9255 67.3368C81.3264 65.0523 83.7312 62.7678 86.132 60.4872L93.4626 53.5212C95.751 51.3453 98.0433 49.1655 100.332 46.9896C102.275 45.1434 104.218 43.2972 106.161 41.4509C107.561 40.1206 108.965 38.7863 110.366 37.456C111.029 36.8276 111.735 36.2187 112.363 35.5554C112.39 35.5283 112.421 35.5011 112.448 35.474C112.72 35.2141 112.309 34.803 112.037 35.0628C111.576 35.5011 111.118 35.9394 110.657 36.3777L106.906 39.9422C105.071 41.6837 103.241 43.4252 101.406 45.1705C99.1681 47.296 96.9301 49.4254 94.6921 51.5509L87.3809 58.5013C84.9413 60.8208 82.5016 63.1402 80.062 65.4596C77.8163 67.5928 75.5705 69.7299 73.3248 71.8632L67.7823 77.1304C66.5101 78.3366 65.2418 79.5467 63.9696 80.753L62.9107 81.7575C62.7866 81.8778 62.6082 81.998 62.5073 82.1415C62.3987 82.2967 62.422 82.4557 62.422 82.6419V83.5882C62.422 83.7473 62.5539 83.8791 62.7129 83.8791H162.533C162.909 83.8791 162.909 83.2974 162.533 83.2974V83.2935Z" fill="#263238"/>
<path opacity="0.2" d="M66.5344 83.4833L113.834 38.6464L112.182 37.064L63.4082 83.4329L66.5344 83.4833Z" fill="black"/>
<path d="M64.4349 134.06H87.8462L88.7577 129.643H63.5195L64.4349 134.06Z" fill="#263238"/>
<path d="M87.4489 129.666C86.6616 128.561 86.2465 127.832 84.7261 128.01C84.5128 126.102 82.6162 124.667 80.3627 124.353C78.1092 124.038 75.6812 125.128 74.7426 126.878C72.6675 125.92 69.7391 126.626 68.5872 128.363C67.3615 127.758 65.3524 128.627 64.6504 129.666C72.9196 129.802 79.552 129.806 87.4528 129.666" fill="#1B9E4B"/>
<path d="M84.2922 129.526C84.2068 130.585 84.1176 131.648 84.0323 132.707C84.0129 132.963 83.8655 133.3 83.4544 133.296C83.117 133.296 82.9347 133.056 82.8455 132.85C82.5856 132.245 82.4731 131.613 82.508 130.985C82.5196 130.818 82.5235 130.628 82.3296 130.512C82.0814 130.364 81.6857 130.43 81.3444 130.449C80.4834 130.508 79.5913 130.178 79.25 129.678C77.9468 130.256 76.1044 130.318 74.712 129.825C73.9983 130.197 73.2265 130.574 72.3111 130.671C71.3919 130.764 70.3059 130.469 70.1003 129.903C69.8947 130.411 69.5069 130.888 68.9678 131.287C68.7428 131.454 68.3355 131.617 68.0718 131.47C67.9322 131.392 67.9128 131.268 67.9011 131.152C67.8546 130.69 67.8042 130.228 67.7576 129.767C67.0983 130.194 65.8222 130.135 65.2637 129.654L66.4389 129.049L84.2922 129.526Z" fill="#1B9E4B"/>
<path d="M83.9048 128.514C83.9048 128.514 86.0923 128.378 85.0839 125.748C85.0839 125.748 82.5589 126.322 83.9048 128.514Z" fill="#1B9E4B"/>
<path d="M83.4094 125.966C83.4094 125.966 84.5187 125.027 82.6763 124.011C82.6763 124.011 81.6019 125.318 83.4094 125.966Z" fill="#1B9E4B"/>
<path d="M72.2855 126.261C72.2855 126.261 72.7315 124.954 70.5672 124.888C70.5672 124.888 70.3578 126.497 72.2855 126.261Z" fill="#1B9E4B"/>
<path opacity="0.3" d="M80.9358 127.475C80.9358 127.475 81.3819 126.167 79.2176 126.102C79.2176 126.102 79.0082 127.711 80.9358 127.475Z" fill="black"/>
<path opacity="0.3" d="M81.5878 127.323C81.5878 127.323 82.4373 127.424 82.2782 126.346C82.2782 126.346 81.262 126.392 81.5878 127.323Z" fill="black"/>
<path opacity="0.3" d="M81.2202 126.397C81.2202 126.397 81.8369 125.865 80.8014 125.303C80.8014 125.303 80.204 126.04 81.2202 126.397Z" fill="black"/>
<path opacity="0.3" d="M73.0027 129.15C73.0027 129.15 73.8444 129.018 73.3363 128.033C73.3363 128.033 72.3821 128.347 73.0027 129.15Z" fill="black"/>
<path opacity="0.3" d="M72.0648 129.049C72.0648 129.049 72.7087 128.137 71.0797 127.684C71.0797 127.684 70.5444 128.87 72.0648 129.049Z" fill="black"/>
<path d="M84.6914 128.584C84.6914 128.584 86.0257 129.247 86.5493 127.366C86.5493 127.366 84.831 126.846 84.6914 128.584Z" fill="#1B9E4B"/>
<path d="M75.058 127.443C75.058 127.443 75.9229 125.64 72.8472 125.24C72.8472 125.24 72.2654 127.513 75.058 127.443Z" fill="#1B9E4B"/>
<path d="M75.5789 126.765C75.5789 126.765 76.8472 126.005 75.2182 124.729C75.2182 124.729 73.9188 125.857 75.5789 126.765Z" fill="#1B9E4B"/>
<path d="M165.335 133.328H141.923L141.012 128.91H166.246L165.335 133.328Z" fill="#263238"/>
<path d="M142.32 128.933C143.108 127.828 143.523 127.099 145.043 127.277C145.256 125.369 147.153 123.934 149.407 123.62C151.66 123.306 154.088 124.395 155.027 126.145C157.102 125.187 160.03 125.893 161.182 127.63C162.408 127.025 164.417 127.894 165.119 128.933C156.85 129.069 150.217 129.073 142.316 128.933" fill="#1B9E4B"/>
<path d="M145.479 128.794C145.564 129.853 145.653 130.916 145.738 131.974C145.758 132.23 145.905 132.568 146.316 132.564C146.654 132.564 146.836 132.324 146.925 132.118C147.185 131.513 147.298 130.881 147.263 130.252C147.251 130.086 147.247 129.896 147.441 129.779C147.689 129.632 148.085 129.698 148.426 129.717C149.287 129.775 150.179 129.446 150.521 128.945C151.824 129.523 153.666 129.585 155.059 129.093C155.772 129.465 156.544 129.841 157.46 129.938C158.379 130.031 159.465 129.736 159.67 129.17C159.876 129.678 160.264 130.155 160.803 130.555C161.028 130.722 161.435 130.885 161.699 130.737C161.839 130.66 161.858 130.535 161.87 130.419C161.916 129.958 161.967 129.496 162.013 129.034C162.672 129.461 163.948 129.403 164.507 128.922L163.332 128.317L145.479 128.794Z" fill="#1B9E4B"/>
<path d="M145.869 127.781C145.869 127.781 143.681 127.645 144.689 125.016C144.689 125.016 147.214 125.59 145.869 127.781Z" fill="#1B9E4B"/>
<path d="M146.358 125.233C146.358 125.233 145.249 124.295 147.091 123.278C147.091 123.278 148.166 124.585 146.358 125.233Z" fill="#1B9E4B"/>
<path d="M157.483 125.528C157.483 125.528 157.037 124.221 159.202 124.155C159.202 124.155 159.411 125.764 157.483 125.528Z" fill="#1B9E4B"/>
<path opacity="0.3" d="M148.833 126.741C148.833 126.741 148.387 125.434 150.551 125.368C150.551 125.368 150.761 126.978 148.833 126.741Z" fill="black"/>
<path opacity="0.3" d="M148.181 126.59C148.181 126.59 147.332 126.691 147.491 125.612C147.491 125.612 148.507 125.659 148.181 126.59Z" fill="black"/>
<path opacity="0.3" d="M148.547 125.663C148.547 125.663 147.931 125.132 148.966 124.569C148.966 124.569 149.564 125.306 148.547 125.663Z" fill="black"/>
<path opacity="0.3" d="M156.764 128.413C156.764 128.413 155.923 128.282 156.431 127.296C156.431 127.296 157.385 127.611 156.764 128.413Z" fill="black"/>
<path opacity="0.3" d="M157.702 128.316C157.702 128.316 157.058 127.405 158.687 126.951C158.687 126.951 159.222 128.138 157.702 128.316Z" fill="black"/>
<path d="M145.079 127.851C145.079 127.851 143.744 128.514 143.221 126.633C143.221 126.633 144.939 126.114 145.079 127.851Z" fill="#1B9E4B"/>
<path d="M154.708 126.711C154.708 126.711 153.843 124.907 156.919 124.508C156.919 124.508 157.5 126.781 154.708 126.711Z" fill="#1B9E4B"/>
<path d="M154.189 126.032C154.189 126.032 152.921 125.272 154.55 123.996C154.55 123.996 155.849 125.125 154.189 126.032Z" fill="#1B9E4B"/>
<path d="M205.71 133.327H182.298L181.387 128.91H206.621L205.71 133.327Z" fill="#263238"/>
<path d="M182.697 128.933C183.485 127.828 183.9 127.099 185.42 127.277C185.633 125.369 187.53 123.934 189.783 123.62C192.037 123.306 194.465 124.395 195.404 126.145C197.479 125.187 200.407 125.893 201.559 127.63C202.785 127.025 204.794 127.894 205.496 128.933C197.227 129.069 190.594 129.073 182.693 128.933" fill="#1B9E4B"/>
<path d="M185.855 128.794C185.941 129.853 186.03 130.916 186.115 131.974C186.135 132.23 186.282 132.568 186.693 132.564C187.031 132.564 187.213 132.324 187.302 132.118C187.562 131.513 187.675 130.881 187.64 130.252C187.628 130.086 187.624 129.896 187.818 129.779C188.066 129.632 188.462 129.698 188.803 129.717C189.664 129.775 190.556 129.446 190.898 128.945C192.201 129.523 194.043 129.585 195.436 129.093C196.149 129.465 196.921 129.841 197.837 129.938C198.756 130.031 199.842 129.736 200.047 129.17C200.253 129.678 200.641 130.155 201.18 130.555C201.405 130.722 201.812 130.885 202.076 130.737C202.215 130.66 202.235 130.535 202.247 130.419C202.293 129.958 202.343 129.496 202.39 129.034C203.049 129.461 204.325 129.403 204.884 128.922L203.709 128.317L185.855 128.794Z" fill="#1B9E4B"/>
<path d="M186.242 127.781C186.242 127.781 184.054 127.645 185.063 125.016C185.063 125.016 187.588 125.59 186.242 127.781Z" fill="#1B9E4B"/>
<path d="M186.733 125.233C186.733 125.233 185.624 124.294 187.466 123.278C187.466 123.278 188.541 124.585 186.733 125.233Z" fill="#1B9E4B"/>
<path d="M197.858 125.528C197.858 125.528 197.412 124.221 199.577 124.155C199.577 124.155 199.786 125.764 197.858 125.528Z" fill="#1B9E4B"/>
<path opacity="0.3" d="M189.214 126.741C189.214 126.741 188.768 125.434 190.932 125.368C190.932 125.368 191.141 126.977 189.214 126.741Z" fill="black"/>
<path opacity="0.3" d="M188.562 126.589C188.562 126.589 187.712 126.69 187.871 125.612C187.871 125.612 188.888 125.658 188.562 126.589Z" fill="black"/>
<path opacity="0.3" d="M188.928 125.663C188.928 125.663 188.312 125.131 189.347 124.569C189.347 124.569 189.945 125.306 188.928 125.663Z" fill="black"/>
<path opacity="0.3" d="M197.141 128.413C197.141 128.413 196.299 128.282 196.808 127.296C196.808 127.296 197.762 127.611 197.141 128.413Z" fill="black"/>
<path opacity="0.3" d="M198.081 128.316C198.081 128.316 197.437 127.404 199.066 126.951C199.066 126.951 199.601 128.138 198.081 128.316Z" fill="black"/>
<path d="M185.454 127.851C185.454 127.851 184.119 128.514 183.596 126.633C183.596 126.633 185.314 126.113 185.454 127.851Z" fill="#1B9E4B"/>
<path d="M195.085 126.71C195.085 126.71 194.22 124.907 197.296 124.507C197.296 124.507 197.877 126.78 195.085 126.71Z" fill="#1B9E4B"/>
<path d="M194.566 126.032C194.566 126.032 193.298 125.272 194.927 123.996C194.927 123.996 196.226 125.124 194.566 126.032Z" fill="#1B9E4B"/>
<path d="M166.743 51.384H180.388C180.764 51.384 180.764 50.8022 180.388 50.8022H166.743C166.367 50.8022 166.367 51.384 166.743 51.384Z" fill="#263238"/>
<path d="M255.754 63.9199C255.754 63.9199 253.435 65.3589 253.225 69.3655C253.02 73.3721 250.37 83.4449 251.507 84.8102C252.643 86.1754 254.012 85.8768 254.012 85.8768L266.176 82.6537L263.337 67.593L255.754 63.9199Z" fill="#263238"/>
<path d="M230.609 97.3889C230.668 97.451 231.071 98.3431 231.183 98.6844C231.3 99.0296 231.222 101.725 230.896 101.562C230.571 101.399 230.512 101.279 230.454 100.69C230.396 100.1 230.396 99.5532 230.245 99.6967C230.09 99.8402 229.803 101.562 229.958 102.047C230.113 102.532 230.419 103.405 230.113 103.626C229.806 103.847 229.593 103.482 229.593 103.482C229.593 103.482 229.554 103.967 229.287 103.785C229.019 103.602 227.984 102.326 227.867 101.737C227.751 101.151 228.321 98.665 228.383 98.0483C228.402 97.8621 228.655 96.6714 228.655 96.6714L230.823 96.7916L230.613 97.3773L230.609 97.3889Z" fill="#FDAD6A"/>
<path d="M236.293 68.4893C236.293 68.4893 234.207 68.7491 233.338 70.8591C232.465 72.9691 231.445 84.1666 230.817 85.6677C229.944 87.7582 228.648 96.6829 228.648 96.6829L230.603 97.3927C230.603 97.3927 234.288 89.3019 234.571 86.3697C234.854 83.4375 235.358 81.3236 235.358 81.3236L236.289 68.497L236.293 68.4893Z" fill="#0582CA"/>
<path opacity="0.4" d="M236.293 68.4893C236.293 68.4893 234.207 68.7491 233.338 70.8591C232.465 72.9691 231.445 84.1666 230.817 85.6677C229.944 87.7582 228.648 96.6829 228.648 96.6829L230.603 97.3927C230.603 97.3927 234.288 89.3019 234.571 86.3697C234.854 83.4375 235.358 81.3236 235.358 81.3236L236.289 68.497L236.293 68.4893Z" fill="black"/>
<path d="M249.501 68.8613C249.501 68.8613 252.468 69.1212 253.411 73.2287C254.097 76.223 255.901 82.4986 255.901 82.4986L261.354 88.1924L260.446 91.1595C260.446 91.1595 253.205 87.1839 252.422 86.1794C251.638 85.1748 249.354 79.5702 249.354 79.5702L249.497 68.8613H249.501Z" fill="#0582CA"/>
<path opacity="0.4" d="M249.501 68.8613C249.501 68.8613 252.468 69.1212 253.411 73.2287C254.097 76.223 255.901 82.4986 255.901 82.4986L261.354 88.1924L260.446 91.1595C260.446 91.1595 253.205 87.1839 252.422 86.1794C251.638 85.1748 249.354 79.5702 249.354 79.5702L249.497 68.8613H249.501Z" fill="black"/>
<path d="M234.243 138.145L234.96 144.82L232.765 145.154L230.453 138.878L234.243 138.145Z" fill="#263238"/>
<path d="M231.02 143.517C230.985 143.109 231.013 142.768 231.451 142.745L232.071 142.71C232.304 142.71 232.471 142.865 232.661 142.997C234.081 143.986 234.662 142.71 235.213 142.71C235.919 142.71 235.465 144.971 235.5 145.091L236.272 147.717C236.338 147.938 236.202 148.412 235.969 148.474C235.927 148.485 235.884 148.489 235.842 148.489H227.646C226.343 148.489 226.327 146.895 226.862 146.779C229.279 146.282 230.229 145.491 231.024 144.913C231.024 144.913 231.075 144.145 231.024 143.517H231.02Z" fill="#0582CA"/>
<path opacity="0.4" d="M227.641 148.489H235.837C235.879 148.489 235.922 148.485 235.965 148.474C236.124 148.431 236.236 148.198 236.271 147.985V147.783H226.594C226.722 148.156 227.048 148.485 227.641 148.485V148.489Z" fill="white"/>
<path d="M229.713 145.902C229.763 145.949 229.81 145.995 229.856 146.046C229.879 146.073 229.903 146.096 229.922 146.123C229.934 146.135 229.945 146.15 229.953 146.162C229.953 146.162 229.969 146.185 229.961 146.17C229.949 146.154 229.969 146.181 229.969 146.181C230.05 146.29 230.12 146.406 230.182 146.53C230.217 146.6 230.318 146.624 230.38 146.581C230.45 146.534 230.469 146.457 230.43 146.383C230.302 146.123 230.124 145.887 229.91 145.693C229.856 145.642 229.759 145.634 229.705 145.693C229.654 145.747 229.647 145.844 229.705 145.898L229.713 145.902Z" fill="#263238"/>
<path d="M230.468 145.445C230.514 145.487 230.557 145.534 230.6 145.58C230.619 145.604 230.642 145.627 230.662 145.654C230.673 145.666 230.681 145.677 230.693 145.693C230.697 145.697 230.701 145.704 230.705 145.708C230.685 145.681 230.716 145.724 230.705 145.708C230.782 145.809 230.852 145.918 230.91 146.03C230.945 146.096 231.046 146.123 231.108 146.081C231.178 146.038 231.197 145.953 231.158 145.883C231.03 145.646 230.864 145.429 230.666 145.239C230.611 145.185 230.514 145.181 230.46 145.239C230.406 145.297 230.402 145.39 230.46 145.445H230.468Z" fill="#263238"/>
<path d="M231.031 145.068C231.074 145.092 231.117 145.119 231.159 145.15L231.128 145.127C231.194 145.177 231.256 145.239 231.311 145.309L231.287 145.278C231.33 145.332 231.365 145.39 231.396 145.456C231.411 145.487 231.45 145.514 231.481 145.522C231.516 145.53 231.563 145.526 231.594 145.507C231.625 145.487 231.652 145.456 231.66 145.421C231.667 145.383 231.66 145.348 231.644 145.309C231.547 145.103 231.376 144.925 231.175 144.816C231.109 144.781 231.012 144.797 230.977 144.867C230.942 144.937 230.958 145.026 231.027 145.065L231.031 145.068Z" fill="#263238"/>
<path d="M231.106 144.254C231.161 144.254 231.215 144.254 231.269 144.262C231.281 144.262 231.293 144.262 231.304 144.265C231.265 144.258 231.316 144.265 231.324 144.265C231.347 144.269 231.374 144.273 231.397 144.281C231.502 144.304 231.607 144.335 231.704 144.378C231.735 144.39 231.785 144.378 231.816 144.362C231.847 144.343 231.874 144.312 231.882 144.277C231.89 144.238 231.89 144.199 231.867 144.165C231.843 144.13 231.816 144.114 231.781 144.099C231.568 144.009 231.335 143.963 231.102 143.963C231.025 143.963 230.955 144.029 230.955 144.11C230.955 144.192 231.017 144.254 231.102 144.258L231.106 144.254Z" fill="#263238"/>
<g opacity="0.3">
<path d="M233.414 144.309C233.426 144.541 233.511 144.801 233.717 144.91C233.845 144.976 234 144.976 234.144 144.972C234.578 144.96 235.012 144.949 235.447 144.933V144.921C235.52 144.305 235.707 142.796 235.167 142.796C234.745 142.796 234.299 143.661 233.41 143.409C233.418 143.735 233.403 144.153 233.41 144.309H233.414Z" fill="black"/>
</g>
<path d="M248.712 92.5981L239.058 92.8968L232.783 93.0636C232.783 93.0636 227.849 113.554 227.457 117.414C227.065 121.273 230.064 143.885 230.064 143.885L236.273 143.73C236.273 143.73 234.609 121.025 235.028 118.934C235.393 117.115 239.427 105.444 240.454 102.473C240.559 103.082 240.664 103.691 240.772 104.296C241.032 107.03 241.866 115.757 242.231 119.004C242.231 119.004 243.022 137.547 243.623 143.292L248.425 143.299C249.371 135.298 249.779 108.442 249.779 108.442C250.135 102.609 248.708 92.5981 248.708 92.5981H248.712Z" fill="#263238"/>
<g opacity="0.5">
<path d="M235.693 94.1461C235.111 96.1164 233.559 97.6989 231.639 98.2768C231.535 98.3078 231.581 98.4746 231.682 98.4436C233.656 97.8502 235.254 96.2211 235.852 94.1926C235.883 94.084 235.72 94.0413 235.689 94.1461H235.693Z" fill="black"/>
<path d="M240.914 94.1457C240.802 95.8716 240.689 97.5976 240.577 99.3197C240.573 99.4322 240.406 99.4322 240.41 99.3197C240.468 98.4354 240.526 97.5472 240.581 96.6629C240.169 96.9926 239.685 96.5931 239.553 96.1548C239.332 95.4411 239.417 94.5956 239.588 93.8858C239.615 93.7772 239.778 93.8237 239.751 93.9285C239.63 94.4288 239.58 94.9408 239.615 95.4566C239.63 95.7165 239.654 96.019 239.774 96.2595C239.906 96.5271 240.239 96.7521 240.507 96.5116C240.538 96.4883 240.569 96.4845 240.596 96.4961C240.647 95.7165 240.697 94.9291 240.751 94.1495C240.755 94.0371 240.922 94.0371 240.918 94.1495L240.914 94.1457Z" fill="black"/>
<path d="M245.826 94.4403C245.803 96.7248 247.51 98.6409 249.713 98.8193C249.818 98.8271 249.818 98.6564 249.713 98.6486C247.595 98.478 245.97 96.6279 245.989 94.4403C245.989 94.3317 245.826 94.3317 245.826 94.4403Z" fill="black"/>
<path d="M247.145 119.822C247.866 120.097 248.638 120.101 249.364 119.833C249.468 119.795 249.422 119.624 249.317 119.663C248.619 119.919 247.886 119.915 247.192 119.651C247.087 119.612 247.04 119.783 247.145 119.822Z" fill="black"/>
</g>
<path d="M233.1 90.2857L234.613 73.6813L236.3 68.4879C237.766 68.3948 243.67 67.685 249.658 68.8874L249.615 91.8837C249.615 91.8837 250.542 93.5476 248.646 93.4468C240.764 94.2923 233.062 93.0589 233.062 93.0589C232.212 92.7758 232.212 91.6665 233.104 90.2857H233.1Z" fill="#0582CA"/>
<path opacity="0.4" d="M233.1 90.2857L234.613 73.6813L236.3 68.4879C237.766 68.3948 243.67 67.685 249.658 68.8874L249.615 91.8837C249.615 91.8837 250.542 93.5476 248.646 93.4468C240.764 94.2923 233.062 93.0589 233.062 93.0589C232.212 92.7758 232.212 91.6665 233.104 90.2857H233.1Z" fill="black"/>
<path opacity="0.2" d="M249.355 82.6564V74.6587C249.355 74.6587 250.263 78.7429 249.999 79.9414C249.736 81.1399 249.355 82.6564 249.355 82.6564Z" fill="black"/>
<path d="M244.045 138.47L244.976 145.32L247.21 145.432L247.935 138.827L244.045 138.47Z" fill="#263238"/>
<path d="M249.112 148.501H244.116C244.116 148.501 244.008 148.291 244.132 147.733C244.151 147.648 244.174 147.551 244.209 147.446C244.209 147.442 244.209 147.434 244.213 147.43C244.26 147.275 244.314 147.085 244.372 146.88C244.601 146.042 244.756 144.118 244.756 144.118C244.756 144.118 245.699 143.172 246.672 143.614C247.526 144.002 247.394 144.498 247.394 144.498C247.394 144.498 247.409 145.774 248.053 146.352C248.453 146.709 248.852 146.984 249.042 147.43C249.077 147.512 249.104 147.601 249.127 147.698C249.127 147.71 249.131 147.721 249.135 147.733C249.174 147.946 249.174 148.198 249.116 148.501H249.112Z" fill="#0582CA"/>
<g opacity="0.4">
<path d="M244.132 147.732C244.008 148.291 244.116 148.5 244.116 148.5H249.112C249.17 148.198 249.17 147.946 249.131 147.732H244.132Z" fill="white"/>
</g>
<path d="M247.122 145.402C246.842 145.184 246.474 145.212 246.218 145.456C246.148 145.522 246.047 145.417 246.113 145.351C246.427 145.045 246.877 145.025 247.223 145.297C247.296 145.355 247.191 145.46 247.118 145.402H247.122Z" fill="#263238"/>
<path d="M247.26 145.866C246.981 145.649 246.613 145.676 246.357 145.921C246.287 145.987 246.186 145.882 246.252 145.816C246.566 145.51 247.016 145.49 247.361 145.762C247.435 145.82 247.33 145.925 247.256 145.866H247.26Z" fill="#263238"/>
<path d="M247.405 146.297C247.126 146.08 246.757 146.107 246.501 146.351C246.431 146.417 246.33 146.313 246.396 146.247C246.711 145.94 247.161 145.921 247.506 146.192C247.579 146.251 247.475 146.355 247.401 146.297H247.405Z" fill="#263238"/>
<path d="M252.915 146.72L250.293 146.98L248.357 140.34L252.345 139.906L252.915 146.72Z" fill="#FDBBB5"/>
<path d="M249.915 145.82H250.85C251.063 145.82 251.257 145.929 251.381 146.1C251.92 146.837 252.328 146.557 252.913 145.867C253.286 145.824 253.387 146.251 253.418 146.367L254.116 148.912C254.178 149.125 254.054 149.346 253.84 149.408C253.802 149.42 253.763 149.424 253.724 149.424H246.308C245.129 149.424 244.885 148.237 245.369 148.124C247.553 147.643 249.101 146.999 249.776 146.363C249.9 146.251 249.776 146.169 249.907 145.824L249.915 145.82Z" fill="#263238"/>
<path d="M248.517 146.689C248.812 146.681 249.107 146.643 249.394 146.577C249.421 146.565 249.436 146.538 249.425 146.511C249.421 146.495 249.409 146.484 249.394 146.48C249.262 146.414 248.09 145.867 247.799 146.076C247.745 146.111 247.714 146.177 247.722 146.243C247.722 146.363 247.784 146.48 247.881 146.55C248.071 146.662 248.296 146.712 248.517 146.693V146.689ZM249.211 146.503C248.866 146.569 248.226 146.654 247.958 146.453C247.889 146.398 247.846 146.317 247.842 146.228C247.838 146.2 247.85 146.173 247.873 146.158C248.036 146.045 248.726 146.286 249.211 146.499V146.503Z" fill="#0582CA"/>
<path d="M249.382 146.577C249.382 146.577 249.406 146.577 249.417 146.577C249.433 146.561 249.441 146.542 249.433 146.522C249.433 146.472 249.158 145.32 248.518 145.394C248.359 145.417 248.312 145.49 248.308 145.556C248.269 145.863 249.006 146.441 249.355 146.584L249.382 146.577ZM248.584 145.487C248.991 145.487 249.223 146.158 249.305 146.429C248.925 146.227 248.39 145.746 248.421 145.56C248.421 145.545 248.421 145.502 248.541 145.49H248.584V145.487Z" fill="#0582CA"/>
<path d="M249.268 146.542C249.59 146.585 249.888 146.779 250.063 147.054" stroke="#0582CA" stroke-width="0.193931" stroke-linecap="round" stroke-linejoin="round"/>
<path d="M248.686 146.979C249.007 147.022 249.306 147.216 249.481 147.491" stroke="#0582CA" stroke-width="0.193931" stroke-linecap="round" stroke-linejoin="round"/>
<path d="M247.961 147.349C248.283 147.391 248.582 147.585 248.756 147.861" stroke="#0582CA" stroke-width="0.193931" stroke-linecap="round" stroke-linejoin="round"/>
<path opacity="0.3" d="M249.385 143.851L249.621 144.665L252.705 144.188L252.651 143.521L249.385 143.851Z" fill="black"/>
<path d="M268.173 146.934L265.551 147.19L263.615 140.554L267.602 140.119L268.173 146.934Z" fill="#FDBBB5"/>
<path d="M265.173 146.03H266.108C266.321 146.03 266.515 146.139 266.639 146.31C267.178 147.046 267.586 146.767 268.171 146.077C268.544 146.034 268.644 146.461 268.675 146.577L269.374 149.122C269.436 149.335 269.312 149.556 269.098 149.618C269.059 149.63 269.021 149.634 268.982 149.634H261.566C260.387 149.634 260.142 148.447 260.627 148.334C262.811 147.853 264.359 147.209 265.033 146.573C265.158 146.461 265.033 146.379 265.165 146.034L265.173 146.03Z" fill="#263238"/>
<path d="M263.775 146.899C264.07 146.891 264.364 146.853 264.651 146.787C264.679 146.779 264.694 146.748 264.682 146.721C264.679 146.705 264.667 146.694 264.651 146.69C264.52 146.624 263.348 146.077 263.057 146.286C263.003 146.321 262.972 146.387 262.98 146.453C262.98 146.573 263.042 146.69 263.139 146.759C263.329 146.872 263.554 146.922 263.775 146.903V146.899ZM264.469 146.717C264.124 146.783 263.484 146.868 263.216 146.666C263.146 146.612 263.104 146.531 263.1 146.441C263.096 146.414 263.108 146.387 263.131 146.372C263.294 146.259 263.984 146.5 264.469 146.713V146.717Z" fill="#0582CA"/>
<path d="M264.64 146.79C264.64 146.79 264.664 146.79 264.675 146.79C264.691 146.775 264.698 146.755 264.691 146.736C264.691 146.686 264.415 145.534 263.775 145.607C263.616 145.631 263.57 145.704 263.566 145.77C263.527 146.077 264.264 146.655 264.613 146.798L264.64 146.79ZM263.837 145.697C264.245 145.697 264.477 146.368 264.559 146.639C264.179 146.437 263.643 145.956 263.675 145.77C263.675 145.755 263.675 145.712 263.795 145.7H263.837V145.697Z" fill="#0582CA"/>
<path d="M264.521 146.756C264.843 146.799 265.142 146.992 265.317 147.268" stroke="#0582CA" stroke-width="0.193931" stroke-linecap="round" stroke-linejoin="round"/>
<path d="M263.941 147.193C264.263 147.236 264.562 147.43 264.737 147.705" stroke="#0582CA" stroke-width="0.193931" stroke-linecap="round" stroke-linejoin="round"/>
<path d="M263.219 147.559C263.541 147.601 263.839 147.795 264.014 148.071" stroke="#0582CA" stroke-width="0.193931" stroke-linecap="round" stroke-linejoin="round"/>
<path opacity="0.3" d="M264.637 144.06L264.873 144.875L267.961 144.401L267.903 143.734L264.637 144.06Z" fill="black"/>
<path d="M247.583 97.5093C247.583 97.5093 245.291 106.903 244.255 115.258C243.941 117.806 243.879 121.212 244.438 123.721L248.626 144.541L253.898 144.014C253.067 135.035 251.916 123.961 251.586 119.249L257.644 100.395L247.587 97.5093H247.583Z" fill="#0582CA"/>
<path d="M247.583 97.5093C247.583 97.5093 245.291 106.903 244.255 115.258C243.941 117.806 243.879 121.212 244.438 123.721L248.626 144.541L253.898 144.014C253.067 135.035 251.916 123.961 251.586 119.249L257.644 100.395L247.587 97.5093H247.583Z" fill="#0582CA"/>
<g opacity="0.4">
<path d="M247.583 97.5088C247.583 97.5088 245.291 106.903 244.255 115.257C243.941 117.806 243.879 121.211 244.438 123.721L248.626 144.541L253.898 144.013C253.067 135.034 251.916 123.961 251.586 119.248L257.644 100.394L247.587 97.5088H247.583Z" fill="black"/>
</g>
<path d="M264.783 120.924C264.663 120.405 264.473 119.35 264.24 117.961C264.248 117.961 264.255 117.961 264.263 117.957C264.092 116.119 263.774 107.586 263.193 102.14C262.747 98.6726 261.858 96.326 260.966 95.178C260.92 95.1198 260.877 95.0655 260.838 95.019C260.691 94.8328 260.602 94.7319 260.602 94.7319C260.431 94.7746 260.264 94.8134 260.097 94.8522C260.035 94.8677 259.973 94.8793 259.911 94.891C253.612 96.2097 248.613 94.3208 248.613 94.3208C248.035 95.752 247.058 99.0372 246.635 102.206C247.294 102.927 250.184 103.866 253.504 104.491L254.45 108.769C254.947 111.422 255.587 114.024 256.13 116.367L256.696 118.935C256.731 119.101 256.766 119.268 256.797 119.435C257.084 120.909 263.933 144.677 263.933 144.677L268.394 144.417C268.394 144.417 266.4 127.968 264.787 120.936L264.783 120.924Z" fill="#0582CA"/>
<path opacity="0.4" d="M264.783 120.924C264.663 120.405 264.473 119.35 264.24 117.961C264.248 117.961 264.255 117.961 264.263 117.957C264.092 116.119 263.774 107.586 263.193 102.14C262.747 98.6726 261.858 96.326 260.966 95.178C260.92 95.1198 260.877 95.0655 260.838 95.019C260.691 94.8328 260.602 94.7319 260.602 94.7319C260.431 94.7746 260.264 94.8134 260.097 94.8522C260.035 94.8677 259.973 94.8793 259.911 94.891C253.612 96.2097 248.613 94.3208 248.613 94.3208C248.035 95.752 247.058 99.0372 246.635 102.206C247.294 102.927 250.184 103.866 253.504 104.491L254.45 108.769C254.947 111.422 255.587 114.024 256.13 116.367L256.696 118.935C256.731 119.101 256.766 119.268 256.797 119.435C257.084 120.909 263.933 144.677 263.933 144.677L268.394 144.417C268.394 144.417 266.4 127.968 264.787 120.936L264.783 120.924Z" fill="black"/>
<path opacity="0.2" d="M247.92 96.1825C247.92 96.1825 249.844 98.2149 253.618 98.2498C257.392 98.2847 261.623 96.0855 261.623 96.0855L261.15 95.2749L250.286 96.4579L248.207 95.2749L247.92 96.1825Z" fill="black"/>
<path opacity="0.2" d="M254.669 109.75C254.684 109.839 252.462 101.752 252.462 101.752C252.462 101.752 251.352 107.865 253.994 112.05L254.669 109.754V109.75Z" fill="black"/>
<path d="M262.682 83.468L263.338 76.8279C261.825 75.959 258.156 75.1445 258.156 75.1445L254.778 75.3307C254.778 75.3307 253.478 75.6216 252.365 75.9823C250.88 76.4671 250.077 76.855 249.724 77.6811C249.724 77.6811 249.103 79.508 249.476 83.2664C249.576 84.3019 249.813 89.7592 249.522 91.5356L247.424 95.643C253.599 100.453 261.503 95.643 261.503 95.643C261.224 94.7936 260.615 92.9125 260.491 92.0825C260.58 91.0236 260.879 90.3293 261.329 88.4753C261.414 88.1185 262.531 83.8171 262.682 83.468Z" fill="#0582CA"/>
<path opacity="0.7" d="M262.682 83.4679L263.194 76.8122C262.826 76.2808 259.001 75.3267 259.001 75.3267H254.774C254.774 75.3267 253.474 75.6176 252.361 75.9783C250.876 76.4631 250.073 76.851 249.72 77.6771C249.72 77.6771 249.099 79.5039 249.472 83.2623C249.573 84.2979 249.809 89.7551 249.518 91.5315L247.42 95.639C253.595 100.448 261.499 95.639 261.499 95.639C261.22 94.7896 260.611 92.9084 260.487 92.0784C260.576 91.0195 260.875 90.3253 261.325 88.4713C261.41 88.1145 262.527 83.8131 262.678 83.464L262.682 83.4679Z" fill="white"/>
<path d="M260.416 65.1923C260.416 65.1923 261.622 69.4975 261.44 70.7077C262.084 71.5881 262.991 70.3314 263.406 68.4542C263.748 66.9183 263.34 65.0759 262.161 64.1683C260.501 62.8922 260.42 65.1961 260.42 65.1961L260.416 65.1923Z" fill="#263238"/>
<path d="M258.576 75.2646C258.227 74.8883 258.157 74.6013 258.246 74.0738C258.308 73.6704 258.456 73.2515 258.627 72.8482L258.107 72.2392L255.384 69.4932C255.454 71.3278 255.671 74.2755 254.24 75.2723C254.24 75.2723 252.766 75.858 251.986 76.1101C252.064 76.6376 252.277 80.2369 255.027 80.0159C257.529 79.8142 261.12 76.5872 260.721 75.8619C260.011 75.6408 259.247 75.4197 258.58 75.2684L258.576 75.2646Z" fill="#FDAD6A"/>
<path opacity="0.2" d="M258.226 74.4701C257.454 74.2645 256.349 73.7138 256.186 72.8178C256.12 72.4493 256.12 72.0886 256.151 71.8481L258.428 73.3686C258.389 73.7138 258.191 73.9736 258.226 74.4701Z" fill="black"/>
<path d="M255.418 66.6579C255.119 69.4505 254.937 70.6258 256.062 72.3479C257.757 74.9388 261.178 74.8651 262.287 72.2587C263.284 69.9121 263.606 65.7387 261.143 64.0476C258.719 62.3798 255.717 63.8653 255.418 66.6579Z" fill="#FDAD6A"/>
<path d="M258.877 68.4927C258.818 68.7487 258.912 69.0008 259.09 69.0551C259.265 69.1094 259.455 68.9465 259.513 68.6905C259.571 68.4345 259.478 68.1824 259.299 68.1281C259.125 68.0738 258.935 68.2367 258.877 68.4927Z" fill="#263238"/>
<path d="M261.703 68.9114C261.633 69.1557 261.714 69.4078 261.885 69.4699C262.056 69.5358 262.253 69.3884 262.323 69.1441C262.393 68.8997 262.312 68.6476 262.141 68.5856C261.97 68.5196 261.773 68.667 261.703 68.9114Z" fill="#263238"/>
<path d="M258.36 67.4417C258.395 67.4533 258.434 67.4495 258.465 67.4301C258.962 67.1198 259.415 67.3486 259.419 67.3486C259.485 67.3835 259.567 67.3564 259.594 67.2865C259.625 67.2167 259.594 67.1353 259.524 67.0965C259.501 67.0849 258.934 66.7978 258.318 67.1857C258.256 67.2245 258.24 67.3098 258.279 67.3758C258.298 67.4068 258.329 67.4301 258.36 67.4417Z" fill="#263238"/>
<path d="M262.709 67.8919C262.744 67.8919 262.775 67.8725 262.798 67.8454C262.845 67.7911 262.833 67.7019 262.771 67.6553C262.162 67.1589 261.561 67.3218 261.534 67.3295C261.46 67.3489 261.425 67.4226 261.449 67.4963C261.476 67.57 261.553 67.6088 261.623 67.5894C261.646 67.5816 262.116 67.4653 262.601 67.8609C262.632 67.888 262.67 67.8958 262.705 67.8958L262.709 67.8919Z" fill="#263238"/>
<path d="M254.138 68.725C254.347 69.3534 254.805 69.8111 255.263 70.0283C255.953 70.3541 256.562 69.2642 256.457 68.4846C256.364 67.7864 255.74 67.2085 255.003 67.2085C254.278 67.2085 253.894 68.0036 254.134 68.7212L254.138 68.725Z" fill="#FDAD6A"/>
<path d="M260.791 68.5122C260.791 68.5122 261.016 69.6254 261.369 70.3623C261.431 70.4903 261.345 70.6454 261.206 70.6648C260.841 70.723 260.469 70.5291 260.469 70.5291L260.791 68.5122Z" fill="#FE7F3A"/>
<path d="M259.25 68.105L259.909 68.136C259.909 68.136 259.44 68.5006 259.25 68.105Z" fill="#263238"/>
<path d="M262.072 68.5698L262.728 68.6396C262.728 68.6396 262.235 68.9732 262.072 68.5698Z" fill="#263238"/>
<path d="M255.038 64.9983C254.542 65.4443 254.906 67.1664 254.906 67.1664C254.906 67.1664 256.303 67.0889 255.907 69.0708C256.369 69.2648 257.346 67.5582 257.707 65.6964C257.858 64.6298 255.911 64.2109 255.038 64.9983Z" fill="#263238"/>
<path d="M263.087 65.3158C262.796 63.9815 260.717 62.3137 257.746 62.8257C255.062 63.2873 253.514 66.6617 255.244 67.2163C256.974 67.7709 259.456 66.5414 259.456 66.5414L263.087 65.3158Z" fill="#263238"/>
<path opacity="0.2" d="M255.364 68.0153C255.154 67.8718 254.879 67.9688 254.759 68.1395C254.611 68.3489 254.611 68.9152 255.279 69.2487" stroke="black" stroke-width="0.193931" stroke-linecap="round" stroke-linejoin="round"/>
<path d="M259.836 71.2582C259.332 71.169 258.894 70.7773 258.754 70.2847" stroke="#263238" stroke-width="0.193931" stroke-linecap="round" stroke-linejoin="round"/>
<path d="M260.698 88.8976C260.698 88.8976 258.623 89.429 258.348 89.9526C258.072 90.4723 258.914 90.4762 258.914 90.4762C258.914 90.4762 257.987 90.5305 257.956 90.9261C257.921 91.4032 258.802 91.4032 258.802 91.4032C258.802 91.4032 258.045 91.4769 258.041 91.8337C258.041 92.2022 259.034 92.272 259.034 92.272C259.034 92.272 258.511 92.4271 258.65 92.6715C258.786 92.9197 260.9 93.1098 261.544 92.7452C262.188 92.3806 262.223 89.6694 262.242 89.0605C262.265 88.3546 261.858 87.7728 261.548 87.6138L260.76 88.8821L260.698 88.8976Z" fill="#FDAD6A"/>
<path opacity="0.2" d="M258.914 90.5226C258.914 90.5226 258.914 90.5226 258.918 90.5226L260.532 90.3519C260.555 90.3519 260.571 90.3286 260.567 90.3015C260.567 90.2782 260.543 90.2588 260.524 90.2627L258.91 90.4334C258.887 90.4334 258.872 90.4566 258.876 90.4838C258.876 90.5071 258.895 90.5226 258.914 90.5226Z" fill="black"/>
<path opacity="0.2" d="M258.847 91.4493L260.41 91.4066C260.434 91.4066 260.449 91.3872 260.449 91.36C260.449 91.3368 260.434 91.3213 260.41 91.3174L258.847 91.36C258.824 91.36 258.809 91.3794 258.809 91.4066C258.809 91.4299 258.828 91.4493 258.847 91.4493Z" fill="black"/>
<path opacity="0.2" d="M259.09 92.3143H260.249C260.273 92.3143 260.288 92.2988 260.288 92.2716C260.288 92.2484 260.269 92.2251 260.249 92.2251H259.09C259.066 92.2251 259.051 92.2406 259.051 92.2678C259.051 92.291 259.07 92.3143 259.09 92.3143Z" fill="black"/>
<path d="M234.105 86.1136C234.105 86.1136 235.796 86.9165 235.947 87.409C236.099 87.9016 235.373 87.7659 235.373 87.7659C235.373 87.7659 236.161 87.9676 236.118 88.3128C236.072 88.7278 235.315 88.5804 235.315 88.5804C235.315 88.5804 235.951 88.7704 235.893 89.073C235.835 89.391 234.97 89.2824 234.97 89.2824C234.97 89.2824 235.393 89.4996 235.234 89.6897C235.075 89.8797 233.232 89.6897 232.74 89.2708C232.247 88.8519 232.561 86.4898 232.755 85.9972C232.817 85.8382 232.976 85.5783 233.892 85.4697L234.055 86.0864L234.105 86.1097V86.1136Z" fill="#FDBBB5"/>
<path opacity="0.2" d="M235.364 87.8003L234.01 87.3853C234.01 87.3853 233.983 87.3582 233.987 87.3388C233.994 87.3194 234.014 87.3039 234.029 87.3116L235.383 87.7266C235.383 87.7266 235.41 87.7538 235.406 87.7732C235.402 87.7926 235.383 87.8042 235.367 87.8003H235.364Z" fill="black"/>
<path opacity="0.2" d="M235.268 88.6038L233.938 88.309C233.938 88.309 233.907 88.2857 233.91 88.2625C233.914 88.2431 233.93 88.2314 233.953 88.2314L235.284 88.5262C235.284 88.5262 235.315 88.5495 235.311 88.5728C235.307 88.5922 235.287 88.6077 235.268 88.6038Z" fill="black"/>
<path opacity="0.2" d="M234.917 89.3092L233.92 89.1192C233.92 89.1192 233.889 89.0959 233.893 89.0726C233.897 89.0532 233.916 89.0377 233.936 89.0416L234.932 89.2317C234.932 89.2317 234.963 89.2549 234.96 89.2782C234.956 89.2976 234.936 89.3131 234.917 89.3092Z" fill="black"/>
<path d="M245.251 67.0418C245.251 67.0418 244.925 65.2926 245.814 62.1936C245.814 62.1936 245.651 62.1199 245.651 62.116C245.775 61.6816 245.903 61.2821 246.027 60.933C246.027 60.9214 246.027 60.9214 246.027 60.9214L241.795 63.5511C241.896 64.5401 241.547 66.4562 241.338 67.2629C241.338 67.2629 240.806 68.729 242.753 68.7872C244.177 68.8299 245.247 67.0418 245.247 67.0418H245.251Z" fill="#FDAD6A"/>
<path opacity="0.2" d="M241.729 64.9438L244.165 64.3892C243.944 65.1494 243.277 66.0492 241.582 66.1268C241.582 66.1268 241.749 65.2774 241.729 64.9438Z" fill="black"/>
<path d="M241.39 54.6539C240.525 55.3327 239.734 57.6404 241.336 57.8925C242.942 58.1446 242.876 53.4903 241.39 54.6539Z" fill="#263238"/>
<path d="M247.075 60.5222C245.682 62.8378 244.941 64.1681 243.099 64.7538C240.326 65.6342 237.995 63.0627 238.673 60.371C239.282 57.9468 241.458 54.5724 244.286 54.8633C247.075 55.1542 248.467 58.2067 247.075 60.5222Z" fill="#FDAD6A"/>
<path d="M249.78 57.7793C249.923 55.2737 245.944 54.5794 244.672 54.7733C244.482 54.8005 245.924 56.8057 245.827 56.6971L246.584 57.4961C246.743 57.5388 246.933 57.8491 246.847 58.3649C246.847 58.3649 245.176 60.7115 245.661 62.3172C246.948 62.3793 247.29 62.069 248.003 61.3437C249.066 60.2577 249.729 58.9855 249.776 57.7831L249.78 57.7793Z" fill="#263238"/>
<path d="M246.981 63.0042C246.469 63.5201 245.767 63.7489 245.17 63.7373C244.27 63.7179 244.076 62.8491 244.534 62.1315C244.949 61.4838 245.915 60.7158 246.713 61.0804C247.501 61.4411 247.563 62.4147 246.981 63.0042Z" fill="#FDAD6A"/>
<path d="M243.292 59.4284C243.164 59.6728 242.931 59.8008 242.772 59.7155C242.613 59.6301 242.586 59.3625 242.714 59.1181C242.842 58.8738 243.074 58.7458 243.233 58.8311C243.392 58.9164 243.42 59.1841 243.292 59.4284Z" fill="#263238"/>
<path d="M240.868 58.2263C240.74 58.4706 240.507 58.5986 240.348 58.5133C240.189 58.428 240.162 58.1603 240.29 57.916C240.418 57.6716 240.651 57.5436 240.81 57.629C240.969 57.7143 240.996 57.9819 240.868 58.2263Z" fill="#263238"/>
<path d="M241.723 58.4976C241.723 58.4976 240.315 59.3082 239.807 59.6767C239.985 60.1615 240.648 60.3244 240.648 60.3244L241.723 58.4976Z" fill="#FE7F3A"/>
<path d="M244.495 58.5863C244.449 58.5824 244.41 58.5553 244.39 58.5087C244.15 57.9812 243.681 57.9037 243.677 57.9037C243.607 57.892 243.556 57.8261 243.568 57.7563C243.58 57.6865 243.646 57.636 243.715 57.6477C243.739 57.6477 244.328 57.7524 244.627 58.404C244.658 58.4699 244.627 58.5475 244.565 58.5747C244.545 58.5824 244.522 58.5863 244.499 58.5863H244.495Z" fill="#263238"/>
<path opacity="0.2" d="M246.781 62.062C246.757 61.868 246.591 61.7129 246.4 61.6664C246.21 61.6198 246.013 61.6664 245.838 61.7517C245.629 61.8525 245.446 62.0116 245.318 62.2055" stroke="black" stroke-width="0.193931" stroke-linecap="round" stroke-linejoin="round"/>
<path d="M240.35 56.6394C240.35 56.6394 240.315 56.6006 240.308 56.5774C240.288 56.5075 240.327 56.4377 240.393 56.4145C241.076 56.205 241.529 56.589 241.549 56.6006C241.603 56.6472 241.611 56.7286 241.564 56.7829C241.518 56.8372 241.44 56.845 241.386 56.7984C241.367 56.7829 241.014 56.492 240.467 56.6588C240.424 56.6704 240.381 56.6588 240.347 56.6355L240.35 56.6394Z" fill="#263238"/>
<path d="M248.254 56.4691C248.308 55.2745 247.618 54.1536 246.59 53.7774C245.942 53.5408 245.213 53.5834 244.515 53.5136C243.817 53.4438 243.088 53.2227 242.719 52.6138C242.537 52.3151 242.382 51.8885 242.033 51.9079C241.8 51.9195 241.598 52.1561 241.532 52.4043C241.467 52.6487 241.501 52.9008 241.54 53.1451C241.3 53.021 241.059 52.893 240.815 52.7689C240.571 53.5912 240.788 54.4678 241.226 55.1232C241.664 55.7787 242.304 56.2403 242.964 56.6359C243.755 57.1091 244.608 57.5008 245.539 57.5939C246.47 57.687 247.486 57.4504 248.246 56.7794V56.4652L248.254 56.4691Z" fill="#263238"/>
<path d="M248.009 54.6109C247.8 54.0989 247.369 53.68 246.85 53.4861C246.373 53.3077 245.849 53.3116 245.345 53.2301C244.841 53.1487 244.309 52.947 244.061 52.5009C243.925 52.2605 243.809 51.9075 243.53 51.9308C243.32 51.9463 243.204 52.1868 243.184 52.3962C243.13 52.9121 243.409 53.4512 243.859 53.7072L247.978 56.2283C248.207 55.7241 248.219 55.1268 248.009 54.6148V54.6109Z" fill="#263238"/>
<path d="M240.908 61.6123C241.374 61.8179 241.959 61.7364 242.347 61.4067" stroke="#263238" stroke-width="0.193931" stroke-linecap="round" stroke-linejoin="round"/>
<path d="M241.298 66.6427L239.588 68.26L242.4 71.456L246.763 68.4889L245.193 66.3789L242.71 68.4501L241.298 66.6427Z" fill="#0582CA"/>
<path opacity="0.2" d="M233.893 85.4693L234.61 73.6821C234.61 73.6821 233.338 78.3403 233.338 80.9701C233.338 83.5998 233.893 85.4654 233.893 85.4654V85.4693Z" fill="black"/>
<path d="M284.355 112.166C284.355 112.166 286.128 112.235 286.892 114.454C287.656 116.669 288.304 119.089 288.304 119.089L285.081 119.651L284.355 112.166Z" fill="#0582CA"/>
<path d="M287.908 146.104L289.017 147.198L288.013 148.226L286.768 147.26L287.908 146.104Z" fill="#FDAD6A"/>
<path d="M286.964 148.873C286.883 148.877 286.805 148.831 286.77 148.757C286.743 148.714 286.743 148.656 286.77 148.613C286.856 148.412 287.426 148.295 287.488 148.28C287.5 148.276 287.515 148.276 287.531 148.28C287.538 148.295 287.538 148.311 287.531 148.326C287.453 148.458 287.364 148.578 287.259 148.691C287.193 148.792 287.085 148.858 286.968 148.877L286.964 148.873ZM286.829 148.648C286.817 148.672 286.817 148.699 286.829 148.718C286.848 148.765 286.894 148.796 286.945 148.796C287.057 148.796 287.22 148.64 287.387 148.381C287.162 148.439 286.875 148.54 286.817 148.648H286.829Z" fill="#0582CA"/>
<path d="M286.799 148.275C286.752 148.206 286.752 148.116 286.799 148.05C286.814 148 286.857 147.965 286.907 147.954C287.12 147.907 287.547 148.303 287.594 148.341C287.601 148.357 287.601 148.372 287.594 148.388C287.586 148.403 287.574 148.411 287.559 148.415C287.408 148.431 287.256 148.431 287.101 148.415C286.985 148.407 286.88 148.361 286.799 148.275ZM286.923 148.035C286.899 148.043 286.876 148.062 286.872 148.085C286.845 148.128 286.845 148.186 286.872 148.229C286.938 148.314 287.159 148.357 287.466 148.345C287.287 148.19 287.031 148.008 286.919 148.031H286.923V148.035Z" fill="#0582CA"/>
<path d="M287.501 148.536C287.392 149.327 287.086 150.083 286.609 150.723C286.403 150.952 286.81 151.526 287.377 151.103C287.943 150.63 288.478 150.114 288.975 149.567C289.56 148.974 289.805 148.768 290.27 148.303C290.387 148.186 290.387 148 290.27 147.884L289.126 146.907C289.079 146.86 289.006 146.864 288.959 146.907L287.637 148.268C287.563 148.342 287.512 148.435 287.497 148.539L287.501 148.536Z" fill="#263238"/>
<path d="M277.154 148.101V149.664H275.719L275.533 148.101H277.154Z" fill="#FDAD6A"/>
<path d="M274.522 149.373C274.464 149.315 274.449 149.23 274.476 149.152C274.484 149.102 274.515 149.059 274.561 149.04C274.771 148.958 275.252 149.28 275.306 149.315C275.314 149.327 275.314 149.342 275.306 149.358C275.306 149.358 275.306 149.385 275.275 149.389C275.127 149.424 274.976 149.447 274.825 149.451C274.72 149.462 274.612 149.435 274.522 149.373ZM274.592 149.121C274.569 149.129 274.55 149.148 274.546 149.171C274.53 149.222 274.542 149.276 274.577 149.315C274.658 149.392 274.879 149.396 275.182 149.315C274.98 149.191 274.701 149.055 274.592 149.102V149.121Z" fill="#0582CA"/>
<path d="M274.842 148.827C274.853 148.749 274.912 148.683 274.989 148.664C275.032 148.637 275.09 148.637 275.133 148.664C275.323 148.788 275.338 149.366 275.338 149.432C275.338 149.498 275.338 149.459 275.338 149.467C275.327 149.475 275.311 149.475 275.296 149.467C275.179 149.37 275.074 149.261 274.981 149.137C274.896 149.056 274.842 148.943 274.838 148.823L274.842 148.827ZM275.086 148.741C275.063 148.73 275.036 148.73 275.016 148.741C274.966 148.757 274.927 148.796 274.919 148.85C274.919 148.959 275.028 149.141 275.253 149.362C275.253 149.133 275.187 148.819 275.09 148.757V148.741H275.086Z" fill="#0582CA"/>
<path d="M275.147 149.269C274.507 149.75 273.758 150.06 272.963 150.165C272.657 150.18 272.533 150.871 273.235 150.979C273.976 151.049 274.716 151.065 275.457 151.03C276.291 151.03 276.609 151.072 277.272 151.072C277.435 151.072 277.563 150.937 277.563 150.774L277.462 149.269C277.459 149.203 277.4 149.153 277.334 149.156H275.438C275.329 149.16 275.228 149.199 275.147 149.269Z" fill="#263238"/>
<path d="M274.006 126.808C274.006 126.808 280.313 125.586 278.99 130.869C278.909 131.206 278.827 131.571 278.75 131.959C278.451 133.533 278.222 135.5 278.048 137.524C277.598 142.885 277.544 148.191 277.544 148.191L274.891 148.276C273.514 141.205 273.49 133.995 274.01 126.808H274.006Z" fill="#263238"/>
<path opacity="0.2" d="M276.485 129.701C277.439 129.372 278.172 130.946 278.897 131.237C278.598 132.8 278.307 134.848 278.133 136.873C276.244 135.372 276.485 129.69 276.485 129.701Z" fill="black"/>
<path d="M274.566 126.648C274.244 128.727 278.569 130.88 278.569 130.88C279.057 133.657 280.043 138.118 281.136 140.716C282.409 143.85 286.539 147.74 286.539 147.74L288.479 146.166C285.523 141.442 284.701 138.792 284.763 136.892C285.03 128.708 284.996 127.735 284.635 125.915C284.635 125.915 274.888 124.566 274.566 126.648Z" fill="#263238"/>
<path d="M267.555 102.729C267.555 102.729 268.823 108.415 269.684 109.265C270.541 110.114 276.169 117.321 276.169 117.321L277.1 113.869L271.825 108.225L268.811 102.497L267.555 102.729Z" fill="#FDAD6A"/>
<path d="M274.83 117.231L274.659 116.525C274.659 116.525 271.909 113.229 270.707 111.828L273.282 109.4L276.191 111.941L274.834 117.231H274.83Z" fill="#0582CA"/>
<path d="M274.426 119.244C274.573 118.333 274.701 117.394 274.791 116.502C274.864 115.734 274.891 114.958 274.868 114.186C274.829 113.279 274.48 111.894 275.353 111.65C276.369 111.386 278.355 111.828 279.402 111.84C282.951 111.809 284.355 112.169 284.355 112.169C284.355 112.169 284.693 113.372 284.805 114.512C284.856 115.04 284.914 115.664 284.96 116.366C284.96 116.482 284.933 116.572 284.96 116.719C284.988 116.866 284.987 117.022 284.987 117.181C285.007 117.452 285.034 117.728 285.034 118.022C285.1 118.872 285.1 119.791 285.1 120.741C285.1 122.126 285.24 125.566 285.1 127.001C280.341 126.388 275.547 126.334 273.088 127.265C273.088 127.265 273.91 122.126 274.43 119.244H274.426Z" fill="#0582CA"/>
<path d="M274.658 116.777C274.887 115.168 275.116 114.159 275.48 112.577" stroke="#263238" stroke-width="0.0969655" stroke-linecap="round" stroke-linejoin="round"/>
<path d="M285.078 119.985C285.078 118.825 285.078 114.947 285.078 113.787" stroke="#263238" stroke-width="0.0969655" stroke-linecap="round" stroke-linejoin="round"/>
<path d="M278.157 111.762C278.634 111.204 278.847 110.47 278.746 109.741C278.704 109.365 278.599 109 278.444 108.655L280.666 109.431L281.679 109.78C281.442 110.024 281.264 110.319 281.155 110.641C281.031 110.982 281.159 111.537 281.314 111.863C281.461 112.992 279.309 113.616 279.309 113.616C277.362 112.561 278.157 111.758 278.157 111.758V111.762Z" fill="#FDAD6A"/>
<path opacity="0.2" d="M281.684 109.8L280.672 109.451L278.449 108.675C278.608 109.016 278.709 109.385 278.752 109.761C278.818 110.253 278.74 110.746 278.527 111.204C278.527 111.204 281.114 110.575 281.312 110.315L281.688 109.803L281.684 109.8Z" fill="black"/>
<path d="M278.217 105.596C276.255 102.086 279.749 100.992 279.749 100.992C279.749 100.992 280.432 109.568 278.217 105.596Z" fill="#263238"/>
<path d="M281.508 101.605C278.723 101.171 276.675 104.122 276.152 106.306C275.582 108.73 276.528 109.801 279.825 110.495C281.621 110.875 283.668 109.102 284.638 107.144C285.98 104.421 284.289 102.039 281.504 101.605H281.508Z" fill="#FDAD6A"/>
<path d="M282.561 100.767C285.191 101.771 287.266 103.94 285.862 106.779C283.93 110.673 281.925 110.126 281.925 110.126C282.585 108.256 281.285 106.852 282.115 105.576C282.15 105.534 282.185 105.487 282.216 105.437C282.608 104.812 282.422 103.99 281.797 103.598C280.719 103.404 279.714 102.923 278.888 102.206C278.144 100.868 280.339 99.8903 282.557 100.759L282.561 100.767Z" fill="#263238"/>
<path d="M279.701 105.247C279.53 105.173 279.309 105.317 279.193 105.569C279.076 105.821 279.119 106.085 279.282 106.162C279.445 106.24 279.674 106.096 279.79 105.844C279.903 105.592 279.872 105.321 279.701 105.247Z" fill="#263238"/>
<path d="M277.723 104.273C277.564 104.203 277.339 104.359 277.234 104.58C277.13 104.805 277.168 105.057 277.327 105.13C277.486 105.204 277.707 105.064 277.816 104.828C277.925 104.584 277.886 104.343 277.727 104.273H277.723Z" fill="#263238"/>
<path d="M279.685 104.316C279.999 104.378 280.267 104.587 280.399 104.882C280.422 104.948 280.492 104.983 280.554 104.96C280.62 104.937 280.655 104.863 280.628 104.797C280.476 104.432 280.158 104.161 279.774 104.076C279.708 104.056 279.639 104.099 279.619 104.165C279.619 104.192 279.619 104.219 279.635 104.242C279.642 104.269 279.658 104.297 279.685 104.312V104.316Z" fill="#263238"/>
<path d="M277.727 103.493C278.033 103.4 278.367 103.462 278.623 103.652C278.677 103.695 278.751 103.691 278.797 103.641C278.844 103.59 278.836 103.513 278.785 103.466C278.471 103.214 278.056 103.129 277.668 103.245C277.603 103.261 277.564 103.33 277.583 103.392C277.591 103.42 277.606 103.439 277.63 103.451C277.653 103.478 277.688 103.489 277.727 103.486V103.493Z" fill="#263238"/>
<path d="M277.02 105.906C277.171 106.166 277.4 106.372 277.671 106.503L278.191 105.406C277.834 105.642 277.438 105.813 277.02 105.906Z" fill="#FE7F3A"/>
<path d="M278.845 107.151C278.888 107.109 278.884 107.043 278.845 107C278.802 106.961 278.732 106.965 278.694 107.008C278.372 107.392 277.809 107.465 277.398 107.178C277.352 107.143 277.286 107.155 277.251 107.202C277.251 107.202 277.251 107.202 277.251 107.206C277.216 107.252 277.227 107.318 277.274 107.353C277.394 107.43 277.526 107.489 277.662 107.527C278.096 107.648 278.566 107.504 278.853 107.151H278.845Z" fill="#263238"/>
<path d="M282.384 104.262C281.449 105.103 281.209 103.463 281.209 103.463C281.209 103.463 281.057 103.688 280.289 103.664C279.517 103.637 279.766 102.737 279.766 102.737C279.766 102.737 278.482 102.955 278.296 102.462C278.11 101.969 279.568 101.644 279.568 101.644C279.568 101.644 283.319 103.416 282.384 104.258V104.262Z" fill="#263238"/>
<path d="M283.269 107.244C282.923 106.984 282.307 107.221 281.896 107.767C281.485 108.314 281.43 108.97 281.779 109.23C282.128 109.49 282.745 109.257 283.156 108.71C283.567 108.163 283.614 107.5 283.269 107.244Z" fill="#FDAD6A"/>
<path d="M265.905 82.3159C265.905 82.3159 269.35 91.1863 269.54 91.9737C269.73 92.7649 269.315 99.6339 269.315 99.6339L267.445 99.9093C267.445 99.9093 266.604 93.1062 266.332 92.2529C266.061 91.3996 262.775 83.9915 262.775 83.9915L265.905 82.312V82.3159Z" fill="#FDAD6A"/>
<path d="M269.402 104.692C268.583 104.285 268.704 102.986 268.704 102.986L267.412 99.8324L269.289 99.4058C269.646 100.069 270.946 101.768 271.217 102.47C271.209 102.675 270.724 104.017 270.724 104.017C270.724 104.017 270.22 105.1 269.402 104.688V104.692Z" fill="#FDBBB5"/>
<path d="M269.031 103.319C269.031 103.319 269.989 102.244 269.95 101.849C269.907 101.453 269.438 101.767 269.438 101.767C269.438 101.767 269.935 101.391 269.803 101.158C269.644 100.879 269.151 101.209 269.151 101.209C269.151 101.209 269.543 100.883 269.415 100.685C269.279 100.48 268.697 100.813 268.697 100.813C268.697 100.813 268.93 100.53 268.763 100.445C268.593 100.359 267.344 101.042 267.123 101.488C266.898 101.934 267.898 103.458 268.112 103.804C268.364 104.207 268.81 104.378 269.042 104.351L269.008 103.346L269.035 103.315L269.031 103.319Z" fill="#FDAD6A"/>
<path opacity="0.2" d="M269.419 101.744L268.585 102.442C268.585 102.442 268.574 102.469 268.585 102.481C268.597 102.492 268.612 102.496 268.624 102.488L269.458 101.79C269.458 101.79 269.47 101.763 269.458 101.752C269.446 101.74 269.431 101.736 269.419 101.744Z" fill="black"/>
<path opacity="0.2" d="M269.09 101.193L268.233 101.802C268.233 101.802 268.217 101.829 268.229 101.841C268.237 101.857 268.252 101.856 268.268 101.849L269.125 101.24C269.125 101.24 269.14 101.213 269.129 101.201C269.121 101.189 269.102 101.182 269.09 101.193Z" fill="black"/>
<path opacity="0.2" d="M268.629 100.802L267.981 101.236C267.981 101.236 267.965 101.263 267.977 101.275C267.985 101.29 268.004 101.294 268.016 101.287L268.664 100.852C268.664 100.852 268.679 100.825 268.667 100.813C268.66 100.798 268.64 100.794 268.629 100.802Z" fill="black"/>
<path d="M286.667 127.437C286.636 127.487 286.508 128.119 286.489 128.356C286.47 128.592 286.989 130.249 287.191 130.082C287.393 129.919 287.412 129.83 287.35 129.453C287.288 129.077 287.191 128.74 287.327 128.798C287.459 128.856 287.963 129.865 287.94 130.198C287.916 130.532 287.854 131.129 288.106 131.207C288.362 131.284 288.444 131.016 288.444 131.016C288.444 131.016 288.556 131.311 288.711 131.144C288.866 130.978 289.375 129.985 289.351 129.597C289.328 129.209 288.308 127.669 288.157 127.297C288.11 127.184 287.614 119.21 287.614 119.21L285.477 119.582L286.663 127.437H286.667Z" fill="#FDAD6A"/>
<path opacity="0.2" d="M262.275 84.88L261.658 87.2072C261.658 87.2072 260.351 79.2172 261.301 81.3931C261.356 81.5172 262.275 84.88 262.275 84.88Z" fill="black"/>
<path d="M262.696 86.024L267.304 84.1119C267.304 84.1119 264.224 75.8737 262.328 76.4981C259.225 77.5221 262.692 86.024 262.692 86.024H262.696Z" fill="#0582CA"/>
<path d="M262.696 86.024L267.304 84.1119C267.304 84.1119 264.224 75.8737 262.328 76.4981C259.225 77.5221 262.692 86.024 262.692 86.024H262.696Z" fill="#F9CCC2"/>
</g>
<defs>
<clipPath id="clip0_372_5027">
<rect width="312" height="156.615" fill="white" transform="translate(0.5)"/>
</clipPath>
</defs>
</svg>
