<svg width="23" height="22" viewBox="0 0 23 22" fill="none" xmlns="http://www.w3.org/2000/svg">
<path d="M8.11344 8C8.34854 7.33167 8.81259 6.76811 9.42339 6.40913C10.0342 6.05016 10.7523 5.91894 11.4506 6.03871C12.1489 6.15849 12.7823 6.52152 13.2385 7.06353C13.6948 7.60553 13.9445 8.29152 13.9434 9C13.9434 11 10.9434 12 10.9434 12M11.0234 16H11.0334M21.0234 11C21.0234 16.5228 16.5463 21 11.0234 21C5.50059 21 1.02344 16.5228 1.02344 11C1.02344 5.47715 5.50059 1 11.0234 1C16.5463 1 21.0234 5.47715 21.0234 11Z" stroke="#858585" stroke-width="2" stroke-linecap="round" stroke-linejoin="round"/>
</svg>
