<svg width="44" height="45" viewBox="0 0 44 45" fill="none" xmlns="http://www.w3.org/2000/svg">
<rect x="0.5" y="1.22705" width="43" height="43" rx="21.5" fill="#F9FBFF"/>
<rect x="0.5" y="1.22705" width="43" height="43" rx="21.5" stroke="#E3ECFF"/>
<path d="M16.8483 29.6862C16.8484 29.6861 16.8485 29.6861 16.8486 29.686L16.8483 29.6862ZM26.767 29.9657C26.7669 29.9656 26.7669 29.9654 26.7669 29.9653L26.767 29.9657ZM27.1517 29.6862L27.1513 29.6859L27.1517 29.6862ZM22.5231 14.3155C22.3584 13.8087 21.6416 13.8087 21.4769 14.3155L19.6888 19.8188H13.9021C13.3693 19.8188 13.1478 20.5006 13.5789 20.8138L18.2603 24.2151L16.4722 29.7185C16.3075 30.2252 16.8875 30.6466 17.3185 30.3334L22 26.9321L26.6815 30.3334C27.1125 30.6466 27.6925 30.2252 27.5278 29.7185L25.7397 24.2151L30.4211 20.8138C30.8522 20.5006 30.6307 19.8188 30.0979 19.8188H24.3112L22.5231 14.3155ZM18.4073 24.3219C18.4071 24.3218 18.407 24.3217 18.4069 24.3216L18.4073 24.3219ZM25.5927 24.3219L25.5932 24.3215L25.5927 24.3219Z" stroke="#0582CA" stroke-width="0.8"/>
</svg>
