<svg width="44" height="45" viewBox="0 0 44 45" fill="none" xmlns="http://www.w3.org/2000/svg">
<rect x="0.5" y="1.22705" width="43" height="43" rx="21.5" fill="#F9FBFF"/>
<rect x="0.5" y="1.22705" width="43" height="43" rx="21.5" stroke="#E3ECFF"/>
<path d="M17.1389 23.1619V19.8598C17.1487 19.2107 17.2865 18.57 17.5444 17.9742C17.8022 17.3785 18.1751 16.8395 18.6417 16.3881C19.1082 15.9367 19.6592 15.5818 20.2632 15.3438C20.8671 15.1057 21.5121 14.9892 22.1611 15.0008C22.8102 14.9892 23.4552 15.1057 24.0591 15.3438C24.663 15.5818 25.214 15.9367 25.6806 16.3881C26.1471 16.8395 26.52 17.3785 26.7779 17.9742C27.0358 18.57 27.1736 19.2107 27.1834 19.8598V23.1619M24.6723 29.7536C25.3382 29.7536 25.977 29.489 26.4479 29.0181C26.9188 28.5472 27.1834 27.9085 27.1834 27.2425V24.4175M24.6723 29.7536C24.6723 30.1699 24.5069 30.569 24.2126 30.8634C23.9182 31.1577 23.519 31.3231 23.1028 31.3231H21.2195C20.8032 31.3231 20.404 31.1577 20.1097 30.8634C19.8154 30.569 19.65 30.1699 19.65 29.7536C19.65 29.3374 19.8154 28.9382 20.1097 28.6438C20.404 28.3495 20.8032 28.1842 21.2195 28.1842H23.1028C23.519 28.1842 23.9182 28.3495 24.2126 28.6438C24.5069 28.9382 24.6723 29.3374 24.6723 29.7536ZM15.2556 21.2786H16.5111C16.6776 21.2786 16.8373 21.3447 16.955 21.4625C17.0728 21.5802 17.1389 21.7399 17.1389 21.9064V25.673C17.1389 25.8395 17.0728 25.9992 16.955 26.117C16.8373 26.2347 16.6776 26.3008 16.5111 26.3008H15.2556C14.9226 26.3008 14.6032 26.1685 14.3677 25.9331C14.1323 25.6976 14 25.3783 14 25.0453V22.5341C14 22.2012 14.1323 21.8818 14.3677 21.6463C14.6032 21.4109 14.9226 21.2786 15.2556 21.2786ZM29.0667 26.3008H27.8111C27.6446 26.3008 27.485 26.2347 27.3672 26.117C27.2495 25.9992 27.1834 25.8395 27.1834 25.673V21.9064C27.1834 21.7399 27.2495 21.5802 27.3672 21.4625C27.485 21.3447 27.6446 21.2786 27.8111 21.2786H29.0667C29.3997 21.2786 29.7191 21.4109 29.9545 21.6463C30.19 21.8818 30.3223 22.2012 30.3223 22.5341V25.0453C30.3223 25.3783 30.19 25.6976 29.9545 25.9331C29.7191 26.1685 29.3997 26.3008 29.0667 26.3008Z" stroke="#0582CA" stroke-width="0.8" stroke-linecap="round" stroke-linejoin="round"/>
</svg>
