<svg width="44" height="45" viewBox="0 0 44 45" fill="none" xmlns="http://www.w3.org/2000/svg">
<rect x="0.5" y="1.22705" width="43" height="43" rx="21.5" fill="#F9FBFF"/>
<rect x="0.5" y="1.22705" width="43" height="43" rx="21.5" stroke="#E3ECFF"/>
<path d="M27.9308 16.0604H20.125C19.6277 16.0604 19.1508 16.2579 18.7992 16.6096C18.4475 16.9612 18.25 17.4381 18.25 17.9354V23.4537C18.25 23.951 18.4475 24.4279 18.7992 24.7795C19.1508 25.1312 19.6277 25.3287 20.125 25.3287H22.7446L26.725 27.1308V25.3291H27.9308C28.4281 25.3291 28.905 25.1316 29.2567 24.78C29.6083 24.4283 29.8058 23.9514 29.8058 23.4541V17.9354C29.8058 17.4381 29.6083 16.9612 29.2567 16.6096C28.905 16.2579 28.4281 16.0604 27.9308 16.0604Z" stroke="#0582CA" stroke-width="0.8" stroke-linecap="round" stroke-linejoin="round"/>
<path d="M22.0702 25.7129V26.502C22.0702 27.2354 21.4785 27.827 20.7493 27.827H19.0493L16.4035 29.0562V27.827H15.6118C14.8827 27.827 14.291 27.2354 14.291 26.502V22.8687C14.291 22.1395 14.8827 21.5479 15.6118 21.5479H18.0785" stroke="#0582CA" stroke-width="0.8" stroke-linecap="round" stroke-linejoin="round"/>
</svg>
