<svg width="44" height="45" viewBox="0 0 44 45" fill="none" xmlns="http://www.w3.org/2000/svg">
<rect x="0.5" y="1.22705" width="43.002" height="43" rx="21.5" fill="#F9FBFF"/>
<rect x="0.5" y="1.22705" width="43.002" height="43" rx="21.5" stroke="#E3ECFF"/>
<mask id="mask0_660_8759" style="mask-type:luminance" maskUnits="userSpaceOnUse" x="10" y="10" width="25" height="25">
<path fill-rule="evenodd" clip-rule="evenodd" d="M10 10.7271H34.002V34.727H10V10.7271Z" fill="white"/>
</mask>
<g mask="url(#mask0_660_8759)">
<path d="M22.5 30.4342C26.75 27.5624 31 24.3628 31 20.1128C31.0016 19.5542 30.8927 19.0008 30.6797 18.4845C30.4667 17.9681 30.1537 17.499 29.7588 17.104C29.3638 16.709 28.8946 16.396 28.3783 16.183C27.8619 15.97 27.3086 15.8612 26.75 15.8628C25.6571 15.8628 24.5764 16.2756 23.7446 17.1074L22.5 18.3521L21.2554 17.1074C20.8615 16.7113 20.3932 16.3969 19.8775 16.1824C19.3617 15.9679 18.8086 15.8574 18.25 15.8574C17.6914 15.8574 17.1383 15.9679 16.6225 16.1824C16.1068 16.3969 15.6385 16.7113 15.2446 17.1074C14.8495 17.5017 14.5361 17.9702 14.3225 18.4859C14.1089 19.0017 13.9993 19.5545 14 20.1128C14 24.3628 18.25 27.5624 22.5 30.4342Z" stroke="#0582CA" stroke-width="0.894737"/>
</g>
</svg>
