<svg width="44" height="45" viewBox="0 0 44 45" fill="none" xmlns="http://www.w3.org/2000/svg">
<rect x="0.5" y="1.22705" width="43" height="43" rx="21.5" fill="#F9FBFF"/>
<rect x="0.5" y="1.22705" width="43" height="43" rx="21.5" stroke="#E3ECFF"/>
<g clip-path="url(#clip0_1650_9632)">
<path d="M30.7467 21.4771C30.6362 21.4771 30.5303 21.4332 30.4521 21.355C30.374 21.2769 30.3301 21.1709 30.3301 21.0604C30.3301 18.6121 29.3767 16.3096 27.6451 14.5787C27.5692 14.5001 27.5272 14.3949 27.5281 14.2856C27.5291 14.1764 27.5729 14.0719 27.6502 13.9946C27.7274 13.9174 27.8319 13.8736 27.9412 13.8726C28.0504 13.8717 28.1557 13.9137 28.2342 13.9896C29.1659 14.9158 29.9046 16.0177 30.4074 17.2315C30.9102 18.4452 31.1671 19.7466 31.1634 21.0604C31.1634 21.1709 31.1195 21.2769 31.0414 21.355C30.9632 21.4332 30.8573 21.4771 30.7467 21.4771ZM13.2467 21.4771C13.1362 21.4771 13.0303 21.4332 12.9521 21.355C12.874 21.2769 12.8301 21.1709 12.8301 21.0604C12.8301 18.3887 13.8701 15.8779 15.7592 13.9896C15.8378 13.9137 15.9431 13.8717 16.0523 13.8726C16.1616 13.8736 16.2661 13.9174 16.3433 13.9946C16.4206 14.0719 16.4644 14.1764 16.4654 14.2856C16.4663 14.3949 16.4243 14.5001 16.3484 14.5787C15.4944 15.4278 14.8174 16.4379 14.3565 17.5505C13.8956 18.6631 13.66 19.8561 13.6634 21.0604C13.6634 21.1709 13.6195 21.2769 13.5414 21.355C13.4632 21.4332 13.3573 21.4771 13.2467 21.4771ZM23.2467 16.2104C23.1362 16.2104 23.0303 16.1665 22.9521 16.0883C22.874 16.0102 22.8301 15.9042 22.8301 15.7937V14.3937C22.8301 13.9346 22.4559 13.5604 21.9967 13.5604C21.5376 13.5604 21.1634 13.9346 21.1634 14.3937V15.7937C21.1634 15.9042 21.1195 16.0102 21.0414 16.0883C20.9632 16.1665 20.8573 16.2104 20.7467 16.2104C20.6362 16.2104 20.5303 16.1665 20.4521 16.0883C20.374 16.0102 20.3301 15.9042 20.3301 15.7937V14.3937C20.3301 13.4746 21.0776 12.7271 21.9967 12.7271C22.9159 12.7271 23.6634 13.4746 23.6634 14.3937V15.7937C23.6634 15.9042 23.6195 16.0102 23.5414 16.0883C23.4632 16.1665 23.3573 16.2104 23.2467 16.2104ZM21.9967 32.7271C20.3884 32.7271 19.0801 31.4187 19.0801 29.8104C19.0801 29.6999 19.124 29.5939 19.2021 29.5158C19.2803 29.4376 19.3862 29.3937 19.4967 29.3937C19.6073 29.3937 19.7132 29.4376 19.7914 29.5158C19.8695 29.5939 19.9134 29.6999 19.9134 29.8104C19.9134 30.9587 20.8484 31.8937 21.9967 31.8937C23.1451 31.8937 24.0801 30.9587 24.0801 29.8104C24.0801 29.6999 24.124 29.5939 24.2021 29.5158C24.2803 29.4376 24.3862 29.3937 24.4967 29.3937C24.6073 29.3937 24.7132 29.4376 24.7914 29.5158C24.8695 29.5939 24.9134 29.6999 24.9134 29.8104C24.9134 31.4187 23.6051 32.7271 21.9967 32.7271Z" fill="#0582CA"/>
<path d="M29.0819 30.2271H14.9152C14.6601 30.2262 14.4114 30.1473 14.2023 30.0011C13.9933 29.8549 13.8339 29.6483 13.7455 29.409C13.6571 29.1697 13.644 28.9091 13.7078 28.6621C13.7717 28.4151 13.9095 28.1935 14.1027 28.0271C14.7491 27.4829 15.2687 26.804 15.625 26.0379C15.9813 25.2718 16.1657 24.437 16.1652 23.5921V21.0604C16.1652 17.8437 18.7819 15.2271 21.9986 15.2271C25.2152 15.2271 27.8319 17.8437 27.8319 21.0604V23.5921C27.8319 25.3029 28.5811 26.9171 29.8877 28.0212C30.0833 28.1866 30.2233 28.408 30.289 28.6556C30.3546 28.9031 30.3427 29.1649 30.2548 29.4054C30.1669 29.646 30.0073 29.8538 29.7976 30.0007C29.5878 30.1476 29.338 30.2266 29.0819 30.2271ZM21.9986 16.0604C19.2411 16.0604 16.9986 18.3029 16.9986 21.0604V23.5921C16.9995 24.5567 16.7896 25.51 16.3835 26.385C15.9774 27.26 15.385 28.0358 14.6477 28.6579C14.5823 28.7128 14.5353 28.7866 14.5131 28.8691C14.491 28.9517 14.4948 29.0391 14.524 29.1194C14.5532 29.1997 14.6064 29.2691 14.6764 29.3182C14.7464 29.3673 14.8298 29.3936 14.9152 29.3937H29.0819C29.1671 29.3937 29.2502 29.3676 29.3201 29.3189C29.39 29.2702 29.4433 29.2013 29.4728 29.1214C29.5023 29.0415 29.5066 28.9545 29.4852 28.872C29.4637 28.7896 29.4175 28.7157 29.3527 28.6604C28.6148 28.0381 28.0217 27.2621 27.6151 26.3866C27.2085 25.5111 26.998 24.5574 26.9986 23.5921V21.0604C26.9986 18.3029 24.7561 16.0604 21.9986 16.0604Z" fill="#0582CA"/>
</g>
<defs>
<clipPath id="clip0_1650_9632">
<rect width="20" height="20" fill="white" transform="translate(12 12.7271)"/>
</clipPath>
</defs>
</svg>
