<svg width="44" height="44" viewBox="0 0 44 44" fill="none" xmlns="http://www.w3.org/2000/svg">
<rect x="0.5" y="0.5" width="43" height="43" rx="21.5" fill="#F9FBFF"/>
<rect x="0.5" y="0.5" width="43" height="43" rx="21.5" stroke="#E3ECFF"/>
<path d="M25.9083 18.1561C22.4596 18.1561 19.7598 16.8355 19.7598 15.1499C19.7598 13.4643 22.4613 12.144 25.9083 12.144C29.3553 12.144 32.0568 13.4643 32.0568 15.1499C32.0568 16.8355 29.3553 18.1561 25.9083 18.1561ZM25.9083 12.7188C22.8872 12.7188 20.3346 13.8322 20.3346 15.1499C20.3346 16.4676 22.8872 17.5813 25.9083 17.5813C28.9294 17.5813 31.482 16.4676 31.482 15.1499C31.482 13.8322 28.9297 12.7188 25.9083 12.7188Z" fill="#0582CA"/>
<path d="M25.9083 21.4108C22.4596 21.4108 19.7598 20.1106 19.7598 18.4506V15.1499H20.3346V18.4506C20.3346 19.7439 22.8872 20.836 25.9083 20.836C28.9294 20.836 31.482 19.7436 31.482 18.4506V15.1499H32.0568V18.4506C32.0568 20.1106 29.3553 21.4108 25.9083 21.4108Z" fill="#0582CA"/>
<path d="M19.7598 18.4492H20.3346V21.714H19.7598V18.4492ZM25.9097 24.7107C24.6042 24.7267 23.3061 24.5111 22.0759 24.0738H21.8419L21.8385 23.7818H22.1259L22.1293 23.4979H22.1834L22.2339 23.5174C23.412 23.9429 24.6573 24.152 25.9097 24.1348C28.9303 24.1359 31.482 23.0268 31.482 21.714V18.4492H32.0568V21.714C32.0568 23.3944 29.3553 24.7107 25.9097 24.7107ZM19.7598 21.714H20.3346V21.8589H19.7598V21.714Z" fill="#0582CA"/>
<path d="M25.9095 27.9756C24.5849 27.9931 23.2682 27.7691 22.024 27.3146L21.9199 27.2738L22.1162 26.7335L22.2274 26.7771C23.4068 27.2067 24.6545 27.4178 25.9095 27.3999C28.9301 27.4008 31.4818 26.2871 31.4818 24.9691V21.7141H32.0566V24.9691C32.0566 26.6559 29.3551 27.9756 25.9095 27.9756Z" fill="#0582CA"/>
<path d="M25.91 31.2576C24.4381 31.2878 22.9766 31.0037 21.6232 30.4242L21.8681 29.904C23.1449 30.4474 24.5227 30.7127 25.91 30.6822C28.9305 30.6828 31.4823 29.5692 31.4823 28.2509V24.9691H32.0571V28.2509C32.0571 29.937 29.3556 31.2576 25.91 31.2576ZM17.179 26.317C14.2409 26.317 11.9395 25.1818 11.9395 23.7324C11.9395 22.2831 14.2409 21.1482 17.179 21.1482C20.117 21.1482 22.4187 22.2834 22.4187 23.7324C22.4187 25.1815 20.1173 26.317 17.179 26.317ZM17.179 21.723C14.3886 21.723 12.5142 22.7619 12.5142 23.7324C12.5142 24.703 14.3886 25.7422 17.179 25.7422C19.9693 25.7422 21.8439 24.703 21.8439 23.7324C21.8439 22.7619 19.9693 21.723 17.179 21.723Z" fill="#0582CA"/>
<path d="M17.179 29.067C14.1921 29.067 11.9395 27.9726 11.9395 26.5213V23.7335H12.5142V26.5213C12.5142 27.5898 14.6505 28.4922 17.179 28.4922C19.7075 28.4922 21.8439 27.5898 21.8439 26.5213V23.7335H22.4187V26.5213C22.4187 27.9726 20.1661 29.067 17.179 29.067Z" fill="#0582CA"/>
<path d="M17.179 31.856C14.2409 31.856 11.9395 30.7239 11.9395 29.2789V26.5214H12.5142V29.2789C12.5142 30.246 14.3886 31.2812 17.179 31.2812C19.9693 31.2812 21.8439 30.2466 21.8439 29.2789V26.5214H22.4187V29.2789C22.4187 30.7239 20.1173 31.856 17.179 31.856Z" fill="#0582CA"/>
</svg>
