<svg width="44" height="45" viewBox="0 0 44 45" fill="none" xmlns="http://www.w3.org/2000/svg">
<rect x="0.5" y="1.22705" width="43" height="43" rx="21.5" fill="#F9FBFF"/>
<rect x="0.5" y="1.22705" width="43" height="43" rx="21.5" stroke="#E3ECFF"/>
<g clip-path="url(#clip0_494_24363)">
<path d="M21.6609 31.581H16.4444C15.0267 31.581 13.8765 30.4265 13.8765 29.0131V16.4409C13.8765 15.0233 15.031 13.873 16.4444 13.873H21.7457C22.0641 13.873 22.3188 13.6183 22.3188 13.3C22.3188 12.9817 22.0641 12.727 21.7457 12.727H16.4444C14.3943 12.727 12.7305 14.3951 12.7305 16.4409V29.0131C12.7305 31.0632 14.3986 32.727 16.4444 32.727H21.6609C21.9792 32.727 22.2339 32.4723 22.2339 32.154C22.2339 31.8356 21.975 31.581 21.6609 31.581Z" fill="#0582CA"/>
<path d="M31.1008 22.3237L27.459 18.682C27.2341 18.457 26.8733 18.457 26.6483 18.682C26.4234 18.9069 26.4234 19.2677 26.6483 19.4927L29.3139 22.1582H17.6882C17.3699 22.1582 17.1152 22.4129 17.1152 22.7312C17.1152 23.0495 17.3699 23.3042 17.6882 23.3042H29.3139L26.6483 25.9697C26.4234 26.1947 26.4234 26.5555 26.6483 26.7804C26.7587 26.8908 26.9073 26.9502 27.0516 26.9502C27.1959 26.9502 27.3444 26.895 27.4548 26.7804L31.0966 23.1387C31.3258 22.9095 31.3258 22.5444 31.1008 22.3237Z" fill="#0582CA"/>
</g>
<defs>
<clipPath id="clip0_494_24363">
<rect width="20" height="20" fill="white" transform="translate(12 12.7271)"/>
</clipPath>
</defs>
</svg>
