<svg width="44" height="45" viewBox="0 0 44 45" fill="none" xmlns="http://www.w3.org/2000/svg">
<rect x="0.5" y="1.22705" width="43" height="43" rx="21.5" fill="#F9FBFF"/>
<rect x="0.5" y="1.22705" width="43" height="43" rx="21.5" stroke="#E3ECFF"/>
<path d="M20.325 15.317C20.751 13.561 23.249 13.561 23.675 15.317C23.7389 15.5808 23.8642 15.8258 24.0407 16.032C24.2172 16.2382 24.4399 16.3999 24.6907 16.5037C24.9414 16.6076 25.2132 16.6509 25.4838 16.6299C25.7544 16.6089 26.0162 16.5243 26.248 16.383C27.791 15.443 29.558 17.209 28.618 18.753C28.4769 18.9847 28.3924 19.2463 28.3715 19.5168C28.3506 19.7872 28.3938 20.0588 28.4975 20.3094C28.6013 20.56 28.7627 20.7826 28.9687 20.9591C29.1747 21.1355 29.4194 21.2609 29.683 21.325C31.439 21.751 31.439 24.249 29.683 24.675C29.4192 24.7389 29.1742 24.8642 28.968 25.0407C28.7618 25.2172 28.6001 25.4399 28.4963 25.6907C28.3924 25.9414 28.3491 26.2132 28.3701 26.4838C28.3911 26.7544 28.4757 27.0162 28.617 27.248C29.557 28.791 27.791 30.558 26.247 29.618C26.0153 29.4769 25.7537 29.3924 25.4832 29.3715C25.2128 29.3506 24.9412 29.3938 24.6906 29.4975C24.44 29.6013 24.2174 29.7627 24.0409 29.9687C23.8645 30.1747 23.7391 30.4194 23.675 30.683C23.249 32.439 20.751 32.439 20.325 30.683C20.2611 30.4192 20.1358 30.1742 19.9593 29.968C19.7828 29.7618 19.5601 29.6001 19.3093 29.4963C19.0586 29.3924 18.7868 29.3491 18.5162 29.3701C18.2456 29.3911 17.9838 29.4757 17.752 29.617C16.209 30.557 14.442 28.791 15.382 27.247C15.5231 27.0153 15.6076 26.7537 15.6285 26.4832C15.6494 26.2128 15.6062 25.9412 15.5025 25.6906C15.3987 25.44 15.2373 25.2174 15.0313 25.0409C14.8253 24.8645 14.5806 24.7391 14.317 24.675C12.561 24.249 12.561 21.751 14.317 21.325C14.5808 21.2611 14.8258 21.1358 15.032 20.9593C15.2382 20.7828 15.3999 20.5601 15.5037 20.3093C15.6076 20.0586 15.6509 19.7868 15.6299 19.5162C15.6089 19.2456 15.5243 18.9838 15.383 18.752C14.443 17.209 16.209 15.442 17.753 16.382C18.753 16.99 20.049 16.452 20.325 15.317Z" stroke="#0582CA" stroke-width="0.8" stroke-linecap="round" stroke-linejoin="round"/>
<path d="M19 23C19 23.7956 19.3161 24.5587 19.8787 25.1213C20.4413 25.6839 21.2044 26 22 26C22.7956 26 23.5587 25.6839 24.1213 25.1213C24.6839 24.5587 25 23.7956 25 23C25 22.2044 24.6839 21.4413 24.1213 20.8787C23.5587 20.3161 22.7956 20 22 20C21.2044 20 20.4413 20.3161 19.8787 20.8787C19.3161 21.4413 19 22.2044 19 23Z" stroke="#0582CA" stroke-width="0.8" stroke-linecap="round" stroke-linejoin="round"/>
</svg>
