<svg width="48" height="48" viewBox="0 0 48 48" fill="none" xmlns="http://www.w3.org/2000/svg">
<g clip-path="url(#clip0_2395_3122)">
<path d="M0.247656 23.9997C0.247656 10.9013 10.9027 0.246191 24.0012 0.246191C37.0996 0.246191 47.7547 10.9031 47.7547 23.9997C47.7547 37.0963 37.0996 47.7532 24.0012 47.7532C10.9027 47.7532 0.247656 37.0982 0.247656 23.9997ZM3.84174 23.9997C3.84174 35.1161 12.8867 44.1591 24.0012 44.1591C35.1176 44.1591 44.1606 35.1161 44.1606 23.9997C44.1606 12.8833 35.1157 3.84027 24.0012 3.84027C12.8867 3.84027 3.84174 12.8833 3.84174 23.9997Z" fill="white" stroke="white" stroke-width="0.0929688"/>
<path d="M33.2164 21.9882H25.8423V14.6141C25.8423 13.5964 25.0182 12.7705 23.9987 12.7705C22.9792 12.7705 22.1552 13.5964 22.1552 14.6141V21.9882H14.7811C13.7616 21.9882 12.9375 22.8141 12.9375 23.8317C12.9375 24.8494 13.7616 25.6753 14.7811 25.6753H22.1552V33.0494C22.1552 34.067 22.9792 34.893 23.9987 34.893C25.0182 34.893 25.8423 34.067 25.8423 33.0494V25.6753H33.2164C34.2359 25.6753 35.06 24.8494 35.06 23.8317C35.06 22.8141 34.2359 21.9882 33.2164 21.9882Z" fill="white"/>
</g>
<defs>
<clipPath id="clip0_2395_3122">
<rect width="47.6" height="47.6" fill="white" transform="translate(0.199219 0.200195)"/>
</clipPath>
</defs>
</svg>
