<svg width="20" height="20" viewBox="0 0 19 18" fill="none" xmlns="http://www.w3.org/2000/svg">
    <path
        d="M12.1123 11.8125L17.1748 16.875M7.6123 13.5C8.42486 13.5 9.22946 13.34 9.98016 13.029C10.7309 12.7181 11.413 12.2623 11.9875 11.6877C12.5621 11.1132 13.0179 10.4311 13.3288 9.68035C13.6398 8.92965 13.7998 8.12505 13.7998 7.3125C13.7998 6.49995 13.6398 5.69535 13.3288 4.94465C13.0179 4.19394 12.5621 3.51184 11.9875 2.93728C11.413 2.36271 10.7309 1.90695 9.98016 1.596C9.22946 1.28504 8.42486 1.125 7.6123 1.125C5.97128 1.125 4.39746 1.7769 3.23708 2.93728C2.0767 4.09766 1.4248 5.67147 1.4248 7.3125C1.4248 8.95353 2.0767 10.5273 3.23708 11.6877C4.39746 12.8481 5.97128 13.5 7.6123 13.5Z"
        stroke="currentColor" stroke-width="1.5" />
</svg>