<svg width="37" height="36" viewBox="0 0 37 36" fill="none" xmlns="http://www.w3.org/2000/svg">
    <rect x="1" y="0.5" width="35" height="35" rx="17.5" stroke="#DDDDDD" />
    <g clip-path="url(#clip0_658_7378)">
        <path
            d="M15.5 18C16.1207 17.9997 16.7261 18.1919 17.233 18.5501C17.7398 18.9083 18.1231 19.4148 18.33 20H24.5V22H18.33C18.1467 22.5185 17.8244 22.9766 17.3983 23.3243C16.9723 23.672 16.4588 23.8959 15.9141 23.9715C15.3694 24.0471 14.8144 23.9716 14.3097 23.7531C13.8051 23.5346 13.3702 23.1816 13.0525 22.7327C12.7349 22.2838 12.5468 21.7562 12.5088 21.2075C12.4707 20.6589 12.5842 20.1104 12.8368 19.6219C13.0894 19.1335 13.4714 18.7238 13.9411 18.4378C14.4108 18.1517 14.9501 18.0003 15.5 18ZM15.5 20C15.2348 20 14.9804 20.1054 14.7929 20.2929C14.6054 20.4804 14.5 20.7348 14.5 21C14.5 21.2652 14.6054 21.5196 14.7929 21.7071C14.9804 21.8946 15.2348 22 15.5 22C15.7652 22 16.0196 21.8946 16.2071 21.7071C16.3946 21.5196 16.5 21.2652 16.5 21C16.5 20.7348 16.3946 20.4804 16.2071 20.2929C16.0196 20.1054 15.7652 20 15.5 20ZM21.5 12C22.0499 12.0003 22.5892 12.1517 23.0589 12.4378C23.5286 12.7238 23.9106 13.1335 24.1632 13.6219C24.4158 14.1104 24.5293 14.6589 24.4912 15.2075C24.4532 15.7562 24.2651 16.2838 23.9475 16.7327C23.6298 17.1816 23.1949 17.5346 22.6903 17.7531C22.1856 17.9716 21.6306 18.0471 21.0859 17.9715C20.5412 17.8959 20.0277 17.672 19.6017 17.3243C19.1756 16.9766 18.8533 16.5185 18.67 16H12.5V14H18.67C18.8769 13.4148 19.2602 12.9083 19.767 12.5501C20.2739 12.1919 20.8793 11.9997 21.5 12ZM21.5 14C21.2348 14 20.9804 14.1054 20.7929 14.2929C20.6054 14.4804 20.5 14.7348 20.5 15C20.5 15.2652 20.6054 15.5196 20.7929 15.7071C20.9804 15.8946 21.2348 16 21.5 16C21.7652 16 22.0196 15.8946 22.2071 15.7071C22.3946 15.5196 22.5 15.2652 22.5 15C22.5 14.7348 22.3946 14.4804 22.2071 14.2929C22.0196 14.1054 21.7652 14 21.5 14Z"
            fill="#222222" />
    </g>
    <defs>
        <clipPath id="clip0_658_7378">
            <rect width="16" height="16" fill="white" transform="translate(10.5 10)" />
        </clipPath>
    </defs>
</svg>