<svg width="30" height="31" viewBox="0 0 30 31" fill="none" xmlns="http://www.w3.org/2000/svg">
<g clip-path="url(#clip0_335_8186)">
<g filter="url(#filter0_d_335_8186)">
<path fill-rule="evenodd" clip-rule="evenodd" d="M27.75 15.1621C27.75 22.273 21.9859 28.0371 14.875 28.0371C12.6148 28.0405 10.3939 27.4462 8.4375 26.3144L2.64375 27.3934L3.72268 21.5996C2.62701 19.707 2 17.5066 2 15.1621C2 8.05125 7.76414 2.28711 14.875 2.28711C21.9859 2.28711 27.75 8.05125 27.75 15.1621ZM9.725 11.9004C9.34576 11.9004 9.03833 12.2079 9.03833 12.5871C9.03833 12.9663 9.34576 13.2738 9.725 13.2738H20.025C20.4042 13.2738 20.7117 12.9663 20.7117 12.5871C20.7117 12.2079 20.4042 11.9004 20.025 11.9004H9.725ZM9.725 17.0504C9.34576 17.0504 9.03833 17.3579 9.03833 17.7371C9.03833 18.1163 9.34576 18.4238 9.725 18.4238H14.875C15.2542 18.4238 15.5617 18.1163 15.5617 17.7371C15.5617 17.3579 15.2542 17.0504 14.875 17.0504H9.725Z" fill="white"/>
</g>
</g>
<defs>
<filter id="filter0_d_335_8186" x="2" y="2.28711" width="27.75" height="27.75" filterUnits="userSpaceOnUse" color-interpolation-filters="sRGB">
<feFlood flood-opacity="0" result="BackgroundImageFix"/>
<feColorMatrix in="SourceAlpha" type="matrix" values="0 0 0 0 0 0 0 0 0 0 0 0 0 0 0 0 0 0 127 0" result="hardAlpha"/>
<feOffset dx="1" dy="1"/>
<feGaussianBlur stdDeviation="0.5"/>
<feComposite in2="hardAlpha" operator="out"/>
<feColorMatrix type="matrix" values="0 0 0 0 0 0 0 0 0 0 0 0 0 0 0 0 0 0 0.25 0"/>
<feBlend mode="normal" in2="BackgroundImageFix" result="effect1_dropShadow_335_8186"/>
<feBlend mode="normal" in="SourceGraphic" in2="effect1_dropShadow_335_8186" result="shape"/>
</filter>
<clipPath id="clip0_335_8186">
<rect width="30" height="30" fill="white" transform="translate(0 0.287109)"/>
</clipPath>
</defs>
</svg>
