<svg width="30" height="31" viewBox="0 0 30 31" fill="none" xmlns="http://www.w3.org/2000/svg">
<g clip-path="url(#clip0_335_8174)">
<g filter="url(#filter0_d_335_8174)">
<g filter="url(#filter1_d_335_8174)">
<path d="M24.8902 4.39995H23.2949V3.08314C23.2949 2.48589 22.809 2 22.2118 2H21.4071C20.8098 2 20.3239 2.48589 20.3239 3.08314V4.39995H9.25445V3.08314C9.25445 2.48589 8.76856 2 8.1713 2H7.36659C6.76933 2 6.28344 2.48589 6.28344 3.08314V4.39995H4.6893C3.20653 4.39995 2 5.60648 2 7.08925V24.3682C2 25.2265 2.404 25.993 3.03292 26.4854C3.41835 26.8632 3.94573 27.0969 4.52879 27.0969H21.9148C21.6691 26.8588 21.4529 26.5848 21.2717 26.2823L19.2386 22.8909C19.0683 22.607 19.0191 22.2751 19.0988 21.9552C19.1796 21.6353 19.3794 21.3656 19.6633 21.1952C19.8752 21.0675 20.1176 21.0085 20.361 21.0195C20.2388 20.5085 20.4528 19.9549 20.9277 19.6699C21.1396 19.5432 21.3776 19.4865 21.6222 19.4952C21.5119 18.9918 21.727 18.4503 22.1943 18.1718C22.3843 18.0572 22.5961 17.9982 22.8134 17.9949L21.6626 16.0765C21.4933 15.7937 21.4442 15.4618 21.5239 15.1419C21.6047 14.8209 21.8045 14.5512 22.0873 14.3819C22.6704 14.0314 23.4314 14.2214 23.7819 14.8056L26.9757 20.135L27.1591 19.0082C27.2082 18.7167 27.3556 18.4579 27.5795 18.269V7.08925C27.5795 5.60648 26.3729 4.39995 24.8902 4.39995ZM20.9376 3.08314C20.9376 2.82437 21.1483 2.61364 21.4071 2.61364H22.2118C22.4717 2.61364 22.6813 2.82437 22.6813 3.08314V6.33039C22.6813 6.58917 22.4706 6.7999 22.2118 6.7999H21.4071C21.1483 6.7999 20.9376 6.58917 20.9376 6.33039V3.08314ZM6.89708 3.08314C6.89708 2.82437 7.10781 2.61364 7.36659 2.61364H8.1724C8.43117 2.61364 8.64081 2.82437 8.64081 3.08314V6.33039C8.64081 6.58917 8.43117 6.7999 8.1724 6.7999H7.36659C7.10781 6.7999 6.89708 6.58917 6.89708 6.33039V3.08314ZM7.83391 23.7066C7.83391 23.8431 7.74329 23.9632 7.61117 24.0014C7.58387 24.009 7.55548 24.0134 7.52709 24.0134C7.42337 24.0134 7.32401 23.9599 7.26723 23.8682L5.33023 20.7487V23.7066C5.33023 23.8758 5.19266 24.0134 5.02341 24.0134C4.85417 24.0134 4.7166 23.8758 4.7166 23.7066V19.6721C4.7166 19.5356 4.80722 19.4144 4.93934 19.3773C5.07146 19.3401 5.21231 19.3936 5.28437 19.5105L7.22028 22.63V19.6721C7.22028 19.5028 7.35785 19.3653 7.52709 19.3653C7.69634 19.3653 7.83391 19.5028 7.83391 19.6721V23.7066ZM7.4856 15.5426V16.0165C7.4856 16.6104 7.00299 17.0931 6.40901 17.0931H5.02341C4.85417 17.0931 4.7166 16.9555 4.7166 16.7862V12.7594C4.7166 12.5901 4.85417 12.4526 5.02341 12.4526H6.40901C7.00299 12.4526 7.4856 12.9363 7.4856 13.5292V14.003C7.4856 14.3044 7.36113 14.5774 7.15913 14.7728C7.36004 14.9683 7.4856 15.2412 7.4856 15.5426ZM8.61351 15.9182V13.6274C8.61351 12.9799 9.14089 12.4526 9.78838 12.4526H10.5516C11.1991 12.4526 11.7265 12.9799 11.7265 13.6274V15.9182C11.7265 16.5657 11.1991 17.0931 10.5516 17.0931H9.78838C9.14089 17.0931 8.61351 16.5657 8.61351 15.9182ZM12.2113 22.8342C12.2113 23.4827 11.6839 24.009 11.0364 24.009H10.2732C9.62459 24.009 9.09831 23.4827 9.09831 22.8342V20.5445C9.09831 19.8959 9.62459 19.3696 10.2732 19.3696H11.0364C11.6839 19.3696 12.2113 19.8959 12.2113 20.5445V22.8342ZM12.6819 15.9182V13.6274C12.6819 12.9799 13.2092 12.4526 13.8567 12.4526H14.6199C15.2685 12.4526 15.7948 12.9799 15.7948 13.6274V15.9182C15.7948 16.5657 15.2685 17.0931 14.6199 17.0931H13.8567C13.2092 17.0931 12.6819 16.5657 12.6819 15.9182ZM17.5189 19.5935L16.5962 23.628C16.5657 23.7601 16.451 23.8572 16.3156 23.8649C16.3091 23.866 16.3025 23.866 16.2971 23.866C16.1682 23.866 16.0514 23.7852 16.0077 23.6629L15.286 21.6538L14.5632 23.6629C14.5173 23.7906 14.3885 23.8703 14.2563 23.8649C14.1199 23.8572 14.0063 23.7601 13.9757 23.628L13.0531 19.5935C13.0149 19.4286 13.1186 19.2637 13.2835 19.2266C13.4494 19.1884 13.6132 19.291 13.6514 19.457L14.3404 22.4695L14.9977 20.6428C15.0414 20.5205 15.1561 20.4397 15.286 20.4397C15.4159 20.4397 15.5306 20.5205 15.5742 20.6428L16.2316 22.4695L16.9205 19.457C16.9587 19.291 17.1258 19.1873 17.2885 19.2266C17.4534 19.2637 17.5571 19.4286 17.5189 19.5935ZM19.6022 16.5613C19.7267 16.676 19.7343 16.8703 19.6197 16.9948C19.5585 17.0603 19.4766 17.0931 19.3936 17.0931C19.3194 17.0931 19.2441 17.0668 19.1862 17.0123L17.5233 15.4749V16.7906C17.5233 16.9598 17.3868 17.0974 17.2164 17.0974C17.0461 17.0974 16.9096 16.9598 16.9096 16.7906V12.7561C16.9096 12.5869 17.0472 12.4493 17.2164 12.4493C17.3857 12.4493 17.5233 12.5869 17.5233 12.7561V14.0707L19.1895 12.5301C19.3139 12.4154 19.5083 12.422 19.6229 12.5476C19.7387 12.672 19.731 12.8664 19.6055 12.981L17.6685 14.7728L19.6022 16.5613ZM26.9658 9.41823H2.61364V7.08925C2.61364 5.94496 3.54501 5.01359 4.6893 5.01359H6.28344V6.3293C6.28344 6.92656 6.76933 7.41245 7.36659 7.41245H8.1724C8.76856 7.41245 9.25445 6.92656 9.25445 6.3293V5.01359H20.325V6.3293C20.325 6.92656 20.8109 7.41245 21.4071 7.41245H22.2129C22.8101 7.41245 23.296 6.92656 23.296 6.3293V5.01359H24.8902C26.0345 5.01359 26.9658 5.94387 26.9658 7.08925V9.41823Z" fill="white"/>
</g>
<path d="M8.64022 3.08303V6.33028C8.64022 6.58906 8.43058 6.79979 8.1718 6.79979H7.36599C7.10722 6.79979 6.89648 6.58906 6.89648 6.33028V3.08303C6.89648 2.82426 7.10722 2.61353 7.36599 2.61353H8.1718C8.43058 2.61353 8.64022 2.82426 8.64022 3.08303Z" fill="white"/>
<path d="M22.6812 3.08303V6.33028C22.6812 6.58906 22.4705 6.79979 22.2117 6.79979H21.407C21.1482 6.79979 20.9375 6.58906 20.9375 6.33028V3.08303C20.9375 2.82426 21.1482 2.61353 21.407 2.61353H22.2117C22.4716 2.61353 22.6812 2.82426 22.6812 3.08303Z" fill="white"/>
<path d="M6.87181 13.5291V14.003C6.87181 14.2585 6.66436 14.466 6.40886 14.466H5.33008V13.0662H6.40886C6.66436 13.0662 6.87181 13.2736 6.87181 13.5291Z" fill="white"/>
<path d="M6.87181 15.5425V16.0164C6.87181 16.2719 6.66436 16.4794 6.40886 16.4794H5.33008V15.0796H6.40886C6.66436 15.0796 6.87181 15.287 6.87181 15.5425Z" fill="white"/>
<path d="M10.551 13.0662H9.78779C9.47783 13.0662 9.22656 13.3174 9.22656 13.6274V15.9182C9.22656 16.2281 9.47783 16.4794 9.78779 16.4794H10.551C10.861 16.4794 11.1122 16.2281 11.1122 15.9182V13.6274C11.1122 13.3174 10.861 13.0662 10.551 13.0662Z" fill="white"/>
<path d="M11.5986 20.5444V22.8341C11.5986 23.1441 11.3463 23.3953 11.0373 23.3953H10.2741C9.96511 23.3953 9.71289 23.1441 9.71289 22.8341V20.5444C9.71289 20.2343 9.96511 19.9832 10.2741 19.9832H11.0373C11.3463 19.9832 11.5986 20.2343 11.5986 20.5444Z" fill="white"/>
<path d="M15.1817 13.6274V15.9182C15.1817 16.2282 14.9295 16.4794 14.6205 16.4794H13.8572C13.5471 16.4794 13.2949 16.2272 13.2949 15.9182V13.6274C13.2949 13.3184 13.5471 13.0662 13.8572 13.0662H14.6205C14.9295 13.0662 15.1817 13.3184 15.1817 13.6274Z" fill="white"/>
<g filter="url(#filter2_d_335_8174)">
<path d="M28.9911 19.3128L28.1078 24.6597C28.099 24.7274 28.0881 24.7951 28.0718 24.8824C28.0707 24.889 28.0685 24.8955 28.0674 24.9021C27.8752 25.8346 27.2965 26.6502 26.4798 27.1394C25.698 27.6078 24.7786 27.7454 23.8964 27.5226C23.5383 27.4331 23.2031 27.2889 22.9006 27.0968C22.454 26.8173 22.0773 26.4329 21.7978 25.9667L19.7942 22.6255L19.7647 22.5753C19.6785 22.4323 19.6545 22.2652 19.6949 22.1047C19.7353 21.9431 19.8357 21.8077 19.9776 21.7225C20.077 21.6636 20.1884 21.6319 20.303 21.6319C20.3533 21.6319 20.4057 21.6385 20.457 21.6516C20.6208 21.6909 20.7573 21.7902 20.8424 21.9322L20.8708 21.9802H20.8719L21.2399 22.5939C21.2966 22.69 21.3982 22.7424 21.503 22.7424C21.5565 22.7424 21.6111 22.7282 21.6602 22.6987C21.8055 22.6124 21.8524 22.4235 21.7661 22.2783L21.3982 21.6647L21.0291 21.0499C20.8533 20.7551 20.9494 20.373 21.2431 20.1972C21.5369 20.0203 21.919 20.1164 22.0959 20.4101L22.8329 21.6385C22.8897 21.7346 22.9912 21.7881 23.0961 21.7881C23.1496 21.7881 23.2042 21.7739 23.2533 21.7433C23.3985 21.657 23.4455 21.4681 23.3592 21.3229L22.6222 20.0946L22.2968 19.5508C22.1199 19.256 22.216 18.8738 22.5097 18.6969C22.6528 18.6118 22.8198 18.5878 22.9803 18.6271C23.1408 18.6675 23.2762 18.7679 23.3614 18.9099H23.3625L24.426 20.6842C24.4827 20.7803 24.5843 20.8327 24.6891 20.8327C24.7426 20.8327 24.7972 20.8185 24.8463 20.789C24.9916 20.7016 25.0385 20.5127 24.9512 20.3675L23.8888 18.5954C23.8888 18.5954 23.8888 18.5943 23.8877 18.5932L22.1898 15.7598C22.1046 15.6178 22.0795 15.4508 22.1199 15.2903C22.1603 15.1287 22.2608 14.9933 22.4038 14.907C22.6975 14.7312 23.0797 14.8273 23.2566 15.121L26.8816 21.1701C26.9471 21.2803 27.076 21.3371 27.2026 21.3131C27.3282 21.2891 27.4264 21.1886 27.4472 21.062L27.5793 20.2496L27.7649 19.1075C27.7922 18.9437 27.8818 18.8007 28.0172 18.7046C28.1515 18.6085 28.3163 18.5703 28.4801 18.5965C28.8175 18.6544 29.0468 18.9743 28.9911 19.3128Z" fill="white"/>
</g>
</g>
</g>
<defs>
<filter id="filter0_d_335_8174" x="2" y="2" width="29" height="27.6267" filterUnits="userSpaceOnUse" color-interpolation-filters="sRGB">
<feFlood flood-opacity="0" result="BackgroundImageFix"/>
<feColorMatrix in="SourceAlpha" type="matrix" values="0 0 0 0 0 0 0 0 0 0 0 0 0 0 0 0 0 0 127 0" result="hardAlpha"/>
<feOffset dx="1" dy="1"/>
<feGaussianBlur stdDeviation="0.5"/>
<feComposite in2="hardAlpha" operator="out"/>
<feColorMatrix type="matrix" values="0 0 0 0 0 0 0 0 0 0 0 0 0 0 0 0 0 0 0.25 0"/>
<feBlend mode="normal" in2="BackgroundImageFix" result="effect1_dropShadow_335_8174"/>
<feBlend mode="normal" in="SourceGraphic" in2="effect1_dropShadow_335_8174" result="shape"/>
</filter>
<filter id="filter1_d_335_8174" x="2" y="2" width="25.7985" height="25.3152" filterUnits="userSpaceOnUse" color-interpolation-filters="sRGB">
<feFlood flood-opacity="0" result="BackgroundImageFix"/>
<feColorMatrix in="SourceAlpha" type="matrix" values="0 0 0 0 0 0 0 0 0 0 0 0 0 0 0 0 0 0 127 0" result="hardAlpha"/>
<feOffset dx="0.109188" dy="0.109188"/>
<feGaussianBlur stdDeviation="0.054594"/>
<feComposite in2="hardAlpha" operator="out"/>
<feColorMatrix type="matrix" values="0 0 0 0 0 0 0 0 0 0 0 0 0 0 0 0 0 0 0.25 0"/>
<feBlend mode="normal" in2="BackgroundImageFix" result="effect1_dropShadow_335_8174"/>
<feBlend mode="normal" in="SourceGraphic" in2="effect1_dropShadow_335_8174" result="shape"/>
</filter>
<filter id="filter2_d_335_8174" x="19.6758" y="14.8191" width="9.54259" height="13.026" filterUnits="userSpaceOnUse" color-interpolation-filters="sRGB">
<feFlood flood-opacity="0" result="BackgroundImageFix"/>
<feColorMatrix in="SourceAlpha" type="matrix" values="0 0 0 0 0 0 0 0 0 0 0 0 0 0 0 0 0 0 127 0" result="hardAlpha"/>
<feOffset dx="0.109188" dy="0.109188"/>
<feGaussianBlur stdDeviation="0.054594"/>
<feComposite in2="hardAlpha" operator="out"/>
<feColorMatrix type="matrix" values="0 0 0 0 0 0 0 0 0 0 0 0 0 0 0 0 0 0 0.25 0"/>
<feBlend mode="normal" in2="BackgroundImageFix" result="effect1_dropShadow_335_8174"/>
<feBlend mode="normal" in="SourceGraphic" in2="effect1_dropShadow_335_8174" result="shape"/>
</filter>
<clipPath id="clip0_335_8174">
<rect width="30" height="30.2871" fill="white"/>
</clipPath>
</defs>
</svg>
