<svg width="31" height="30" fill="none" xmlns="http://www.w3.org/2000/svg">
    <g filter="url(#prefix__filter0_d_335_8172)">
        <path
            d="M29 9.992c0 8.453-8.45 14.977-12.22 17.468a3.195 3.195 0 01-3.559-.002C9.452 24.963 1 18.428 1 9.992c0-1.678.514-3.312 1.468-4.673a7.796 7.796 0 013.85-2.909 7.58 7.58 0 014.779-.046A7.785 7.785 0 0115 5.197a7.785 7.785 0 013.903-2.833 7.58 7.58 0 014.779.046 7.796 7.796 0 013.85 2.909A8.142 8.142 0 0129 9.992z"
            fill="currentColor" />
    </g>
    <defs>
        <filter id="prefix__filter0_d_335_8172" x="0" y="0" width="32" height="32" filterUnits="userSpaceOnUse"
            color-interpolation-filters="sRGB">
            <feFlood flood-opacity="0" result="BackgroundImageFix" />
            <feColorMatrix in="SourceAlpha" values="0 0 0 0 0 0 0 0 0 0 0 0 0 0 0 0 0 0 127 0" result="hardAlpha" />
            <feOffset dx="1" dy="1" />
            <feGaussianBlur stdDeviation=".5" />
            <feComposite in2="hardAlpha" operator="out" />
            <feColorMatrix values="0 0 0 0 0 0 0 0 0 0 0 0 0 0 0 0 0 0 0.25 0" />
            <feBlend in2="BackgroundImageFix" result="effect1_dropShadow_335_8172" />
            <feBlend in="SourceGraphic" in2="effect1_dropShadow_335_8172" result="shape" />
        </filter>
    </defs>
</svg>