<svg width="11" height="9" viewBox="0 0 11 9" fill="none" xmlns="http://www.w3.org/2000/svg">
<path d="M9.83834 1.89583C9.53562 1.89583 9.29344 1.81106 9.08759 1.64154C8.97862 1.55678 8.88175 1.45991 8.78488 1.36304C8.72433 1.3025 8.65168 1.24195 8.57903 1.19352C8.44583 1.09665 8.30053 1.08454 8.15522 1.18141C8.05835 1.24195 7.97359 1.31461 7.90094 1.38726C7.81618 1.47202 7.71931 1.55678 7.62244 1.62943C7.17442 1.98059 6.61742 1.98059 6.16939 1.62943C6.07252 1.54467 5.97565 1.45991 5.89089 1.37515C5.81824 1.3025 5.74559 1.22985 5.64872 1.18141C5.52763 1.10876 5.40654 1.09665 5.28546 1.1693C5.17648 1.22985 5.07961 1.31461 4.99485 1.39937C4.89798 1.48413 4.81322 1.56889 4.71635 1.64154C4.26832 1.98059 3.71132 1.98059 3.27541 1.61733C3.17854 1.53256 3.08167 1.4478 2.99691 1.36304C2.93636 1.3025 2.86371 1.24195 2.79106 1.18141C2.64576 1.08454 2.51256 1.08454 2.37936 1.1693C2.25828 1.24195 2.16141 1.33882 2.05243 1.43569C1.91923 1.55678 1.78604 1.67787 1.62862 1.76263C1.20482 1.96848 0.793121 1.93215 0.417751 1.65365C0.296664 1.56889 0.199794 1.47202 0.102924 1.37515C-0.0181631 1.25406 -0.0302718 1.06032 0.0908154 0.939237C0.211903 0.81815 0.393533 0.81815 0.526729 0.939237C0.599382 1.01189 0.672034 1.07243 0.744686 1.14508C0.938426 1.32672 1.22904 1.33882 1.44699 1.15719C1.56808 1.06032 1.67706 0.951346 1.78604 0.854476C1.91923 0.733389 2.05243 0.636519 2.22195 0.575975C2.51256 0.466997 2.77895 0.491214 3.04534 0.648627C3.17854 0.72128 3.29963 0.81815 3.40861 0.927128C3.48126 0.99978 3.55391 1.07243 3.63867 1.13298C3.85663 1.33882 4.15935 1.33882 4.38941 1.12087C4.5105 1.01189 4.61948 0.902911 4.74056 0.806041C4.91009 0.660736 5.09172 0.551758 5.32178 0.515432C5.57607 0.466997 5.80613 0.539649 6.02409 0.684954C6.13307 0.757606 6.22994 0.830258 6.3147 0.927128C6.41157 1.01189 6.49633 1.10876 6.60531 1.19352C6.76272 1.31461 7.017 1.32672 7.17442 1.21774C7.31972 1.12087 7.44081 0.99978 7.5619 0.878693C7.69509 0.769715 7.82829 0.660736 7.9857 0.588084C8.28842 0.454888 8.57903 0.479105 8.85753 0.648627C8.97862 0.72128 9.0997 0.81815 9.19657 0.915019C9.28133 0.987672 9.35399 1.06032 9.43875 1.14508C9.63249 1.32672 9.93521 1.33882 10.1532 1.14508C10.2621 1.06032 10.359 0.963454 10.4559 0.866584C10.5891 0.757606 10.7586 0.757606 10.8797 0.878693C10.9766 0.975563 11.0129 1.15719 10.916 1.26617C10.6981 1.50835 10.468 1.7263 10.1411 1.84739C10.0321 1.87161 9.9231 1.88372 9.83834 1.89583ZM9.71725 6.3034C9.53562 6.3034 9.30555 6.23075 9.0997 6.06123C8.99073 5.97646 8.88175 5.8796 8.78488 5.77062C8.71222 5.69796 8.63957 5.63742 8.55481 5.57688C8.43372 5.49212 8.31264 5.48001 8.17944 5.55266C8.05835 5.62531 7.94938 5.72218 7.85251 5.81905C7.7072 5.95225 7.57401 6.08544 7.40448 6.1581C7.0049 6.35184 6.60531 6.31551 6.24205 6.06123C6.10885 5.97646 5.99987 5.86749 5.89089 5.75851C5.81824 5.68586 5.74559 5.62531 5.66083 5.56477C5.53974 5.48001 5.41865 5.4679 5.28546 5.54055C5.16437 5.6132 5.05539 5.71007 4.95852 5.80694C4.789 5.96436 4.61948 6.12177 4.38941 6.20653C4.01404 6.33973 3.65078 6.29129 3.32384 6.04912C3.20276 5.96436 3.09378 5.85538 2.9848 5.7464C2.91215 5.67375 2.8395 5.6132 2.75473 5.55266C2.63365 5.48001 2.51256 5.4679 2.39147 5.54055C2.25828 5.6132 2.16141 5.71007 2.05243 5.80694C1.93134 5.92803 1.79815 6.03701 1.65284 6.12177C1.25325 6.35183 0.768904 6.31551 0.405642 6.0249C0.296664 5.94014 0.187685 5.84327 0.0908154 5.73429C-0.0302718 5.6132 -0.0302718 5.43157 0.0908154 5.31049C0.199794 5.1894 0.393533 5.1894 0.514621 5.29838C0.599382 5.37103 0.672034 5.45579 0.756795 5.51633C0.950535 5.68586 1.1806 5.69796 1.39856 5.55266C1.53175 5.4679 1.64073 5.34681 1.74971 5.24994C1.89502 5.11675 2.05243 5.00777 2.23406 4.93511C2.52467 4.82614 2.79106 4.85035 3.04534 5.00777C3.16643 5.08042 3.28752 5.17729 3.3965 5.27416C3.48126 5.34681 3.55391 5.43157 3.63867 5.50422C3.86874 5.69796 4.12302 5.69796 4.35309 5.50422C4.44995 5.41946 4.54682 5.32259 4.6558 5.23783C4.83743 5.08042 5.04328 4.94722 5.28546 4.88668C5.51552 4.83825 5.73348 4.88668 5.93933 5.00777C6.08463 5.09253 6.21783 5.21361 6.33892 5.3347C6.39946 5.39525 6.46 5.45579 6.52055 5.50422C6.76272 5.71007 7.02911 5.71007 7.27129 5.49212L7.63455 5.16518C7.81618 5.01988 8.00992 4.89879 8.25209 4.87457C8.45794 4.85035 8.65168 4.89879 8.8212 4.99566C8.9544 5.06831 9.07549 5.17729 9.18447 5.27416C9.26923 5.35892 9.35399 5.43157 9.43875 5.51633C9.60827 5.67375 9.88677 5.68586 10.0805 5.54055C10.2137 5.44368 10.3227 5.32259 10.4438 5.22572C10.6012 5.09253 10.8313 5.12885 10.916 5.31049C10.9766 5.43157 10.9523 5.57688 10.8434 5.67375C10.7586 5.84327 10.6496 5.95225 10.5164 6.04912C10.3106 6.20653 10.0684 6.3034 9.71725 6.3034ZM9.80201 4.09961C9.53562 4.09961 9.29344 4.01485 9.08759 3.84533C8.99073 3.76057 8.89386 3.67581 8.79699 3.57894C8.72433 3.50629 8.63957 3.43363 8.55481 3.3852C8.44583 3.31255 8.32475 3.31255 8.20366 3.37309C8.08257 3.44574 7.97359 3.54261 7.86461 3.63948C7.73142 3.77268 7.58611 3.89376 7.41659 3.97853C7.0049 4.18437 6.60531 4.14805 6.21783 3.88166C6.09674 3.79689 5.98776 3.68792 5.87878 3.57894C5.80613 3.50629 5.73348 3.44574 5.64872 3.3852C5.52763 3.31255 5.41865 3.30044 5.29757 3.37309C5.2128 3.42152 5.12804 3.48207 5.05539 3.54261C4.94641 3.63948 4.83743 3.74846 4.71635 3.83322C4.26832 4.18437 3.69921 4.18437 3.2633 3.83322C3.16643 3.74846 3.06956 3.6637 2.97269 3.56683C2.90004 3.49418 2.82739 3.43363 2.74263 3.37309C2.63365 3.30044 2.51256 3.30044 2.40358 3.36098C2.30671 3.40942 2.22195 3.48207 2.13719 3.55472C2.02821 3.65159 1.93134 3.74846 1.82236 3.83322C1.38645 4.18437 0.768904 4.16016 0.369316 3.82111C0.284555 3.74846 0.187685 3.6637 0.102924 3.56683C-0.0181631 3.44574 -0.0181631 3.252 0.102924 3.14302C0.224011 3.02194 0.405642 3.02194 0.526729 3.13092C0.61149 3.21568 0.696251 3.30044 0.793121 3.37309C0.962643 3.50629 1.19271 3.51839 1.37434 3.40942C1.50754 3.32465 1.61651 3.20357 1.7376 3.1067C1.88291 2.9735 2.04032 2.85241 2.22195 2.77976C2.51256 2.65867 2.80317 2.68289 3.06956 2.85241C3.21487 2.93718 3.33595 3.04615 3.45704 3.16724C3.52969 3.23989 3.59024 3.30044 3.675 3.36098C3.86874 3.5305 4.0988 3.54261 4.31676 3.39731C4.44995 3.31255 4.55893 3.19146 4.66791 3.09459C4.80111 2.9735 4.95852 2.86452 5.12804 2.79187C5.41865 2.67078 5.70926 2.695 5.97565 2.86452C6.16939 2.98561 6.32681 3.15513 6.49633 3.31255C6.58109 3.39731 6.67796 3.46996 6.79905 3.49418C6.99279 3.5305 7.1502 3.46996 7.2834 3.33676C7.38027 3.252 7.47714 3.16724 7.5619 3.08248C7.7072 2.96139 7.85251 2.85241 8.03414 2.77976C8.31264 2.67078 8.59114 2.70711 8.84542 2.85241C8.97862 2.93718 9.0997 3.03405 9.20868 3.14302C9.28133 3.21568 9.35399 3.27622 9.42664 3.34887C9.66881 3.55472 9.93521 3.55472 10.1774 3.34887C10.2743 3.26411 10.359 3.17935 10.4559 3.09459C10.5891 2.9735 10.7707 2.9735 10.8918 3.1067C11.0129 3.22778 11.0008 3.40942 10.8797 3.5305C10.7102 3.68792 10.5528 3.85744 10.3469 3.96642C10.1774 4.05118 9.99575 4.09961 9.80201 4.09961ZM9.74147 8.50719C9.46297 8.5193 9.19657 8.36188 8.96651 8.14393C8.84542 8.03495 8.73644 7.90175 8.60325 7.81699C8.44583 7.70801 8.32475 7.6959 8.16733 7.80488C8.04625 7.87753 7.94938 7.9744 7.85251 8.07127C7.71931 8.20447 7.57401 8.32556 7.40448 8.41032C7.0049 8.59195 6.61742 8.56773 6.25415 8.31345C6.13307 8.22869 6.02409 8.11971 5.91511 8.01073C5.84246 7.93808 5.76981 7.87753 5.68504 7.81699C5.55185 7.73223 5.43076 7.72012 5.29757 7.80488C5.17648 7.87753 5.07961 7.9744 4.97063 8.07127C4.83743 8.19236 4.71635 8.31345 4.55893 8.39821C4.15935 8.61617 3.68711 8.57984 3.33595 8.30134C3.21487 8.20447 3.10589 8.09549 2.9848 7.98651C2.91215 7.92597 2.8395 7.86543 2.76684 7.81699C2.65786 7.75645 2.54889 7.74434 2.4278 7.80488C2.34304 7.85332 2.25828 7.91386 2.18562 7.98651C2.00399 8.14393 1.84658 8.32556 1.61651 8.43453C1.21693 8.61617 0.829447 8.59195 0.466186 8.33767C0.33299 8.2529 0.224011 8.13182 0.115033 8.02284C-0.00605435 7.90175 -0.00605435 7.72012 0.115033 7.59903C0.23612 7.47795 0.417751 7.46584 0.538838 7.58692C0.623599 7.67169 0.70836 7.75645 0.80523 7.8291C0.99897 7.9744 1.20482 7.98651 1.41067 7.85332C1.53175 7.78066 1.62862 7.67169 1.7376 7.57482C1.89502 7.42951 2.07665 7.29632 2.28249 7.22366C2.5731 7.11468 2.8395 7.15101 3.09378 7.30842C3.21487 7.38108 3.33595 7.47795 3.44493 7.58692C3.52969 7.65958 3.60234 7.74434 3.68711 7.81699C3.88085 7.98651 4.11091 7.99862 4.32887 7.85332C4.46206 7.76856 4.55893 7.64747 4.68002 7.5506C4.82533 7.4174 4.99485 7.29632 5.17648 7.23577C5.45498 7.12679 5.72137 7.16312 5.98776 7.30842C6.12096 7.38108 6.22994 7.47795 6.33892 7.58692C6.42368 7.67169 6.50844 7.75645 6.60531 7.8291C6.79905 7.98651 7.02911 7.99862 7.23496 7.85332C7.36816 7.76856 7.46503 7.64747 7.58611 7.5506C7.73142 7.42951 7.87672 7.32053 8.04625 7.24788C8.33685 7.12679 8.62746 7.15101 8.89386 7.32053C9.03916 7.40529 9.16025 7.51427 9.26923 7.62325C9.32977 7.68379 9.39031 7.74434 9.46297 7.79277C9.70514 7.99862 9.95942 7.99862 10.2016 7.79277C10.2985 7.70801 10.3953 7.62325 10.4801 7.53849C10.6617 7.38108 10.9402 7.45373 10.9887 7.68379C11.0129 7.78066 11.0008 7.87753 10.9281 7.93808C10.7465 8.11971 10.5649 8.30134 10.3348 8.42243C10.1532 8.47086 9.98364 8.50719 9.74147 8.50719Z" fill="black"/>
</svg>
