<svg width="16" height="14" viewBox="0 0 16 14" fill="none" xmlns="http://www.w3.org/2000/svg">
<path d="M1.16406 8.46446H8.34449C8.45948 8.46446 8.5523 8.37127 8.5523 8.25665V6.84326C8.5523 6.72864 8.45948 6.63545 8.34449 6.63545H1.16406C1.04939 6.63545 0.956252 6.72859 0.956252 6.84326V8.25665C0.956252 8.37132 1.04939 8.46446 1.16406 8.46446ZM8.13668 7.05107V8.04884H1.37187V7.05107H8.13668Z" fill="black" stroke="black" stroke-width="0.0874957"/>
<path d="M3.6244 7.05124H2.32449C2.20987 7.05124 2.11668 6.95842 2.11668 6.84343C2.11668 6.41897 2.46192 6.07344 2.88667 6.07344H3.06167C3.48032 6.07344 3.822 6.40931 3.83134 6.82547M3.6244 7.05124L3.83138 6.82724C3.83137 6.82665 3.83136 6.82606 3.83134 6.82547M3.6244 7.05124C3.73902 7.05124 3.83221 6.95842 3.83221 6.84343C3.83221 6.83728 3.83191 6.83142 3.83134 6.82547M3.6244 7.05124L3.83134 6.82547M1.75683 13.3643H7.74973C7.86435 13.3643 7.95754 13.2715 7.95754 13.1565V8.25682C7.95754 8.14215 7.8644 8.04901 7.74973 8.04901H1.75683C1.64185 8.04901 1.54903 8.1422 1.54903 8.25682V13.1565C1.54903 13.2715 1.64189 13.3643 1.75683 13.3643ZM7.54192 8.46463V12.9487H1.96464V8.46463H7.54192ZM3.34863 6.63562H2.59971C2.66426 6.54686 2.76898 6.48906 2.88667 6.48906H3.06167C3.17937 6.48906 3.28408 6.54686 3.34863 6.63562Z" fill="black" stroke="black" stroke-width="0.0874957"/>
<path d="M13.2194 13.2021L13.2194 13.202L12.5123 10.0584C12.487 9.94645 12.5574 9.83529 12.6692 9.81001C12.7813 9.78469 12.8924 9.85544 12.9176 9.96718L12.9176 9.96722L13.625 13.1106L13.625 13.1108C13.6499 13.2227 13.5798 13.334 13.4678 13.359M13.2194 13.2021L13.4677 13.359C13.4677 13.359 13.4678 13.359 13.4678 13.359M13.2194 13.2021C13.2413 13.2987 13.3269 13.3641 13.4221 13.3641C13.4374 13.3641 13.4527 13.3624 13.4678 13.359M13.2194 13.2021L13.4678 13.359M9.23857 13.3641H9.23852H9.23857ZM9.23857 13.3641C9.2857 13.3641 9.33142 13.348 9.36823 13.3186C9.40503 13.2891 9.43074 13.2481 9.44114 13.2021L9.44116 13.202L10.1483 10.0584C10.1483 10.0584 10.1483 10.0584 10.1483 10.0583C10.1735 9.94643 10.1032 9.83529 9.99136 9.81001L9.99134 9.81001M9.23857 13.3641L9.99134 9.81001M9.99134 9.81001C9.9647 9.804 9.93714 9.8033 9.91024 9.80795C9.88333 9.81261 9.85761 9.82252 9.83454 9.83713C9.81147 9.85174 9.7915 9.87075 9.77579 9.89309C9.76009 9.91541 9.74893 9.94061 9.74297 9.96724C9.74297 9.96725 9.74297 9.96727 9.74297 9.96728L9.03562 13.1106C9.03561 13.1106 9.03561 13.1106 9.0356 13.1106L9.99134 9.81001ZM9.11866 13.3262L9.14381 13.2904L9.03348 13.1917C9.03812 13.2186 9.04803 13.2444 9.06265 13.2675C9.07727 13.2906 9.09631 13.3105 9.11866 13.3262Z" fill="black" stroke="black" stroke-width="0.0874957"/>
<path d="M13.2677 9.69952L13.2682 9.69905L13.2687 9.69852L13.2687 9.69852L13.2927 9.67533C13.3497 9.61566 13.3872 9.54194 13.4015 9.46223C13.4022 9.45827 13.4034 9.45134 13.4055 9.44423L14.576 5.07517C14.5559 5.07398 14.5357 5.07337 14.5156 5.07337C14.0456 5.07337 13.6326 5.38963 13.5112 5.84239L12.7133 8.82036C12.7015 8.86453 12.6754 8.90356 12.6392 8.93142C12.6029 8.95928 12.5585 8.97441 12.5128 8.97447H12.5127H9.91752C9.41653 8.97447 8.99712 9.33145 8.90061 9.80463H12.9335L13.2677 9.69952ZM13.2677 9.69952L13.2646 9.70237C13.2631 9.70351 13.2619 9.70453 13.2611 9.70531L13.2556 9.70995C13.2556 9.71 13.2555 9.71005 13.2554 9.71009C13.1706 9.78031 13.0605 9.81486 12.9524 9.80539L13.2677 9.69952ZM13.525 9.96814L13.5176 9.97498L13.525 9.96814ZM14.8898 4.7071L14.8898 4.70708C14.7674 4.67439 14.6414 4.65775 14.5156 4.65775C13.8579 4.65775 13.2798 5.10056 13.1097 5.73497L12.3531 8.55886H9.91752C9.11598 8.55886 8.46394 9.2109 8.46394 10.0124C8.46394 10.1271 8.55708 10.2202 8.67175 10.2202H12.9247C12.946 10.2219 12.9674 10.2227 12.9887 10.2227C13.1825 10.2227 13.3715 10.154 13.5215 10.0291L13.5215 10.0291L13.5314 10.0209L13.5314 10.0209L13.5373 10.0159L13.5376 10.0156L13.5464 10.0079L13.5511 10.0036L13.5542 10.0007L13.5542 10.0007L13.5548 10.0001L13.5625 9.9929L13.5627 9.9931L13.5671 9.98869L13.5752 9.98061C13.5757 9.98014 13.5762 9.97971 13.5766 9.97934L13.583 9.97452L13.5848 9.97091L13.5916 9.96391L13.5918 9.96368C13.7039 9.84676 13.7788 9.70214 13.8088 9.54448L15.0367 4.96165C15.0508 4.9087 15.0436 4.8519 15.0159 4.80402C15.0023 4.7804 14.9841 4.75968 14.9625 4.74305C14.9409 4.72641 14.9162 4.7142 14.8898 4.7071ZM13.2662 9.70114C13.2664 9.70097 13.2666 9.70079 13.2667 9.7006L13.2663 9.7011C13.2663 9.70112 13.2662 9.70113 13.2662 9.70114ZM6.80664 3.69853H11.0025C11.1172 3.69853 11.2103 3.60539 11.2103 3.49072C11.2103 3.37605 11.1172 3.28291 11.0025 3.28291H6.80664C6.69197 3.28291 6.59883 3.37605 6.59883 3.49072C6.59883 3.60539 6.69197 3.69853 6.80664 3.69853Z" fill="black" stroke="black" stroke-width="0.0874957"/>
<path d="M7.50586 3.69886H8.50718C8.62217 3.69886 8.71499 3.60568 8.71499 3.49106V0.66455C8.71499 0.549929 8.62217 0.45674 8.50718 0.45674H7.50586C7.39119 0.45674 7.29805 0.549881 7.29805 0.66455V3.49106C7.29805 3.60572 7.39119 3.69886 7.50586 3.69886ZM8.29937 0.872359V3.28325H7.71367V0.872359H8.29937ZM9.30096 3.69886H10.3023C10.417 3.69886 10.5101 3.60572 10.5101 3.49106V0.66455C10.5101 0.549881 10.417 0.45674 10.3023 0.45674H9.30096C9.1863 0.45674 9.09315 0.549881 9.09315 0.66455V3.49106C9.09315 3.60572 9.1863 3.69886 9.30096 3.69886ZM10.0945 0.872359V3.28325H9.50877V0.872359H10.0945Z" fill="black" stroke="black" stroke-width="0.0874957"/>
</svg>
