<svg width="9" height="3" viewBox="0 0 9 3" fill="none" xmlns="http://www.w3.org/2000/svg">
<path d="M7.77053 2.03307C7.4874 2.03307 7.2449 1.93345 7.04303 1.7342C6.84379 1.53496 6.74548 1.29377 6.7481 1.01064C6.74548 0.732744 6.84379 0.495487 7.04303 0.298865C7.2449 0.0996223 7.4874 0 7.77053 0C8.03794 0 8.27388 0.0996223 8.47837 0.298865C8.68548 0.495487 8.79034 0.732744 8.79296 1.01064C8.79034 1.19939 8.74053 1.37111 8.64353 1.52578C8.54915 1.68046 8.42462 1.80368 8.26995 1.89543C8.11789 1.98719 7.95142 2.03307 7.77053 2.03307Z" fill="black"/>
<path d="M4.39651 2.03307C4.11337 2.03307 3.87087 1.93345 3.66901 1.7342C3.46976 1.53496 3.37145 1.29377 3.37407 1.01064C3.37145 0.732744 3.46976 0.495487 3.66901 0.298865C3.87087 0.0996223 4.11337 0 4.39651 0C4.66391 0 4.89986 0.0996223 5.10434 0.298865C5.31145 0.495487 5.41632 0.732744 5.41894 1.01064C5.41632 1.19939 5.36651 1.37111 5.26951 1.52578C5.17513 1.68046 5.0506 1.80368 4.89593 1.89543C4.74387 1.98719 4.5774 2.03307 4.39651 2.03307Z" fill="black"/>
<path d="M1.02248 2.03307C0.739348 2.03307 0.496848 1.93345 0.294983 1.7342C0.0957402 1.53496 -0.00257055 1.29377 5.10704e-05 1.01064C-0.00257055 0.732744 0.0957402 0.495487 0.294983 0.298865C0.496848 0.0996223 0.739348 0 1.02248 0C1.28989 0 1.52583 0.0996223 1.73032 0.298865C1.93743 0.495487 2.04229 0.732744 2.04492 1.01064C2.04229 1.19939 1.99248 1.37111 1.89548 1.52578C1.8011 1.68046 1.67658 1.80368 1.5219 1.89543C1.36985 1.98719 1.20338 2.03307 1.02248 2.03307Z" fill="black"/>
</svg>
