<svg width="14" height="12" viewBox="0 0 14 12" fill="none" xmlns="http://www.w3.org/2000/svg">
<path d="M13.7627 11.0805H10.7762V9.66435C11.4284 9.57663 12.0064 9.16932 12.3425 8.55181C12.789 8.44974 13.1947 8.1912 13.4948 7.81498C13.8206 7.40655 14 6.88456 14 6.34515C14 5.52459 13.5798 4.76512 12.9187 4.37063C12.8499 3.00227 11.795 1.9112 10.5103 1.9112C10.106 1.9112 9.70584 2.02126 9.35327 2.22949C9.32718 2.24488 9.30439 2.26527 9.28618 2.28947C9.26798 2.31368 9.25472 2.34124 9.24716 2.37057C9.23961 2.3999 9.23791 2.43044 9.24216 2.46043C9.2464 2.49042 9.25652 2.51928 9.27192 2.54536C9.28732 2.57144 9.30771 2.59424 9.33192 2.61245C9.35613 2.63065 9.38369 2.64391 9.41302 2.65147C9.44236 2.65902 9.47289 2.66072 9.50288 2.65647C9.53288 2.65223 9.56174 2.64211 9.58782 2.62671C9.86941 2.4604 10.1884 2.37252 10.5103 2.37252C11.5839 2.37252 12.459 3.331 12.461 4.50913C12.4611 4.55171 12.4729 4.59343 12.4953 4.62968C12.5176 4.66594 12.5495 4.6953 12.5875 4.71454C13.1653 5.00698 13.5387 5.64701 13.5387 6.34512C13.5387 7.22619 12.942 7.98902 12.1507 8.11954C12.1142 8.12556 12.0797 8.14029 12.0501 8.16247C12.0204 8.18464 11.9966 8.21362 11.9805 8.24696C11.733 8.76014 11.2859 9.10705 10.7762 9.19737V7.1563L11.9114 6.1124C11.9337 6.0919 11.9517 6.0672 11.9645 6.03973C11.9772 6.01225 11.9844 5.98253 11.9857 5.95227C11.987 5.92201 11.9823 5.89179 11.9719 5.86335C11.9614 5.8349 11.9455 5.80878 11.925 5.78649C11.9045 5.76419 11.8798 5.74615 11.8524 5.73339C11.8249 5.72064 11.7952 5.71342 11.7649 5.71215C11.7346 5.71089 11.7044 5.71559 11.676 5.72601C11.6475 5.73642 11.6214 5.75234 11.5991 5.77285L10.7762 6.52958V4.9898C10.7762 4.92863 10.7519 4.86995 10.7086 4.82669C10.6654 4.78344 10.6067 4.75913 10.5455 4.75913C10.4843 4.75913 10.4257 4.78344 10.3824 4.82669C10.3391 4.86995 10.3148 4.92863 10.3148 4.9898V7.7816L9.4919 7.02486C9.46961 7.00435 9.44349 6.98844 9.41505 6.97802C9.3866 6.96761 9.35638 6.9629 9.32612 6.96417C9.29585 6.96544 9.26613 6.97265 9.23866 6.98541C9.21118 6.99816 9.18649 7.0162 9.16599 7.0385C9.14548 7.0608 9.12957 7.08691 9.11916 7.11536C9.10875 7.1438 9.10404 7.17402 9.10531 7.20428C9.10658 7.23455 9.11379 7.26427 9.12655 7.29174C9.1393 7.31922 9.15734 7.34391 9.17964 7.36441L10.3149 8.40831V9.20817C9.77094 9.13809 9.29125 8.77819 9.03386 8.23361C9.01869 8.2015 8.99631 8.17332 8.96845 8.15129C8.94059 8.12925 8.90802 8.11395 8.87328 8.10658C8.10787 7.94396 7.55236 7.20319 7.55236 6.34512C7.55236 5.66853 7.89355 5.05617 8.44278 4.7471C8.47886 4.7268 8.50881 4.69716 8.52948 4.66129C8.55016 4.62542 8.56081 4.58465 8.5603 4.54325C8.56025 4.53686 8.56003 4.53051 8.55981 4.5242C8.55967 4.52053 8.55954 4.5169 8.55954 4.51326C8.55954 4.03275 8.70134 3.57873 8.96961 3.20035C8.98713 3.17564 8.99961 3.14773 9.00634 3.11819C9.01307 3.08866 9.01392 3.05809 9.00884 3.02823C9.00375 2.99837 8.99284 2.96981 8.97671 2.94416C8.96059 2.91852 8.93958 2.89631 8.91487 2.87879C8.89016 2.86127 8.86224 2.84879 8.83271 2.84206C8.80318 2.83532 8.77261 2.83448 8.74275 2.83956C8.71289 2.84464 8.68432 2.85556 8.65868 2.87168C8.63304 2.88781 8.61082 2.90882 8.5933 2.93353C8.28768 3.36458 8.11804 3.87522 8.09989 4.41589C7.47432 4.82383 7.09107 5.55043 7.09107 6.34515C7.09107 7.37885 7.74732 8.27928 8.6671 8.53106C9.0133 9.18307 9.62564 9.60501 10.3149 9.67255V11.0805H10.1688C10.1348 10.4769 9.72219 9.9517 9.14756 9.77438C8.96726 9.39077 8.61704 9.11263 8.20521 9.02245C8.07019 8.40872 7.51771 7.95107 6.87391 7.95107C6.37745 7.95107 5.92729 8.21789 5.68733 8.64259C5.4575 8.65128 5.23329 8.71612 5.0343 8.83144C4.83531 8.94676 4.66758 9.10906 4.54578 9.30415C4.39367 8.88568 4.00402 8.58099 3.54782 8.54823V7.94177C4.17052 7.8552 4.7219 7.46572 5.04406 6.87652C5.47202 6.77765 5.86068 6.52936 6.14842 6.16865C6.46173 5.77591 6.63426 5.27396 6.63426 4.7553C6.63426 3.96813 6.23207 3.23934 5.59881 2.85918C5.5301 1.54638 4.51699 0.500488 3.2834 0.500488C2.81022 0.500488 2.35509 0.653093 1.96716 0.94187C1.9181 0.978408 1.88556 1.03293 1.87669 1.09346C1.86781 1.15398 1.88334 1.21556 1.91986 1.26464C1.95639 1.3137 2.01092 1.34624 2.07144 1.35511C2.13197 1.36398 2.19354 1.34845 2.24262 1.31194C2.55029 1.08285 2.91019 0.961804 3.2834 0.961804C4.30581 0.961804 5.13919 1.87503 5.14113 2.99754C5.14121 3.04012 5.15307 3.08184 5.17539 3.1181C5.19772 3.15435 5.22964 3.18372 5.26763 3.20295C5.81756 3.48128 6.17287 4.09063 6.17287 4.7553C6.17287 5.59407 5.60516 6.32024 4.8523 6.44441C4.81579 6.45044 4.78127 6.46516 4.75164 6.48734C4.72202 6.50952 4.69816 6.5385 4.68209 6.57183C4.44844 7.05636 4.02792 7.38525 3.54776 7.47439V5.53627L4.63145 4.53978C4.67563 4.49816 4.70162 4.4408 4.70379 4.38015C4.70597 4.31949 4.68415 4.26042 4.64306 4.21574C4.60197 4.17106 4.54493 4.14438 4.48431 4.14148C4.42368 4.13857 4.36435 4.15968 4.31918 4.20023L3.54776 4.90958V3.45779C3.54776 3.39661 3.52346 3.33794 3.4802 3.29468C3.43694 3.25142 3.37827 3.22712 3.31709 3.22712C3.25591 3.22712 3.19724 3.25142 3.15398 3.29468C3.11072 3.33794 3.08642 3.39661 3.08642 3.45779V6.10824L2.31503 5.39889C2.29273 5.37839 2.26662 5.36247 2.23817 5.35206C2.20973 5.34164 2.17951 5.33694 2.14925 5.3382C2.11898 5.33947 2.08926 5.34669 2.06179 5.35944C2.03431 5.3722 2.00962 5.39024 1.98912 5.41254C1.96861 5.43483 1.9527 5.46095 1.94229 5.48939C1.93188 5.51784 1.92717 5.54805 1.92844 5.57832C1.9297 5.60858 1.93692 5.6383 1.94967 5.66578C1.96243 5.69325 1.98047 5.71794 2.00276 5.73845L3.08639 6.73493V7.48519C2.57353 7.41503 2.12193 7.07375 1.8787 6.5592C1.86353 6.52708 1.84114 6.49891 1.81329 6.47687C1.78543 6.45483 1.75286 6.43953 1.71811 6.43216C0.989869 6.27736 0.461288 5.5722 0.461288 4.7553C0.461288 4.11106 0.785995 3.52809 1.30872 3.23393C1.34478 3.21365 1.37472 3.18404 1.39539 3.14821C1.41607 3.11237 1.42673 3.07164 1.42625 3.03027C1.42617 3.02405 1.42602 3.01782 1.42578 3.0116C1.4257 3.00823 1.42554 3.0049 1.42554 3.00148C1.42554 2.71618 1.47812 2.44028 1.58181 2.18147C1.61262 2.10463 1.6479 2.02965 1.68746 1.95692C1.70195 1.93032 1.71106 1.90113 1.71426 1.87101C1.71747 1.84089 1.71471 1.81043 1.70614 1.78138C1.69757 1.75233 1.68337 1.72524 1.66433 1.70168C1.6453 1.67812 1.62181 1.65854 1.5952 1.64406C1.56861 1.62956 1.53941 1.62044 1.50929 1.61723C1.47917 1.61402 1.44871 1.61678 1.41966 1.62534C1.3906 1.63391 1.36352 1.64811 1.33996 1.66715C1.3164 1.68619 1.29682 1.70968 1.28234 1.73629C1.23413 1.8249 1.19116 1.91625 1.15363 2.00989C1.03999 2.29347 0.977018 2.59338 0.965998 2.9028C0.36687 3.29564 0 3.99291 0 4.7553C0 5.7478 0.629397 6.61265 1.512 6.85639C1.84389 7.4786 2.4282 7.8823 3.08642 7.94987V8.60964C2.83173 8.69854 2.6166 8.87451 2.47895 9.10651C1.91879 9.13836 1.46617 9.55207 1.37845 10.0977C0.965315 10.2812 0.658163 10.6451 0.545069 11.0805H0.230671C0.169494 11.0805 0.110821 11.1048 0.0675621 11.148C0.0243028 11.1913 0 11.25 0 11.3111C0 11.3723 0.0243028 11.431 0.0675621 11.4743C0.110821 11.5175 0.169494 11.5418 0.230671 11.5418H13.7627C13.8233 11.5409 13.8811 11.5162 13.9235 11.473C13.966 11.4299 13.9899 11.3717 13.9899 11.3112C13.9899 11.2506 13.966 11.1925 13.9235 11.1493C13.8811 11.1062 13.8233 11.0815 13.7627 11.0805ZM1.02886 11.0805C1.13889 10.8001 1.37036 10.5768 1.66523 10.4812C1.7105 10.4666 1.75013 10.4383 1.77869 10.4002C1.80724 10.3621 1.82332 10.3162 1.82473 10.2686C1.83635 9.87456 2.15433 9.56588 2.54865 9.56588C2.56446 9.56588 2.58174 9.56662 2.60298 9.56818C2.65117 9.57171 2.69925 9.56004 2.74044 9.5348C2.78164 9.50956 2.81388 9.47203 2.83262 9.4275C2.88488 9.30262 2.97293 9.196 3.08568 9.12107C3.19842 9.04614 3.33082 9.00625 3.4662 9.00643C3.82238 9.00643 4.12305 9.2843 4.15072 9.63903C4.15501 9.69384 4.17873 9.74532 4.2176 9.78419C4.25648 9.82307 4.30796 9.84679 4.36277 9.85108C4.42566 9.85597 4.48647 9.86978 4.54406 9.89083L4.54477 9.89114C4.55546 9.89507 4.56599 9.89931 4.57643 9.90374L4.58319 9.90664C4.59295 9.91088 4.6026 9.91533 4.61209 9.92001C4.61532 9.92162 4.61849 9.92329 4.62169 9.92493C4.63484 9.93166 4.64772 9.93882 4.66035 9.94634C4.66724 9.95047 4.67419 9.95446 4.68091 9.95884C4.68603 9.96212 4.69095 9.96565 4.69592 9.96901C4.70784 9.97704 4.71947 9.98548 4.73079 9.99433C4.7397 10.0013 4.74851 10.0084 4.75707 10.0159C4.75944 10.0179 4.76182 10.0198 4.76417 10.0219C4.79879 10.0526 4.83023 10.0867 4.85802 10.1237C4.85952 10.1257 4.86108 10.1276 4.86256 10.1297C4.88055 10.1542 4.89688 10.1799 4.91145 10.2066C4.91339 10.2101 4.91522 10.2138 4.91714 10.2174C4.92233 10.2273 4.92728 10.2374 4.93201 10.2477C4.94004 10.2649 4.94735 10.2825 4.95394 10.3003L4.95449 10.3017C4.96779 10.3385 4.99022 10.3712 5.01966 10.3969C5.04909 10.4227 5.08458 10.4405 5.12279 10.4487C5.1434 10.4531 5.16361 10.4585 5.18349 10.4646C5.18997 10.4666 5.19626 10.4691 5.20269 10.4712C5.21592 10.4757 5.2291 10.4802 5.24198 10.4853C5.24942 10.4883 5.25666 10.4917 5.26396 10.4949C5.27547 10.4999 5.28693 10.505 5.29814 10.5106C5.30569 10.5143 5.31302 10.5184 5.3204 10.5224C5.349 10.5377 5.37652 10.5549 5.40279 10.574C5.40965 10.5789 5.41643 10.5839 5.4231 10.5891C5.43265 10.5964 5.44189 10.6041 5.45105 10.6119C5.45726 10.6172 5.46354 10.6224 5.46959 10.6279C5.47897 10.6364 5.48794 10.6453 5.49688 10.6543C5.50215 10.6595 5.50762 10.6647 5.51274 10.6702C5.5228 10.6809 5.53231 10.692 5.54175 10.7032C5.54525 10.7074 5.54897 10.7114 5.55238 10.7156C5.56496 10.7313 5.57697 10.7474 5.58829 10.7641C5.59066 10.7676 5.59272 10.7713 5.59501 10.7748C5.60374 10.7881 5.61224 10.8015 5.62014 10.8153C5.6237 10.8216 5.6269 10.8281 5.63029 10.8344C5.63641 10.8459 5.64243 10.8573 5.64798 10.8691C5.65142 10.8764 5.65449 10.8838 5.65768 10.8912C5.66255 10.9024 5.66725 10.9137 5.67158 10.9252C5.67453 10.933 5.67724 10.941 5.67994 10.949C5.68654 10.9685 5.69236 10.9882 5.69739 11.0082C5.70031 11.0199 5.70288 11.0317 5.70526 11.0437C5.70693 11.052 5.70854 11.0603 5.70994 11.0687C5.71059 11.0726 5.71092 11.0766 5.7115 11.0805H1.02886ZM6.17661 11.0806V11.0805C6.17642 11.0783 6.17596 11.0762 6.17579 11.074C6.17321 11.0466 6.16968 11.0193 6.16521 10.9921L6.16431 10.9873C6.15964 10.9598 6.15401 10.9325 6.14744 10.9054C6.14716 10.9042 6.14695 10.903 6.14664 10.9019C6.14002 10.8753 6.13251 10.8488 6.12411 10.8227C6.12321 10.8199 6.12239 10.817 6.12146 10.8142C6.11326 10.7891 6.10413 10.7644 6.09431 10.74C6.09289 10.7364 6.09152 10.7329 6.09007 10.7294C6.07869 10.7018 6.06629 10.6746 6.05288 10.6478C6.04137 10.6248 6.02915 10.6022 6.01624 10.58L6.01031 10.5699C5.99706 10.5476 5.98309 10.5256 5.96842 10.5041C5.96664 10.5015 5.96478 10.4989 5.96298 10.4964C5.94772 10.4743 5.93175 10.4527 5.9151 10.4317C5.91406 10.4304 5.91294 10.4291 5.9119 10.4278C5.89448 10.406 5.87632 10.3848 5.85746 10.3643L5.85686 10.3636C5.8381 10.3433 5.81868 10.3237 5.79861 10.3047C5.79686 10.303 5.79517 10.3013 5.79342 10.2997C5.77409 10.2816 5.75418 10.2641 5.73373 10.2473L5.72552 10.2405C5.70536 10.2242 5.68469 10.2086 5.66354 10.1936L5.65369 10.1867C5.62915 10.1696 5.60399 10.1535 5.57825 10.1383C5.55578 10.1251 5.53289 10.1125 5.50962 10.1006C5.50642 10.099 5.50317 10.0975 5.49994 10.0959C5.47583 10.0839 5.45132 10.0727 5.42647 10.0624C5.42425 10.0615 5.42201 10.0607 5.41979 10.0598C5.39355 10.049 5.36694 10.0392 5.34001 10.0304L5.3397 10.0302C5.33853 10.0279 5.33719 10.0256 5.33601 10.0233C5.32673 10.0047 5.31694 9.9863 5.30665 9.96822C5.3014 9.959 5.29579 9.95001 5.29032 9.94093C5.27195 9.91031 5.25201 9.88066 5.2306 9.85209C5.22268 9.84126 5.21455 9.83057 5.20624 9.82004C5.20132 9.81389 5.19615 9.80798 5.19112 9.80197C5.17169 9.7786 5.15134 9.75601 5.13012 9.73426C5.12645 9.73052 5.12295 9.72663 5.11926 9.72294C5.10871 9.71244 5.0978 9.70238 5.08686 9.69229C5.08057 9.68645 5.07422 9.68068 5.0678 9.67498C5.05735 9.6658 5.04674 9.65677 5.03592 9.64791C5.02804 9.64146 5.02003 9.63525 5.01199 9.62899C5.00196 9.62125 4.992 9.61343 4.98169 9.60599C4.9672 9.59549 4.95238 9.58549 4.9374 9.57567C4.9334 9.57304 4.9296 9.57015 4.92556 9.56758C5.00947 9.42595 5.12883 9.30862 5.27189 9.22716C5.41495 9.1457 5.57676 9.10292 5.74138 9.10303C5.76219 9.10303 5.78478 9.10399 5.81245 9.10602C5.86063 9.10957 5.90872 9.09791 5.94992 9.07266C5.99112 9.04742 6.02334 9.00988 6.04205 8.96533C6.11066 8.80137 6.22627 8.66138 6.3743 8.563C6.52233 8.46462 6.69617 8.41225 6.87391 8.4125C7.34156 8.4125 7.73632 8.77737 7.77264 9.24314C7.77692 9.29796 7.80063 9.34944 7.83951 9.38831C7.87839 9.42719 7.92987 9.4509 7.98469 9.45517C8.33652 9.48259 8.64151 9.71488 8.76171 10.047C8.77502 10.0837 8.79745 10.1165 8.82688 10.1422C8.85632 10.1679 8.89181 10.1857 8.93001 10.1939C9.35559 10.2857 9.6713 10.6516 9.70677 11.0806H6.17661V11.0806Z" fill="black"/>
</svg>
