<svg width="25" height="18" viewBox="0 0 25 18" fill="none" xmlns="http://www.w3.org/2000/svg">
<path d="M22.5248 17.1873H1.82351C0.816381 17.1873 0 16.3493 0 15.3155V2.68451C0 1.65078 0.816381 0.812744 1.82351 0.812744H22.5248C23.5319 0.812744 24.3483 1.65073 24.3483 2.68451V15.3155C24.3483 16.3493 23.5319 17.1873 22.5248 17.1873Z" fill="#1F9C00"/>
<path d="M5.03737 6.38294C5.07876 6.65518 5.23913 6.7406 5.37853 6.72942C5.54294 6.71634 5.68714 6.56209 5.68714 6.39915V5.46495C5.68714 5.41818 5.72425 5.38001 5.76992 5.38001C5.81559 5.38001 5.8527 5.41814 5.8527 5.46495V6.40315C5.8527 6.51596 5.90703 6.62115 5.99814 6.68432C6.05375 6.72298 6.1185 6.74285 6.18372 6.74285C6.22526 6.74285 6.26698 6.73469 6.30675 6.71844L6.38948 6.68451C6.39709 7.46871 6.35061 8.15791 6.34976 8.17055C6.34329 8.26413 6.41189 8.3454 6.50309 8.35204C6.50713 8.35238 6.51108 8.35253 6.51508 8.35253C6.60119 8.35253 6.67383 8.28419 6.68007 8.19476C6.68392 8.13956 6.73492 7.38475 6.7196 6.54901L6.76965 6.5285C6.81351 6.51059 6.8628 6.51274 6.905 6.53431C7.08735 6.62755 7.30676 6.59118 7.45087 6.44337L7.4807 6.41281C7.61448 6.27531 7.66048 6.07556 7.60058 5.89129L7.45962 5.45738C7.53583 5.48091 7.61957 5.4463 7.65639 5.37098C7.6973 5.28707 7.66414 5.18505 7.58236 5.14307L7.25129 4.9732C7.1914 4.94235 7.11951 4.95182 7.06875 4.99673C7.01813 5.04188 6.99901 5.11368 7.02018 5.17885L7.28654 5.99882C7.30648 6.06018 7.29116 6.12686 7.24658 6.17265L7.2168 6.20321C7.17365 6.24748 7.1079 6.25827 7.05295 6.2304C6.94567 6.17538 6.8235 6.16508 6.7089 6.19506C6.68563 5.64985 6.6284 5.10695 6.50652 4.73162C6.47764 4.64268 6.38406 4.59445 6.29705 4.62428C6.21032 4.65381 6.16346 4.74997 6.19238 4.83911C6.31165 5.20614 6.3636 5.76549 6.38206 6.32168L6.18387 6.403V5.4648C6.18387 5.23059 5.99818 5.04012 5.76997 5.04012C5.54175 5.04012 5.35607 5.23059 5.35607 5.4648V6.28707L5.18718 5.43112C5.1692 5.33906 5.08195 5.27902 4.99213 5.29825C4.90245 5.31699 4.8445 5.40657 4.86272 5.49848L5.03737 6.38294Z" fill="#FEFEFE"/>
<path d="M5.35551 4.95392C5.44717 4.95392 5.52151 4.87792 5.52151 4.78405V4.61423C5.52151 4.52036 5.44717 4.44436 5.35551 4.44436C5.2638 4.44436 5.18945 4.52031 5.18945 4.61423V4.78405C5.18945 4.87792 5.2638 4.95392 5.35551 4.95392Z" fill="#FEFEFE"/>
<path d="M7.0094 4.78405H7.17505C7.26654 4.78405 7.3407 4.7081 7.3407 4.61423C7.3407 4.52036 7.26654 4.44436 7.17505 4.44436H7.0094C6.91791 4.44436 6.84375 4.52031 6.84375 4.61423C6.84375 4.7081 6.91791 4.78405 7.0094 4.78405Z" fill="#FEFEFE"/>
<path d="M5.92797 7.01739L5.09995 7.527C5.02148 7.57528 4.99611 7.6796 5.04318 7.76009C5.07421 7.8132 5.12903 7.84254 5.18533 7.84254C5.21436 7.84254 5.24372 7.83473 5.27042 7.81828L6.09843 7.30866C6.17691 7.26038 6.20227 7.15607 6.15521 7.07557C6.10809 6.99513 6.00649 6.96911 5.92797 7.01739Z" fill="#FEFEFE"/>
<path d="M8.16208 7.31822L8.16598 7.31554C8.17987 7.37294 8.2037 7.42849 8.24237 7.47516C8.30962 7.55643 8.41046 7.59729 8.52442 7.58763C8.68609 7.57552 8.79596 7.49971 8.86873 7.40184C8.87981 7.40965 8.89147 7.41678 8.90364 7.42307C8.99311 7.46935 9.09656 7.46584 9.19507 7.41341C9.4452 7.28122 9.49909 6.97535 9.49148 6.81544C9.48701 6.72221 9.40977 6.6564 9.31916 6.65455C9.22826 6.65855 9.15749 6.73768 9.16077 6.83091C9.16082 6.83306 9.16453 7.03461 9.04448 7.10945C9.02488 7.08143 9.00167 7.01836 8.99292 6.96627C8.97894 6.87885 8.9007 6.81798 8.81651 6.82496C8.7307 6.83189 8.6644 6.90589 8.66411 6.99429C8.66407 7.01899 8.65869 7.237 8.49474 7.2552C8.47567 7.2285 8.47533 7.11603 8.49412 7.0329C8.50996 6.96471 8.48332 6.89354 8.42715 6.85376C8.37084 6.81378 8.29659 6.81378 8.24004 6.85312L8.14767 6.91761C8.10382 5.93254 8.00274 4.78469 8.00151 4.76999C7.99328 4.67676 7.91328 4.60725 7.82172 4.61623C7.73068 4.62467 7.66357 4.70732 7.67184 4.80089C7.67327 4.81661 7.79018 6.14469 7.82619 7.15889C7.81772 7.16714 7.80902 7.17617 7.80074 7.18408C7.73529 7.01475 7.60554 6.90804 7.43845 6.89183C7.20263 6.87045 6.94712 7.03515 6.85551 7.27038C6.77655 7.47277 6.82626 7.67168 6.98203 7.77697C7.09404 7.85278 7.26308 7.87665 7.47564 7.80021C7.42375 7.98731 7.32924 8.1771 7.20643 8.32388C7.09642 8.45544 6.91273 8.6072 6.67767 8.60041C6.54083 8.5949 6.43571 8.54897 6.35623 8.45978C6.1646 8.24495 6.18111 7.85615 6.18125 7.852C6.186 7.75843 6.11623 7.67866 6.0251 7.67349C5.93335 7.66353 5.85572 7.74002 5.85068 7.83375C5.84954 7.85527 5.82552 8.36626 6.11057 8.68755C6.25088 8.84595 6.43728 8.93074 6.66464 8.93987C6.67572 8.94035 6.6868 8.9405 6.69793 8.9405C6.9748 8.9405 7.24344 8.80114 7.45743 8.54521C7.65871 8.30465 7.79541 7.97789 7.83641 7.67456C7.83589 8.25564 7.49467 8.91102 7.04229 9.19975C6.85018 9.32218 6.55067 9.43264 6.21331 9.26194C5.79741 9.05126 5.84697 8.56341 5.84916 8.5435C5.86053 8.45041 5.79617 8.36547 5.70547 8.35391C5.61519 8.34263 5.53196 8.40814 5.52073 8.50137C5.51702 8.53173 5.4375 9.24783 6.06686 9.56649C6.22853 9.6484 6.39757 9.68906 6.56794 9.68906C6.78678 9.68906 7.00766 9.62189 7.21704 9.48819C7.76783 9.13683 8.1676 8.37348 8.1676 7.67315C8.16755 7.56361 8.1655 7.44402 8.16208 7.31822ZM7.1641 7.49332C7.13452 7.47321 7.15763 7.40906 7.16263 7.39632C7.19749 7.30675 7.30651 7.22928 7.3936 7.22928C7.39807 7.22928 7.40259 7.22943 7.40691 7.22992C7.42808 7.23192 7.48425 7.23739 7.50841 7.36562C7.51098 7.37924 7.51317 7.39315 7.51488 7.40741C7.33043 7.51855 7.20677 7.52207 7.1641 7.49332Z" fill="#FEFEFE"/>
<path d="M5.4396 9.05519C5.3611 9.00788 5.25974 9.03493 5.21309 9.11542C5.20547 9.1285 5.19538 9.14281 5.18509 9.15569C5.18328 9.1514 5.18152 9.14676 5.17971 9.14173C5.11064 8.95277 5.15981 8.6617 5.18466 8.56544C5.20804 8.47484 5.15543 8.38199 5.06717 8.35773C4.979 8.3345 4.88831 8.38727 4.8646 8.47786C4.85256 8.5238 4.75072 8.93618 4.86946 9.26098C4.94548 9.46869 5.06222 9.52111 5.14682 9.52819C5.15434 9.52883 5.16177 9.52917 5.16915 9.52917C5.34748 9.52917 5.46617 9.3449 5.49921 9.28647C5.54496 9.20563 5.51816 9.10263 5.4396 9.05519Z" fill="#FEFEFE"/>
<path d="M8.49392 5.97306C8.52975 5.97306 8.56583 5.96125 8.5961 5.93674L9.43104 5.26443C9.44256 5.25515 9.44994 5.243 9.45836 5.23158C9.57859 5.15718 9.65997 5.02324 9.65997 4.86904C9.65997 4.63483 9.47421 4.44436 9.2459 4.44436C9.01759 4.44436 8.83184 4.63478 8.83184 4.86904C8.83184 5.0001 8.89123 5.11594 8.98242 5.19389L8.39145 5.66973C8.31953 5.72762 8.30701 5.83443 8.36346 5.90809C8.39621 5.9508 8.44485 5.97306 8.49392 5.97306ZM9.246 4.78405C9.29169 4.78405 9.32881 4.82217 9.32881 4.86899C9.32881 4.9158 9.29169 4.95392 9.246 4.95392C9.20031 4.95392 9.16318 4.9158 9.16318 4.86899C9.16318 4.82217 9.20031 4.78405 9.246 4.78405Z" fill="#FEFEFE"/>
<path d="M9.04773 5.81232C8.96047 5.78249 8.86701 5.83072 8.83812 5.91966C8.82041 5.97404 8.74028 6.25428 8.90267 6.42059C8.96566 6.48526 9.04849 6.51763 9.15018 6.51748C9.21817 6.51748 9.29448 6.50323 9.37903 6.47418C9.46582 6.44465 9.51271 6.34849 9.48377 6.25935C9.45482 6.17042 9.36118 6.12199 9.27415 6.15201C9.1816 6.18355 9.14247 6.17842 9.1389 6.18169C9.12914 6.1565 9.13557 6.08065 9.15256 6.02641C9.18122 5.93772 9.13433 5.84185 9.04773 5.81232Z" fill="#FEFEFE"/>
<path d="M10.9415 5.1058C10.9571 5.11044 10.9726 5.11259 10.988 5.11259C11.0597 5.11259 11.1258 5.06451 11.1469 4.99031L11.2435 4.65061C11.2691 4.56055 11.2187 4.4662 11.131 4.43993C11.0429 4.41387 10.9512 4.46532 10.9256 4.55538L10.8289 4.89508C10.8033 4.98523 10.8537 5.07959 10.9415 5.1058Z" fill="#FEFEFE"/>
<path d="M9.97763 5.08968C10.0039 5.10544 10.0327 5.11291 10.061 5.11291C10.1178 5.11291 10.1732 5.08289 10.2039 5.02885C10.2501 4.94792 10.2235 4.8437 10.1446 4.7965C10.1114 4.77658 10.1159 4.72035 10.1171 4.70922C10.1221 4.66461 10.148 4.61018 10.193 4.59573C10.2803 4.56791 10.329 4.47267 10.3019 4.3831C10.2746 4.29338 10.182 4.24373 10.0946 4.27126C9.92971 4.32398 9.80947 4.48077 9.78831 4.67056C9.76873 4.84717 9.84128 5.00777 9.97763 5.08968Z" fill="#FEFEFE"/>
<path d="M8.66565 7.84059C8.57416 7.84059 8.5 7.91659 8.5 8.01046C8.5 8.0934 8.55793 8.16242 8.63457 8.17731C8.64328 8.19039 8.6656 8.23539 8.6656 8.35016C8.6656 8.44402 8.73976 8.52003 8.83125 8.52003C8.92274 8.52003 8.9969 8.44407 8.9969 8.35016C8.99695 7.8464 8.67917 7.84059 8.66565 7.84059Z" fill="#FEFEFE"/>
<path d="M11.476 7.14306C11.4968 7.14658 11.5175 7.14824 11.5383 7.14824C11.6684 7.14824 11.7999 7.08092 11.9302 6.94737C11.9949 6.88103 11.9949 6.77354 11.9302 6.70721C11.8655 6.64087 11.7607 6.64087 11.696 6.70721C11.5969 6.80888 11.5436 6.81103 11.5299 6.80786C11.4983 6.80322 11.4696 6.7609 11.4633 6.74933C11.4217 6.66669 11.3232 6.63374 11.242 6.67533C11.1602 6.71731 11.127 6.81933 11.168 6.90324C11.1781 6.92428 11.2738 7.10938 11.476 7.14306Z" fill="#FEFEFE"/>
<path d="M14.2863 5.94687C14.2852 5.94423 14.2842 5.9417 14.2834 5.9394C14.254 5.85119 14.1602 5.80321 14.0743 5.83323C13.9874 5.86276 13.9405 5.95893 13.9695 6.04806C13.9824 6.08784 14.0562 6.28759 14.239 6.31278C14.2512 6.31444 14.2634 6.31527 14.2755 6.31527C14.3902 6.31527 14.4979 6.23912 14.5959 6.08848C14.6466 6.01052 14.626 5.90504 14.5499 5.85295C14.4737 5.80101 14.3708 5.82191 14.3202 5.90011C14.3071 5.92017 14.2957 5.93545 14.2863 5.94687Z" fill="#FEFEFE"/>
<path d="M13.9561 9.0322C13.9561 8.30785 13.9251 7.62831 13.882 7.03288C14.117 7.45117 14.3284 7.87385 14.463 8.24259C14.488 8.31078 14.551 8.35276 14.618 8.35276C14.6373 8.35276 14.6569 8.34925 14.6761 8.34197C14.7617 8.30897 14.805 8.2111 14.7729 8.12319C14.5635 7.55002 14.187 6.8674 13.816 6.26143C13.7256 5.34641 13.6243 4.76563 13.6225 4.75528C13.6062 4.66292 13.5202 4.60054 13.4301 4.61855C13.3402 4.63529 13.2806 4.72369 13.2969 4.81595C13.2982 4.82332 13.3503 5.1225 13.4126 5.62602C13.2855 5.43237 13.1674 5.25767 13.0682 5.11386L13.0763 5.1165C13.1635 5.14633 13.2567 5.0981 13.2857 5.00921C13.3146 4.92012 13.2678 4.82391 13.1811 4.79438L12.6846 4.62451C12.6158 4.60064 12.5402 4.62587 12.4981 4.68625C12.4868 4.70236 12.4791 4.72003 12.4739 4.73834C12.3748 4.66317 12.2478 4.602 12.1285 4.65331C12.0564 4.68401 11.9704 4.76128 11.9704 4.95551C11.9704 5.10464 12.0258 5.26587 12.0846 5.43672C12.182 5.72003 12.243 5.92837 12.1398 6.02776C12.0828 6.08262 12.0258 6.10337 11.9703 6.08897C11.8682 6.06241 11.7672 5.9229 11.6999 5.71574C11.697 5.70676 11.6909 5.70022 11.6867 5.69216C11.7215 5.42905 11.7063 5.11206 11.6362 4.75235C11.6184 4.66029 11.5314 4.60039 11.4415 4.61914C11.3518 4.63754 11.2938 4.72696 11.3117 4.81903C11.4198 5.3737 11.3873 5.82625 11.225 6.02947C11.1623 6.1081 11.0836 6.14457 10.9776 6.14457C10.944 6.14457 10.9212 6.13363 10.8984 6.10674C10.7679 5.95229 10.7684 5.454 10.8105 5.14925C10.8172 5.10068 10.803 5.05124 10.7716 5.01404C10.7401 4.97689 10.6946 4.95551 10.6467 4.95551C10.362 4.95551 10.254 5.28789 10.1587 5.58121C10.117 5.71013 10.0391 5.9498 9.98477 5.9747C9.88463 5.9747 9.81986 5.67278 9.81929 5.46493C9.81901 5.37121 9.74506 5.2954 9.65381 5.2954C9.65381 5.2954 9.65367 5.2954 9.65352 5.2954C9.56222 5.2954 9.48828 5.37141 9.48828 5.46513C9.48828 5.85691 9.61829 6.31444 9.98473 6.31444C10.2576 6.31444 10.3681 6.00926 10.4606 5.72555C10.4767 5.95112 10.5263 6.18484 10.6483 6.32918C10.7341 6.43072 10.8478 6.48426 10.9776 6.48426C11.1818 6.48426 11.3558 6.40148 11.4809 6.24488C11.5036 6.21657 11.5231 6.18401 11.5423 6.15116C11.6384 6.2914 11.7563 6.38385 11.8891 6.41827C11.928 6.42837 11.9672 6.4335 12.006 6.4335C12.1337 6.4335 12.2585 6.37941 12.3663 6.27539C12.3887 6.25381 12.4045 6.23014 12.4216 6.20686C12.462 6.21872 12.5031 6.22575 12.5438 6.22575C12.6779 6.22575 12.8069 6.17034 12.887 6.11757C12.9636 6.06715 12.9858 5.96298 12.9371 5.884C12.8884 5.80521 12.7864 5.78164 12.7093 5.83109C12.7079 5.83177 12.5974 5.89698 12.522 5.88171C12.5222 5.69548 12.4566 5.49774 12.3967 5.32352C12.3626 5.22428 12.3276 5.12265 12.3111 5.03957C12.3247 5.05138 12.338 5.06363 12.35 5.07554C12.4144 5.14188 12.5193 5.14188 12.5839 5.07554C12.5946 5.06456 12.6008 5.05124 12.6079 5.0384C12.7794 5.28095 13.1322 5.79067 13.4951 6.37819C13.5644 7.10039 13.6251 8.02166 13.6251 9.0321C13.6251 9.12597 13.6992 9.20197 13.7906 9.20197C13.882 9.20202 13.9561 9.12612 13.9561 9.0322Z" fill="#FEFEFE"/>
<path d="M14.1266 5.29478C14.1266 5.38865 14.2008 5.46465 14.2923 5.46465C14.3838 5.46465 14.4579 5.38865 14.4579 5.29478C14.4579 5.09489 14.3054 4.77194 14.2748 4.70921C14.2339 4.62545 14.1345 4.59162 14.0526 4.63326C13.9707 4.67524 13.9375 4.77726 13.9785 4.86117C14.0382 4.98374 14.1266 5.20618 14.1266 5.29478Z" fill="#FEFEFE"/>
<path d="M13.3731 9.0463C13.2919 9.00383 13.1922 9.03751 13.1508 9.12113C13.133 9.15677 13.1055 9.19645 13.0822 9.22198C13.0749 9.15447 13.0924 9.0196 13.1258 8.90782C13.148 8.83318 13.1179 8.75259 13.0527 8.71241C12.9878 8.67214 12.9041 8.68259 12.8504 8.7378L12.5192 9.07749C12.4545 9.14383 12.4545 9.25132 12.5192 9.31766C12.5839 9.384 12.6887 9.384 12.7533 9.31766L12.7618 9.30902C12.7761 9.37721 12.8035 9.4394 12.8504 9.48753C12.9125 9.55123 12.9875 9.58491 13.0656 9.58491C13.0807 9.58491 13.0959 9.58355 13.1111 9.58111C13.2987 9.54991 13.4155 9.33777 13.4468 9.27353C13.4875 9.18972 13.4545 9.08843 13.3731 9.0463Z" fill="#FEFEFE"/>
<path d="M13.3089 7.67953H12.1427C12.1531 7.63726 12.1637 7.59689 12.1746 7.55862C12.6397 7.45938 12.9161 7.30527 12.9973 7.09967C13.0254 7.02835 13.0548 6.88421 12.9351 6.71848C12.8272 6.56916 12.6749 6.50219 12.5168 6.53533C12.2816 6.58424 12.0722 6.84432 11.9218 7.26071C11.4547 7.34281 11.1557 7.51493 10.9664 7.68485C10.8992 6.98876 10.636 6.57526 10.6232 6.55559C10.5725 6.47744 10.4697 6.45635 10.3938 6.50844C10.3177 6.56052 10.2972 6.66586 10.3478 6.74396C10.3508 6.7486 10.651 7.21985 10.651 8.00863C10.651 8.78394 10.0487 9.36751 9.65818 9.36751C9.47239 9.36751 9.39103 9.14082 9.35532 8.94908C9.73774 8.67397 10.0752 8.3556 10.1497 8.04973C10.2505 7.63584 10.1236 7.3308 10.0396 7.12896C10.0357 7.11968 10.0316 7.10973 10.0274 7.09943C10.0309 7.10275 10.0343 7.10621 10.0377 7.10953C10.1022 7.17587 10.207 7.17587 10.2716 7.10953C10.3362 7.04319 10.3362 6.93566 10.2716 6.86937C10.1749 6.76998 9.98705 6.61387 9.81629 6.68719C9.74416 6.7179 9.65813 6.79517 9.65813 6.9894C9.65813 7.07717 9.69385 7.16288 9.73522 7.26242C9.80973 7.44142 9.90241 7.6642 9.82856 7.96738C9.78486 8.14682 9.57021 8.36449 9.28694 8.58063C9.25656 8.54334 9.21271 8.5183 9.16174 8.5183H9.16145C9.07015 8.51844 8.99621 8.5943 8.99621 8.68802C8.99621 8.71858 8.99754 8.75124 8.99944 8.78477C8.64532 9.0202 8.2446 9.23811 7.93484 9.38269C7.85168 9.42155 7.81497 9.5222 7.85277 9.60763C7.88049 9.67016 7.9406 9.70716 8.00346 9.70716C8.02638 9.70716 8.04968 9.70238 8.07184 9.69193C8.16485 9.64853 8.60647 9.43732 9.06012 9.14873C9.14367 9.4399 9.3207 9.70721 9.65809 9.70721C10.0551 9.70721 10.5054 9.374 10.7653 8.87654C10.7967 8.93341 10.8327 8.98789 10.8757 9.0387C11.2922 9.53172 12.1057 9.53733 12.1402 9.53733C12.2293 9.53733 12.3023 9.46499 12.3056 9.37361C12.3087 9.28219 12.2408 9.20457 12.152 9.19813C12.1507 9.19798 12.0188 9.18304 11.9455 9.09508C11.9012 9.04197 11.8835 8.96904 11.8913 8.872C11.9083 8.66269 12.566 8.50619 13.1457 8.49697C13.2148 8.49579 13.276 8.45084 13.2992 8.38401L13.4646 7.90632C13.4826 7.85438 13.4749 7.79649 13.4439 7.75158C13.4132 7.70638 13.3627 7.67953 13.3089 7.67953ZM12.5826 6.86839C12.5858 6.86776 12.59 6.86673 12.5952 6.86673C12.6111 6.86673 12.636 6.87469 12.6693 6.92082C12.6756 6.92946 12.6958 6.95894 12.6907 6.97192C12.6717 7.02001 12.5574 7.09947 12.3194 7.17148C12.4241 6.96177 12.5265 6.88001 12.5826 6.86839ZM11.5833 9.10128C11.4152 9.04519 11.2439 8.9563 11.1253 8.81548C10.995 8.66074 10.9468 8.46499 10.9784 8.21731C10.9832 8.20428 10.994 8.17865 11.0129 8.14531C11.2459 8.12339 11.8685 8.2177 11.9116 8.40066C11.7196 8.50126 11.5781 8.64272 11.5618 8.84384C11.5536 8.94474 11.5636 9.03016 11.5833 9.10128Z" fill="#FEFEFE"/>
<path d="M15.1134 5.2413L14.9477 4.73169C14.921 4.64978 14.8381 4.60082 14.756 4.61937C14.6734 4.63748 14.6174 4.71621 14.6258 4.80232C14.7401 5.97444 14.9563 8.26024 14.9563 8.52237C14.9563 8.75775 14.548 9.22119 13.8885 9.55947C13.8067 9.60145 13.7735 9.70343 13.8144 9.78739C13.8435 9.84694 13.9019 9.88126 13.9627 9.88126C13.9876 9.88126 14.0129 9.87545 14.0366 9.86334C14.6391 9.55435 15.2875 9.00295 15.2875 8.52237C15.2875 8.27137 15.1183 6.46565 15.0213 5.4513C15.0998 5.41693 15.1408 5.32595 15.1134 5.2413Z" fill="#FEFEFE"/>
<path d="M16.4944 6.76473C16.5263 6.79743 16.5687 6.81452 16.6116 6.81452C16.6396 6.81452 16.6678 6.80724 16.6934 6.79226C16.7582 6.75443 16.7903 6.67681 16.772 6.60266C16.7424 6.48326 16.7325 6.33394 16.7482 6.27293C16.8311 6.27556 16.9081 6.21503 16.9203 6.12726C16.9332 6.03437 16.8703 5.94827 16.7798 5.93504C16.6703 5.91981 16.5742 5.95276 16.5071 6.02939C16.4636 6.07918 16.4377 6.14303 16.4236 6.21171L16.2319 6.01499C16.1672 5.94866 16.0623 5.94866 15.9977 6.01499C15.9331 6.08133 15.9331 6.18882 15.9977 6.25516L16.4944 6.76473Z" fill="#FEFEFE"/>
<path d="M16.864 6.95005L16.243 7.40656C16.1687 7.46113 16.1515 7.5673 16.2048 7.6436C16.2372 7.68988 16.288 7.71443 16.3396 7.71443C16.373 7.71443 16.4067 7.70413 16.436 7.6826L17.0569 7.22609C17.1312 7.17152 17.1483 7.06535 17.0951 6.98905C17.0417 6.91271 16.9381 6.89494 16.864 6.95005Z" fill="#FEFEFE"/>
<path d="M16.8103 7.58641C16.7582 7.65524 16.7656 7.75209 16.8248 7.81169C16.8319 7.82399 16.8642 7.88896 16.8583 8.0562C16.8551 8.15007 16.9266 8.2287 17.018 8.23202C17.02 8.23217 17.022 8.23217 17.024 8.23217C17.1128 8.23217 17.1862 8.15997 17.1894 8.06845C17.2015 7.72177 17.0909 7.59505 17.0428 7.55668C16.9707 7.49884 16.8664 7.51246 16.8103 7.58641Z" fill="#FEFEFE"/>
<path d="M18.2541 8.84054C18.3455 8.84054 18.4196 8.76458 18.4196 8.67066C18.4196 8.42005 18.4071 8.14025 18.3866 7.84918C18.5507 8.12517 18.687 8.37964 18.7744 8.5889C18.8013 8.65343 18.8623 8.6919 18.9266 8.6919C18.9484 8.6919 18.9705 8.6876 18.9917 8.67813C19.0757 8.64113 19.1147 8.54126 19.0786 8.4552C18.9271 8.09227 18.6439 7.61155 18.3213 7.11526C18.2564 6.49181 18.1716 5.8809 18.1057 5.4427C18.1407 5.44636 18.1771 5.43758 18.209 5.41629C18.2613 5.38193 18.2858 5.32223 18.2823 5.26282C18.2865 5.27952 18.2911 5.29626 18.3006 5.31164C18.3017 5.3133 18.4081 5.49357 18.3609 5.72753C18.3424 5.81925 18.4 5.90917 18.4895 5.9282C18.5008 5.9305 18.5121 5.93172 18.5232 5.93172C18.6 5.93172 18.6688 5.87646 18.6851 5.79621C18.7598 5.42513 18.5872 5.14118 18.5799 5.12922C18.5308 5.05024 18.4284 5.02705 18.3513 5.07713C18.2988 5.11145 18.274 5.1712 18.2774 5.23075C18.2731 5.21396 18.2684 5.19707 18.2587 5.18169L17.9794 4.73583C17.9367 4.66778 17.8532 4.64025 17.78 4.66949C17.7065 4.69902 17.6635 4.77747 17.6771 4.85708C17.6795 4.87046 17.8059 5.61584 17.9181 6.51426C17.7912 6.33038 17.6643 6.1505 17.5413 5.97897C17.5213 5.72197 17.5012 5.48439 17.4838 5.28791C17.493 5.28513 17.502 5.28147 17.5108 5.27698C17.5925 5.235 17.6257 5.13298 17.5848 5.04907L17.4193 4.70937C17.3836 4.63605 17.3021 4.59954 17.2253 4.62209C17.1486 4.64499 17.0986 4.7206 17.1066 4.80221C17.1263 5.00494 17.1469 5.22934 17.167 5.46506C17.0623 5.3234 16.9654 5.1938 16.8826 5.08402C16.8988 5.06976 16.9126 5.05204 16.9227 5.0311C16.9636 4.94719 16.9305 4.84517 16.8487 4.80319L16.5177 4.63332C16.4483 4.59783 16.364 4.61643 16.315 4.67847C16.2662 4.74051 16.2659 4.82906 16.3145 4.89145C16.3234 4.90287 16.731 5.42713 17.2184 6.10379C17.303 7.22607 17.3593 8.39355 17.2798 8.6383C17.2652 8.68311 17.2398 8.73583 17.216 8.73769C17.116 8.75194 16.8772 8.52242 16.7573 8.27639C16.6882 8.13474 16.5888 8.12 16.5356 8.12244C16.3577 8.13371 16.2883 8.33458 16.1622 8.69922C16.0718 8.96047 15.9594 9.28528 15.8333 9.41815C15.7649 9.33243 15.6766 9.04492 15.6275 8.7494C15.6505 8.81471 15.7101 8.86197 15.7817 8.86197C15.8731 8.86197 15.9473 8.78601 15.9473 8.69214C15.9473 8.4388 15.7746 6.50963 15.6782 5.45237C15.7588 5.41917 15.801 5.32682 15.7733 5.2412L15.6077 4.73158C15.5812 4.64967 15.4995 4.60135 15.4164 4.61911C15.3341 4.63703 15.2779 4.71547 15.2859 4.80143C15.3984 6.01319 15.6093 8.35372 15.6159 8.67677C15.6155 8.67384 15.6149 8.67101 15.6145 8.66808C15.6017 8.57518 15.5172 8.51148 15.4272 8.52393C15.3367 8.53735 15.2739 8.62331 15.2868 8.71616C15.3352 9.06337 15.4587 9.66032 15.7431 9.75755C15.7656 9.76536 15.7958 9.77229 15.8313 9.77229C15.8966 9.77229 15.9795 9.74857 16.0642 9.66149C16.2445 9.47653 16.3665 9.12385 16.4741 8.81286C16.4985 8.74252 16.5272 8.65924 16.5544 8.58792C16.7062 8.81549 16.9712 9.09881 17.2396 9.07665C17.3339 9.06972 17.5056 9.01763 17.5939 8.74589C17.6818 8.47492 17.6471 7.52993 17.5878 6.62517C17.7272 6.82574 17.8668 7.03115 18 7.23397C18.0517 7.74266 18.0886 8.25228 18.0886 8.67086C18.0886 8.76453 18.1627 8.84054 18.2541 8.84054Z" fill="#FEFEFE"/>
<path d="M19.5116 7.94843C19.3942 7.05201 19.2308 6.01359 19.1273 5.37628C19.174 5.38809 19.2249 5.37843 19.266 5.34606C19.3388 5.2892 19.3527 5.18254 19.2972 5.10805L18.997 4.7046C18.9507 4.64256 18.869 4.62069 18.7991 4.65203C18.7291 4.68337 18.6891 4.75971 18.7022 4.83684C18.7052 4.85422 19.0005 6.59794 19.1832 7.99353C19.2529 8.52682 19.1511 9.00344 18.9105 9.26816C18.7559 9.43823 18.551 9.51516 18.303 9.50037C18.212 9.49539 18.133 9.56568 18.1273 9.65926C18.1216 9.75283 18.1908 9.83347 18.2822 9.83938C18.3101 9.84123 18.3377 9.84201 18.365 9.84201C18.6773 9.84201 18.9484 9.72462 19.1527 9.49963C19.4649 9.15637 19.5957 8.59087 19.5116 7.94843Z" fill="#FEFEFE"/>
<path d="M17.6842 9.0634C17.6234 9.1312 17.628 9.23805 17.6924 9.30205C17.7013 9.31098 17.7121 9.3286 17.7121 9.33724C17.7122 9.34203 17.7055 9.35633 17.6871 9.37522C17.6225 9.44156 17.6225 9.54905 17.6871 9.61538C17.7194 9.64858 17.7618 9.66518 17.8041 9.66518C17.8464 9.66518 17.8888 9.64858 17.9211 9.61538C18.026 9.5077 18.0453 9.39841 18.0429 9.32558C18.0378 9.16884 17.9338 9.06765 17.9131 9.0489C17.8455 8.98857 17.7449 8.99584 17.6842 9.0634Z" fill="#FEFEFE"/>
<path d="M17.1036 12.7902H16.9381H15.9453V12.6203C15.9453 12.5265 15.8712 12.4504 15.7798 12.4504C15.6884 12.4504 15.6143 12.5265 15.6143 12.6203V12.7902H6.84375C7.17469 13.1299 7.83661 13.2998 8.33308 13.2998C8.68913 13.2998 13.1304 13.2998 15.6143 13.2998V13.6395C15.6143 13.7334 15.6884 13.8094 15.7798 13.8094H17.1036C17.3774 13.8094 17.6001 13.5808 17.6001 13.2998C17.6 13.0188 17.3774 12.7902 17.1036 12.7902ZM17.1036 13.4696H15.9452V13.2998C16.7427 13.2998 17.269 13.2998 17.269 13.2998L17.2393 13.2083C17.2565 13.2351 17.269 13.2653 17.269 13.2998C17.269 13.3935 17.1948 13.4696 17.1036 13.4696Z" fill="#FEFEFE"/>
</svg>
