<svg width="4" height="17" viewBox="0 0 4 17" fill="none" xmlns="http://www.w3.org/2000/svg">
<path d="M-8.74228e-08 14.7236C-3.93402e-08 15.8236 0.9 16.7236 2 16.7236C3.1 16.7236 4 15.8236 4 14.7236C4 13.6236 3.1 12.7236 2 12.7236C0.9 12.7236 -1.35505e-07 13.6236 -8.74228e-08 14.7236ZM-6.11959e-07 2.72363C-5.63877e-07 3.82363 0.899999 4.72363 2 4.72363C3.1 4.72363 4 3.82363 4 2.72363C4 1.62363 3.1 0.723633 2 0.723633C0.899999 0.723633 -6.60042e-07 1.62363 -6.11959e-07 2.72363ZM-3.49691e-07 8.72363C-3.01609e-07 9.82363 0.9 10.7236 2 10.7236C3.1 10.7236 4 9.82363 4 8.72363C4 7.62363 3.1 6.72363 2 6.72363C0.9 6.72363 -3.97774e-07 7.62363 -3.49691e-07 8.72363Z" fill="black"/>
</svg>
