<svg width="36" height="12" viewBox="0 0 36 12" fill="none" xmlns="http://www.w3.org/2000/svg">
<path d="M23.1649 0.452637C20.7474 0.452637 18.5769 1.70311 18.5769 3.99781C18.5769 6.64057 22.411 6.82105 22.411 8.13598C22.411 8.69032 21.7612 9.19309 20.6694 9.19309C19.1098 9.19309 17.9401 8.49695 17.9401 8.49695L17.4462 10.8174C17.4462 10.8174 18.7849 11.4104 20.5785 11.4104C23.2298 11.4104 25.3093 10.1084 25.3093 7.76213C25.3093 4.97756 21.4623 4.79708 21.4623 3.57239C21.4623 3.13407 21.9951 2.65709 23.0869 2.65709C24.3216 2.65709 25.3353 3.15986 25.3353 3.15986L25.8292 0.916731C25.8162 0.916731 24.7115 0.452637 23.1649 0.452637ZM1.01811 0.620227L0.953125 0.955406C0.953125 0.955406 1.96688 1.13589 2.88967 1.50974C4.07239 1.93516 4.15037 2.1801 4.35832 2.9407L6.5288 11.2299H9.44011L13.8981 0.620227H10.9997L8.12742 7.83948L6.9577 1.71601C6.85373 1.01986 6.30786 0.620227 5.63202 0.620227H1.01811ZM15.0678 0.620227L12.7933 11.2299H15.5617L17.8231 0.620227H15.0678ZM30.4821 0.620227C29.8193 0.620227 29.4684 0.968298 29.2084 1.58709L25.1534 11.2299H28.0517L28.6106 9.61851H32.1457L32.4836 11.2299H35.044L32.8216 0.620227H30.4821ZM30.859 3.49504L31.7168 7.47852H29.4164L30.859 3.49504Z" fill="#1434CB"/>
</svg>
