<svg width="42" height="70" viewBox="0 0 42 70" fill="none" xmlns="http://www.w3.org/2000/svg">
<g opacity="0.3">
<mask id="mask0_484_11304" style="mask-type:alpha" maskUnits="userSpaceOnUse" x="0" y="0" width="101" height="101">
<circle cx="50.5" cy="50.5" r="50.5" fill="#D9D9D9"/>
</mask>
<g mask="url(#mask0_484_11304)">
<circle cx="0.517955" cy="8.30626" r="0.875377" transform="rotate(-90 0.517955 8.30626)" fill="white"/>
<circle cx="6.64491" cy="8.30626" r="0.875377" transform="rotate(-90 6.64491 8.30626)" fill="white"/>
<circle cx="0.517955" cy="2.17931" r="0.875377" transform="rotate(-90 0.517955 2.17931)" fill="white"/>
<circle cx="6.64491" cy="2.17931" r="0.875377" transform="rotate(-90 6.64491 2.17931)" fill="white"/>
<circle cx="12.7738" cy="8.30626" r="0.875377" transform="rotate(-90 12.7738 8.30626)" fill="white"/>
<circle cx="25.0297" cy="8.30626" r="0.875377" transform="rotate(-90 25.0297 8.30626)" fill="white"/>
<circle cx="31.1566" cy="8.30626" r="0.875377" transform="rotate(-90 31.1566 8.30626)" fill="white"/>
<circle cx="37.2855" cy="8.30626" r="0.875377" transform="rotate(-90 37.2855 8.30626)" fill="white"/>
<circle cx="18.9027" cy="8.30626" r="0.875377" transform="rotate(-90 18.9027 8.30626)" fill="white"/>
<circle cx="37.2855" cy="2.17931" r="0.875377" transform="rotate(-90 37.2855 2.17931)" fill="white"/>
<circle cx="31.1566" cy="2.17931" r="0.875377" transform="rotate(-90 31.1566 2.17931)" fill="white"/>
<circle cx="25.0297" cy="2.17931" r="0.875377" transform="rotate(-90 25.0297 2.17931)" fill="white"/>
<circle cx="18.9027" cy="2.17931" r="0.875377" transform="rotate(-90 18.9027 2.17931)" fill="white"/>
<circle cx="12.7738" cy="2.17931" r="0.875377" transform="rotate(-90 12.7738 2.17931)" fill="white"/>
<circle cx="0.517955" cy="32.818" r="0.875377" transform="rotate(-90 0.517955 32.818)" fill="white"/>
<circle cx="6.64491" cy="32.818" r="0.875377" transform="rotate(-90 6.64491 32.818)" fill="white"/>
<circle cx="0.517955" cy="38.9469" r="0.875377" transform="rotate(-90 0.517955 38.9469)" fill="white"/>
<circle cx="0.517955" cy="45.0738" r="0.875377" transform="rotate(-90 0.517955 45.0738)" fill="white"/>
<circle cx="0.517955" cy="51.2008" r="0.875377" transform="rotate(-90 0.517955 51.2008)" fill="white"/>
<circle cx="0.517955" cy="57.3277" r="0.875377" transform="rotate(-90 0.517955 57.3277)" fill="white"/>
<circle cx="0.517955" cy="63.4547" r="0.875377" transform="rotate(-90 0.517955 63.4547)" fill="white"/>
<circle cx="0.517955" cy="69.5836" r="0.875377" transform="rotate(-90 0.517955 69.5836)" fill="white"/>
<circle cx="6.64491" cy="38.9469" r="0.875377" transform="rotate(-90 6.64491 38.9469)" fill="white"/>
<circle cx="6.64491" cy="45.0738" r="0.875377" transform="rotate(-90 6.64491 45.0738)" fill="white"/>
<circle cx="6.64491" cy="51.2008" r="0.875377" transform="rotate(-90 6.64491 51.2008)" fill="white"/>
<circle cx="6.64491" cy="57.3277" r="0.875377" transform="rotate(-90 6.64491 57.3277)" fill="white"/>
<circle cx="6.64491" cy="63.4547" r="0.875377" transform="rotate(-90 6.64491 63.4547)" fill="white"/>
<circle cx="6.64491" cy="69.5836" r="0.875377" transform="rotate(-90 6.64491 69.5836)" fill="white"/>
<circle cx="0.517955" cy="26.691" r="0.875377" transform="rotate(-90 0.517955 26.691)" fill="white"/>
<circle cx="6.64491" cy="26.691" r="0.875377" transform="rotate(-90 6.64491 26.691)" fill="white"/>
<circle cx="0.517955" cy="20.5621" r="0.875377" transform="rotate(-90 0.517955 20.5621)" fill="white"/>
<circle cx="6.64491" cy="20.5621" r="0.875377" transform="rotate(-90 6.64491 20.5621)" fill="white"/>
<circle cx="12.7738" cy="32.818" r="0.875377" transform="rotate(-90 12.7738 32.818)" fill="white"/>
<circle cx="25.0297" cy="32.818" r="0.875377" transform="rotate(-90 25.0297 32.818)" fill="white"/>
<circle cx="31.1566" cy="32.818" r="0.875377" transform="rotate(-90 31.1566 32.818)" fill="white"/>
<circle cx="37.2855" cy="32.818" r="0.875377" transform="rotate(-90 37.2855 32.818)" fill="white"/>
<circle cx="18.9027" cy="32.818" r="0.875377" transform="rotate(-90 18.9027 32.818)" fill="white"/>
<circle cx="0.517955" cy="14.4352" r="0.875377" transform="rotate(-90 0.517955 14.4352)" fill="white"/>
<circle cx="6.64491" cy="14.4352" r="0.875377" transform="rotate(-90 6.64491 14.4352)" fill="white"/>
<circle cx="12.7738" cy="38.9469" r="0.875377" transform="rotate(-90 12.7738 38.9469)" fill="white"/>
<circle cx="12.7738" cy="45.0738" r="0.875377" transform="rotate(-90 12.7738 45.0738)" fill="white"/>
<circle cx="12.7738" cy="51.2008" r="0.875377" transform="rotate(-90 12.7738 51.2008)" fill="white"/>
<circle cx="12.7738" cy="57.3277" r="0.875377" transform="rotate(-90 12.7738 57.3277)" fill="white"/>
<circle cx="12.7738" cy="63.4547" r="0.875377" transform="rotate(-90 12.7738 63.4547)" fill="white"/>
<circle cx="12.7738" cy="69.5836" r="0.875377" transform="rotate(-90 12.7738 69.5836)" fill="white"/>
<circle cx="25.0297" cy="38.9469" r="0.875377" transform="rotate(-90 25.0297 38.9469)" fill="white"/>
<circle cx="25.0297" cy="45.0738" r="0.875377" transform="rotate(-90 25.0297 45.0738)" fill="white"/>
<circle cx="25.0297" cy="51.2008" r="0.875377" transform="rotate(-90 25.0297 51.2008)" fill="white"/>
<circle cx="25.0297" cy="57.3277" r="0.875377" transform="rotate(-90 25.0297 57.3277)" fill="white"/>
<circle cx="25.0297" cy="63.4547" r="0.875377" transform="rotate(-90 25.0297 63.4547)" fill="white"/>
<circle cx="25.0297" cy="69.5836" r="0.875377" transform="rotate(-90 25.0297 69.5836)" fill="white"/>
<circle cx="31.1566" cy="38.9469" r="0.875377" transform="rotate(-90 31.1566 38.9469)" fill="white"/>
<circle cx="31.1566" cy="45.0738" r="0.875377" transform="rotate(-90 31.1566 45.0738)" fill="white"/>
<circle cx="31.1566" cy="51.2008" r="0.875377" transform="rotate(-90 31.1566 51.2008)" fill="white"/>
<circle cx="31.1566" cy="57.3277" r="0.875377" transform="rotate(-90 31.1566 57.3277)" fill="white"/>
<circle cx="31.1566" cy="63.4547" r="0.875377" transform="rotate(-90 31.1566 63.4547)" fill="white"/>
<circle cx="31.1566" cy="69.5836" r="0.875377" transform="rotate(-90 31.1566 69.5836)" fill="white"/>
<circle cx="37.2855" cy="38.9469" r="0.875377" transform="rotate(-90 37.2855 38.9469)" fill="white"/>
<circle cx="37.2855" cy="45.0738" r="0.875377" transform="rotate(-90 37.2855 45.0738)" fill="white"/>
<circle cx="37.2855" cy="51.2008" r="0.875377" transform="rotate(-90 37.2855 51.2008)" fill="white"/>
<circle cx="37.2855" cy="57.3277" r="0.875377" transform="rotate(-90 37.2855 57.3277)" fill="white"/>
<circle cx="37.2855" cy="63.4547" r="0.875377" transform="rotate(-90 37.2855 63.4547)" fill="white"/>
<circle cx="37.2855" cy="69.5836" r="0.875377" transform="rotate(-90 37.2855 69.5836)" fill="white"/>
<circle cx="18.9027" cy="38.9469" r="0.875377" transform="rotate(-90 18.9027 38.9469)" fill="white"/>
<circle cx="18.9027" cy="45.0738" r="0.875377" transform="rotate(-90 18.9027 45.0738)" fill="white"/>
<circle cx="18.9027" cy="51.2008" r="0.875377" transform="rotate(-90 18.9027 51.2008)" fill="white"/>
<circle cx="18.9027" cy="57.3277" r="0.875377" transform="rotate(-90 18.9027 57.3277)" fill="white"/>
<circle cx="18.9027" cy="63.4547" r="0.875377" transform="rotate(-90 18.9027 63.4547)" fill="white"/>
<circle cx="18.9027" cy="69.5836" r="0.875377" transform="rotate(-90 18.9027 69.5836)" fill="white"/>
<circle cx="37.2855" cy="26.691" r="0.875377" transform="rotate(-90 37.2855 26.691)" fill="white"/>
<circle cx="31.1566" cy="26.691" r="0.875377" transform="rotate(-90 31.1566 26.691)" fill="white"/>
<circle cx="25.0297" cy="26.691" r="0.875377" transform="rotate(-90 25.0297 26.691)" fill="white"/>
<circle cx="18.9027" cy="26.691" r="0.875377" transform="rotate(-90 18.9027 26.691)" fill="white"/>
<circle cx="12.7738" cy="26.691" r="0.875377" transform="rotate(-90 12.7738 26.691)" fill="white"/>
<circle cx="12.7738" cy="20.5621" r="0.875377" transform="rotate(-90 12.7738 20.5621)" fill="white"/>
<circle cx="37.2855" cy="20.5621" r="0.875377" transform="rotate(-90 37.2855 20.5621)" fill="white"/>
<circle cx="25.0297" cy="20.5621" r="0.875377" transform="rotate(-90 25.0297 20.5621)" fill="white"/>
<circle cx="18.9008" cy="20.5621" r="0.875377" transform="rotate(-90 18.9008 20.5621)" fill="white"/>
<circle cx="31.1566" cy="20.5621" r="0.875377" transform="rotate(-90 31.1566 20.5621)" fill="white"/>
<circle cx="37.2855" cy="14.4352" r="0.875377" transform="rotate(-90 37.2855 14.4352)" fill="white"/>
<circle cx="18.9008" cy="14.4352" r="0.875377" transform="rotate(-90 18.9008 14.4352)" fill="white"/>
<circle cx="25.0297" cy="14.4352" r="0.875377" transform="rotate(-90 25.0297 14.4352)" fill="white"/>
<circle cx="31.1566" cy="14.4352" r="0.875377" transform="rotate(-90 31.1566 14.4352)" fill="white"/>
<circle cx="12.7738" cy="14.4352" r="0.875377" transform="rotate(-90 12.7738 14.4352)" fill="white"/>
</g>
</g>
</svg>
