<svg width="125" height="43" viewBox="0 0 125 43" fill="none" xmlns="http://www.w3.org/2000/svg">
<g style="mix-blend-mode:screen" opacity="0.1">
<path d="M122.56 79.4399L180.699 21.3006C183.526 18.4657 185.142 15.3892 185.344 12.46C185.547 9.53076 184.326 6.8804 181.836 4.84397C179.346 2.80755 175.699 1.47651 171.356 1.01913C167.013 0.561757 162.169 0.998586 157.436 2.27439L20.253 39.128C16.932 40.0176 13.7519 41.2953 10.9133 42.8805L10.1837 43.3211L9.45406 43.7617C8.8041 44.1932 8.18092 44.6396 7.58689 45.0991L7.19669 45.4893C6.46497 46.0531 5.78352 46.638 5.15714 47.2398C3.80927 48.5477 2.71344 49.9191 1.90096 51.3148L1.59438 51.6214C1.28039 52.1736 1.01546 52.7281 0.800974 53.2818L0.593076 53.8269C0.424888 54.3258 0.297868 54.8226 0.212571 55.3152L0.0806525 55.8806C0.00899562 56.3898 -0.0106511 56.892 0.0218016 57.3844L0.0114733 57.8764C0.061777 58.5128 0.179965 59.1346 0.365326 59.7382C0.549652 60.2968 0.799053 60.8358 1.11185 61.3518L1.50927 61.9177L2.32186 62.9835C2.50907 63.1844 2.72399 63.3719 2.96495 63.5446C3.29156 63.8441 3.65616 64.1539 4.04862 64.4357L4.78545 64.9512C5.39324 65.1141 5.77807 65.4999 6.30225 65.7464C6.6054 65.8443 6.92247 65.9292 7.25192 66.0008C8.12071 66.3611 9.04178 66.6787 10.0097 66.9518L89.099 88.1437C94.1853 89.5083 100.528 89.3623 106.778 87.7367C113.028 86.111 118.69 83.1342 122.56 79.4399Z" fill="#FFD4C9"/>
</g>
</svg>
