<svg width="14" height="12" viewBox="0 0 14 12" fill="none" xmlns="http://www.w3.org/2000/svg">
<path d="M7.9941 0.936577L9.10457 2.98991C9.256 3.27574 9.6598 3.54991 10.0005 3.60241L12.0132 3.91158C13.3004 4.10991 13.6032 4.97324 12.6757 5.82491L11.111 7.27158C10.846 7.51658 10.7009 7.98908 10.7829 8.32741L11.2309 10.1182C11.5842 11.5357 10.7703 12.0841 9.41373 11.3432L7.5272 10.3107C7.18649 10.1241 6.62494 10.1241 6.27792 10.3107L4.39139 11.3432C3.04116 12.0841 2.22092 11.5299 2.57425 10.1182L3.02223 8.32741C3.10425 7.98908 2.95913 7.51658 2.69413 7.27158L1.12938 5.82491C0.208198 4.97324 0.504744 4.10991 1.79188 3.91158L3.8046 3.60241C4.13901 3.54991 4.54281 3.27574 4.69424 2.98991L5.80471 0.936577C6.41042 -0.17759 7.3947 -0.17759 7.9941 0.936577Z" fill="#FFD016"/>
</svg>
